<svg xmlns="http://www.w3.org/2000/svg" viewBox="0 0 60 60"><defs><style>.cls-1{fill:#32373c;}</style></defs><title>logo_wp</title><g id="Layer_2" data-name="Layer2"><g id="W_Mark" data-name="W Mark"><g id="W_Mark-2" data-name="W Mark"><path class="cls-1" d="M30,1.8A28.05,28.05,0,0,1,41,4,28.27,28.27,0,0,1,56,19a28.26,28.26,0,0,1,0,22A28.27,28.27,0,0,1,41,56a28.26,28.26,0,0,1-22,0A28.27,28.27,0,0,1,4,41,28.26,28.26,0,0,1,4,19,28.27,28.27,0,0,1,19,4,28.05,28.05,0,0,1,30,1.8M30,0A30,30,0,1,0,60,30,30,30,0,0,0,30,0Z"/><path class="cls-1" d="M5,30A25,25,0,0,0,19.09,52.5L7.16,19.83A25,25,0,0,0,5,30Zm41.88-1.26a13.21,13.21,0,0,0-2.06-6.9C43.55,19.78,42.36,18,42.36,16a4.33,4.33,0,0,1,4.2-4.44l.32,0A25,25,0,0,0,9.11,16.27l1.61,0c2.62,0,6.66-.32,6.66-.32A1,1,0,0,1,17.54,18s-1.35.16-2.86.24l9.11,27.08L29.26,29l-3.9-10.67C24,18.2,22.74,18,22.74,18A1,1,0,0,1,22.9,16s4.13.32,6.58.32c2.62,0,6.67-.32,6.67-.32A1,1,0,0,1,36.31,18s-1.36.16-2.86.24l9,26.87L45.06,37C46.21,33.41,46.88,30.88,46.88,28.74ZM30.44,32.19,22.94,54a25,25,0,0,0,15.36-.4,2.71,2.71,0,0,1-.18-.34ZM51.94,18a18.68,18.68,0,0,1,.17,2.57,23.58,23.58,0,0,1-1.91,9L42.57,51.61A25,25,0,0,0,51.94,18Z"/></g></g></g></svg>
