<svg xmlns="http://www.w3.org/2000/svg" viewBox="0 0 421 200.04"><defs><style>.a{fill:#fff;}</style></defs><title>takoyaki_white</title><path class="a" d="M202.27,96c-5-18.73-10.13-38.09-3.11-62.08A208.76,208.76,0,0,1,212.61.07,100.05,100.05,0,0,0,116.1,63L24.51,5.48a16,16,0,1,0-17,27.09L109.05,96.39A100,100,0,0,0,180.92,196c2.32.68,4.64,1.26,7,1.76a228.77,228.77,0,0,0,17.33-42C212,132.55,207.27,114.8,202.27,96Z" transform="translate(0 0)"/><path class="a" d="M418.55,10.51a16,16,0,0,0-22.06-5l-94,59.06A99.87,99.87,0,0,0,237.08,4q-3.75-1.09-7.52-1.89a197.93,197.93,0,0,0-15,36.29c-5.77,19.69-1.4,36.1,3.22,53.46,5.09,19.15,10.86,40.85,2.83,68.31A241.8,241.8,0,0,1,204.79,200,100.1,100.1,0,0,0,309,98.24l104.5-65.67A16,16,0,0,0,418.55,10.51Z" transform="translate(0 0)"/></svg>