<svg xmlns="http://www.w3.org/2000/svg" viewBox="0 0 421 200.04"><defs><style>.a{fill:#d8836e;}</style></defs><title>icon_takoyaki_subcolor</title><path class="a" d="M164,128a15.93,15.93,0,0,1-8.5-2.45l-148-93a16,16,0,1,1,17-27.09l148,93A16,16,0,0,1,164,128Z"/><path class="a" d="M257,128a16,16,0,0,1-8.53-29.54l148-93a16,16,0,1,1,17,27.09l-148,93A15.9,15.9,0,0,1,257,128Z"/><path class="a" d="M187.88,197.76a228.77,228.77,0,0,0,17.33-42c6.78-23.17,2.06-40.92-2.94-59.7s-10.13-38.09-3.11-62.08A208.76,208.76,0,0,1,212.61.07,100,100,0,0,0,180.92,196C183.24,196.68,185.56,197.26,187.88,197.76Z"/><path class="a" d="M237.08,4q-3.75-1.09-7.52-1.89a197.93,197.93,0,0,0-15,36.29c-5.77,19.69-1.4,36.1,3.22,53.46,5.09,19.15,10.86,40.85,2.83,68.31A241.8,241.8,0,0,1,204.79,200,100,100,0,0,0,237.08,4Z"/></svg>