<?xml version="1.0" encoding="utf-8"?>
<!-- Generator: Adobe Illustrator 23.0.0, SVG Export Plug-In . SVG Version: 6.00 Build 0)  -->
<svg version="1.1" id="レイヤー_1" xmlns="http://www.w3.org/2000/svg" xmlns:xlink="http://www.w3.org/1999/xlink" x="0px"
	 y="0px" viewBox="0 0 60 60" style="enable-background:new 0 0 60 60;" xml:space="preserve">
<style type="text/css">
	.st0{fill:#FFFFFF;}
</style>
<title>logo_wp</title>
<g id="Layer_2">
	<g id="W_Mark">
		<g id="W_Mark-2">
			<path class="st0" d="M30,1.8c3.8,0,7.5,0.7,11,2.2c6.8,2.9,12.1,8.2,15,15c3,7,3,15,0,22c-2.9,6.8-8.2,12.1-15,15c-7,3-15,3-22,0
				c-6.8-2.9-12.1-8.2-15-15c-3-7-3-15,0-22c2.9-6.8,8.2-12.1,15-15C22.5,2.5,26.2,1.8,30,1.8 M30,0C13.4,0,0,13.4,0,30
				s13.4,30,30,30s30-13.4,30-30S46.6,0,30,0z"/>
			<path class="st0" d="M5,30c0,9.6,5.5,18.3,14.1,22.5L7.2,19.8C5.7,23,5,26.5,5,30z M46.9,28.7c0-2.4-0.7-4.8-2.1-6.9
				c-1.3-2.1-2.5-3.8-2.5-5.8c-0.1-2.4,1.8-4.4,4.2-4.4h0.3c-10.2-9.3-26-8.6-35.3,1.6c-0.9,1-1.7,2-2.4,3.1h1.6
				c2.6,0,6.7-0.3,6.7-0.3c0.6,0,1.1,0.4,1.1,0.9c0,0.6-0.4,1.1-0.9,1.1c0,0-1.4,0.2-2.9,0.2l9.1,27.1L29.3,29l-3.9-10.7
				C24,18.2,22.7,18,22.7,18c-0.6,0-1-0.5-0.9-1.1s0.5-1,1.1-0.9c0,0,4.1,0.3,6.6,0.3c2.6,0,6.7-0.3,6.7-0.3c0.6,0,1,0.4,1.1,0.9
				c0,0.6-0.4,1-0.9,1.1c0,0-1.4,0.2-2.9,0.2l9,26.9l2.6-8.1C46.2,33.4,46.9,30.9,46.9,28.7z M30.4,32.2L22.9,54
				c5,1.5,10.4,1.3,15.4-0.4c-0.1-0.1-0.1-0.2-0.2-0.3L30.4,32.2z M51.9,18c0.1,0.9,0.2,1.7,0.2,2.6c0,3.1-0.7,6.2-1.9,9l-7.6,22
				C54.3,44.8,58.4,29.9,51.9,18z"/>
		</g>
	</g>
</g>
</svg>
