<svg xmlns="http://www.w3.org/2000/svg" viewBox="0 0 280 129.96"><defs><style>.a{fill:#fff8e6;}.b{fill:#444;}.c{fill:#fff;}</style></defs><title>logo_lower</title><path class="a" d="M165.25,130a4.69,4.69,0,0,1-3.32-1.41l-.1,0a4.85,4.85,0,0,1-1.67.3,4.68,4.68,0,0,1-1.19-.16,5.85,5.85,0,0,1-1.51.2,5.35,5.35,0,0,1-3.68-1.39,4.51,4.51,0,0,1-3.22,1.35,4.59,4.59,0,0,1-1.95-.43,5.31,5.31,0,0,1-2.15.43,5.76,5.76,0,0,1-1.18-.12,6.17,6.17,0,0,1-1.36.16,5.65,5.65,0,0,1-1.66-.24,5.48,5.48,0,0,1-1.49.2,5.27,5.27,0,0,1-1.8-.3,4.75,4.75,0,0,1-1.66.3,4.57,4.57,0,0,1-1.05-.12,6,6,0,0,1-1.18.12,5.69,5.69,0,0,1-1.18-.12,6.19,6.19,0,0,1-1.37.16,5.76,5.76,0,0,1-2.69-.66,5.53,5.53,0,0,1-4.34.32,4.85,4.85,0,0,1-1.67.3,4.68,4.68,0,0,1-1.19-.16,5.85,5.85,0,0,1-1.51.2,5.65,5.65,0,0,1-2.56-.6,6.86,6.86,0,0,1-2.75.56,6.53,6.53,0,0,1-4.28-1.52,4.61,4.61,0,0,1-3.46,1.53,4.87,4.87,0,0,1-1.54-.25,8.47,8.47,0,0,1-2.19.28,6.83,6.83,0,0,1-2.95-.66,6.37,6.37,0,0,1-2.83.66,5.94,5.94,0,0,1-1.86-.29,5.44,5.44,0,0,1-1.67.25,5.33,5.33,0,0,1-1.71-.27,4.39,4.39,0,0,1-1.55.27,4.59,4.59,0,0,1-1.35-.2,4.71,4.71,0,0,1-1.36.2,4.63,4.63,0,0,1-1.5-.25,8.28,8.28,0,0,1-2.22.29,6.89,6.89,0,0,1-2.63-.52,7.17,7.17,0,0,1-2.67.48,6.75,6.75,0,0,1-2.45-.44,7.73,7.73,0,0,1-2.78.48,6.69,6.69,0,0,1-3.46-.94,8.34,8.34,0,0,1-3.63.81H65.18a4.58,4.58,0,0,1-2.65-.82,5.22,5.22,0,0,1-3,.91,5.31,5.31,0,0,1-1.8-.3,4.75,4.75,0,0,1-1.66.3,4.5,4.5,0,0,1-2.33-.64,8.79,8.79,0,0,1-3.39.64,7.86,7.86,0,0,1-8.14-8,8.42,8.42,0,0,1,3.21-6.63,4.93,4.93,0,0,1,2.93-1,4.52,4.52,0,0,1,1.38.21,7,7,0,0,1,1.74-.21A6.9,6.9,0,0,1,57,115.85l.11,0a5.94,5.94,0,0,1,2.65.11,6.62,6.62,0,0,1,5.56-2.76H67.5a8,8,0,0,1,6.16,2.63,6.19,6.19,0,0,1,1.07-.08,6.75,6.75,0,0,1,2.73.55,6.76,6.76,0,0,1,2.73-.55,6.09,6.09,0,0,1,2.47.5,6.69,6.69,0,0,1,2.6-.5,7,7,0,0,1,2.11.31,4.77,4.77,0,0,1,1.71-.31,4.53,4.53,0,0,1,1,.1,4.78,4.78,0,0,1,1-.1,5.51,5.51,0,0,1,1.3.15,3.29,3.29,0,0,1,.43-.09,5,5,0,0,1,5.21-4h.1a4.5,4.5,0,0,1,4.53,4.15,6.68,6.68,0,0,1,1.63-.19,7,7,0,0,1,2.11.31,4.81,4.81,0,0,1,1.71-.31,4.94,4.94,0,0,1,1,.09,5.13,5.13,0,0,1,2.82.26l.43-.72a4.61,4.61,0,0,1,7.36-.79l.2,0a5.05,5.05,0,0,1,4.77-2.77h.1a4.51,4.51,0,0,1,4.55,4.57c0,.16,0,.31,0,.46l.19.15a6.08,6.08,0,0,1,3.67-1.22,4.62,4.62,0,0,1,.76,0,3.82,3.82,0,0,1,.68,0,4.86,4.86,0,0,1,1.39.2,5.06,5.06,0,0,1,2.41-.1,5.6,5.6,0,0,1,1.09-.1,5.49,5.49,0,0,1,1.92.33,4.53,4.53,0,0,1,4.58-4.31,4.59,4.59,0,0,1,3.45,1.53,4.62,4.62,0,0,1,1-.1h3.8a4.78,4.78,0,0,1,2.42.65,5.16,5.16,0,0,1,4.35-2.06h.1a4.51,4.51,0,0,1,4.55,4.57c0,.16,0,.31,0,.46l.18.15a6.37,6.37,0,0,1,6-3.86,6.61,6.61,0,0,1,3.13.76,6.61,6.61,0,0,1,3.1-.76,6.69,6.69,0,0,1,2.19.38,4.5,4.5,0,0,1,1.6-.29h.61a6.58,6.58,0,0,1,2.43.43,6.72,6.72,0,0,1,2.64-.52,6.42,6.42,0,0,1,5.55,3,6.24,6.24,0,0,1,2-.34,4.57,4.57,0,0,1,.75,0,4,4,0,0,1,.69,0h.18a4.58,4.58,0,0,1,3.14-1.21,4.69,4.69,0,0,1,2.61.78,8.36,8.36,0,0,1,1.25-1.2,4.93,4.93,0,0,1,2.93-1,4.41,4.41,0,0,1,1.37.21,7.17,7.17,0,0,1,1.75-.21,6.89,6.89,0,0,1,5.45,2.64,5.77,5.77,0,0,1,2.24.44,5.88,5.88,0,0,1,2.1-.44,5,5,0,0,1,5.18-4h.11a4.48,4.48,0,0,1,4.52,4.12,6.06,6.06,0,0,1,1.42-.16,4.62,4.62,0,0,1,.76,0,3.82,3.82,0,0,1,.68,0,4.53,4.53,0,0,1,4.59,4.56v.79a4.53,4.53,0,0,1-.64,6.47,5.09,5.09,0,0,1-3.41,1.22,5.69,5.69,0,0,1-1.18-.12,6.19,6.19,0,0,1-1.37.16,5.66,5.66,0,0,1-1.71-.26,5.13,5.13,0,0,1-1.47.22,5.56,5.56,0,0,1-1.6-.23,4.76,4.76,0,0,1-1.47.23,4.51,4.51,0,0,1-1-.12,6.22,6.22,0,0,1-1.19.12,5.69,5.69,0,0,1-1.18-.12,6.26,6.26,0,0,1-1.37.16,5.72,5.72,0,0,1-2-.35,5.62,5.62,0,0,1-2,.35,5.79,5.79,0,0,1-3-.75,8.91,8.91,0,0,1-3.56.71,8.43,8.43,0,0,1-4.45-1.2,5.68,5.68,0,0,1-3.56,1.24,5.89,5.89,0,0,1-1.86-.3,5.59,5.59,0,0,1-1.71.26,5.76,5.76,0,0,1-1.18-.12,6.17,6.17,0,0,1-1.36.16,5.63,5.63,0,0,1-4-1.61,4.61,4.61,0,0,1-3.44,1.57,4.68,4.68,0,0,1-1.88-.39,4.64,4.64,0,0,1-1.87.39,4.5,4.5,0,0,1-2.39-.67,6.64,6.64,0,0,1-2.92.67,6.56,6.56,0,0,1-2.32-.41,4.48,4.48,0,0,1-1.68.32H169.8a4.45,4.45,0,0,1-1.28-.18,4.66,4.66,0,0,1-2,1.24A4.54,4.54,0,0,1,165.25,130ZM132,122.08a4.49,4.49,0,0,1,.45,2,3.71,3.71,0,0,1,0,.47l.35-.09a1.28,1.28,0,0,1,0-.19v-2.16Zm45.95-.23c.07.13.14.27.2.41a3,3,0,0,0,.55-.08v-1a3.5,3.5,0,0,1-.49-.53A9.41,9.41,0,0,1,177.92,121.85Zm16.35.07a4.51,4.51,0,0,1-.25-1.48,5.06,5.06,0,0,1,0-.68l-.11,0a6,6,0,0,1-.43,2.14Zm-49.53-1.67a1.65,1.65,0,0,1,.25-.15h-.28Zm86.5-.16a.31.31,0,0,1,.1,0l-.12,0Zm-28.65-12.75a14,14,0,0,1-10.33-4.09,13.55,13.55,0,0,1-1.75-2.23,1,1,0,0,1,0,.15,7,7,0,0,1-6.76,5.53H165.37a5.88,5.88,0,0,1-4.74-2.16,5.58,5.58,0,0,1-.39-.56,7.45,7.45,0,0,1-1.12,1,10.48,10.48,0,0,1-6.53,2.15,8.39,8.39,0,0,1-5-1.44,13.85,13.85,0,0,1-6.38,1.61,10,10,0,0,1-7.52-3.12,9.79,9.79,0,0,1-7,3,7.73,7.73,0,0,1-7.27-4,7,7,0,0,1-6.42,4,6,6,0,0,1-4.33-1.75,10.4,10.4,0,0,1-6,1.75,8.39,8.39,0,0,1-5-1.44,13.84,13.84,0,0,1-6.37,1.61,9.87,9.87,0,0,1-7.88-3.53,9.43,9.43,0,0,1-1.07-1.64,15,15,0,0,1-11.4,5c-4.09,0-9-2-10.38-6,0,0,0-.1-.05-.16A7.08,7.08,0,0,1,67,92a18.05,18.05,0,0,1-3.2-3c-4.71,11.43-14.6,18.07-27.49,18.07-7.33,0-13.2-2.45-16.95-7.08S14.44,89,16,81.86a29,29,0,0,1,1-3.51,5.83,5.83,0,0,1-.84.07h-.26l-2.52-.13a5.08,5.08,0,0,1-3.5-1.68,5.07,5.07,0,0,1-.07-6.67,5.05,5.05,0,0,1,4.1-7.6A5.06,5.06,0,0,1,22.42,59L25,61.46a5,5,0,0,1,1.49,3A33.15,33.15,0,0,1,29.68,62l.23-.14a9.74,9.74,0,0,1,4.56-1.36,6.19,6.19,0,0,1,4.86,2.23,6.42,6.42,0,0,1,.38.53,20,20,0,0,1,10.46-2.89A15.63,15.63,0,0,1,62.68,66a16.08,16.08,0,0,1,2.68,4.9,17.29,17.29,0,0,1,12.92-5.63c4.36,0,8,1.57,10.36,4.42A12.24,12.24,0,0,1,91.07,79a15.09,15.09,0,0,1,7.66-2.15,9.22,9.22,0,0,1,3.45.61,7.18,7.18,0,0,1,2.95-.61,6,6,0,0,1,4.8,2.14,5.52,5.52,0,0,1,1.16,2.69l2.72-12.77c1.38-6.49,4.9-9.51,11.09-9.51h.39a5.85,5.85,0,0,1,4.7,2.13,5.94,5.94,0,0,1,1,5.14A6.83,6.83,0,0,1,126.3,72L125.23,77a15.79,15.79,0,0,1,2.08-.14,8.44,8.44,0,0,1,6.89,2.91,7.62,7.62,0,0,1,1.62,3.66,16.56,16.56,0,0,1,12.73-6.57,9.22,9.22,0,0,1,3.45.61,7.16,7.16,0,0,1,2.94-.61A6,6,0,0,1,159.75,79a5.9,5.9,0,0,1,1.07,5.06L158.7,94a5.39,5.39,0,0,1,2.22,1.59,5.88,5.88,0,0,1,.51.72,10.81,10.81,0,0,1,4.19-2.21,23,23,0,0,0,5-2.59,5.8,5.8,0,0,1-3-1.56,12.57,12.57,0,0,1-3.34-11.76c1.67-7.65,8.54-13,16.72-13a12.91,12.91,0,0,1,10.32,4.47,11.42,11.42,0,0,1,2.17,4.34,19.08,19.08,0,0,1,16.25-8.56,11.49,11.49,0,0,1,8.93,4.26,7.06,7.06,0,0,1,6.2-4.12h2.81c2,0,5.6,0,7.77,2.66a6.56,6.56,0,0,1,1.3,2.76,17.1,17.1,0,0,1,7.52-4.92,6.38,6.38,0,0,1-.61-4.5l1.88-8.78a11.89,11.89,0,0,1-4.09.68c-3.69,0-5.71-1.53-6.75-2.83-1.56-1.93-2-4.55-1.43-7.81l-1,4.79a7.56,7.56,0,0,1-7.39,5.85,6.32,6.32,0,0,1-5-2.25A6.19,6.19,0,0,1,218.78,46l1.41-6.58-1.76,8.2a7.44,7.44,0,0,1-7.38,5.92,6.33,6.33,0,0,1-4.63-1.9,11.34,11.34,0,0,1-6.5,1.9,8.91,8.91,0,0,1-5.66-1.74,15.31,15.31,0,0,1-7.34,1.94,10.74,10.74,0,0,1-8.58-3.83l-.33-.43-.32.36C174.13,53.78,167,58,157.71,58c-7,0-12.6-2.44-16.34-7.07a18.67,18.67,0,0,1-1.26-1.76,8.29,8.29,0,0,1-2,2,11.5,11.5,0,0,1-7.15,2.35,8.93,8.93,0,0,1-5.66-1.74,15.31,15.31,0,0,1-7.34,1.94,10.72,10.72,0,0,1-8.57-3.83c-2.39-3-3.13-7.24-2.09-12.08a26.92,26.92,0,0,1,.78-2.87,5.65,5.65,0,0,1-2.41-.91,15.29,15.29,0,0,0-3.42,6.14l-1.59,7.48a7.4,7.4,0,0,1-7.32,5.94,6.39,6.39,0,0,1-5-2.26A6,6,0,0,1,87,48.1a19.94,19.94,0,0,1-14,5.45c-5.06,0-9.29-1.78-11.91-5a13.08,13.08,0,0,1-2.82-8.35l-5.57,9.37a7.73,7.73,0,0,1-6.66,4,6.19,6.19,0,0,1-6.32-5.4l-.51-3.08-2.66,4.47a7.54,7.54,0,0,1-6.59,4,6.13,6.13,0,0,1-6.31-5.37.8.8,0,0,1,0-.15l-3-20.14c-1.11-7.35-1.72-7.73-3.31-7.73a3.37,3.37,0,0,0-3.55,2.95,3.85,3.85,0,0,0,.69,2.64A6.17,6.17,0,0,1,15.75,31c0,.08,0,.16,0,.24A7.68,7.68,0,0,1,8.52,37a6,6,0,0,1-4.37-1.75A14.88,14.88,0,0,1,.36,21.47,18.46,18.46,0,0,1,18.5,6.76C30.82,6.76,33.08,15.5,34.64,27l1.16-2L34.14,15.1a6.21,6.21,0,0,1,.06-2.56c.76-3.67,4.43-5.85,7.53-5.85a6.12,6.12,0,0,1,4.36,1.75,7.32,7.32,0,0,1,4.77-1.75A6.69,6.69,0,0,1,56,9.09a6,6,0,0,1,1.21,5.06,6.83,6.83,0,0,1-1,2.27L50.17,26.59l.2,1.16L60.74,10.2s0-.09.08-.14a7.15,7.15,0,0,1,6.06-3.37,6.83,6.83,0,0,1,5.28,2.44,6,6,0,0,1,1.21,5,6.85,6.85,0,0,1-.55,1.56l.05-.16a3.84,3.84,0,0,1-.36.8l-3.6,6.05a20.39,20.39,0,0,1,9.55-2.31c5.05,0,9.27,1.78,11.89,5a12.7,12.7,0,0,1,1,1.35l.09-.44a7.39,7.39,0,0,1,7.32-5.93,6.52,6.52,0,0,1,4.3,1.54,10.67,10.67,0,0,1,5.29-1.54,7.82,7.82,0,0,1,6.28,2.71,7.1,7.1,0,0,1,.84,1.33,17.33,17.33,0,0,1,10.88-4c.46,0,.89,0,1.32.06,0,0,3-14.27,3-14.31A7.53,7.53,0,0,1,137.94,0a6.35,6.35,0,0,1,5,2.32A6.14,6.14,0,0,1,144,7.64l-2.55,12C147,9.62,156.87,3,167.56,3c5.86,0,10.7,2,13.62,5.6a14,14,0,0,1,2.51,12,20.53,20.53,0,0,1-8.84,12.78,8,8,0,0,1-4.34,1.39,6.16,6.16,0,0,1-6.17-7.55.43.43,0,0,0,0-.11,8.15,8.15,0,0,1,3-4.59c1.48-1.24,2.25-2.08,2.54-3.44a2.33,2.33,0,0,0-.13-1.63c-.31-.38-1.3-.82-3.1-.82-6.81,0-12.88,6.11-14.75,14.85-.94,4.48-.49,8.16,1.27,10.32,1.33,1.64,3.5,2.48,6.46,2.48,3.93,0,5.81-1.43,8.55-3.75A9.11,9.11,0,0,1,174,38.11a6.37,6.37,0,0,1,2.14.37c0-.21.08-.43.12-.64,2.19-10.29,10.2-17.76,19-17.76a9.8,9.8,0,0,1,4,.75,7.68,7.68,0,0,1,3.37-.75,6.32,6.32,0,0,1,5,2.23,6.21,6.21,0,0,1,1.11,5.3l-2.54,12,.06,0L209.19,26a7.41,7.41,0,0,1,7.33-5.87,6.55,6.55,0,0,1,4.29,1.52,13,13,0,0,1,5.68-1.52,9.73,9.73,0,0,1,6.27,2,13.94,13.94,0,0,1,7.05-2,9.7,9.7,0,0,1,7.63,3.47,10.46,10.46,0,0,1,1.82,8.94l-1.51,7.07a4.44,4.44,0,0,1,.61.22l2.93-13.71a7.4,7.4,0,0,1,7.32-5.93,6.58,6.58,0,0,1,4,1.31,14.81,14.81,0,0,1,6.22-1.37,10.57,10.57,0,0,1,8.56,3.79c2.39,2.94,3.17,7.22,2.18,12.07-2.2,10.33-10.23,17.81-19.1,17.81a12.47,12.47,0,0,1-1.25-.06l-2.05,9.63a7.33,7.33,0,0,1-1.39,3,11.52,11.52,0,0,1,4.69,3.4c2.38,2.94,3.17,7,2.23,11.52a13.4,13.4,0,0,1-1,3,1.67,1.67,0,0,1,.24-.16,4.55,4.55,0,0,1,3.21-1.32,5,5,0,0,1,1.45.22,5.16,5.16,0,0,1,3,2.39,5.16,5.16,0,0,1,3.09,1.56,4.74,4.74,0,0,1,1,6.29,7.08,7.08,0,0,1-.77,1.12,5.63,5.63,0,0,1-1,4.45,4,4,0,0,1-.77.77,6.21,6.21,0,0,1-2.33,1.07,5.91,5.91,0,0,1-1.17.12,5.6,5.6,0,0,1-2.13-.44,6.3,6.3,0,0,1-1.85.7,4.59,4.59,0,0,1-2.4,2.7l-.22.11a4.78,4.78,0,0,1-2.46,1.88,3.88,3.88,0,0,1-1.12.2h-.14a5,5,0,0,1-1.92-.36,4.86,4.86,0,0,1-1.68-1.14,4.77,4.77,0,0,1-2.63-1.72,4.43,4.43,0,0,1-.87-2.9l-3.65,4.52a7.08,7.08,0,0,1-5.56,2.82,5.82,5.82,0,0,1-4.72-2.06,5.53,5.53,0,0,1-1-4.73c0-.11,0-.22.08-.32a9.55,9.55,0,0,1,1.52-3L239,94.32a10.29,10.29,0,0,1-4.21-3.11,10.67,10.67,0,0,1-1-1.41l-2.5,11.71a6.93,6.93,0,0,1-6.83,5.58,6.13,6.13,0,0,1-4.81-2.19,5.89,5.89,0,0,1-1.13-5l.9-4.23C215.39,104.12,208.53,107.34,202.59,107.34ZM186.06,94.11a5.84,5.84,0,0,1,2.3,1,20.21,20.21,0,0,1-.26-3.26C187.44,92.66,186.75,93.41,186.06,94.11ZM31.19,80.56a15.79,15.79,0,0,0-.91,2.93c-.72,3.33-.35,6.07,1,7.78,1.22,1.51,3.33,2.28,6.26,2.28,9.35,0,12.79-7,14-12.79.57-2.62.25-5.24-.78-6.52a2.37,2.37,0,0,0-2.07-.87c-2,0-3.17,1-3.61,3.14a2.85,2.85,0,0,0,.67,2.4,6,6,0,0,1,1.55,5.75,7.91,7.91,0,0,1-7.42,6,6.27,6.27,0,0,1-4-1.38A2.78,2.78,0,0,1,35.6,89,14.82,14.82,0,0,1,31.19,80.56Zm65.38,9.85a8,8,0,0,0-1.67,3.06A8,8,0,0,0,96.57,90.41Zm49.82,0a8,8,0,0,0-1.67,3.06A8,8,0,0,0,146.39,90.41ZM96.8,88.87Zm49.81,0ZM80.91,85.4a16.74,16.74,0,0,1,2.36,2.46c.28-.61.58-1.19.91-1.76h-.29A6.45,6.45,0,0,1,80.91,85.4Zm96.27-5a5.6,5.6,0,0,1,1.63,3.23,13,13,0,0,0,1.9-4.22,2.14,2.14,0,0,0,0-1.3A1.57,1.57,0,0,0,180,78a2.63,2.63,0,0,0-2.72,1.92A2.6,2.6,0,0,0,177.18,80.4ZM249,78a3.74,3.74,0,0,0-3.67,3.3,2.35,2.35,0,0,0,0,1.41,1.62,1.62,0,0,0,.94.19,3.81,3.81,0,0,0,3.66-3.31,2.33,2.33,0,0,0,0-1.4A1.66,1.66,0,0,0,249,78Zm-26.66.31a23.19,23.19,0,0,1,.23,2.56l.52-2.42A5.86,5.86,0,0,1,222.32,78.28Zm39.9-38.58a4.16,4.16,0,0,0-.06.44c1.46-.59,3-3,3.53-5.68a5.34,5.34,0,0,0,.12-.67,8.48,8.48,0,0,0-3.48,5.39Zm-137.52-6c-1.48.55-3,2.92-3.63,5.74A4,4,0,0,0,121,40a8.73,8.73,0,0,0,3.6-5.44A5.4,5.4,0,0,0,124.7,33.67Zm69,0c-1.47.55-3,2.92-3.63,5.74,0,.23-.07.44-.09.62a8.46,8.46,0,0,0,3.49-5.19,5.08,5.08,0,0,1,.17-.51A4.46,4.46,0,0,0,193.68,33.67Z" transform="translate(0)"/><path class="a" d="M37.56,97.55c10.48,0,16.08-7.21,17.95-16,1.28-5.92-.71-12.22-6.76-12.22a7.42,7.42,0,0,0-7.53,6.3,6.84,6.84,0,0,0,1.68,6,2.11,2.11,0,0,1,.58,2.06,4,4,0,0,1-3.54,3,2.37,2.37,0,0,1-1.61-.57,11,11,0,0,1-3.09-10.23c1.48-7,7.85-11.52,14.93-11.52,9.58,0,13.7,8.36,11.77,17.24C59.05,95.3,49.4,103.15,36.33,103.15c-12.54,0-19-8.3-16.47-20.46a28.54,28.54,0,0,1,12-17.38,5.8,5.8,0,0,1,2.58-.83,2.07,2.07,0,0,1,2.12,2.7A4.88,4.88,0,0,1,35,69.43c-4,3.48-7.46,7.59-8.62,13.26C24.62,90.73,28,97.55,37.56,97.55ZM70.42,79.36C69,86,83.21,86.87,81.31,95.85c-1,4.49-5.56,7.24-10.22,7.24-2.58,0-5.89-1.29-6.62-3.31s2-4.71,3.87-3.37c.9.62,1.63,2,3.82,2,2.36,0,3.7-1,4-2.53,1.18-5.39-13-6.06-10.83-16.38a13,13,0,0,1,13-10.21c6.39,0,9.93,4.2,8.64,10.38a3.05,3.05,0,0,1-3,2.46,1.89,1.89,0,0,1-2-2.46c.56-2.75-.73-5.5-4.6-5.5A6.74,6.74,0,0,0,70.42,79.36Zm33.64,18.12c-.17.9,0,1.12.39,1.12a2.26,2.26,0,0,0,1.18-.5c1.8-1.13,3,.16,2.75,1.68a3.44,3.44,0,0,1-1.4,1.91,6.56,6.56,0,0,1-4.21,1.4c-2.36,0-3.76-1-3.82-3.31a10.35,10.35,0,0,1-7.52,3.48c-5,0-7.06-4.15-5.89-9.65,1.52-7.13,6.9-12.74,13.19-12.74a4.19,4.19,0,0,1,3.7,1.68,2.77,2.77,0,0,1,2.7-1.68c1.4,0,2.3.79,2,2.36Zm-13.3-4c-.62,3.09.45,5,2.58,5,3.31,0,6.29-3.7,7.18-7.41l.12-.28c.67-3.2-.56-5.16-2.75-5.16C94.35,85.64,91.66,89.4,90.76,93.49Zm27-23.73c1.12-5.27,3.48-6.34,7.18-6.34h.39c1.29,0,2.19.73,1.8,2.41a2.81,2.81,0,0,1-2.81,2.42h-.22c-.67,0-1.12.28-1.35,1.34l-3.14,14.87a10.08,10.08,0,0,1,7.74-3.59c3.76,0,5.11,2.36,4.49,5.44s-4.09,6.17-8,7.35c1.17.28,1.68,1.24,2.3,2.47s1.17,2.08,1.73,2.08c.73,0,1.41-1,2.19-1a1.72,1.72,0,0,1,1.8,2.19c-.51,2.3-3,3.65-5.11,3.65s-3-.45-4.71-3.54c-.79-1.62-1.23-3.19-2.13-3.92a2.33,2.33,0,0,1-.62-2.25c.23-1.06.84-1.62,2.25-2.3,3.87-1.63,4.82-2.86,5.1-4.09.17-.73-.22-1.35-1.46-1.35-2.64,0-6.28,2.41-7.52,7.57l-1.57,7.47a3,3,0,0,1-3,2.41,1.84,1.84,0,0,1-1.91-2.41Zm36.16,27.72c-.17.9,0,1.12.39,1.12a2.26,2.26,0,0,0,1.18-.5c1.8-1.13,3,.16,2.75,1.68a3.44,3.44,0,0,1-1.4,1.91,6.56,6.56,0,0,1-4.21,1.4c-2.36,0-3.76-1-3.82-3.31a10.35,10.35,0,0,1-7.52,3.48c-5,0-7.07-4.15-5.89-9.65,1.52-7.13,6.9-12.74,13.19-12.74a4.19,4.19,0,0,1,3.7,1.68,2.77,2.77,0,0,1,2.7-1.68c1.4,0,2.3.79,2,2.36Zm-13.3-4c-.62,3.09.45,5,2.58,5,3.31,0,6.29-3.7,7.18-7.41l.12-.28c.67-3.2-.56-5.16-2.75-5.16C144.17,85.64,141.48,89.4,140.58,93.49Zm24.79,9.21c-1.51,0-2.13-1-1.85-2.14.28-1.51,1.35-2,3.37-2.63,6.9-2.42,16.1-10.1,17.73-17.68C185.46,76,183.05,74,180,74a6.59,6.59,0,0,0-6.62,5,4.13,4.13,0,0,0,1,4.21,1.83,1.83,0,0,1,.45,1.85,3.4,3.4,0,0,1-2.92,2.58,2,2,0,0,1-1.4-.51A8.54,8.54,0,0,1,168.24,79,12.8,12.8,0,0,1,181,69.26c5.67,0,10.15,3.64,8.58,11C187.71,89.4,178.34,96,174,98h10.72a1.77,1.77,0,0,1,1.85,2.3,3,3,0,0,1-2.86,2.42Zm58.47-28.23a1.84,1.84,0,0,1-1.74-2.35,3.16,3.16,0,0,1,2.81-2.47h2.8c4.88,0,6.06,1,4.83,6.9l-5.17,24.13a2.94,2.94,0,0,1-2.91,2.41,1.88,1.88,0,0,1-2-2.41l5.16-24.35c.28-1.24.05-1.86-1-1.86Zm28.5,16.28-8.92,11a3.08,3.08,0,0,1-2.41,1.29c-1.63,0-2.08-.9-1.85-2a5.35,5.35,0,0,1,.84-1.69l8-10a6.63,6.63,0,0,1-4.89,1.63c-4.82,0-8-4.32-6.62-10.66A13.6,13.6,0,0,1,250,69.26c6.73,0,10.21,4.48,8.81,11.16C258.35,82.61,257.22,84.69,252.34,90.75Zm-6.11-3.88a7.81,7.81,0,0,0,7.57-6.45c.9-4.15-1.4-6.45-4.82-6.45a7.72,7.72,0,0,0-7.58,6.45C240.5,84.52,242.75,86.87,246.23,86.87ZM209.77,69.51c6,0,10.22,6.89,8.36,16.95-2.1,11.39-8.41,16.88-15.54,16.88s-12.31-5.55-9.9-16.88S201.42,69.52,209.77,69.51Zm-1,4.71c-4.69.06-9.33,3.93-11.07,12.24S200,98.69,203.6,98.69s7.8-3.93,9.54-12.23S212.3,74.18,208.76,74.22ZM41.4,33.66,33.17,47.5a3.59,3.59,0,0,1-3.15,2,2.21,2.21,0,0,1-2.39-2.12l-3-20.14c-1-6.37-1.74-11.13-7.27-11.13a7.34,7.34,0,0,0-7.46,6.11,7.8,7.8,0,0,0,1.48,6,2.32,2.32,0,0,1,.45,2.06A3.66,3.66,0,0,1,8.52,33,2,2,0,0,1,7,32.44a10.9,10.9,0,0,1-2.7-10.17A14.51,14.51,0,0,1,18.5,10.76c8,0,10.42,3.66,12.22,17.11L32.2,39,40,25.81,38.06,14.29a2.53,2.53,0,0,1,.06-1,3.82,3.82,0,0,1,3.61-2.64,1.83,1.83,0,0,1,2,1.55l1,5.66L48,12.24a3.3,3.3,0,0,1,2.83-1.55,2.3,2.3,0,0,1,2.45,2.64,3.43,3.43,0,0,1-.45,1L46,25.81l2.32,13.32L64.18,12.24a3.18,3.18,0,0,1,2.7-1.55,2.36,2.36,0,0,1,2.58,2.64,7.27,7.27,0,0,1-.39,1L49.32,47.5a3.75,3.75,0,0,1-3.22,2,2.23,2.23,0,0,1-2.38-2.12Zm37.06-9.59c7.47,0,12.1,4.7,10.36,12.81A15.68,15.68,0,0,1,73.06,49.55c-7.4,0-12.1-4.63-10.36-12.67A15.78,15.78,0,0,1,78.46,24.07ZM77.3,29.54c-4.11,0-7.59,2.84-8.55,7.34s1.35,7.21,5.47,7.21a8.74,8.74,0,0,0,8.55-7.21C83.74,32.38,81.36,29.54,77.3,29.54Zm18-2.7a3.41,3.41,0,0,1,3.41-2.77A2.13,2.13,0,0,1,101,26.84l-.57,2.7c2.31-3.34,5.34-5.47,7.91-5.47,3.22,0,4.12,2.13,3.73,3.93a3.69,3.69,0,0,1-3.15,3c-1.55,0-1.42-1.35-2.9-1.35-3.41,0-6.69,6-7.65,9.59l-1.61,7.59a3.4,3.4,0,0,1-3.41,2.77,2.12,2.12,0,0,1-2.25-2.77Zm31.25,18.92a11.86,11.86,0,0,1-8.62,4c-5.72,0-8.1-4.76-6.75-11.07,1.73-8.17,7.91-14.61,15.12-14.61a4.81,4.81,0,0,1,4.18,1.87l4.05-19.17A3.5,3.5,0,0,1,137.94,4a2.07,2.07,0,0,1,2.19,2.77l-7.72,36.35c-.19,1,0,1.29.45,1.29a2.4,2.4,0,0,0,1.35-.58c2.06-1.29,3.48.19,3.15,1.93a3.9,3.9,0,0,1-1.6,2.19,7.53,7.53,0,0,1-4.83,1.6C128.23,49.55,126.62,48.46,126.55,45.76Zm-9.39-7.21c-.71,3.54.52,5.73,3,5.73,3.93,0,7.4-4.51,8.37-8.82.77-3.66-.65-5.92-3.16-5.92C121.28,29.54,118.19,33.86,117.16,38.55Zm53.35-7.77A2.18,2.18,0,0,1,168.26,28a4.21,4.21,0,0,1,1.68-2.38,10,10,0,0,0,3.92-5.73c.9-4.31-1.67-7.27-7.14-7.27-8.56,0-16.34,7.21-18.66,18-2.12,10.1,1.74,17.63,11.64,17.63,5.41,0,8.18-2.19,11.14-4.7A5.38,5.38,0,0,1,174,42.11a2,2,0,0,1,1.67.77,2,2,0,0,1,.58,1.87,5.84,5.84,0,0,1-1.48,2.38c-3.15,3.47-9.39,6.88-17,6.88-12.93,0-19-9.91-16.15-23.16C144.46,17.08,155.39,7,167.55,7c8.76,0,13.84,5.15,12.23,12.74A16.42,16.42,0,0,1,172.7,30,4,4,0,0,1,170.51,30.78ZM201.4,43.12c-.2,1,0,1.29.45,1.29a2.64,2.64,0,0,0,1.35-.58c2.06-1.29,3.47.19,3.15,1.93A3.92,3.92,0,0,1,204.74,48a7.5,7.5,0,0,1-4.82,1.6c-2.71,0-4.31-1.09-4.38-3.79a11.86,11.86,0,0,1-8.62,4c-5.73,0-8.11-4.76-6.76-11.07,1.74-8.17,7.92-14.61,15.12-14.61A4.8,4.8,0,0,1,199.53,26a3.17,3.17,0,0,1,3.09-1.94c1.61,0,2.64.91,2.25,2.71Zm-15.25-4.57c-.71,3.54.51,5.73,3,5.73,3.79,0,7.2-4.25,8.23-8.49l.13-.33c.77-3.66-.64-5.92-3.15-5.92C190.26,29.54,187.18,33.86,186.15,38.55Zm32.3-10.1c2.31-2.77,5.79-4.38,8-4.38,3.22,0,4.95,1.42,5,4.12,2.7-2.89,5.72-4.12,8.3-4.12,3.6,0,6.56,2.71,5.53,7.6L242.9,43.12c-.2,1,0,1.29.51,1.29a2.49,2.49,0,0,0,1.29-.58c2.06-1.29,3.47.19,3.15,1.93A3.92,3.92,0,0,1,246.24,48a7.3,7.3,0,0,1-4.76,1.6c-3.35,0-5.15-1.73-4.18-6.24l2.12-10.23c.64-2.89-.26-3.66-1.41-3.66-2.77,0-6.63,3.15-8.11,10.29l-1.55,7.14a3.51,3.51,0,0,1-3.47,2.7,2.06,2.06,0,0,1-2.19-2.7l3-14.15c.51-2.58-.39-3.28-1.55-3.28-2.7,0-6.11,2.63-7.72,8.36l-1.93,9a3.46,3.46,0,0,1-3.47,2.76,2.11,2.11,0,0,1-2.19-2.76l4.25-20a3.45,3.45,0,0,1,3.41-2.71,2.11,2.11,0,0,1,2.25,2.71Zm42.22-.77a11.45,11.45,0,0,1,8.17-3.61c5.73,0,8.11,4.77,6.82,11.07-1.74,8.17-8,14.61-15.19,14.61a4.63,4.63,0,0,1-4.11-1.8l-3.09,14.54a3.41,3.41,0,0,1-3.41,2.7,2.07,2.07,0,0,1-2.25-2.7l7.59-35.58a3.39,3.39,0,0,1,3.41-2.77,2.13,2.13,0,0,1,2.25,2.77Zm8.94,7.59c.77-3.54-.45-5.73-3-5.73-3.92,0-7.33,4.51-8.23,8.82l-.13.58c-.58,3.34.77,5.34,3.21,5.34C265.56,44.28,268.65,40,269.61,35.27Zm-195-1.84c-.29,0-.53.35-.53.79s.24.8.53.8.53-.36.53-.8S74.9,33.43,74.6,33.43Zm3.19,0c-.3,0-.53.35-.53.79s.23.8.53.8.53-.36.53-.8S78.08,33.43,77.79,33.43Zm-5,3.44c1.06,3.19,4.24,4.78,6.89-.53m-29.31,87.3c2.08,0,2.84-1.42,2.84-3.12,0-1.1-.64-2.35-1.81-2.35a1.09,1.09,0,0,0-1.18,1.2,1.55,1.55,0,0,0,.57,1.13.6.6,0,0,1,.22.44.63.63,0,0,1-.61.62.59.59,0,0,1-.36-.11,2.65,2.65,0,0,1-1-2,2.29,2.29,0,0,1,2.49-2.29,3.2,3.2,0,0,1,3.07,3.39c0,2.72-1.55,4.29-4.19,4.29a3.89,3.89,0,0,1-4.14-4.06,4.39,4.39,0,0,1,1.66-3.44.82.82,0,0,1,.48-.18.55.55,0,0,1,.57.57.75.75,0,0,1-.23.47,3.79,3.79,0,0,0-1.13,2.58A2.67,2.67,0,0,0,50.33,123.64Zm6.32-2.91a1.64,1.64,0,0,1,1.52-1,1.34,1.34,0,0,1,1.39,1.51v2.23c0,.19,0,.23.13.23a.46.46,0,0,0,.22-.1.45.45,0,0,1,.72.41.54.54,0,0,1-.23.44,1.19,1.19,0,0,1-.89.32c-.67,0-1.12-.36-1.12-1.27v-2c0-.52-.23-.65-.5-.65-.54,0-1.21.54-1.24,1.67v1.66a.59.59,0,0,1-1.18,0v-3.91a.59.59,0,0,1,1.18,0Zm7.25-1.28a1.43,1.43,0,0,0,.54,1,.61.61,0,0,1,.23.47.58.58,0,0,1-.59.58.75.75,0,0,1-.42-.14,2.4,2.4,0,0,1-1-1.88c0-1.43,1.15-2.23,2.61-2.23H67.5A3.8,3.8,0,0,1,71.61,121a3.61,3.61,0,0,1-3.88,3.69H65.18a.57.57,0,0,1-.59-.59.58.58,0,0,1,.59-.59h.52c.32,0,.32-.27.32-.67v-3.55a.58.58,0,0,1,.61-.6.56.56,0,0,1,.61.6v3.54c0,.38-.07.64-.25.68h.72A2.42,2.42,0,0,0,70.27,121a2.67,2.67,0,0,0-2.94-2.63H65.25C64.48,118.4,63.9,118.75,63.9,119.45Zm8.29,2.85a2.43,2.43,0,0,1,2.54-2.53c1.49,0,2.19.89,2.19,1.72S76.24,123,75,123a1.8,1.8,0,0,1-.68-.14.54.54,0,0,1-.35-.51.56.56,0,0,1,.56-.57c.16,0,.37.1.55.1a.49.49,0,0,0,.54-.47c0-.32-.26-.56-.91-.56a1.29,1.29,0,0,0-1.27,1.41,1.4,1.4,0,0,0,1.45,1.43,2.19,2.19,0,0,0,1.25-.36.68.68,0,0,1,.37-.11.47.47,0,0,1,.44.25.63.63,0,0,1-.28.85,3.19,3.19,0,0,1-1.88.49A2.55,2.55,0,0,1,72.19,122.3Zm8-1.39a1.25,1.25,0,0,0-1.26,1.38,1.22,1.22,0,0,0,1.28,1.37,1.43,1.43,0,0,0,1-.35.57.57,0,0,1,.4-.16.59.59,0,0,1,.56.58.51.51,0,0,1-.19.43,2.69,2.69,0,0,1-1.93.65,2.27,2.27,0,0,1-2.42-2.52,2.44,2.44,0,0,1,2.56-2.52A1.66,1.66,0,0,1,82,121.35a1.37,1.37,0,0,1-.42,1,.69.69,0,0,1-.5.23.57.57,0,0,1-.57-.56.58.58,0,0,1,.16-.4.44.44,0,0,0,.14-.31C80.85,121.09,80.64,120.91,80.19,120.91Zm2.54,1.39a2.42,2.42,0,0,1,2.53-2.53c1.49,0,2.19.89,2.19,1.72S86.78,123,85.57,123a1.81,1.81,0,0,1-.69-.14.54.54,0,0,1-.35-.51.56.56,0,0,1,.57-.57c.15,0,.36.1.54.1a.49.49,0,0,0,.54-.47c0-.32-.26-.56-.91-.56A1.29,1.29,0,0,0,84,122.3a1.4,1.4,0,0,0,1.45,1.43,2.19,2.19,0,0,0,1.25-.36.68.68,0,0,1,.37-.11.47.47,0,0,1,.44.25.63.63,0,0,1-.28.85,3.19,3.19,0,0,1-1.88.49A2.54,2.54,0,0,1,82.73,122.3Zm6.94-1.69a1.84,1.84,0,0,1,1.38-.84,1,1,0,0,1,1.15.77,1.85,1.85,0,0,1,1.45-.77,1.43,1.43,0,0,1,1.44,1.51v2.23c0,.19,0,.23.13.23a.46.46,0,0,0,.22-.1.45.45,0,0,1,.72.41.54.54,0,0,1-.23.44,1.19,1.19,0,0,1-.89.32c-.67,0-1.12-.36-1.12-1.27v-2c0-.55-.2-.67-.42-.67-.51,0-1.11.6-1.11,2v1.4a.58.58,0,0,1-.61.56.54.54,0,0,1-.57-.56v-2.76c0-.49-.21-.6-.42-.6-.5,0-1.05.51-1.12,1.59v1.76a.56.56,0,0,1-.6.57.55.55,0,0,1-.57-.57v-3.91a.55.55,0,0,1,.58-.56.56.56,0,0,1,.59.56ZM98.05,117c-.14,0-.23.06-.23.26v3.6a1.48,1.48,0,0,1,1.54-1c1.11,0,1.76.94,1.76,2.11a2.71,2.71,0,0,1-2.55,3,1.92,1.92,0,0,1-1.92-2.14v-5.45c0-1.21.49-1.45,1.35-1.45h.1a.5.5,0,0,1,.54.57.52.52,0,0,1-.54.58Zm1.75,5c0-.51-.19-1-.81-1s-1.15.59-1.17,1.52v.13c0,.58.24,1.14.8,1.14C99.4,123.7,99.8,122.67,99.8,121.92Zm1.93.38a2.42,2.42,0,0,1,2.53-2.53c1.49,0,2.19.89,2.19,1.72s-.67,1.55-1.88,1.55a1.81,1.81,0,0,1-.69-.14.54.54,0,0,1-.35-.51.56.56,0,0,1,.57-.57c.15,0,.36.1.54.1a.49.49,0,0,0,.54-.47c0-.32-.26-.56-.91-.56A1.29,1.29,0,0,0,103,122.3a1.4,1.4,0,0,0,1.45,1.43,2.19,2.19,0,0,0,1.25-.36.68.68,0,0,1,.37-.11.47.47,0,0,1,.44.25.63.63,0,0,1-.28.85,3.19,3.19,0,0,1-1.88.49A2.54,2.54,0,0,1,101.73,122.3Zm5.77-2a.55.55,0,0,1,.58-.57.56.56,0,0,1,.59.57v.46a1.62,1.62,0,0,1,1.31-1,.82.82,0,0,1,.9.8.59.59,0,0,1-.52.62c-.32,0-.34-.25-.64-.25-.67,0-1,1.25-1,1.9v1.41a.59.59,0,0,1-1.17,0Zm6.73-.38,1.49-2.52a.59.59,0,0,1,.51-.31c.38,0,.55.22.55.47a.74.74,0,0,1-.12.38l-1.31,2.26a1.15,1.15,0,0,1,1-.37,2.18,2.18,0,0,1,2,2.41,2.54,2.54,0,0,1-5.07,0C113.29,121.82,113.4,121.36,114.23,120Zm1.59.9a1.41,1.41,0,1,0,1.35,1.42A1.31,1.31,0,0,0,115.82,120.86Zm3.34.14a.54.54,0,0,1-.56-.56.55.55,0,0,1,.56-.58h.61v-.73a.59.59,0,0,1,1.17,0v.73h.92a.54.54,0,0,1,.55.58.53.53,0,0,1-.55.56h-.92v2.22c0,.35.07.49.23.49a.37.37,0,0,0,.28-.11.6.6,0,0,1,.46-.19.52.52,0,0,1,.55.57.64.64,0,0,1-.14.38,1.58,1.58,0,0,1-1.19.49c-1,0-1.36-.65-1.36-1.49V121Zm4.1-3.74c0-1.21.5-1.45,1.35-1.45h.1a.51.51,0,0,1,.55.57.52.52,0,0,1-.55.58h0c-.14,0-.23.06-.23.26v3.51a1.67,1.67,0,0,1,1.53-1,1.34,1.34,0,0,1,1.39,1.51v2.23c0,.19,0,.23.13.23a.43.43,0,0,0,.21-.1.46.46,0,0,1,.73.41.57.57,0,0,1-.23.44,1.19,1.19,0,0,1-.89.32c-.68,0-1.12-.36-1.12-1.27v-2c0-.52-.23-.65-.5-.65-.55,0-1.21.54-1.25,1.67v1.66a.56.56,0,0,1-.6.57.55.55,0,0,1-.57-.57ZM134,124.08a1.79,1.79,0,0,1-1.49.77c-1.13,0-1.81-.94-1.81-2.19,0-1.62,1-2.89,2.38-2.89a1.11,1.11,0,0,1,.88.35.55.55,0,0,1,.56-.35.54.54,0,0,1,.59.56v3.18c0,.19,0,.23.13.23a.43.43,0,0,0,.21-.1.46.46,0,0,1,.73.41.54.54,0,0,1-.23.44,1.19,1.19,0,0,1-.89.32A1,1,0,0,1,134,124.08ZM132,122.63c0,.66.32,1.07.78,1.07.72,0,1.18-.84,1.21-1.62v-.16c0-.65-.38-1-.82-1C132.38,120.91,132,121.71,132,122.63Zm5.93-1.9a1.67,1.67,0,0,1,1.53-1,1.34,1.34,0,0,1,1.39,1.51v2.23c0,.19,0,.23.13.23a.46.46,0,0,0,.22-.1.45.45,0,0,1,.72.41.54.54,0,0,1-.23.44,1.19,1.19,0,0,1-.89.32c-.67,0-1.12-.36-1.12-1.27v-2c0-.52-.23-.65-.5-.65-.54,0-1.21.54-1.25,1.67v1.66a.59.59,0,0,1-1.17,0v-3.91a.56.56,0,0,1,.59-.56.55.55,0,0,1,.58.56Zm8.61,2.78c0,.19,0,.23.13.23a.46.46,0,0,0,.22-.1.45.45,0,0,1,.72.41.54.54,0,0,1-.23.44,1.19,1.19,0,0,1-.89.32,1,1,0,0,1-1.05-.73,1.8,1.8,0,0,1-1.49.77c-1.14,0-1.81-.94-1.81-2.19,0-1.62,1-2.89,2.38-2.89a1.13,1.13,0,0,1,.85.33v-3.73a.59.59,0,0,1,1.17,0Zm-3.15-.88c0,.66.31,1.07.77,1.07.75,0,1.21-.88,1.21-1.68s-.35-1.11-.81-1.11C143.76,120.91,143.36,121.71,143.36,122.63Zm7.65,1.91a.51.51,0,0,1-.45.27.62.62,0,0,1-.61-.56A.59.59,0,0,1,150,124l3.31-5.64h-3a.54.54,0,0,1-.56-.56.52.52,0,0,1,.55-.56h3.8c.4,0,.6.19.6.47s0,.37-.4,1Zm4.48-3.54a.54.54,0,0,1-.56-.56.55.55,0,0,1,.56-.58h.61v-.73a.59.59,0,0,1,1.17,0v.73h.92a.54.54,0,0,1,.55.58.53.53,0,0,1-.55.56h-.92v2.22c0,.35.07.49.23.49a.37.37,0,0,0,.28-.11.6.6,0,0,1,.46-.19.52.52,0,0,1,.55.57.64.64,0,0,1-.14.38,1.56,1.56,0,0,1-1.19.49c-1,0-1.36-.65-1.36-1.49V121Zm4.1-3.74c0-1.21.5-1.45,1.35-1.45h.1a.51.51,0,0,1,.55.57.52.52,0,0,1-.55.58h0c-.14,0-.23.06-.23.26v3.51a1.67,1.67,0,0,1,1.53-1,1.34,1.34,0,0,1,1.39,1.51v2.23c0,.19,0,.23.13.23a.43.43,0,0,0,.21-.1.46.46,0,0,1,.73.41.54.54,0,0,1-.23.44,1.19,1.19,0,0,1-.89.32c-.68,0-1.12-.36-1.12-1.27v-2c0-.52-.23-.65-.5-.65-.55,0-1.21.54-1.25,1.67v1.66a.56.56,0,0,1-.6.57.55.55,0,0,1-.57-.57Zm6.17,8.34a.68.68,0,0,1-.4.34.66.66,0,0,1-.73-.44.6.6,0,0,1,0-.37l.65-1.54a.59.59,0,0,1,.37-.33.66.66,0,0,1,.75.44.45.45,0,0,1,0,.36Zm4-.88a.51.51,0,0,1-.56-.52c0-.36.25-.47.67-.63,1.49-.56,3.12-2.29,3.12-3.92a1.28,1.28,0,0,0-1.32-1.39,1.12,1.12,0,0,0-1.21,1.09,1.06,1.06,0,0,0,.43.91.55.55,0,0,1,.2.45.62.62,0,0,1-.57.61.64.64,0,0,1-.36-.11,2.37,2.37,0,0,1-.92-1.85,2.26,2.26,0,0,1,2.45-2.23,2.39,2.39,0,0,1,2.51,2.53,4.89,4.89,0,0,1-2.61,3.93H174a.53.53,0,0,1,.55.56.55.55,0,0,1-.56.57Zm8.16-7.59c1.61,0,2.72,1.29,2.72,3.85s-1.08,3.83-2.72,3.83-2.72-1.27-2.72-3.83S176.34,117.13,178,117.13Zm0,1.13c-.77,0-1.53.87-1.53,2.72s.74,2.71,1.53,2.71,1.54-.87,1.54-2.71S178.73,118.26,178,118.26Zm3.79.12a.58.58,0,0,1-.55-.58.57.57,0,0,1,.55-.58h.61c1.17,0,1.49.23,1.49,1.6v5.42a.55.55,0,0,1-.58.57.56.56,0,0,1-.6-.57v-5.47c0-.26-.08-.39-.31-.39ZM189,122l-1.49,2.52a.59.59,0,0,1-.51.31c-.38,0-.55-.22-.55-.47a.85.85,0,0,1,.12-.38l1.31-2.26a1.15,1.15,0,0,1-1,.37,2.17,2.17,0,0,1-2-2.41,2.53,2.53,0,1,1,5.06,0C190,120.12,189.85,120.58,189,122Zm-1.59-.9a1.41,1.41,0,1,0-1.35-1.42A1.31,1.31,0,0,0,187.43,121.08Zm8.51,3a1.8,1.8,0,0,1-1.49.77c-1.14,0-1.81-.94-1.81-2.19,0-1.62,1-2.89,2.38-2.89a1.13,1.13,0,0,1,.88.35.54.54,0,0,1,.56-.35.53.53,0,0,1,.58.56v3.18c0,.19,0,.23.13.23a.42.42,0,0,0,.22-.1.45.45,0,0,1,.72.41.54.54,0,0,1-.23.44,1.17,1.17,0,0,1-.89.32A1,1,0,0,1,195.94,124.08Zm-2.05-1.45c0,.66.31,1.07.77,1.07.73,0,1.19-.84,1.21-1.62v-.16c0-.65-.38-1-.81-1C194.29,120.91,193.89,121.71,193.89,122.63Zm4.69-1.63a.55.55,0,0,1-.56-.56.56.56,0,0,1,.56-.58h.62v-.73a.55.55,0,0,1,.58-.57.56.56,0,0,1,.59.57v.73h.91a.53.53,0,0,1,.55.58.52.52,0,0,1-.55.56h-.91v2.22c0,.35.06.49.23.49a.38.38,0,0,0,.28-.11.59.59,0,0,1,.46-.19.51.51,0,0,1,.54.57.64.64,0,0,1-.14.38,1.53,1.53,0,0,1-1.18.49c-1,0-1.36-.65-1.36-1.49V121Zm10,2.64c2.07,0,2.84-1.42,2.84-3.12,0-1.1-.64-2.35-1.81-2.35a1.09,1.09,0,0,0-1.18,1.2,1.55,1.55,0,0,0,.57,1.13.6.6,0,0,1,.22.44.63.63,0,0,1-.62.62.58.58,0,0,1-.35-.11,2.66,2.66,0,0,1-1.05-2,2.3,2.3,0,0,1,2.5-2.29,3.2,3.2,0,0,1,3.07,3.39c0,2.72-1.56,4.29-4.19,4.29a3.89,3.89,0,0,1-4.14-4.06,4.39,4.39,0,0,1,1.66-3.44.82.82,0,0,1,.48-.18.55.55,0,0,1,.57.57.75.75,0,0,1-.23.47,3.75,3.75,0,0,0-1.13,2.58A2.67,2.67,0,0,0,208.57,123.64Zm8.21-2.78a.54.54,0,0,1-.81.49c-.3-.22-.49-.48-.93-.48s-.55.2-.55.45.32.47.75.75,1.24.77,1.24,1.52a1.21,1.21,0,0,1-1.37,1.26c-.58,0-1.35-.18-1.35-.88a.53.53,0,0,1,.53-.56c.29,0,.48.34.8.34s.24-.06.24-.16-.36-.4-.85-.69-1.12-.68-1.12-1.53a1.61,1.61,0,0,1,1.73-1.6,1.92,1.92,0,0,1,1.58.75A.51.51,0,0,1,216.78,120.86Zm3.81,3.22a1.79,1.79,0,0,1-1.49.77c-1.13,0-1.81-.94-1.81-2.19,0-1.62,1-2.89,2.38-2.89a1.11,1.11,0,0,1,.88.35.55.55,0,0,1,.56-.35.54.54,0,0,1,.59.56v3.18c0,.19,0,.23.13.23a.43.43,0,0,0,.21-.1.46.46,0,0,1,.73.41.57.57,0,0,1-.23.44,1.19,1.19,0,0,1-.89.32A1,1,0,0,1,220.59,124.08Zm-2.05-1.45c0,.66.32,1.07.78,1.07.72,0,1.18-.84,1.21-1.62v-.16c0-.65-.39-1-.82-1C219,120.91,218.54,121.71,218.54,122.63Zm4.77-5.37c0-1.21.5-1.45,1.35-1.45h.11a.5.5,0,0,1,.54.57.52.52,0,0,1-.54.58h-.05c-.14,0-.23.06-.23.26v3.32a1.76,1.76,0,0,1,1.55-.77,1.15,1.15,0,0,1,1.27,1.24,1.92,1.92,0,0,1-1.42,1.67,1.07,1.07,0,0,1,.62.51c.17.24.35.45.45.45s.26-.22.46-.22a.53.53,0,0,1,.53.54.92.92,0,0,1-1,.85c-.5,0-.7-.09-1.24-.79a7.91,7.91,0,0,0-.63-.88.7.7,0,0,1-.26-.53c0-.26.11-.39.42-.55.73-.4.87-.63.87-.88s-.09-.27-.35-.27c-.58,0-1.28.55-1.28,1.73v1.6a.59.59,0,0,1-1.18,0Zm8.32,6.82a1.79,1.79,0,0,1-1.49.77c-1.13,0-1.81-.94-1.81-2.19,0-1.62,1-2.89,2.38-2.89a1.11,1.11,0,0,1,.88.35.55.55,0,0,1,.56-.35.54.54,0,0,1,.59.56v3.18c0,.19,0,.23.13.23a.43.43,0,0,0,.21-.1.46.46,0,0,1,.73.41.57.57,0,0,1-.23.44,1.19,1.19,0,0,1-.89.32A1,1,0,0,1,231.63,124.08Zm-2-1.45c0,.66.32,1.07.78,1.07.72,0,1.18-.84,1.21-1.62v-.16c0-.65-.38-1-.82-1C230,120.91,229.58,121.71,229.58,122.63ZM257,98.38s-.07-.17-.28-.61a3.55,3.55,0,0,0-.55-1,.89.89,0,0,0-.79-.36.55.55,0,0,0-.44.63,1.49,1.49,0,0,0,.48.86c.19.11,1,.78,1,.78a11.61,11.61,0,0,1-1.31.14c-.69,0-1,1.08-.8,1.36a1.09,1.09,0,0,0,1.19.22,6.72,6.72,0,0,0,1.27-1.14,4,4,0,0,1-.23,1.06c-.45,1.14.38,1.42.45,1.46a1.76,1.76,0,0,0,.38,0,1,1,0,0,0,.57-1.15c-.12-.48-.47-1.46-.47-1.46a7.83,7.83,0,0,0,1.16.95,1.14,1.14,0,0,0,.91-.12c.2-.09.43-.27.33-.52s0-.53-.41-.74a3.25,3.25,0,0,0-1.87,0c1.48-.92,1.41-1.78,1.21-2s-.32-.18-.52-.14-.29,0-.45,0a2.06,2.06,0,0,0-.75,1.56Zm7.45-7.14s-.29-.2-1.09-.67a7.49,7.49,0,0,0-1.88-.9,1.64,1.64,0,0,0-1.62.3,1,1,0,0,0,0,1.45,2.72,2.72,0,0,0,1.66.83c.43,0,2.4.16,2.4.16A21,21,0,0,1,262,94.05c-1.05.78-.42,2.77.21,3a2.05,2.05,0,0,0,2.1-.92,12.59,12.59,0,0,0,.78-3.16,7.62,7.62,0,0,1,.77,1.91c.52,2.28,2.11,1.83,2.27,1.8a3,3,0,0,0,.64-.33,1.91,1.91,0,0,0-.33-2.42c-.71-.63-2.32-1.79-2.32-1.79a15,15,0,0,0,2.85.24,2.12,2.12,0,0,0,1.3-1.15c.2-.36.38-.88-.05-1.18s-.58-.81-1.42-.71-1.7.74-3,1.94c1.33-3,.29-4.31-.27-4.47s-.69.07-1,.33-.49.25-.65.55a3.89,3.89,0,0,0,.48,3.25ZM22.19,65.83a1.06,1.06,0,0,0,0-1.5l-2.54-2.48a1.06,1.06,0,1,0-1.48,1.52l2.54,2.48a1,1,0,0,0,.74.3A1.07,1.07,0,0,0,22.19,65.83Zm-5,7.59a1.06,1.06,0,0,0-1-1.12l-2.5-.14a1.08,1.08,0,0,0-1.12,1,1.06,1.06,0,0,0,1,1.12l2.51.14h.06A1.06,1.06,0,0,0,17.15,73.42ZM19,69.28a1,1,0,0,0-.6-1.37L14.5,66.4a1.06,1.06,0,1,0-.77,2l3.89,1.52A1.06,1.06,0,0,0,19,69.28Zm190.78.23c6,0,10.22,6.89,8.36,16.95-2.1,11.39-8.41,16.88-15.54,16.88s-12.31-5.55-9.9-16.88S201.42,69.52,209.77,69.51Zm-7,6.95c-.44,0-.8.54-.8,1.2s.36,1.2.8,1.2.8-.53.8-1.2S203.24,76.46,202.8,76.46Zm4.79,0c-.44,0-.8.54-.8,1.2s.36,1.2.8,1.2.8-.53.8-1.2S208,76.46,207.59,76.46Zm3.28,4.64a.53.53,0,0,0-1-.48c-1.65,3.31-3.59,5-5.47,4.92-1.64-.12-3.15-1.67-3.95-4.05a.53.53,0,1,0-1,.34c.93,2.79,2.8,4.62,4.87,4.77h.28C206.3,86.61,208.62,85.59,210.87,81.1Z" transform="translate(0)"/><path class="b" d="M37.56,97.55c10.48,0,16.08-7.21,17.95-16,1.28-5.92-.71-12.22-6.76-12.22a7.42,7.42,0,0,0-7.53,6.3,6.84,6.84,0,0,0,1.68,6,2.11,2.11,0,0,1,.58,2.06,4,4,0,0,1-3.54,3,2.37,2.37,0,0,1-1.61-.57,11,11,0,0,1-3.09-10.23c1.48-7,7.85-11.52,14.93-11.52,9.58,0,13.7,8.36,11.77,17.24C59.05,95.3,49.4,103.15,36.33,103.15c-12.54,0-19-8.3-16.47-20.46a28.54,28.54,0,0,1,12-17.38,5.8,5.8,0,0,1,2.58-.83,2.07,2.07,0,0,1,2.12,2.7A4.88,4.88,0,0,1,35,69.43c-4,3.48-7.46,7.59-8.62,13.26C24.62,90.73,28,97.55,37.56,97.55Z" transform="translate(0)"/><path class="b" d="M70.42,79.36C69,86,83.21,86.87,81.31,95.85c-1,4.49-5.56,7.24-10.22,7.24-2.58,0-5.89-1.29-6.62-3.31s2-4.71,3.87-3.37c.9.62,1.63,2,3.82,2,2.36,0,3.7-1,4-2.53,1.18-5.39-13-6.06-10.83-16.38a13,13,0,0,1,13-10.21c6.39,0,9.93,4.2,8.64,10.38a3.05,3.05,0,0,1-3,2.46,1.89,1.89,0,0,1-2-2.46c.56-2.75-.73-5.5-4.6-5.5A6.74,6.74,0,0,0,70.42,79.36Z" transform="translate(0)"/><path class="b" d="M104.06,97.48c-.17.9,0,1.12.39,1.12a2.26,2.26,0,0,0,1.18-.5c1.8-1.13,3,.16,2.75,1.68a3.44,3.44,0,0,1-1.4,1.91,6.56,6.56,0,0,1-4.21,1.4c-2.36,0-3.76-1-3.82-3.31a10.35,10.35,0,0,1-7.52,3.48c-5,0-7.06-4.15-5.89-9.65,1.52-7.13,6.9-12.74,13.19-12.74a4.19,4.19,0,0,1,3.7,1.68,2.77,2.77,0,0,1,2.7-1.68c1.4,0,2.3.79,2,2.36Zm-13.3-4c-.62,3.09.45,5,2.58,5,3.31,0,6.29-3.7,7.18-7.41l.12-.28c.67-3.2-.56-5.16-2.75-5.16C94.35,85.64,91.66,89.4,90.76,93.49Z" transform="translate(0)"/><path class="b" d="M117.72,69.76c1.12-5.27,3.48-6.34,7.18-6.34h.39c1.29,0,2.19.73,1.8,2.41a2.81,2.81,0,0,1-2.81,2.42h-.22c-.67,0-1.12.28-1.35,1.34l-3.14,14.87a10.08,10.08,0,0,1,7.74-3.59c3.76,0,5.11,2.36,4.49,5.44s-4.09,6.17-8,7.35c1.17.28,1.68,1.24,2.3,2.47s1.17,2.08,1.73,2.08c.73,0,1.41-1,2.19-1a1.72,1.72,0,0,1,1.8,2.19c-.51,2.3-3,3.65-5.11,3.65s-3-.45-4.71-3.54c-.79-1.62-1.23-3.19-2.13-3.92a2.33,2.33,0,0,1-.62-2.25c.23-1.06.84-1.62,2.25-2.3,3.87-1.63,4.82-2.86,5.1-4.09.17-.73-.22-1.35-1.46-1.35-2.64,0-6.28,2.41-7.52,7.57l-1.57,7.47a3,3,0,0,1-3,2.41,1.84,1.84,0,0,1-1.91-2.41Z" transform="translate(0)"/><path class="b" d="M153.88,97.48c-.17.9,0,1.12.39,1.12a2.26,2.26,0,0,0,1.18-.5c1.8-1.13,3,.16,2.75,1.68a3.44,3.44,0,0,1-1.4,1.91,6.56,6.56,0,0,1-4.21,1.4c-2.36,0-3.76-1-3.82-3.31a10.35,10.35,0,0,1-7.52,3.48c-5,0-7.07-4.15-5.89-9.65,1.52-7.13,6.9-12.74,13.19-12.74a4.19,4.19,0,0,1,3.7,1.68,2.77,2.77,0,0,1,2.7-1.68c1.4,0,2.3.79,2,2.36Zm-13.3-4c-.62,3.09.45,5,2.58,5,3.31,0,6.29-3.7,7.18-7.41l.12-.28c.67-3.2-.56-5.16-2.75-5.16C144.17,85.64,141.48,89.4,140.58,93.49Z" transform="translate(0)"/><path class="b" d="M165.37,102.7c-1.51,0-2.13-1-1.85-2.14.28-1.51,1.35-2,3.37-2.63,6.9-2.42,16.1-10.1,17.73-17.68C185.46,76,183.05,74,180,74a6.59,6.59,0,0,0-6.62,5,4.13,4.13,0,0,0,1,4.21,1.83,1.83,0,0,1,.45,1.85,3.4,3.4,0,0,1-2.92,2.58,2,2,0,0,1-1.4-.51A8.54,8.54,0,0,1,168.24,79,12.8,12.8,0,0,1,181,69.26c5.67,0,10.15,3.64,8.58,11C187.71,89.4,178.34,96,174,98h10.72a1.77,1.77,0,0,1,1.85,2.3,3,3,0,0,1-2.86,2.42Z" transform="translate(0)"/><path class="b" d="M223.84,74.47a1.84,1.84,0,0,1-1.74-2.35,3.16,3.16,0,0,1,2.81-2.47h2.8c4.88,0,6.06,1,4.83,6.9l-5.17,24.13a2.94,2.94,0,0,1-2.91,2.41,1.88,1.88,0,0,1-2-2.41l5.16-24.35c.28-1.24.05-1.86-1-1.86Z" transform="translate(0)"/><path class="b" d="M252.34,90.75l-8.92,11a3.08,3.08,0,0,1-2.41,1.29c-1.63,0-2.08-.9-1.85-2a5.35,5.35,0,0,1,.84-1.69l8-10a6.63,6.63,0,0,1-4.89,1.63c-4.82,0-8-4.32-6.62-10.66A13.6,13.6,0,0,1,250,69.26c6.73,0,10.21,4.48,8.81,11.16C258.35,82.61,257.22,84.69,252.34,90.75Zm-6.11-3.88a7.81,7.81,0,0,0,7.57-6.45c.9-4.15-1.4-6.45-4.82-6.45a7.72,7.72,0,0,0-7.58,6.45C240.5,84.52,242.75,86.87,246.23,86.87Z" transform="translate(0)"/><path class="b" d="M209.77,69.51c6,0,10.22,6.89,8.36,16.95-2.1,11.39-8.41,16.88-15.54,16.88s-12.31-5.55-9.9-16.88S201.42,69.52,209.77,69.51Zm-1,4.71c-4.69.06-9.33,3.93-11.07,12.24S200,98.69,203.6,98.69s7.8-3.93,9.54-12.23S212.3,74.18,208.76,74.22Z" transform="translate(0)"/><path class="b" d="M41.4,33.66,33.17,47.5a3.59,3.59,0,0,1-3.15,2,2.21,2.21,0,0,1-2.39-2.12l-3-20.14c-1-6.37-1.74-11.13-7.27-11.13a7.34,7.34,0,0,0-7.46,6.11,7.8,7.8,0,0,0,1.48,6,2.32,2.32,0,0,1,.45,2.06A3.66,3.66,0,0,1,8.52,33,2,2,0,0,1,7,32.44a10.9,10.9,0,0,1-2.7-10.17A14.51,14.51,0,0,1,18.5,10.76c8,0,10.42,3.66,12.22,17.11L32.2,39,40,25.81,38.06,14.29a2.53,2.53,0,0,1,.06-1,3.82,3.82,0,0,1,3.61-2.64,1.83,1.83,0,0,1,2,1.55l1,5.66L48,12.24a3.3,3.3,0,0,1,2.83-1.55,2.3,2.3,0,0,1,2.45,2.64,3.43,3.43,0,0,1-.45,1L46,25.81l2.32,13.32L64.18,12.24a3.18,3.18,0,0,1,2.7-1.55,2.36,2.36,0,0,1,2.58,2.64,7.27,7.27,0,0,1-.39,1L49.32,47.5a3.75,3.75,0,0,1-3.22,2,2.23,2.23,0,0,1-2.38-2.12Z" transform="translate(0)"/><path class="b" d="M78.46,24.07c7.47,0,12.1,4.7,10.36,12.81A15.68,15.68,0,0,1,73.06,49.55c-7.4,0-12.1-4.63-10.36-12.67A15.78,15.78,0,0,1,78.46,24.07ZM77.3,29.54c-4.11,0-7.59,2.84-8.55,7.34s1.35,7.21,5.47,7.21a8.74,8.74,0,0,0,8.55-7.21C83.74,32.38,81.36,29.54,77.3,29.54Z" transform="translate(0)"/><path class="b" d="M95.3,26.84a3.41,3.41,0,0,1,3.41-2.77A2.13,2.13,0,0,1,101,26.84l-.57,2.7c2.31-3.34,5.34-5.47,7.91-5.47,3.22,0,4.12,2.13,3.73,3.93a3.69,3.69,0,0,1-3.15,3c-1.55,0-1.42-1.35-2.9-1.35-3.41,0-6.69,6-7.65,9.59l-1.61,7.59a3.4,3.4,0,0,1-3.41,2.77,2.12,2.12,0,0,1-2.25-2.77Z" transform="translate(0)"/><path class="b" d="M126.55,45.76a11.86,11.86,0,0,1-8.62,4c-5.72,0-8.1-4.76-6.75-11.07,1.73-8.17,7.91-14.61,15.12-14.61a4.81,4.81,0,0,1,4.18,1.87l4.05-19.17A3.5,3.5,0,0,1,137.94,4a2.07,2.07,0,0,1,2.19,2.77l-7.72,36.35c-.19,1,0,1.29.45,1.29a2.4,2.4,0,0,0,1.35-.58c2.06-1.29,3.48.19,3.15,1.93a3.9,3.9,0,0,1-1.6,2.19,7.53,7.53,0,0,1-4.83,1.6C128.23,49.55,126.62,48.46,126.55,45.76Zm-9.39-7.21c-.71,3.54.52,5.73,3,5.73,3.93,0,7.4-4.51,8.37-8.82.77-3.66-.65-5.92-3.16-5.92C121.28,29.54,118.19,33.86,117.16,38.55Z" transform="translate(0)"/><path class="b" d="M170.51,30.78A2.18,2.18,0,0,1,168.26,28a4.21,4.21,0,0,1,1.68-2.38,10,10,0,0,0,3.92-5.73c.9-4.31-1.67-7.27-7.14-7.27-8.56,0-16.34,7.21-18.66,18-2.12,10.1,1.74,17.63,11.64,17.63,5.41,0,8.18-2.19,11.14-4.7A5.38,5.38,0,0,1,174,42.11a2,2,0,0,1,1.67.77,2,2,0,0,1,.58,1.87,5.84,5.84,0,0,1-1.48,2.38c-3.15,3.47-9.39,6.88-17,6.88-12.93,0-19-9.91-16.15-23.16C144.46,17.08,155.39,7,167.55,7c8.76,0,13.84,5.15,12.23,12.74A16.42,16.42,0,0,1,172.7,30,4,4,0,0,1,170.51,30.78Z" transform="translate(0)"/><path class="b" d="M201.4,43.12c-.2,1,0,1.29.45,1.29a2.64,2.64,0,0,0,1.35-.58c2.06-1.29,3.47.19,3.15,1.93A3.92,3.92,0,0,1,204.74,48a7.5,7.5,0,0,1-4.82,1.6c-2.71,0-4.31-1.09-4.38-3.79a11.86,11.86,0,0,1-8.62,4c-5.73,0-8.11-4.76-6.76-11.07,1.74-8.17,7.92-14.61,15.12-14.61A4.8,4.8,0,0,1,199.53,26a3.17,3.17,0,0,1,3.09-1.94c1.61,0,2.64.91,2.25,2.71Zm-15.25-4.57c-.71,3.54.51,5.73,3,5.73,3.79,0,7.2-4.25,8.23-8.49l.13-.33c.77-3.66-.64-5.92-3.15-5.92C190.26,29.54,187.18,33.86,186.15,38.55Z" transform="translate(0)"/><path class="b" d="M218.45,28.45c2.31-2.77,5.79-4.38,8-4.38,3.22,0,4.95,1.42,5,4.12,2.7-2.89,5.72-4.12,8.3-4.12,3.6,0,6.56,2.71,5.53,7.6L242.9,43.12c-.2,1,0,1.29.51,1.29a2.49,2.49,0,0,0,1.29-.58c2.06-1.29,3.47.19,3.15,1.93A3.92,3.92,0,0,1,246.24,48a7.3,7.3,0,0,1-4.76,1.6c-3.35,0-5.15-1.73-4.18-6.24l2.12-10.23c.64-2.89-.26-3.66-1.41-3.66-2.77,0-6.63,3.15-8.11,10.29l-1.55,7.14a3.51,3.51,0,0,1-3.47,2.7,2.06,2.06,0,0,1-2.19-2.7l3-14.15c.51-2.58-.39-3.28-1.55-3.28-2.7,0-6.11,2.63-7.72,8.36l-1.93,9a3.46,3.46,0,0,1-3.47,2.76,2.11,2.11,0,0,1-2.19-2.76l4.25-20a3.45,3.45,0,0,1,3.41-2.71,2.11,2.11,0,0,1,2.25,2.71Z" transform="translate(0)"/><path class="b" d="M260.67,27.68a11.45,11.45,0,0,1,8.17-3.61c5.73,0,8.11,4.77,6.82,11.07-1.74,8.17-8,14.61-15.19,14.61a4.63,4.63,0,0,1-4.11-1.8l-3.09,14.54a3.41,3.41,0,0,1-3.41,2.7,2.07,2.07,0,0,1-2.25-2.7l7.59-35.58a3.39,3.39,0,0,1,3.41-2.77,2.13,2.13,0,0,1,2.25,2.77Zm8.94,7.59c.77-3.54-.45-5.73-3-5.73-3.92,0-7.33,4.51-8.23,8.82l-.13.58c-.58,3.34.77,5.34,3.21,5.34C265.56,44.28,268.65,40,269.61,35.27Z" transform="translate(0)"/><ellipse class="b" cx="74.6" cy="34.22" rx="0.53" ry="0.8"/><ellipse class="b" cx="77.78" cy="34.22" rx="0.53" ry="0.8"/><path class="b" d="M72.75,36.87c1.06,3.19,4.24,4.78,6.89-.53" transform="translate(0)"/><path class="b" d="M50.33,123.64c2.08,0,2.84-1.42,2.84-3.12,0-1.1-.64-2.35-1.81-2.35a1.09,1.09,0,0,0-1.18,1.2,1.55,1.55,0,0,0,.57,1.13.6.6,0,0,1,.22.44.63.63,0,0,1-.61.62.59.59,0,0,1-.36-.11,2.65,2.65,0,0,1-1-2,2.29,2.29,0,0,1,2.49-2.29,3.2,3.2,0,0,1,3.07,3.39c0,2.72-1.55,4.29-4.19,4.29a3.89,3.89,0,0,1-4.14-4.06,4.39,4.39,0,0,1,1.66-3.44.82.82,0,0,1,.48-.18.55.55,0,0,1,.57.57.75.75,0,0,1-.23.47,3.79,3.79,0,0,0-1.13,2.58A2.67,2.67,0,0,0,50.33,123.64Z" transform="translate(0)"/><path class="b" d="M56.65,120.73a1.64,1.64,0,0,1,1.52-1,1.34,1.34,0,0,1,1.39,1.51v2.23c0,.19,0,.23.13.23a.46.46,0,0,0,.22-.1.45.45,0,0,1,.72.41.54.54,0,0,1-.23.44,1.19,1.19,0,0,1-.89.32c-.67,0-1.12-.36-1.12-1.27v-2c0-.52-.23-.65-.5-.65-.54,0-1.21.54-1.24,1.67v1.66a.59.59,0,0,1-1.18,0v-3.91a.59.59,0,0,1,1.18,0Z" transform="translate(0)"/><path class="b" d="M63.9,119.45a1.43,1.43,0,0,0,.54,1,.61.61,0,0,1,.23.47.58.58,0,0,1-.59.58.75.75,0,0,1-.42-.14,2.4,2.4,0,0,1-1-1.88c0-1.43,1.15-2.23,2.61-2.23H67.5A3.8,3.8,0,0,1,71.61,121a3.61,3.61,0,0,1-3.88,3.69H65.18a.57.57,0,0,1-.59-.59.58.58,0,0,1,.59-.59h.52c.32,0,.32-.27.32-.67v-3.55a.58.58,0,0,1,.61-.6.56.56,0,0,1,.61.6v3.54c0,.38-.07.64-.25.68h.72A2.42,2.42,0,0,0,70.27,121a2.67,2.67,0,0,0-2.94-2.63H65.25C64.48,118.4,63.9,118.75,63.9,119.45Z" transform="translate(0)"/><path class="b" d="M72.19,122.3a2.43,2.43,0,0,1,2.54-2.53c1.49,0,2.19.89,2.19,1.72S76.24,123,75,123a1.8,1.8,0,0,1-.68-.14.54.54,0,0,1-.35-.51.56.56,0,0,1,.56-.57c.16,0,.37.1.55.1a.49.49,0,0,0,.54-.47c0-.32-.26-.56-.91-.56a1.29,1.29,0,0,0-1.27,1.41,1.4,1.4,0,0,0,1.45,1.43,2.19,2.19,0,0,0,1.25-.36.68.68,0,0,1,.37-.11.47.47,0,0,1,.44.25.63.63,0,0,1-.28.85,3.19,3.19,0,0,1-1.88.49A2.55,2.55,0,0,1,72.19,122.3Z" transform="translate(0)"/><path class="b" d="M80.19,120.91a1.25,1.25,0,0,0-1.26,1.38,1.22,1.22,0,0,0,1.28,1.37,1.43,1.43,0,0,0,1-.35.57.57,0,0,1,.4-.16.59.59,0,0,1,.56.58.51.51,0,0,1-.19.43,2.69,2.69,0,0,1-1.93.65,2.27,2.27,0,0,1-2.42-2.52,2.44,2.44,0,0,1,2.56-2.52A1.66,1.66,0,0,1,82,121.35a1.37,1.37,0,0,1-.42,1,.69.69,0,0,1-.5.23.57.57,0,0,1-.57-.56.58.58,0,0,1,.16-.4.44.44,0,0,0,.14-.31C80.85,121.09,80.64,120.91,80.19,120.91Z" transform="translate(0)"/><path class="b" d="M82.73,122.3a2.42,2.42,0,0,1,2.53-2.53c1.49,0,2.19.89,2.19,1.72S86.78,123,85.57,123a1.81,1.81,0,0,1-.69-.14.54.54,0,0,1-.35-.51.56.56,0,0,1,.57-.57c.15,0,.36.1.54.1a.49.49,0,0,0,.54-.47c0-.32-.26-.56-.91-.56A1.29,1.29,0,0,0,84,122.3a1.4,1.4,0,0,0,1.45,1.43,2.19,2.19,0,0,0,1.25-.36.68.68,0,0,1,.37-.11.47.47,0,0,1,.44.25.63.63,0,0,1-.28.85,3.19,3.19,0,0,1-1.88.49A2.54,2.54,0,0,1,82.73,122.3Z" transform="translate(0)"/><path class="b" d="M89.67,120.61a1.84,1.84,0,0,1,1.38-.84,1,1,0,0,1,1.15.77,1.85,1.85,0,0,1,1.45-.77,1.43,1.43,0,0,1,1.44,1.51v2.23c0,.19,0,.23.13.23a.46.46,0,0,0,.22-.1.45.45,0,0,1,.72.41.54.54,0,0,1-.23.44,1.19,1.19,0,0,1-.89.32c-.67,0-1.12-.36-1.12-1.27v-2c0-.55-.2-.67-.42-.67-.51,0-1.11.6-1.11,2v1.4a.58.58,0,0,1-.61.56.54.54,0,0,1-.57-.56v-2.76c0-.49-.21-.6-.42-.6-.5,0-1.05.51-1.12,1.59v1.76a.56.56,0,0,1-.6.57.55.55,0,0,1-.57-.57v-3.91a.55.55,0,0,1,.58-.56.56.56,0,0,1,.59.56Z" transform="translate(0)"/><path class="b" d="M98.05,117c-.14,0-.23.06-.23.26v3.6a1.48,1.48,0,0,1,1.54-1c1.11,0,1.76.94,1.76,2.11a2.71,2.71,0,0,1-2.55,3,1.92,1.92,0,0,1-1.92-2.14v-5.45c0-1.21.49-1.45,1.35-1.45h.1a.5.5,0,0,1,.54.57.52.52,0,0,1-.54.58Zm1.75,5c0-.51-.19-1-.81-1s-1.15.59-1.17,1.52v.13c0,.58.24,1.14.8,1.14C99.4,123.7,99.8,122.67,99.8,121.92Z" transform="translate(0)"/><path class="b" d="M101.73,122.3a2.42,2.42,0,0,1,2.53-2.53c1.49,0,2.19.89,2.19,1.72s-.67,1.55-1.88,1.55a1.81,1.81,0,0,1-.69-.14.54.54,0,0,1-.35-.51.56.56,0,0,1,.57-.57c.15,0,.36.1.54.1a.49.49,0,0,0,.54-.47c0-.32-.26-.56-.91-.56A1.29,1.29,0,0,0,103,122.3a1.4,1.4,0,0,0,1.45,1.43,2.19,2.19,0,0,0,1.25-.36.68.68,0,0,1,.37-.11.47.47,0,0,1,.44.25.63.63,0,0,1-.28.85,3.19,3.19,0,0,1-1.88.49A2.54,2.54,0,0,1,101.73,122.3Z" transform="translate(0)"/><path class="b" d="M107.5,120.34a.55.55,0,0,1,.58-.57.56.56,0,0,1,.59.57v.46a1.62,1.62,0,0,1,1.31-1,.82.82,0,0,1,.9.8.59.59,0,0,1-.52.62c-.32,0-.34-.25-.64-.25-.67,0-1,1.25-1,1.9v1.41a.59.59,0,0,1-1.17,0Z" transform="translate(0)"/><path class="b" d="M114.23,120l1.49-2.52a.59.59,0,0,1,.51-.31c.38,0,.55.22.55.47a.74.74,0,0,1-.12.38l-1.31,2.26a1.15,1.15,0,0,1,1-.37,2.18,2.18,0,0,1,2,2.41,2.54,2.54,0,0,1-5.07,0C113.29,121.82,113.4,121.36,114.23,120Zm1.59.9a1.41,1.41,0,1,0,1.35,1.42A1.31,1.31,0,0,0,115.82,120.86Z" transform="translate(0)"/><path class="b" d="M119.16,121a.54.54,0,0,1-.56-.56.55.55,0,0,1,.56-.58h.61v-.73a.59.59,0,0,1,1.17,0v.73h.92a.54.54,0,0,1,.55.58.53.53,0,0,1-.55.56h-.92v2.22c0,.35.07.49.23.49a.37.37,0,0,0,.28-.11.6.6,0,0,1,.46-.19.52.52,0,0,1,.55.57.64.64,0,0,1-.14.38,1.58,1.58,0,0,1-1.19.49c-1,0-1.36-.65-1.36-1.49V121Z" transform="translate(0)"/><path class="b" d="M123.26,117.26c0-1.21.5-1.45,1.35-1.45h.1a.51.51,0,0,1,.55.57.52.52,0,0,1-.55.58h0c-.14,0-.23.06-.23.26v3.51a1.67,1.67,0,0,1,1.53-1,1.34,1.34,0,0,1,1.39,1.51v2.23c0,.19,0,.23.13.23a.43.43,0,0,0,.21-.1.46.46,0,0,1,.73.41.57.57,0,0,1-.23.44,1.19,1.19,0,0,1-.89.32c-.68,0-1.12-.36-1.12-1.27v-2c0-.52-.23-.65-.5-.65-.55,0-1.21.54-1.25,1.67v1.66a.56.56,0,0,1-.6.57.55.55,0,0,1-.57-.57Z" transform="translate(0)"/><path class="b" d="M134,124.08a1.79,1.79,0,0,1-1.49.77c-1.13,0-1.81-.94-1.81-2.19,0-1.62,1-2.89,2.38-2.89a1.11,1.11,0,0,1,.88.35.55.55,0,0,1,.56-.35.54.54,0,0,1,.59.56v3.18c0,.19,0,.23.13.23a.43.43,0,0,0,.21-.1.46.46,0,0,1,.73.41.54.54,0,0,1-.23.44,1.19,1.19,0,0,1-.89.32A1,1,0,0,1,134,124.08ZM132,122.63c0,.66.32,1.07.78,1.07.72,0,1.18-.84,1.21-1.62v-.16c0-.65-.38-1-.82-1C132.38,120.91,132,121.71,132,122.63Z" transform="translate(0)"/><path class="b" d="M137.9,120.73a1.67,1.67,0,0,1,1.53-1,1.34,1.34,0,0,1,1.39,1.51v2.23c0,.19,0,.23.13.23a.46.46,0,0,0,.22-.1.45.45,0,0,1,.72.41.54.54,0,0,1-.23.44,1.19,1.19,0,0,1-.89.32c-.67,0-1.12-.36-1.12-1.27v-2c0-.52-.23-.65-.5-.65-.54,0-1.21.54-1.25,1.67v1.66a.59.59,0,0,1-1.17,0v-3.91a.56.56,0,0,1,.59-.56.55.55,0,0,1,.58.56Z" transform="translate(0)"/><path class="b" d="M146.51,123.51c0,.19,0,.23.13.23a.46.46,0,0,0,.22-.1.45.45,0,0,1,.72.41.54.54,0,0,1-.23.44,1.19,1.19,0,0,1-.89.32,1,1,0,0,1-1.05-.73,1.8,1.8,0,0,1-1.49.77c-1.14,0-1.81-.94-1.81-2.19,0-1.62,1-2.89,2.38-2.89a1.13,1.13,0,0,1,.85.33v-3.73a.59.59,0,0,1,1.17,0Zm-3.15-.88c0,.66.31,1.07.77,1.07.75,0,1.21-.88,1.21-1.68s-.35-1.11-.81-1.11C143.76,120.91,143.36,121.71,143.36,122.63Z" transform="translate(0)"/><path class="b" d="M151,124.54a.51.51,0,0,1-.45.27.62.62,0,0,1-.61-.56A.59.59,0,0,1,150,124l3.31-5.64h-3a.54.54,0,0,1-.56-.56.52.52,0,0,1,.55-.56h3.8c.4,0,.6.19.6.47s0,.37-.4,1Z" transform="translate(0)"/><path class="b" d="M155.49,121a.54.54,0,0,1-.56-.56.55.55,0,0,1,.56-.58h.61v-.73a.59.59,0,0,1,1.17,0v.73h.92a.54.54,0,0,1,.55.58.53.53,0,0,1-.55.56h-.92v2.22c0,.35.07.49.23.49a.37.37,0,0,0,.28-.11.6.6,0,0,1,.46-.19.52.52,0,0,1,.55.57.64.64,0,0,1-.14.38,1.56,1.56,0,0,1-1.19.49c-1,0-1.36-.65-1.36-1.49V121Z" transform="translate(0)"/><path class="b" d="M159.59,117.26c0-1.21.5-1.45,1.35-1.45h.1a.51.51,0,0,1,.55.57.52.52,0,0,1-.55.58h0c-.14,0-.23.06-.23.26v3.51a1.67,1.67,0,0,1,1.53-1,1.34,1.34,0,0,1,1.39,1.51v2.23c0,.19,0,.23.13.23a.43.43,0,0,0,.21-.1.46.46,0,0,1,.73.41.54.54,0,0,1-.23.44,1.19,1.19,0,0,1-.89.32c-.68,0-1.12-.36-1.12-1.27v-2c0-.52-.23-.65-.5-.65-.55,0-1.21.54-1.25,1.67v1.66a.56.56,0,0,1-.6.57.55.55,0,0,1-.57-.57Z" transform="translate(0)"/><path class="b" d="M165.76,125.6a.68.68,0,0,1-.4.34.66.66,0,0,1-.73-.44.6.6,0,0,1,0-.37l.65-1.54a.59.59,0,0,1,.37-.33.66.66,0,0,1,.75.44.45.45,0,0,1,0,.36Z" transform="translate(0)"/><path class="b" d="M169.8,124.72a.51.51,0,0,1-.56-.52c0-.36.25-.47.67-.63,1.49-.56,3.12-2.29,3.12-3.92a1.28,1.28,0,0,0-1.32-1.39,1.12,1.12,0,0,0-1.21,1.09,1.06,1.06,0,0,0,.43.91.55.55,0,0,1,.2.45.62.62,0,0,1-.57.61.64.64,0,0,1-.36-.11,2.37,2.37,0,0,1-.92-1.85,2.26,2.26,0,0,1,2.45-2.23,2.39,2.39,0,0,1,2.51,2.53,4.89,4.89,0,0,1-2.61,3.93H174a.53.53,0,0,1,.55.56.55.55,0,0,1-.56.57Z" transform="translate(0)"/><path class="b" d="M178,117.13c1.61,0,2.72,1.29,2.72,3.85s-1.08,3.83-2.72,3.83-2.72-1.27-2.72-3.83S176.34,117.13,178,117.13Zm0,1.13c-.77,0-1.53.87-1.53,2.72s.74,2.71,1.53,2.71,1.54-.87,1.54-2.71S178.73,118.26,178,118.26Z" transform="translate(0)"/><path class="b" d="M181.75,118.38a.58.58,0,0,1-.55-.58.57.57,0,0,1,.55-.58h.61c1.17,0,1.49.23,1.49,1.6v5.42a.55.55,0,0,1-.58.57.56.56,0,0,1-.6-.57v-5.47c0-.26-.08-.39-.31-.39Z" transform="translate(0)"/><path class="b" d="M189,122l-1.49,2.52a.59.59,0,0,1-.51.31c-.38,0-.55-.22-.55-.47a.85.85,0,0,1,.12-.38l1.31-2.26a1.15,1.15,0,0,1-1,.37,2.17,2.17,0,0,1-2-2.41,2.53,2.53,0,1,1,5.06,0C190,120.12,189.85,120.58,189,122Zm-1.59-.9a1.41,1.41,0,1,0-1.35-1.42A1.31,1.31,0,0,0,187.43,121.08Z" transform="translate(0)"/><path class="b" d="M195.94,124.08a1.8,1.8,0,0,1-1.49.77c-1.14,0-1.81-.94-1.81-2.19,0-1.62,1-2.89,2.38-2.89a1.13,1.13,0,0,1,.88.35.54.54,0,0,1,.56-.35.53.53,0,0,1,.58.56v3.18c0,.19,0,.23.13.23a.42.42,0,0,0,.22-.1.45.45,0,0,1,.72.41.54.54,0,0,1-.23.44,1.17,1.17,0,0,1-.89.32A1,1,0,0,1,195.94,124.08Zm-2.05-1.45c0,.66.31,1.07.77,1.07.73,0,1.19-.84,1.21-1.62v-.16c0-.65-.38-1-.81-1C194.29,120.91,193.89,121.71,193.89,122.63Z" transform="translate(0)"/><path class="b" d="M198.58,121a.55.55,0,0,1-.56-.56.56.56,0,0,1,.56-.58h.62v-.73a.55.55,0,0,1,.58-.57.56.56,0,0,1,.59.57v.73h.91a.53.53,0,0,1,.55.58.52.52,0,0,1-.55.56h-.91v2.22c0,.35.06.49.23.49a.38.38,0,0,0,.28-.11.59.59,0,0,1,.46-.19.51.51,0,0,1,.54.57.64.64,0,0,1-.14.38,1.53,1.53,0,0,1-1.18.49c-1,0-1.36-.65-1.36-1.49V121Z" transform="translate(0)"/><path class="b" d="M208.57,123.64c2.07,0,2.84-1.42,2.84-3.12,0-1.1-.64-2.35-1.81-2.35a1.09,1.09,0,0,0-1.18,1.2,1.55,1.55,0,0,0,.57,1.13.6.6,0,0,1,.22.44.63.63,0,0,1-.62.62.58.58,0,0,1-.35-.11,2.66,2.66,0,0,1-1.05-2,2.3,2.3,0,0,1,2.5-2.29,3.2,3.2,0,0,1,3.07,3.39c0,2.72-1.56,4.29-4.19,4.29a3.89,3.89,0,0,1-4.14-4.06,4.39,4.39,0,0,1,1.66-3.44.82.82,0,0,1,.48-.18.55.55,0,0,1,.57.57.75.75,0,0,1-.23.47,3.75,3.75,0,0,0-1.13,2.58A2.67,2.67,0,0,0,208.57,123.64Z" transform="translate(0)"/><path class="b" d="M216.78,120.86a.54.54,0,0,1-.81.49c-.3-.22-.49-.48-.93-.48s-.55.2-.55.45.32.47.75.75,1.24.77,1.24,1.52a1.21,1.21,0,0,1-1.37,1.26c-.58,0-1.35-.18-1.35-.88a.53.53,0,0,1,.53-.56c.29,0,.48.34.8.34s.24-.06.24-.16-.36-.4-.85-.69-1.12-.68-1.12-1.53a1.61,1.61,0,0,1,1.73-1.6,1.92,1.92,0,0,1,1.58.75A.51.51,0,0,1,216.78,120.86Z" transform="translate(0)"/><path class="b" d="M220.59,124.08a1.79,1.79,0,0,1-1.49.77c-1.13,0-1.81-.94-1.81-2.19,0-1.62,1-2.89,2.38-2.89a1.11,1.11,0,0,1,.88.35.55.55,0,0,1,.56-.35.54.54,0,0,1,.59.56v3.18c0,.19,0,.23.13.23a.43.43,0,0,0,.21-.1.46.46,0,0,1,.73.41.57.57,0,0,1-.23.44,1.19,1.19,0,0,1-.89.32A1,1,0,0,1,220.59,124.08Zm-2.05-1.45c0,.66.32,1.07.78,1.07.72,0,1.18-.84,1.21-1.62v-.16c0-.65-.39-1-.82-1C219,120.91,218.54,121.71,218.54,122.63Z" transform="translate(0)"/><path class="b" d="M223.31,117.26c0-1.21.5-1.45,1.35-1.45h.11a.5.5,0,0,1,.54.57.52.52,0,0,1-.54.58h-.05c-.14,0-.23.06-.23.26v3.32a1.76,1.76,0,0,1,1.55-.77,1.15,1.15,0,0,1,1.27,1.24,1.92,1.92,0,0,1-1.42,1.67,1.07,1.07,0,0,1,.62.51c.17.24.35.45.45.45s.26-.22.46-.22a.53.53,0,0,1,.53.54.92.92,0,0,1-1,.85c-.5,0-.7-.09-1.24-.79a7.91,7.91,0,0,0-.63-.88.7.7,0,0,1-.26-.53c0-.26.11-.39.42-.55.73-.4.87-.63.87-.88s-.09-.27-.35-.27c-.58,0-1.28.55-1.28,1.73v1.6a.59.59,0,0,1-1.18,0Z" transform="translate(0)"/><path class="b" d="M231.63,124.08a1.79,1.79,0,0,1-1.49.77c-1.13,0-1.81-.94-1.81-2.19,0-1.62,1-2.89,2.38-2.89a1.11,1.11,0,0,1,.88.35.55.55,0,0,1,.56-.35.54.54,0,0,1,.59.56v3.18c0,.19,0,.23.13.23a.43.43,0,0,0,.21-.1.46.46,0,0,1,.73.41.57.57,0,0,1-.23.44,1.19,1.19,0,0,1-.89.32A1,1,0,0,1,231.63,124.08Zm-2-1.45c0,.66.32,1.07.78,1.07.72,0,1.18-.84,1.21-1.62v-.16c0-.65-.38-1-.82-1C230,120.91,229.58,121.71,229.58,122.63Z" transform="translate(0)"/><path class="b" d="M257,98.23a2.06,2.06,0,0,1,.75-1.56c.16-.08.25,0,.45,0s.32-.11.52.14.27,1.1-1.21,2a3.25,3.25,0,0,1,1.87,0c.4.21.31.48.41.74s-.13.43-.33.52a1.14,1.14,0,0,1-.91.12,7.83,7.83,0,0,1-1.16-.95s.35,1,.47,1.46a1,1,0,0,1-.57,1.15,1.76,1.76,0,0,1-.38,0c-.07,0-.9-.32-.45-1.46a4,4,0,0,0,.23-1.06,6.72,6.72,0,0,1-1.27,1.14,1.09,1.09,0,0,1-1.19-.22c-.21-.28.11-1.33.8-1.36a11.61,11.61,0,0,0,1.31-.14s-.8-.67-1-.78a1.49,1.49,0,0,1-.48-.86.55.55,0,0,1,.44-.63.89.89,0,0,1,.79.36,3.55,3.55,0,0,1,.55,1c.21.44.28.61.28.61Z" transform="translate(0)"/><path class="b" d="M264.37,90.92a3.89,3.89,0,0,1-.48-3.25c.16-.3.38-.28.65-.55s.4-.5,1-.33,1.6,1.43.27,4.47c1.29-1.2,2.14-1.84,3-1.94s1,.41,1.42.71.25.82.05,1.18a2.12,2.12,0,0,1-1.3,1.15,15,15,0,0,1-2.85-.24s1.61,1.16,2.32,1.79a1.91,1.91,0,0,1,.33,2.42,3,3,0,0,1-.64.33c-.16,0-1.75.48-2.27-1.8a7.62,7.62,0,0,0-.77-1.91,12.59,12.59,0,0,1-.78,3.16,2.05,2.05,0,0,1-2.1.92c-.63-.21-1.26-2.2-.21-3a21,21,0,0,0,1.91-1.64s-2-.18-2.4-.16a2.72,2.72,0,0,1-1.66-.83,1,1,0,0,1,0-1.45,1.64,1.64,0,0,1,1.62-.3,7.49,7.49,0,0,1,1.88.9c.8.47,1.09.67,1.09.67Z" transform="translate(0)"/><path class="b" d="M21.43,66.15a1,1,0,0,1-.74-.3l-2.54-2.48a1.06,1.06,0,1,1,1.48-1.52l2.54,2.48a1.06,1.06,0,0,1-.74,1.82Z" transform="translate(0)"/><path class="b" d="M16.09,74.42H16l-2.51-.14a1.06,1.06,0,0,1-1-1.12,1.08,1.08,0,0,1,1.12-1l2.5.14a1.06,1.06,0,0,1-.05,2.12Z" transform="translate(0)"/><path class="b" d="M18,70a1.06,1.06,0,0,1-.38-.07l-3.89-1.52a1.06,1.06,0,1,1,.77-2l3.89,1.51A1.06,1.06,0,0,1,18,70Z" transform="translate(0)"/><path class="b" d="M209.77,69.51c6,0,10.22,6.89,8.36,16.95-2.1,11.39-8.41,16.88-15.54,16.88s-12.31-5.55-9.9-16.88S201.42,69.52,209.77,69.51Z" transform="translate(0)"/><ellipse class="c" cx="202.79" cy="77.66" rx="0.8" ry="1.2"/><ellipse class="c" cx="207.59" cy="77.66" rx="0.8" ry="1.2"/><path class="c" d="M204.65,86.61h-.28c-2.07-.15-3.94-2-4.87-4.77a.53.53,0,1,1,1-.34c.8,2.38,2.31,3.93,3.95,4.05,1.88.13,3.82-1.61,5.47-4.92a.53.53,0,0,1,1,.48C208.62,85.59,206.3,86.61,204.65,86.61Z" transform="translate(0)"/></svg>