<?xml version="1.0" encoding="utf-8"?>
<!-- Generator: Adobe Illustrator 23.0.0, SVG Export Plug-In . SVG Version: 6.00 Build 0)  -->
<svg version="1.1" id="Layer_1" xmlns="http://www.w3.org/2000/svg" xmlns:xlink="http://www.w3.org/1999/xlink" x="0px" y="0px"
	 viewBox="0 0 800 520" style="enable-background:new 0 0 800 520;" xml:space="preserve">
<style type="text/css">
	.st0{opacity:0.8;fill:#FFF8E6;enable-background:new    ;}
	.st1{fill:#FFF8E6;}
	.st2{fill:#444444;}
	.st3{fill:#FFFDF3;}
	.st4{fill:#FF8800;}
	.st5{fill:#FFD200;}
	.st6{fill:#F4AE00;}
	.st7{fill:#9AC130;}
	.st8{fill:#FFF140;}
	.st9{fill:#F25F5F;}
	.st10{fill:#47A5B2;}
	.st11{fill:#FFAE85;}
	.st12{fill:#ED4A35;}
	.st13{fill:#E0D8A0;}
	.st14{fill:#00709C;}
	.st15{fill:#D65803;}
	.st16{fill:#005683;}
	.st17{fill:#B4BCBF;}
	.st18{fill:#D8D8D8;}
	.st19{fill:#E5AF61;}
	.st20{fill:#CE4646;}
	.st21{fill:#732C14;}
	.st22{fill:#FFDF57;}
	.st23{fill:#195E0D;}
	.st24{fill:#FFD592;}
	.st25{fill:#EDAD51;}
	.st26{fill:#FFFDFD;}
</style>
<title>logo</title>
<circle class="st0" cx="388.1" cy="251" r="240"/>
<path class="st1" d="M325.1,377.3c-2.1,0-4-0.9-5.4-2.5c-0.4-0.1-0.9-0.2-1.2-0.4c-1,0.4-2.1,0.8-3.1,0.8c-0.8,0-1.6-0.1-2.4-0.3
	c-0.9,0.3-1.9,0.4-2.9,0.4c-2.9,0.1-5.7-1.3-7.3-3.9l-0.2,0.3c-1.2,2.1-3.5,3.5-5.9,3.5c-1.3,0-2.6-0.3-3.8-1.1
	c-1.2,0.7-2.7,1.1-4.3,1.1c-0.8,0-1.6-0.1-2.4-0.3c-0.9,0.2-1.8,0.3-2.7,0.3c-1.1,0-2.1-0.2-3.3-0.6c-0.9,0.3-1.9,0.4-2.9,0.4
	c-1.2,0-2.5-0.2-3.6-0.8c-1,0.4-2.1,0.8-3.1,0.8c-0.7,0-1.3-0.1-2-0.3c-0.8,0.2-1.6,0.3-2.2,0.3c-0.8,0-1.6-0.1-2.4-0.3
	c-0.9,0.2-1.8,0.3-2.7,0.3c-1.9,0-3.7-0.6-5.3-1.6c-1.5,1-3.1,1.6-4.9,1.6c-1.2,0-2.5-0.2-3.6-0.8c-1,0.4-2.1,0.8-3.1,0.8
	c-0.8,0-1.6-0.1-2.4-0.3c-0.9,0.3-1.9,0.4-2.9,0.4c-1.7,0-3.5-0.4-4.9-1.5c-1.7,0.9-3.6,1.3-5.5,1.3c-3.4,0.1-6.6-1.5-8.6-4
	c-1.1,2.5-3.7,4.2-6.4,4.2c-1,0-2-0.2-2.9-0.6c-1.5,0.4-2.9,0.7-4.4,0.7c-2,0-3.9-0.6-5.7-1.6c-1.7,1-3.6,1.6-5.5,1.6
	c-1.2,0-2.5-0.2-3.6-0.7c-2.1,0.8-4.5,0.8-6.6,0c-1.8,0.8-3.8,0.9-5.6,0.1c-1.8,0.7-3.7,0.7-5.5-0.1c-1.5,0.4-2.9,0.7-4.4,0.7
	c-1.8,0-3.5-0.4-5-1.2c-1.7,0.8-3.4,1.1-5.3,1.1c-1.7,0-3.3-0.3-4.8-1c-1.7,0.8-3.6,1.1-5.4,1.1c-2.4,0-4.7-0.8-6.6-2.1
	c-2.1,1.2-4.6,1.9-7.2,1.9h-4.9c-1.9,0-3.8-0.8-5.2-2.1c-0.1,0.1-0.3,0.2-0.4,0.4c-1.6,1.2-3.5,2-5.5,1.9c-1.2,0-2.5-0.2-3.6-0.8
	c-1,0.4-2.1,0.8-3.1,0.8c-1.6,0-3.1-0.4-4.4-1.5c-2.1,1-4.4,1.5-6.7,1.5c-8.1,0-13.9-5.8-13.9-13.8c0-4.5,2-8.6,5.5-11.3h0.1
	c1.2-1,2.8-1.5,4.5-1.6c0.9,0,1.8,0.1,2.7,0.4c1.1-0.3,2.2-0.4,3.5-0.4c3.9,0,7.5,1.9,9.6,5.2c0.4,0,0.9,0.1,1.2,0.2
	c0.7-0.2,1.5-0.2,2.1-0.2c1.3,0,2.7,0.2,3.8,0.9c1.7-3.5,5.4-5.8,10-5.8h4.3c5.2,0,8.9,2.2,11.2,5.3c0.9-0.2,1.9-0.3,2.8-0.3
	c1.9,0,3.7,0.4,5.4,1.2c1.7-0.9,3.5-1.3,5.3-1.2c1.7,0,3.4,0.3,4.8,1.1c1.6-0.8,3.3-1.2,5-1.1c1.5,0,2.9,0.2,4.3,0.8
	c1.6-0.8,3.5-1,5.2-0.4c0.7-0.1,1.3-0.2,1.9-0.2c0.9,0,1.7,0.1,2.6,0.3c0.8-0.2,1.7-0.3,2.5-0.3c0.4-4.7,3.6-7.7,8.4-7.7h0.2
	c3.8-0.1,6.8,2.9,7,6.7c0,0.1,0,0.2,0,0.3c0,0.6-0.1,1.2-0.2,1.8l0.2,0.1c1.6-0.8,3.3-1.1,5-1.1c1.5,0,2.9,0.2,4.3,0.8
	c1-0.4,2.1-0.8,3.3-0.8c0.6,0,1.2,0.1,1.8,0.2c2.1-0.6,4.4-0.1,6.3,1.1l1.8-2.9c1.2-2.1,3.6-3.5,6.1-3.5c2.4,0,4.6,1.1,5.8,3.1
	c0.7-0.2,1.5-0.3,2.1-0.3h0.3c1.1-3.4,4-5.4,8-5.4h0.2c3.8-0.1,6.8,2.9,7,6.7c0,0.1,0,0.2,0,0.3c0,0.6-0.1,1.2-0.2,1.8
	c0.9,0.4,1.7,1.1,2.4,1.9c1.9-1.9,4.5-3,7.3-3c0.4,0,1,0,1.5,0.1c0.4-0.1,0.9-0.1,1.3-0.1c0.9,0,1.8,0.2,2.7,0.6
	c1.5-0.6,3.1-0.7,4.6-0.2c0.7-0.2,1.5-0.2,2.2-0.2c1.7,0,3.4,0.4,4.7,1.3c0.3-0.1,0.6-0.3,0.9-0.4v-1.7c0-3.9,3.1-7.1,7.1-7
	c2.4,0,4.6,1.2,5.9,3.3c0.9-0.3,1.8-0.6,2.7-0.6h7.3c2,0,3.9,0.8,5.3,2.2c1.2-3.1,4-4.9,7.9-4.9h0.2c3.8-0.1,6.8,2.9,7,6.7
	c0,0.1,0,0.2,0,0.3c0,0.6-0.1,1.2-0.2,1.8c1.5,0.9,2.7,2.1,3.5,3.7c0.1-5.7,4.7-9.9,10.7-9.9c2.1,0,4.3,0.6,6.2,1.8
	c1.8-1.2,3.8-1.8,5.9-1.8c1.5,0,2.9,0.3,4.4,0.9c0.9-0.4,2-0.7,3-0.8h1.2c1.7,0,3.3,0.3,4.7,1c1.6-0.8,3.4-1.2,5.2-1.1
	c4.6,0,8.3,2.5,10,6.3c1.5-0.8,3.1-1.2,4.8-1.2c0.4,0,1,0,1.5,0.1c0.4-0.1,0.9-0.1,1.3-0.1c0.3,0,0.8,0,1.1,0.1
	c2.6-2.9,7.1-3.3,10.1-0.7c0.2,0.2,0.4,0.4,0.7,0.7c0.9-1.5,2-2.7,3.3-3.7h0.1c1.2-1,2.8-1.5,4.5-1.6c0.9,0,1.8,0.1,2.7,0.4
	c1.1-0.3,2.2-0.4,3.5-0.4c3.9,0,7.5,1.9,9.6,5.2c0.2,0,0.6,0,0.8,0c1.6,0,3,0.3,4.4,1c1.3-0.7,2.9-1,4.5-1c0.4,0,0.8,0,1.2,0.1
	c0.3-4.7,3.6-7.7,8.4-7.7h0.2c3.8-0.1,6.8,2.9,7,6.7c0,0.1,0,0.2,0,0.3c0,0.6-0.1,1.2-0.2,1.8l0.1,0.1c1.5-0.8,3-1.1,4.7-1.1
	c0.4,0,1,0,1.5,0.1c0.4-0.1,0.9-0.1,1.3-0.1c3.8,0,7,3,7.1,6.8v0.1v2.4c2.7,2.7,2.8,7.1,0.1,9.8c-0.2,0.2-0.4,0.4-0.7,0.6
	c-1.6,1.3-3.5,2-5.5,1.9c-0.8,0-1.6-0.1-2.4-0.3c-0.9,0.2-1.8,0.3-2.7,0.3c-1.1,0-2.2-0.2-3.3-0.6c-0.9,0.3-1.9,0.6-2.9,0.6
	c-1.1,0-2.1-0.2-3.1-0.6c-1.6,0.7-3.3,0.8-4.8,0.2c-0.8,0.2-1.6,0.3-2.4,0.3c-0.8,0-1.6-0.1-2.4-0.3c-0.9,0.2-1.8,0.3-2.7,0.3
	c-1.3,0-2.7-0.3-3.9-0.9c-3.1,1.3-6.7,1-9.4-0.9c-2.2,1.1-4.6,1.7-7.1,1.7c-3.1,0-6.3-1-8.9-2.9l-0.1,0.1c-1.7,1.9-4.2,2.9-6.7,2.9
	c-1.2,0-2.5-0.2-3.6-0.8c-1,0.4-2.1,0.7-3.4,0.7c-0.8,0-1.6-0.1-2.4-0.3c-0.9,0.2-1.8,0.3-2.7,0.3c-3.3,0-6.2-1.7-7.9-4.4l-0.6,0.9
	c-2,3.4-6.3,4.5-9.6,2.5l0,0c-2.6,1.6-5.8,1.2-8.2-0.7c-1.7,1.1-3.7,1.7-5.7,1.7c-1.6,0-3.1-0.3-4.5-1c-1,0.6-2.1,0.8-3.3,0.8h-8.1
	c-1.1,0-2.1-0.2-3.1-0.7c-0.9,1.3-2.2,2.4-3.8,2.8h-0.1C326.1,377.2,325.6,377.3,325.1,377.3z M397.7,333.4c-7.5,0-14-2.6-18.7-7.4
	c-4.9-5-7.5-12.3-7.5-21.1c0-2,0.1-3.9,0.3-5.9c-3,4.5-6.6,8.6-10.7,12.2h1.9c2.9-0.1,5.7,1.1,7.5,3.4s2.5,5.3,1.9,8.2v0.1
	c-1.1,5.4-5.8,9.2-11.3,9.3h-35.8c-3,0.1-5.8-1.1-7.7-3.5c-0.9-1.1-1.5-2.4-1.7-3.7c-1,1.7-2.2,3-3.8,4.2c-3.4,2.6-7.4,3.9-11.6,3.8
	c-3.9,0-7.2-1.1-9.4-3.1c-3.8,2.2-8.2,3.5-12.6,3.5c-7.3,0-11.6-3.4-13.8-6.2c-0.2-0.3-0.6-0.8-0.8-1.1c-3.1,4.5-8.8,6.8-13.6,6.8
	c-7.5,0-10.8-3.4-14.4-10c0-0.1-0.1-0.2-0.1-0.2c-0.1-0.2-0.2-0.3-0.2-0.6l-0.3,1.3c-1.1,5.5-6.1,9.4-11.7,9.3
	c-2.9,0-5.7-1.2-7.6-3.5c-0.1-0.2-0.3-0.3-0.4-0.6l-0.3,0.2c-3.4,2.6-7.4,3.9-11.6,3.8c-3.9,0-7.2-1.1-9.4-3.1
	c-3.8,2.2-8.2,3.5-12.6,3.5c-7.3,0-11.6-3.4-13.8-6.2c-1.3-1.7-2.5-3.7-3-5.8c-4.5,7.1-13.1,11.6-22.7,11.6
	c-7.1,0-15.9-3.6-18.4-10.3c0-0.1,0-0.1-0.1-0.2c-1.7-6.3,2-12.8,8.3-14.5c0.9-0.2,1.7-0.3,2.6-0.4c2,0,3.9,0.7,5.6,1.8
	c0.7,0.4,1.3,1,1.9,1.6c1.1,1,1.2,1.1,2.1,1.1c0.7,0,1.2-0.1,1.9-0.2c-0.8-1.1-3.7-3-5.7-4.3c-4-2.6-9.5-6.2-12.9-11.8
	c-8.3,23.6-27.5,37.3-53,37.3c-13.7,0-24.6-4.5-31.5-13c-7-8.5-9.2-20.3-6.3-33.8c0.8-3.7,2-7.4,3.5-10.9c-1.5,1.2-3.3,1.9-5.2,1.9
	h-0.4l-4.8-0.3c-4.4-0.2-7.7-3.9-7.5-8.4c0.1-2.2,1.2-4.4,2.9-5.7c-2.8-3.4-2.5-8.4,0.9-11.2c1.5-1.2,3.3-1.9,5-1.9
	c0.4,0,1,0,1.5,0.1c-0.1-0.4-0.1-0.9-0.1-1.3c-0.1-4.4,3.5-8,7.9-8.1c2.1,0,4.2,0.8,5.6,2.2l4.9,4.8c2.7,2.7,3.1,6.8,1.1,10
	c3.1-3.3,6.6-6.3,10.4-8.8l0.3-0.2c1.6-0.9,4.7-2.4,8-2.4c3-0.1,6.1,1.2,8,3.7c0.7,0.8,1.1,1.7,1.5,2.6c6.2-4.3,13.6-6.5,21.1-6.5
	c9.5,0,17.4,3.6,22.9,10.3c2.9,3.6,4.9,7.9,5.8,12.3c5.9-8.4,15.7-13.4,26-13.2c8,0,14.6,2.8,18.7,7.9c4.2,5,5.5,11.9,3.9,19.4
	c-0.1,0.7-0.3,1.2-0.6,1.9c5-4.2,11.3-6.5,17.8-6.6c2.4,0,4.6,0.4,6.7,1.3c1.8-0.9,3.7-1.3,5.7-1.3c3-0.1,5.9,1.1,7.9,3.5
	c1.8,2.4,2.5,5.4,1.7,8.2l-4.5,21.1c1,0.2,2,0.6,2.9,1.1l10.8-50.8c2.5-11.8,8.5-16.9,19.7-16.9h0.8c2.9-0.1,5.7,1.1,7.6,3.4
	c1,1.2,2.6,4,1.6,8.4c-0.8,4.6-4.4,8.2-8.9,9.1l-2.9,13.8c2.1-0.6,4.3-0.8,6.5-0.8c6.5,0,10.1,2.7,11.9,4.9
	c2.6,3.1,3.5,7.4,2.7,12.1c5.9-10.3,15.9-17.1,26.7-17.1c2.4,0,4.6,0.4,6.7,1.3c1.8-0.9,3.7-1.3,5.7-1.3c3-0.1,5.9,1.1,7.9,3.5
	c1.8,2.4,2.5,5.4,1.7,8.2l-4.5,21.1c2,0.3,3.8,1.3,5,2.9c0.9,1.1,1.6,2.5,1.9,3.9c2.1-3.8,6.2-5.2,9.3-6.3c5.2-1.8,11-5.3,16-9.5
	c-1.3,0.7-2.9,1-4.5,1c-2.6,0-5-0.9-6.8-2.7c-5.5-5.5-7.6-13-5.9-21.1v-0.1c3-13.8,15.7-23.6,30.7-23.6c7.9,0,14.5,2.8,18.6,8
	c2.9,3.6,4.5,8.1,4.6,12.7c7.2-13,18.5-20.2,32.8-20.2c6.7,0,12.8,3.1,16.9,9c0.4,0.6,0.8,1.1,1.1,1.7c0-0.2,0.1-0.6,0.1-0.8v-0.1
	c1.2-5.4,6.1-9.4,11.2-9.4h5.5c4.8,0,10.3,0.3,13.6,4.5c2,2.6,2.7,5.6,2.5,9.3c4.5-6.8,11.3-11.8,19.3-13.6
	c-0.2-0.2-0.4-0.4-0.7-0.8c-1.9-2.5-2.6-5.6-1.8-8.6l4.5-20.9c-3.3,1.9-6.8,2.9-10.7,2.8c-5.2,0-9.1-1.6-11.7-4.8
	c-2.8-3.5-3.6-8.3-2.2-14.5l3.8-18.2c-2.4,2.1-5.2,6.3-6.6,13.6l-3,13.9c-1.3,6.5-7.3,9.9-12.5,9.9c-3.1,0.1-6.2-1.2-8.2-3.7
	c-1.9-2.5-2.6-5.6-1.8-8.6l5.4-25.5c-2.1,1.7-4.6,4.9-6.1,10.4l-3.7,17.4c-1.2,5.9-6.5,10.1-12.5,10c-3.1,0-6.1-1.3-8.1-3.7
	c-0.2-0.2-0.3-0.4-0.6-0.8l-0.2,0.1c-3.7,2.8-8.2,4.4-12.9,4.3c-4.6,0-8.3-1.3-10.8-3.8c-4.4,2.7-9.4,4.2-14.5,4.2
	c-8.1,0-12.7-3.7-15.3-6.7c-0.8-0.9-1.3-1.9-1.9-2.9c-0.7,1-1.3,1.9-2.2,2.7c-6.6,7.3-20.1,15.3-37.5,15.3c-12.9,0-23.5-4.5-30.3-13
	c-1.6-1.9-2.9-3.9-3.9-6.2c-1,2.6-2.7,4.7-5,6.3c-3.7,2.8-8.2,4.3-12.8,4.3s-8.3-1.3-10.8-3.8c-4.4,2.7-9.4,4.2-14.5,4.2
	c-8.1,0-12.7-3.7-15.3-6.7c-4.3-5.3-5.6-13-3.7-21.9c0.6-2.7,1.3-5.3,2.4-7.9c-0.3,0-0.7,0.1-1.1,0.1c-2.4,0-4.6-0.8-6.3-2.4
	c-2.4,1.3-6.7,7.5-8.5,13.9l-3.1,14.6c-1.2,5.8-6.4,10.1-12.3,10.1c-3.1,0.1-6.2-1.2-8.2-3.7c-1.9-2.5-2.7-5.7-1.9-8.8l0.4-2.1
	c-6.7,9-17.5,14.5-29.7,14.5c-9.2,0-16.9-3.3-21.7-9.1c-3.3-4-6.6-11.3-4.3-22.7c0.1-0.3,0.2-0.8,0.2-1.1l-15.8,26.6
	c-2.7,4.4-6.7,6.8-11.3,6.8c-5.4,0-9.4-3.5-10.4-9l-1.9-11.1l-7.9,13.1c-2.6,4.4-6.6,7-11.2,7c-5.5,0-9.3-3.3-10.4-8.9
	c0-0.1,0-0.1,0-0.2l-5.8-39.2c-2.1-14-3.5-16.6-8.3-16.6c-6.3,0-8.2,4.5-8.8,7.3c-0.4,2.5,0.6,5,1.7,6.7c1.2,1.5,2.8,4.3,2.1,8.6
	l-0.1,0.3c-1.2,5.5-6.6,9.9-12.1,9.9c-2.7,0.1-5.3-0.9-7.2-2.8c-6.3-6.2-8.9-15.6-6.8-25.1c3.3-15.8,17.3-27.2,33.4-27
	c20.8,0,26.1,12.3,29.6,38.4l0.7,4.8l5.4-9.2l-3.4-20.1c-0.2-1.3-0.2-2.8,0.1-4.3c1.2-6.2,7.5-9.9,12.8-9.9c3.4-0.1,6.5,1.6,8.3,4.4
	c2.4-2.7,5.8-4.4,9.4-4.4c3.3,0,6.4,1.5,8.5,3.9c1.9,2.4,2.6,5.4,2,8.2c-0.3,1.3-0.9,2.6-1.7,3.8l-12.2,20.4l1.5,8.1l22.8-38.6
	l0.1-0.2c2.2-3.5,6.1-5.7,10.2-5.7c3.4,0,6.6,1.5,8.9,4c1.9,2.2,2.6,5.3,2,8.2c-0.2,0.9-0.6,1.8-0.9,2.6l-0.1,0.1
	c-0.1,0.3-0.2,0.7-0.4,0.9l-11.4,19.3c6.8-5.9,15.6-9.2,24.7-9.1c9.2,0,16.9,3.3,21.7,9.1c1.8,2.2,3.1,4.8,3.9,7.5l1.3-6.5
	c1.2-5.8,6.4-10.1,12.3-10c3-0.1,6.1,1.2,8.1,3.5c3.1-2.1,6.8-3.4,10.5-3.5c5.8,0,9.1,2.5,10.8,4.6c1.1,1.3,1.9,2.9,2.2,4.6
	c6.2-5.8,13.9-9.2,22-9.2c1.3,0,2.7,0.1,4,0.4l6.2-29.4v-0.1c1.3-5.7,6.4-9.8,12.2-9.9c3.3-0.1,6.3,1.3,8.3,3.8
	c1.9,2.5,2.5,5.7,1.7,8.8l-13.6,64c1.5,0.1,2.8,0.6,4,1.3c-1-7-0.7-14.1,0.9-21c6.2-29.5,29.8-50.9,56.3-50.9
	c10.8,0,19.7,3.6,25,10.2c4.6,5.7,6.3,13.5,4.5,21.7c-2.1,9.8-8.1,18.2-16.4,23.7c-2.1,1.5-4.7,2.4-7.4,2.5
	c-5.6,0.2-10.2-4.3-10.4-9.8c0-0.9,0.1-1.8,0.2-2.6c0-0.1,0-0.1,0-0.2c0.7-3,2.4-5.5,5.3-7.9c2.7-2.4,4.9-4.4,5.6-7.9
	c0.3-1.5,0.4-3.5-0.7-4.7c-1.2-1.5-3.9-2.4-7.5-2.4c-14.1,0-26.7,12.5-30.5,30.4c-1.9,9.3-0.9,17.1,2.8,21.7c2.9,3.7,7.7,5.5,14,5.5
	c8.2,0,12.1-2.9,17.8-7.7h0.1c3.4-2.8,6.7-4.3,9.9-4.3c2,0,3.9,0.6,5.6,1.7c0.1-1.2,0.3-2.5,0.6-3.7c4-19.2,18.8-33.1,35.1-33.1
	c2.7-0.1,5.4,0.4,7.7,1.7c2-1.1,4.3-1.7,6.5-1.7c3.1-0.1,6.3,1.2,8.3,3.7c1.9,2.5,2.6,5.7,1.8,8.8l-5.4,25.1
	c1.3,0.1,2.6,0.6,3.7,1.1l6.1-28.8c1.2-5.8,6.4-10,12.3-9.9c3-0.1,5.9,1.1,8,3.4c3.8-2.1,7.9-3.4,11.4-3.4c5.6,0,9.5,1.8,12,4.4
	c4.2-2.8,9-4.3,13.9-4.4c5.2-0.1,10.1,2.1,13.4,6.1c3.4,4,4.4,9.6,3.1,15.8l-3.4,15.6c1.7,0.1,3.4,0.8,4.8,1.9l6.3-29.2
	c1.2-5.8,6.4-10.1,12.3-10c2.8,0,5.5,1,7.5,2.9c3.8-2,8.1-3,12.3-3c8.1,0,12.7,3.7,15.1,6.7c4.3,5.3,5.6,13,3.8,21.9
	c-4,19.2-19,33.1-35.2,33.1c-1.3,0-2.6-0.1-3.9-0.3l-4.4,20.4c-0.6,2.8-2.1,5.3-4.3,7.1c4.4,1.1,8.2,3.6,11.1,7
	c4.3,5.3,5.7,12.7,3.9,20.9c-0.8,3.5-2.1,6.8-5.4,11.6c1.1-0.6,2.4-0.8,3.6-0.8h0.4c0.1-0.2,0.2-0.4,0.3-0.7c0.6-1.1,1.5-2,2.6-2.7
	c1.3-1.3,3.1-2.2,5-2.2c0.8,0,1.6,0.1,2.2,0.3c2.2,0.7,4,2.4,5,4.5c0,0,0,0.1,0.1,0.1c2.2,0,4.4,0.9,5.9,2.6l0,0
	c2.5,1.9,3.9,5.7,1.6,9.9c-0.6,0.9-1.1,1.8-1.9,2.6c0.8,2.8,0.2,5.7-1.5,8.1c-0.3,0.4-0.7,0.8-1.1,1.1c-1.1,0.8-2.4,1.3-3.6,1.7
	c-0.7,0.1-1.3,0.2-2,0.2c-1.5,0-3-0.3-4.3-1.1c-1.5,1-3.3,1.7-5,1.8c-0.3,2.4-1.8,4.3-3.9,5.3c-0.3,0.1-0.6,0.2-0.9,0.3
	c-0.9,1.6-2.4,2.8-4.2,3.4c-0.6,0.2-1,0.2-1.6,0.3h-0.2c-1,0-2-0.2-2.9-0.6c-1.1-0.4-2.2-1.2-3-2.2c-1.8-0.3-3.5-1.3-4.6-2.8
	c-1.6-2.2-1.8-5.2-0.6-7.6c0.2-0.4,0.4-0.8,0.7-1.1c0-0.1,0-0.3-0.1-0.4c-0.1-0.9,0-1.9,0.3-2.8l-12.2,15c-2.2,2.9-5.6,4.7-9.3,4.7
	c-4.2,0-6.5-1.8-7.7-3.3c-1.7-2.1-2.2-4.9-1.6-7.5c0-0.1,0.1-0.3,0.1-0.4c0.6-1.9,1.5-3.6,2.6-5.2l5.8-7.3c-3.9-0.9-7.4-3.1-9.9-6.3
	c-1.9-2.4-3.3-5-3.9-8l-6.2,28.8c-1.1,5.5-5.8,9.3-11.4,9.3c-3,0.1-5.9-1.2-7.9-3.6c-1.8-2.4-2.5-5.4-1.8-8.2l9.3-43.9h-0.8
	c-2,0-3.9-0.6-5.5-1.8c0.8,3.4,1.2,6.8,1.2,10.2s-0.3,6.7-1,10c-2.2,11.8-6.6,21.2-13,27.8C414.7,329.8,406.4,333.4,397.7,333.4z
	 M185.9,309.6c-0.2,0.8-0.2,1.7-0.2,2.6c2.9-0.6,6.5-5,7.7-9.9c0.1-0.2,0.1-0.6,0.2-0.8l0,0c0.2-0.8,0.2-1.7,0.1-2.5
	C190.7,299.1,187.2,303.7,185.9,309.6z M282.9,309.6c-0.2,0.8-0.2,1.7-0.2,2.6c2.9-0.6,6.5-5,7.7-9.9c0.1-0.2,0.1-0.6,0.2-0.8l0,0
	c0.2-0.8,0.2-1.7,0.1-2.5C287.5,299.1,284.1,303.7,282.9,309.6z M256.6,309.8c1.3,0,2.7,0.2,4,0.8c0.1-1,0.3-2.1,0.6-3.3
	c0.3-1.5,0.7-2.9,1.1-4.3c-1.9,2.7-4.3,4.9-7,6.8C255.7,309.8,256.2,309.8,256.6,309.8z M65.9,276.4c-2.6,3.6-4.4,7.7-5.3,12.1
	c-1.6,7.1-0.7,12.9,2.4,16.7c2.8,3.4,7.3,5.2,13.7,5.2c20.5,0,27-16.5,29.2-26.4c1.2-5.7,0.4-11.3-1.9-14.2c-1.3-1.7-3-2.4-5.5-2.4
	c-4.7,0-7.9,2.7-8.9,7.6v0.1c-0.4,2.2,0.2,4.6,1.8,6.3c2.5,2.5,3.5,6.1,2.6,9.4c-1.3,5.6-7,10.2-12.6,10.2c-2.5,0-4.8-0.8-6.6-2.4
	c-0.2-0.1-0.3-0.2-0.4-0.4C68.2,292.5,65.2,284.5,65.9,276.4z M502.6,302.2c-1,1.3-2.2,2.8-3.5,4.4l-1.9,2.4
	c0.9-0.4,1.9-0.8,2.9-0.8h0.3c1,0,2.1,0.2,3,0.6c0.4-0.1,1-0.2,1.5-0.2c-0.2-0.2-0.3-0.3-0.4-0.6
	C503.1,306.3,502.5,304.3,502.6,302.2z M154,276.6c-4.5,0-7,2.7-7.5,5.5c-0.4,1.9,1.8,3.7,7.2,7.3c4.2,2.8,9.5,6.5,12.5,12.1
	c1.3-3.7,3.3-7.2,5.6-10.3c-1.5,0.7-3.1,1-4.7,1c-3,0.1-6.1-1.2-8-3.6c-1.8-2.4-2.5-5.4-1.8-8.3c0.2-0.9,0.1-1.9-0.3-2.8
	C156.3,276.8,155.3,276.6,154,276.6z M349.4,293.3c-0.2,1-0.7,2-1.1,3c4.4-4.7,7.7-10,8.8-14.9c0.3-1.9,0.2-3.4-0.3-4.2
	c-0.6-0.7-1.6-1-2.9-1c-2.9,0-6.3,1.6-7.2,5.3c-0.4,1.9,0,2.4,0.2,2.6C349.3,286.3,350.2,289.9,349.4,293.3L349.4,293.3z M488,276.2
	c-3.5,0-7.7,2.1-9,8c-0.4,1.9-0.3,3.6,0.3,4.4c0.7,0.8,1.8,1.1,3.3,1.1c3.6,0,7.7-2.5,9-8c0.4-1.9,0.3-3.5-0.3-4.4
	C490.6,276.5,489.5,276.2,488,276.2L488,276.2z M42.7,267.3c0.2,0.8,0.2,1.5,0.2,2.2c0,0,0,0,0,0.1c2.1-3.7,4.6-7.2,7.3-10.3
	c-1,0.8-2.4,1.3-3.6,1.6C46.4,263.6,44.9,265.9,42.7,267.3L42.7,267.3z M511.9,206.7c0.1,0,0.2,0,0.3,0c4.2,0,8.5-5.6,10-12.8
	c0.6-2.4,0.3-3.6,0.1-4h-0.1c-4,0-8.9,5.9-10.3,12.5l-0.2,1C511.6,205.3,511.8,206.3,511.9,206.7L511.9,206.7z M371.5,206.7
	c3.8,0,8.8-5.7,10.3-12c0.1-0.2,0.1-0.6,0.2-0.8v-0.1c0.4-2.5,0-3.7-0.2-3.9c-0.1,0-0.2,0-0.3,0c-4.2,0-8.5,5.5-10.1,12.8
	C371,204.9,371.2,206.2,371.5,206.7L371.5,206.7z M237.2,206.7c4,0,9.1-5.9,10.5-12.5c0.6-2.7,0.1-4-0.1-4.4c-0.1,0-0.2,0-0.3,0
	c-4.2,0-8.5,5.5-10.1,12.8C236.9,204.9,237,206.2,237.2,206.7L237.2,206.7z"/>
<path class="st1" d="M76.7,316.2c20.4,0,31.3-14,34.9-31.1c2.5-11.6-1.3-23.8-13.1-23.8c-7.5,0-13,4.6-14.7,12.2
	c-0.9,4.2,0.3,8.5,3.3,11.7c1.1,1,1.5,2.6,1.1,4c-0.7,2.9-3.7,5.7-6.8,5.7c-1.1,0-2.2-0.3-3.1-1.1c-5.4-5-7.5-12.9-6.1-19.9
	c2.9-13.5,15.3-22.4,29.1-22.4c18.6,0,26.7,16.3,22.9,33.5c-5.6,26.7-24.5,42-49.8,42c-24.5,0-37-16.2-32.1-39.8
	c3-14.1,12.2-26.4,23.5-33.8c1.5-0.9,3.3-1.5,5-1.6c3.1,0,4.7,2.4,4.2,5.3c-0.6,1.8-1.7,3.3-3.1,4.4c-7.7,6.7-14.5,14.8-16.8,25.8
	C51.5,302.9,58,316.2,76.7,316.2z M140.6,280.8c-2.7,12.9,24.9,14.6,21.2,32.1c-1.9,8.8-10.8,14-19.9,14c-5,0-11.4-2.5-12.9-6.4
	c-1.3-4.2,3.8-9.2,7.5-6.5c1.8,1.2,3.1,3.8,7.4,3.8c4.6,0,7.2-1.9,7.7-4.9c2.2-10.4-25.4-11.8-21.1-31.9
	c2.6-12.1,13.4-19.9,25.2-19.9c12.5,0,19.3,8.2,16.8,20.2c-0.6,2.8-3,4.8-5.8,4.8c-2.8,0-4.6-2-3.9-4.8c1.1-5.4-1.5-10.7-9-10.7
	C146.6,270.6,141.7,275.5,140.6,280.8L140.6,280.8z M206,316.1c-0.3,1.8,0,2.2,0.8,2.2c0.9-0.1,1.7-0.4,2.2-1
	c3.5-2.2,5.8,0.3,5.4,3.3c-0.4,1.6-1.3,2.8-2.7,3.7c-2.4,1.8-5.3,2.8-8.2,2.7c-4.6,0-7.3-1.9-7.4-6.4c-3.7,4.2-9,6.6-14.6,6.7
	c-9.8,0-13.8-8.1-11.4-18.7c2.9-13.9,13.5-24.8,25.7-24.8c3.1,0,5.4,0.9,7.2,3.3c0.9-2.1,3-3.4,5.3-3.3c2.7,0,4.5,1.6,3.8,4.6
	L206,316.1z M180.1,308.3c-1.2,6.1,0.9,9.8,5,9.8c6.4,0,12.2-7.2,13.9-14.4l0.2-0.6c1.3-6.2-1.1-10.1-5.4-10.1
	C187.2,293.1,181.9,300.4,180.1,308.3z M232.6,262.1c2.2-10.3,6.7-12.3,13.9-12.3h0.8c2.5,0,4.3,1.5,3.5,4.7
	c-0.7,3.1-2.9,4.7-5.5,4.7h-0.4c-1.3,0-2.2,0.6-2.6,2.6l-6.1,28.9c3.9-4.4,8.9-7,15-7c7.3,0,10,4.6,8.8,10.5
	c-1.5,6.2-8,12-15.5,14.2c2.2,0.6,3.3,2.4,4.5,4.8c1.2,2.4,2.2,4,3.4,4c1.5,0,2.7-1.9,4.3-1.9c2.2,0,4,1.7,3.5,4.3
	c-1,4.5-5.8,7.1-9.9,7.1c-4.3,0-5.8-0.9-9.2-6.8c-1.6-3.1-2.4-6.2-4.2-7.6c-1.1-1.1-1.6-2.8-1.2-4.4c0.4-2,1.7-3.1,4.4-4.5
	c7.5-3.1,9.4-5.6,9.9-8c0.3-1.5-0.4-2.6-2.8-2.6c-5.2,0-12.2,4.7-14.6,14.7l-3,14.5c-0.6,2.8-3,4.7-5.8,4.7c-2.2,0-4.4-1.6-3.7-4.7
	L232.6,262.1z M303,316.1c-0.3,1.8,0,2.2,0.8,2.2c0.9-0.1,1.7-0.4,2.2-1c3.5-2.2,5.8,0.3,5.4,3.3c-0.4,1.6-1.3,2.8-2.7,3.7
	c-2.4,1.8-5.3,2.8-8.2,2.7c-4.6,0-7.3-1.9-7.4-6.4c-3.7,4.2-9,6.6-14.6,6.7c-9.8,0-13.8-8.1-11.4-18.7c2.9-13.9,13.5-24.8,25.7-24.8
	c3.1,0,5.4,0.9,7.2,3.3c0.9-2.1,2.9-3.4,5.3-3.3c2.7,0,4.5,1.6,3.8,4.6L303,316.1z M277.1,308.3c-1.2,6.1,0.9,9.8,5,9.8
	c6.4,0,12.2-7.2,13.9-14.4l0.2-0.6c1.3-6.2-1.1-10.1-5.4-10.1C284.1,293.1,278.8,300.4,277.1,308.3L277.1,308.3z M325.3,326.2
	c-2.9,0-4.2-1.9-3.6-4.2c0.6-2.9,2.6-3.8,6.5-5.2c13.5-4.7,31.3-19.6,34.4-34.3c1.7-8.2-3-12.2-9.1-12.2c-5.8,0-11.4,3.5-12.9,9.9
	c-0.9,4,0.2,6.5,1.9,8.2c0.9,0.9,1.2,2.4,0.9,3.6c-0.6,2.5-3.1,5-5.7,5c-1,0-2-0.3-2.7-1c-3.6-3.6-5.8-8.9-4.4-15.8
	c2.4-11,12.7-19,24.9-19c11,0,19.7,7.1,16.7,21.5c-3.7,17.7-22,30.5-30.3,34.3h20.9c3,0,4,2.2,3.6,4.5c-0.6,2.7-2.8,4.6-5.6,4.7
	L325.3,326.2z M439.1,271.3c-2.6,0-3.8-2.4-3.4-4.6c0.6-2.4,2.8-4.8,5.5-4.8h5.5c9.5,0,11.8,1.9,9.4,13.5l-10,46.9
	c-0.6,2.7-2.9,4.7-5.7,4.7c-2.4,0-4.6-1.6-3.9-4.7l10-47.3c0.6-2.4,0.1-3.6-1.9-3.6L439.1,271.3z M494.5,302.9l-17.4,21.5
	c-1.1,1.6-2.8,2.5-4.7,2.5c-3.1,0-4-1.8-3.6-3.8c0.3-1.2,0.9-2.2,1.7-3.3l15.5-19.4c-2.2,2.2-5.7,3.1-9.5,3.1
	c-9.4,0-15.5-8.4-12.9-20.8c2.7-13,13.2-21.8,26.3-21.8c13,0,19.9,8.8,17.2,21.8C506.2,287.1,504,291.2,494.5,302.9L494.5,302.9z
	 M482.6,295.4c6.6,0,13-4.6,14.7-12.6c1.8-8.1-2.7-12.6-9.4-12.6c-6.7,0-13,4.5-14.7,12.6C471.5,290.8,475.9,295.4,482.6,295.4
	L482.6,295.4z M411.7,261.7c11.7,0,19.9,13.5,16.3,33c-4,22.2-16.4,32.9-30.3,32.9c-13.9,0-23.9-10.8-19.3-32.9
	C383.1,272.5,395.4,261.7,411.7,261.7L411.7,261.7z M409.7,270.7c-9.1,0.1-18.2,7.6-21.5,23.8c-3.4,16.2,4.4,23.8,11.4,23.8
	c7.1,0,15.1-7.6,18.5-23.8C421.5,278.4,416.6,270.7,409.7,270.7L409.7,270.7z M84.2,191.9l-16,26.9c-1.5,2.6-3.6,4-6.2,4
	c-2.9,0-4.2-1.5-4.6-4.2l-5.8-39.2c-1.9-12.3-3.4-21.7-14.1-21.7c-8.8,0-13.2,6.1-14.5,11.9c-0.9,4.4,0.8,8.8,2.9,11.7
	c1,1,1.1,2.5,0.9,4c-0.7,2.8-3.5,5.3-6.4,5.3c-1.1,0.1-2.2-0.3-3-1.1c-4.7-4.6-6.8-11.9-5.3-19.7c2.8-13.1,14.2-22.4,27.7-22.4
	c15.6,0,20.3,7.2,23.8,33.3l2.9,21.7l15.1-25.7l-3.7-22.4c-0.1-0.7,0-1.2,0.1-1.9c0.7-3,4.2-5.2,7-5.2c1.8,0,3.6,0.9,3.9,3l2,11
	l6.4-11c1.2-1.9,3.3-3,5.5-3c2.8,0,5.4,2.1,4.7,5.2c-0.2,0.7-0.4,1.3-0.9,1.9l-13.4,22.4l4.5,25.9l31-52.3c1.1-1.8,3.1-3,5.3-3
	c2.9,0,5.6,2.1,5,5.2c-0.2,0.7-0.4,1.2-0.8,1.9L99.9,219c-1.5,2.5-3.6,4-6.3,4c-2.6,0-4.2-1.3-4.6-4.2L84.2,191.9z M156.2,173.2
	c14.5,0,23.6,9.1,20.2,24.9c-3.4,15.6-16.2,24.7-30.6,24.7c-14.4,0-23.6-9-20.2-24.7C128.9,182.4,141.9,173.2,156.2,173.2
	L156.2,173.2z M154,183.9c-8,0-14.8,5.5-16.6,14.2c-1.9,8.6,2.6,14,10.7,14c7.9,0,14.8-5.4,16.6-14
	C166.5,189.4,161.9,183.9,154,183.9L154,183.9z M189,178.6c0.6-3.1,3.4-5.4,6.6-5.4c2.8,0,5.2,1.8,4.4,5.4l-1.1,5.3
	c4.5-6.5,10.4-10.7,15.4-10.7c6.3,0,8,4.2,7.3,7.6c-0.8,3.5-3.7,5.8-6.2,5.8c-3,0-2.7-2.6-5.6-2.6c-6.6,0-13,11.7-14.9,18.6
	l-3.1,14.8c-0.6,3.1-3.4,5.5-6.6,5.4c-2.8,0-5.2-1.8-4.4-5.4L189,178.6z M249.8,215.4c-4.3,4.8-10.3,7.6-16.7,7.7
	c-11.1,0-15.8-9.3-13.1-21.5c3.4-15.9,15.4-28.4,29.4-28.4c3.6,0,6.1,1,8.2,3.6l7.9-37.3c0.7-3.1,3.4-5.4,6.6-5.4
	c2.8,0,5.2,1.8,4.3,5.4l-15,70.7c-0.3,2,0,2.5,0.9,2.5c1-0.1,1.9-0.4,2.6-1.1c4-2.5,6.7,0.3,6.2,3.7c-0.4,1.8-1.6,3.3-3.1,4.3
	c-2.7,2.1-5.9,3.3-9.4,3.1C253,222.8,249.9,220.7,249.8,215.4L249.8,215.4z M231.5,201.4c-1.3,6.8,1,11.1,5.7,11.1
	c7.6,0,14.4-8.8,16.3-17.2c1.5-7.2-1.2-11.6-6.2-11.6C239.6,183.9,233.5,192.3,231.5,201.4z M335.3,186.4c-3,0-5-2.2-4.4-5.4
	c0.3-1.7,1.2-3,3.3-4.6c3.1-2.6,6.5-5.7,7.6-11.1c1.8-8.4-3.3-14.1-13.9-14.1c-16.6,0-31.8,14-36.2,35c-4.2,19.6,3.4,34.3,22.7,34.3
	c10.5,0,15.9-4.3,21.7-9.1c2.1-1.8,4.3-2.9,6.2-2.9c1.2,0,2.5,0.4,3.3,1.5c1,0.9,1.5,2.4,1.1,3.6c-0.6,1.8-1.6,3.4-2.9,4.6
	c-6.2,6.7-18.3,13.4-33.2,13.4c-25.1,0-36.9-19.3-31.4-45.1c5.6-26.8,26.9-46.3,50.6-46.3c17.1,0,26.9,10,23.8,24.8
	c-1.9,9-8,16.4-13.8,19.9C338.3,185.7,336.9,186.3,335.3,186.4z M395.4,210.3c-0.3,2,0,2.5,0.9,2.5c0.8,0,1.5-0.3,2.6-1.1
	c4-2.5,6.7,0.3,6.2,3.7c-0.4,1.8-1.6,3.3-3.1,4.3c-2.7,2.1-5.9,3.3-9.3,3.1c-5.3,0-8.4-2.1-8.5-7.4c-4.3,4.8-10.3,7.6-16.7,7.7
	c-11.1,0-15.8-9.3-13.1-21.5c3.4-15.9,15.4-28.4,29.4-28.4c3.6,0,6.2,1,8.3,3.7c1-2.5,3.4-3.7,6.1-3.7c3.1,0,5.2,1.8,4.4,5.3
	L395.4,210.3z M365.7,201.4c-1.3,6.8,1,11.1,5.7,11.1c7.4,0,14-8.3,16-16.5l0.2-0.7c1.5-7.2-1.2-11.6-6.2-11.6
	C373.8,183.9,367.7,192.3,365.7,201.4L365.7,201.4z M428.5,181.8c4.5-5.4,11.2-8.5,15.6-8.5c6.3,0,9.6,2.8,9.8,8
	c5.3-5.6,11.1-8,16.2-8c7,0,12.8,5.3,10.8,14.8l-4.7,22.3c-0.3,2,0,2.5,1,2.5c0.9-0.1,1.8-0.6,2.5-1.1c4-2.5,6.7,0.3,6.2,3.7
	c-0.4,1.8-1.6,3.3-3.1,4.3c-2.6,2.1-5.9,3.3-9.3,3.1c-6.5,0-10-3.4-8.2-12.1l4.2-19.9c1.2-5.6-0.4-7.2-2.8-7.2
	c-5.4,0-12.9,6.2-15.8,20l-3,13.9c-0.8,3.1-3.6,5.3-6.7,5.3c-2.8,0-5-1.8-4.3-5.3l5.8-27.5c1-5-0.8-6.4-3-6.4
	c-5.3,0-11.9,5.2-15,16.3l-3.7,17.5c-0.7,3.1-3.5,5.5-6.7,5.4c-2.6,0-5-1.8-4.3-5.4l8.3-38.9c0.7-3.1,3.5-5.3,6.6-5.3
	c2.8,0,5.2,1.8,4.4,5.3L428.5,181.8z M510.7,180.3c4.2-4.4,9.9-7,15.9-7c11.1,0,15.8,9.3,13.2,21.5c-3.4,15.9-15.5,28.4-29.5,28.4
	c-3.5,0-6.1-0.9-8-3.5l-6.1,28.3c-0.7,3.1-3.5,5.3-6.6,5.3c-2.9,0-5.2-1.8-4.4-5.3l14.8-69.2c0.6-3.1,3.4-5.4,6.6-5.4
	c2.7,0,5.2,1.8,4.4,5.4L510.7,180.3z M528,195.1c1.5-6.8-0.9-11.1-5.7-11.1c-7.6,0-14.2,8.8-16,17.2l-0.2,1.1
	c-1.1,6.5,1.5,10.4,6.3,10.4C520.2,212.6,526.3,204.2,528,195.1L528,195.1z M148.7,191.5c-0.6,0-1,0.7-1,1.6c0,0.9,0.4,1.6,1,1.6
	c0.6,0,1-0.7,1-1.6C149.8,192.2,149.3,191.4,148.7,191.5L148.7,191.5z M155,191.5c-0.6,0-1,0.7-1,1.6c0,0.9,0.4,1.6,1,1.6
	c0.6,0,1-0.7,1-1.6C156,192.2,155.5,191.4,155,191.5L155,191.5z M145.1,198.2c2,6.2,8.3,9.3,13.5-1 M101.6,366.9
	c4,0,5.5-2.7,5.5-6.1c0-2.1-1.2-4.6-3.5-4.6c-1.1-0.1-2.2,0.8-2.4,1.9c0,0.1,0,0.2,0,0.4c0,0.9,0.4,1.7,1.1,2.2
	c0.2,0.2,0.4,0.6,0.4,0.9c0,0.7-0.6,1.2-1.2,1.2c-0.2,0-0.4-0.1-0.7-0.2c-1.2-0.9-2-2.4-2-3.9c0-2.7,2.1-4.5,4.8-4.5
	c3.7,0,5.9,3.3,5.9,6.6c0,5.3-3,8.3-8.2,8.3c-4.8,0-8.1-3.3-8.1-7.9c0-2.6,1.2-5,3.3-6.7c0.2-0.2,0.6-0.3,0.9-0.3
	c0.6,0,1.1,0.4,1.1,1c0,0,0,0,0,0.1c0,0.3-0.2,0.7-0.4,0.9c-1.3,1.3-2.1,3.1-2.2,5C96.1,364.3,97.9,366.9,101.6,366.9z M113.8,361.3
	c0.6-1.1,1.7-1.9,2.9-1.9c1.6,0,2.7,1,2.7,2.9v4.4c0,0.3,0.1,0.4,0.2,0.4c0.1,0,0.3-0.1,0.4-0.2c0.4-0.3,0.9-0.2,1.2,0.2
	c0.1,0.2,0.2,0.3,0.1,0.6c0,0.3-0.1,0.7-0.4,0.9c-0.4,0.4-1.1,0.7-1.7,0.7c-1.3,0-2.2-0.7-2.2-2.5V363c0-1-0.4-1.2-1-1.2
	c-1,0-2.4,1-2.5,3.3v3.3c0,0.7-0.6,1.1-1.1,1.1s-1.1-0.6-1.1-1.1v-7.6c0-0.7,0.6-1.1,1.1-1.1s1.1,0.6,1.1,1.1L113.8,361.3z
	 M127.9,358.8c0.1,0.8,0.4,1.5,1,1.9c0.2,0.2,0.4,0.6,0.4,0.9c0,0.7-0.4,1.1-1.1,1.1l0,0c-0.3,0-0.6-0.1-0.8-0.2
	c-1.1-0.9-1.9-2.2-1.9-3.7c0-2.8,2.2-4.4,5-4.4h4.3c5.4,0,8,3.8,8,7.4s-2.5,7.2-7.5,7.2h-4.9c-0.6,0-1.1-0.4-1.1-1v-0.1
	c0-0.7,0.4-1.1,1.1-1.1l0,0h1c0.7,0,0.7-0.6,0.7-1.2v-7c0-0.7,0.4-1.1,1.1-1.1c0,0,0,0,0.1,0c0.6,0,1.1,0.4,1.2,1v0.1v6.8
	c0,0.8-0.1,1.2-0.4,1.3h1.5c2.6,0,4.9-1.7,4.9-4.8s-2.6-5.2-5.7-5.2h-4C129.1,356.8,127.9,357.5,127.9,358.8L127.9,358.8z
	 M144.1,364.3c-0.1-2.6,1.9-4.8,4.5-4.9c0.1,0,0.3,0,0.4,0c2.9,0,4.3,1.7,4.3,3.4c0,1.7-1.3,3-3.7,3c-0.4,0-0.9-0.1-1.3-0.2
	c-0.4-0.1-0.7-0.6-0.7-1c0-0.6,0.4-1.1,1-1.1l0,0c0.3,0,0.8,0.2,1,0.2c0.6,0.1,1-0.3,1-0.8v-0.1c0-0.7-0.4-1.1-1.8-1.1
	c-1.3,0-2.5,1.1-2.5,2.6c0,0.1,0,0.1,0,0.2c0,1.5,1.1,2.7,2.7,2.8h0.1c0.9,0,1.7-0.2,2.5-0.7c0.2-0.1,0.4-0.2,0.8-0.2
	s0.7,0.2,0.9,0.4c0.3,0.6,0.1,1.3-0.6,1.7c-1.1,0.7-2.4,1-3.7,0.9c-2.7,0.1-5-2-5-4.8C144.1,364.4,144.1,364.4,144.1,364.3
	L144.1,364.3z M159.6,361.6c-1.3,0-2.5,1-2.5,2.4c0,0.1,0,0.2,0,0.3c0,1.7,1,2.7,2.5,2.7c0.7,0,1.5-0.2,1.9-0.7
	c0.2-0.2,0.4-0.3,0.8-0.3c0.6,0,1.1,0.6,1.1,1.1c0,0.3-0.1,0.7-0.3,0.9c-1,0.9-2.4,1.3-3.7,1.2c-2.9,0-4.7-1.8-4.7-4.9
	c-0.1-2.6,1.9-4.8,4.6-4.9c0.1,0,0.2,0,0.4,0c1.9,0,3.6,1.1,3.6,3c0,0.8-0.2,1.5-0.8,2c-0.2,0.2-0.6,0.4-1,0.4c-0.6,0-1.1-0.4-1.1-1
	c0-0.3,0.1-0.6,0.3-0.8c0.2-0.1,0.2-0.3,0.2-0.7C160.9,362.1,160.5,361.6,159.6,361.6z M164.5,364.3c-0.1-2.6,1.9-4.8,4.5-4.9
	c0.1,0,0.3,0,0.4,0c2.9,0,4.3,1.7,4.3,3.4c0,1.7-1.3,3-3.7,3c-0.4,0-0.9-0.1-1.3-0.2c-0.4-0.1-0.7-0.6-0.7-1c0-0.6,0.4-1.1,1-1.1
	l0,0c0.3,0,0.8,0.2,1,0.2c0.6,0.1,1-0.3,1-0.8v-0.1c0-0.7-0.4-1.1-1.8-1.1c-1.3,0-2.5,1.1-2.5,2.6c0,0.1,0,0.1,0,0.2
	c0,1.5,1.1,2.7,2.7,2.8h0.1c0.9,0,1.7-0.2,2.5-0.7c0.2-0.1,0.4-0.2,0.8-0.2c0.3,0,0.7,0.2,0.9,0.4c0.3,0.6,0.1,1.3-0.6,1.7
	c-1.1,0.7-2.4,1-3.7,0.9c-2.7,0.1-5-2.1-5-4.8C164.5,364.4,164.5,364.4,164.5,364.3L164.5,364.3z M178,361.1
	c0.6-0.9,1.6-1.6,2.7-1.7c1-0.1,1.9,0.6,2.2,1.5c0.7-0.9,1.7-1.5,2.8-1.5c1.6,0,2.8,1.2,2.8,2.8c0,0.1,0,0.1,0,0.2v4.4
	c0,0.3,0.1,0.4,0.2,0.4s0.3-0.1,0.4-0.2c0.4-0.3,0.9-0.2,1.2,0.2c0.1,0.2,0.2,0.3,0.1,0.6c0,0.3-0.1,0.7-0.4,0.9
	c-0.4,0.4-1.1,0.7-1.7,0.7c-1.3,0-2.2-0.7-2.2-2.5v-3.8c0-1-0.4-1.3-0.8-1.3c-1,0-2.1,1.1-2.1,3.8v2.7c0,0.6-0.6,1.1-1.1,1.1l0,0
	c-0.6,0-1.1-0.4-1.1-1v-0.1v-5.4c0-0.9-0.4-1.1-0.8-1.1c-1,0-2,1-2.2,3.1v3.4c0,0.6-0.4,1.1-1.1,1.1h-0.1c-0.6,0-1.1-0.4-1.1-1
	c0,0,0,0,0-0.1v-7.6c0-0.7,0.6-1.1,1.1-1.1c0.6,0,1.1,0.6,1.1,1.1L178,361.1z M194.4,354c-0.2,0-0.4,0.1-0.4,0.4v7
	c0.4-1.3,1.7-2.1,3-2c2.1,0,3.4,1.8,3.4,4.2c0,2.9-1.8,5.7-4.9,5.7c-2.6,0-3.7-2-3.7-4.2v-10.5c0-2.4,1-2.8,2.6-2.8h0.2
	c0.6,0,1,0.3,1.1,0.9c0,0.1,0,0.1,0,0.2c0.1,0.6-0.3,1.1-0.9,1.1C194.6,354,194.5,354,194.4,354L194.4,354z M197.8,363.7
	c0-1-0.3-1.9-1.6-1.9c-1.3,0-2.2,1.1-2.2,2.9v0.2c0,1.1,0.4,2.2,1.6,2.2C196.9,367.1,197.8,365.1,197.8,363.7z M201.5,364.3
	c-0.1-2.6,1.9-4.8,4.5-4.9c0.1,0,0.3,0,0.4,0c2.9,0,4.3,1.7,4.3,3.4c0,1.7-1.3,3-3.7,3c-0.4,0-0.9-0.1-1.3-0.2
	c-0.4-0.1-0.7-0.6-0.7-1c0-0.6,0.4-1.1,1-1.1l0,0c0.3,0,0.8,0.2,1,0.2c0.6,0.1,1-0.3,1-0.8v-0.1c0-0.7-0.4-1.1-1.8-1.1
	c-1.3,0-2.5,1.1-2.5,2.6c0,0.1,0,0.1,0,0.2c0,1.5,1.1,2.7,2.7,2.8h0.1c0.9,0,1.7-0.2,2.5-0.7c0.2-0.1,0.4-0.2,0.8-0.2
	s0.7,0.2,0.9,0.4c0.3,0.6,0,1.3-0.6,1.7c-1.1,0.7-2.4,1-3.7,0.9c-2.7,0.1-5-2-5.2-4.7C201.4,364.5,201.4,364.4,201.5,364.3
	L201.5,364.3z M212.8,360.5c0-0.6,0.4-1.1,1-1.1h0.1c0.6,0,1.1,0.4,1.1,1c0,0,0,0,0,0.1v0.9c0.7-1.2,1.6-2,2.6-2
	c0.9-0.1,1.7,0.6,1.8,1.5v0.1c0,0.6-0.4,1.1-1,1.2c-0.7,0-0.7-0.4-1.2-0.4c-1.3,0-2,2.5-2,3.7v2.8c0,0.6-0.4,1.1-1,1.1H214
	c-0.6,0-1.1-0.4-1.1-1v-0.1L212.8,360.5z M225.8,359.8l2.9-4.9c0.2-0.3,0.6-0.6,1-0.6c0.8,0,1,0.4,1,0.9c0,0.2-0.1,0.6-0.2,0.8
	l-2.6,4.4c0.3-0.6,1-0.8,2-0.8c2.1,0,3.8,1.9,3.8,4.7c0,2.7-2.2,4.9-4.9,4.9s-4.9-2.2-4.9-4.9C224,363.4,224.2,362.5,225.8,359.8
	L225.8,359.8z M228.9,361.6c-1.5-0.1-2.8,1.1-2.8,2.6c-0.1,1.5,1.1,2.8,2.6,2.8c1.5,0.1,2.8-1.1,2.8-2.6v-0.1
	c0.1-1.3-0.9-2.7-2.4-2.8C229.1,361.5,229,361.5,228.9,361.6L228.9,361.6z M235.4,361.9c-0.6,0-1.1-0.4-1.1-1c0,0,0,0,0-0.1
	c0-0.6,0.4-1.1,1-1.1c0,0,0,0,0.1,0h1.2v-1.5c0-0.6,0.4-1.1,1-1.1h0.1c0.6,0,1.1,0.4,1.1,1v0.1v1.5h1.8c0.6,0,1,0.4,1,1v0.1
	c0,0.6-0.3,1-0.9,1.1h-0.1h-1.8v4.3c0,0.7,0.1,1,0.4,1c0.2,0,0.4-0.1,0.6-0.2c0.2-0.2,0.6-0.3,0.9-0.3c0.6,0,1,0.3,1.1,0.9
	c0,0.1,0,0.1,0,0.2c0,0.2-0.1,0.6-0.2,0.8c-0.6,0.7-1.5,1-2.4,0.9c-2,0-2.7-1.2-2.7-2.9v-4.6L235.4,361.9z M243.4,354.6
	c0-2.4,1-2.8,2.6-2.8h0.2c0.6,0,1,0.3,1.1,0.9c0,0.1,0,0.1,0,0.2c0.1,0.6-0.3,1.1-0.9,1.1c-0.1,0-0.1,0-0.2,0h-0.1
	c-0.2,0-0.4,0.1-0.4,0.4v6.8c0.6-1.1,1.7-1.9,3-1.9c1.6,0,2.7,1,2.7,2.9v4.4c0,0.3,0.1,0.4,0.2,0.4s0.3-0.1,0.4-0.2
	c0.4-0.3,0.9-0.2,1.2,0.2c0.1,0.2,0.2,0.4,0.2,0.6c0,0.3-0.2,0.7-0.4,0.9c-0.4,0.4-1.1,0.7-1.7,0.7c-1.3,0-2.2-0.7-2.2-2.5V363
	c0-1-0.4-1.2-1-1.2c-1,0-2.4,1-2.5,3.3v3.3c0,0.7-0.6,1.1-1.1,1.1c-0.7,0-1.1-0.6-1.1-1.1V354.6z M264.3,367.8
	c-0.7,0.9-1.8,1.5-2.9,1.5c-2.2,0-3.5-1.8-3.5-4.3c0-3.1,1.9-5.6,4.6-5.6c0.7,0,1.2,0.2,1.7,0.7c0.2-0.4,0.6-0.7,1.1-0.7
	c0.6-0.1,1.1,0.3,1.1,0.9v0.1v6.2c0,0.3,0.1,0.4,0.2,0.4s0.3-0.1,0.4-0.2c0.4-0.3,0.9-0.2,1.2,0.2c0.1,0.2,0.2,0.3,0.1,0.6
	c0,0.3-0.2,0.7-0.4,0.9c-0.4,0.4-1.1,0.7-1.7,0.7C265.4,369.3,264.6,368.7,264.3,367.8L264.3,367.8z M260.3,365
	c0,1.3,0.7,2.1,1.5,2.1c1.5,0,2.4-1.7,2.4-3.1v-0.3c-0.1-1.2-0.8-1.9-1.6-1.9C261.1,361.6,260.3,363.2,260.3,365z M271.9,361.3
	c0.6-1.1,1.7-1.9,2.9-1.9c1.6,0,2.7,1,2.7,2.9v4.4c0,0.3,0.1,0.4,0.2,0.4s0.3-0.1,0.4-0.2c0.4-0.3,0.9-0.2,1.2,0.2
	c0.1,0.2,0.2,0.3,0.1,0.6c0,0.3-0.2,0.7-0.4,0.9c-0.4,0.4-1.1,0.7-1.7,0.7c-1.3,0-2.2-0.7-2.2-2.5V363c0-1-0.4-1.2-1-1.2
	c-1,0-2.4,1-2.5,3.3v3.3c0,0.6-0.4,1.1-1.1,1.1h-0.1c-0.6,0-1.1-0.4-1.1-1c0,0,0,0,0-0.1v-7.6c0-0.7,0.6-1.1,1.1-1.1
	c0.7,0,1.1,0.6,1.1,1.1L271.9,361.3z M288.6,366.7c0,0.3,0.1,0.4,0.2,0.4s0.3-0.1,0.4-0.2c0.4-0.3,0.9-0.2,1.2,0.2
	c0.1,0.2,0.2,0.3,0.1,0.6c0,0.3-0.2,0.7-0.4,0.9c-0.4,0.4-1.1,0.7-1.7,0.7c-0.9,0.1-1.8-0.4-2-1.5c-0.7,0.9-1.8,1.5-2.9,1.5
	c-2.2,0-3.5-1.8-3.5-4.3c0-3.1,1.9-5.6,4.6-5.6c0.7,0,1.2,0.2,1.7,0.7v-7.3c0-0.7,0.6-1.1,1.2-1c0.6,0,1,0.4,1,1L288.6,366.7
	L288.6,366.7z M282.4,365c0,1.3,0.7,2.1,1.5,2.1c1.5,0,2.4-1.7,2.4-3.3c0-1.3-0.7-2.1-1.6-2.1C283.2,361.6,282.4,363.2,282.4,365z
	 M297.4,368.7c-0.2,0.3-0.4,0.6-0.9,0.6c-0.7,0-1.1-0.4-1.2-1.1c0-0.2,0-0.3,0.1-0.6l6.4-11h-5.6c-0.6,0-1.1-0.4-1.1-1
	c0,0,0,0,0-0.1c0-0.6,0.3-1,0.9-1.1h0.1h7.3c0.8,0,1.1,0.3,1.1,0.9s0,0.8-0.8,1.9L297.4,368.7z M306.1,361.9c-0.6,0-1.1-0.4-1.1-1
	c0,0,0,0,0-0.1c0-0.6,0.4-1.1,1-1.1c0,0,0,0,0.1,0h1.2v-1.5c0-0.6,0.4-1.1,1-1.1h0.1c0.6,0,1.1,0.4,1.1,1v0.1v1.5h1.8
	c0.6,0,1,0.4,1.1,1v0.1c0,0.6-0.3,1-0.9,1.1h-0.1h-1.9v4.3c0,0.7,0.1,1,0.4,1c0.2,0,0.4-0.1,0.6-0.2c0.2-0.2,0.6-0.3,0.9-0.3
	c0.6,0,1,0.3,1.1,0.9c0,0.1,0,0.1,0,0.2c0,0.2-0.1,0.6-0.2,0.8c-0.6,0.7-1.5,1-2.4,0.9c-2,0-2.7-1.2-2.7-2.9v-4.6L306.1,361.9z
	 M314.1,354.6c0-2.4,1-2.8,2.6-2.8h0.2c0.6,0,1,0.3,1.1,0.9c0,0.1,0,0.1,0,0.2c0.1,0.6-0.3,1.1-0.9,1.1c-0.1,0-0.1,0-0.2,0h-0.1
	c-0.2,0-0.4,0.1-0.4,0.4v6.8c0.6-1.1,1.7-1.9,3-1.9c1.6,0,2.7,1,2.7,2.9v4.4c0,0.3,0.1,0.4,0.2,0.4c0.1,0,0.3-0.1,0.4-0.2
	c0.4-0.3,0.9-0.2,1.2,0.2c0.1,0.2,0.2,0.3,0.1,0.6c0,0.3-0.2,0.7-0.4,0.9c-0.4,0.4-1.1,0.7-1.7,0.7c-1.3,0-2.2-0.7-2.2-2.5V363
	c0-1-0.4-1.2-1-1.2c-1,0-2.4,1-2.5,3.3v3.3c0,0.7-0.6,1.1-1.1,1.1c-0.7,0-1.1-0.6-1.1-1.1L314.1,354.6z M326.1,370.7
	c-0.1,0.3-0.4,0.6-0.8,0.7c-0.7,0.1-1.2-0.2-1.5-0.9c-0.1-0.2,0-0.4,0-0.8l1.2-3c0.1-0.3,0.4-0.6,0.8-0.7c0.7-0.1,1.2,0.2,1.5,0.9
	c0.1,0.2,0,0.4,0,0.7L326.1,370.7z M333.9,369c-0.6,0.1-1-0.3-1.1-0.9V368c0-0.7,0.4-0.9,1.2-1.2c2.9-1.1,6.1-4.5,6.1-7.6
	c0.1-1.3-0.9-2.6-2.2-2.7c-0.1,0-0.2,0-0.3,0c-1.2-0.1-2.2,0.8-2.4,1.9c0,0.1,0,0.1,0,0.2c0,0.7,0.2,1.3,0.8,1.8
	c0.2,0.2,0.4,0.6,0.4,0.9c0,0.7-0.4,1.1-1.1,1.2c-0.2,0-0.4-0.1-0.7-0.2c-1.1-0.9-1.8-2.1-1.8-3.6c0-2.6,2-4.4,4.7-4.4
	c2.6-0.1,4.7,1.9,4.9,4.4c0,0.2,0,0.3,0,0.6c0,3.8-3.3,6.7-5,7.6h4.6c0.6,0,1,0.4,1.1,1v0.1c0,0.6-0.4,1.1-1,1.1l0,0h-8.2V369z
	 M349.8,354.2c3.1,0,5.3,2.5,5.3,7.5c0,5-2.1,7.4-5.3,7.4s-5.3-2.5-5.3-7.4C344.5,356.8,346.6,354.3,349.8,354.2L349.8,354.2z
	 M349.8,356.5c-1.5,0-2.9,1.7-2.9,5.3c0,3.6,1.5,5.3,2.9,5.3c1.5,0,3-1.7,3-5.3C352.8,358.2,351.3,356.5,349.8,356.5L349.8,356.5z
	 M357.2,356.7c-0.7,0-1.1-0.4-1.1-1.1s0.4-1.1,1.1-1.1h1.2c2.2,0,2.9,0.4,2.9,3.1v10.5c0,0.6-0.4,1.1-1,1.1c0,0,0,0-0.1,0
	c-0.6,0-1.1-0.4-1.1-1c0,0,0,0,0-0.1v-10.7c0-0.6-0.1-0.8-0.6-0.8L357.2,356.7z M371.3,363.8l-2.9,4.9c-0.2,0.3-0.6,0.6-1,0.6
	c-0.8,0-1-0.4-1-0.9c0-0.2,0.1-0.6,0.2-0.8l2.6-4.4c-0.3,0.6-1,0.8-2,0.8c-2.1,0-3.8-1.9-3.8-4.7c0-2.7,2.2-4.9,4.9-4.9
	s4.9,2.2,4.9,4.9l0,0C373.1,360.1,372.9,361,371.3,363.8L371.3,363.8z M368.2,362c1.5,0.1,2.8-1.1,2.8-2.6c0.1-1.5-1.1-2.8-2.6-2.8
	c-1.5-0.1-2.8,1.1-2.8,2.6v0.1c-0.1,1.5,0.9,2.7,2.4,2.8C368,362,368.2,362,368.2,362L368.2,362z M384.8,367.8
	c-0.7,0.9-1.8,1.5-2.9,1.5c-2.2,0-3.5-1.8-3.5-4.3c0-3.1,1.9-5.6,4.6-5.6c0.7,0,1.2,0.2,1.7,0.7c0.2-0.4,0.6-0.7,1.1-0.7
	c0.6-0.1,1.1,0.3,1.1,0.9v0.1v6.2c0,0.3,0.1,0.4,0.2,0.4c0.1,0,0.3-0.1,0.4-0.2c0.4-0.3,0.9-0.2,1.2,0.2c0.1,0.2,0.2,0.4,0.2,0.6
	c0,0.3-0.2,0.7-0.4,0.9c-0.4,0.4-1.1,0.7-1.7,0.7C385.9,369.4,385,368.7,384.8,367.8L384.8,367.8z M380.7,365c0,1.3,0.7,2.1,1.5,2.1
	c1.5,0,2.4-1.7,2.4-3.1v-0.3c-0.1-1.2-0.8-1.9-1.6-1.9C381.5,361.6,380.7,363.2,380.7,365z M389.9,361.9c-0.6,0-1.1-0.4-1.1-1
	c0,0,0,0,0-0.1c0-0.6,0.4-1.1,1-1.1c0,0,0,0,0.1,0h1.2v-1.5c0-0.6,0.4-1.1,1-1.1h0.1c0.6,0,1.1,0.4,1.1,1v0.1v1.5h1.8
	c0.6,0,1,0.4,1.1,1v0.1c0,0.6-0.3,1-0.9,1.1h-0.1h-1.8v4.3c0,0.7,0.1,1,0.4,1c0.2,0,0.4-0.1,0.6-0.2c0.2-0.2,0.6-0.3,0.9-0.3
	c0.6,0,1,0.3,1.1,0.9c0,0.1,0,0.1,0,0.2c0,0.2-0.1,0.6-0.2,0.8c-0.6,0.7-1.5,1-2.4,0.9c-2,0-2.7-1.2-2.7-2.9v-4.6L389.9,361.9z
	 M409.3,366.9c4,0,5.5-2.7,5.5-6.1c0-2.1-1.2-4.6-3.5-4.6c-1.1-0.1-2.2,0.8-2.4,1.9c0,0.1,0,0.2,0,0.3c0,0.9,0.4,1.7,1.1,2.2
	c0.2,0.2,0.4,0.6,0.4,0.9c0,0.7-0.6,1.2-1.2,1.2c-0.2,0-0.4-0.1-0.7-0.2c-1.2-0.9-2-2.4-2-3.9c0-2.7,2.1-4.5,4.8-4.5
	c3.7,0,5.9,3.3,5.9,6.6c0,5.3-3,8.3-8.2,8.3c-4.8,0-8.1-3.3-8.1-7.9c0-2.6,1.2-5,3.3-6.7c0.2-0.2,0.6-0.3,0.9-0.3
	c0.6,0,1.1,0.4,1.1,1c0,0,0,0,0,0.1c0,0.3-0.2,0.7-0.4,0.9c-1.3,1.3-2.1,3.1-2.2,5C404,364.3,405.6,366.9,409.3,366.9L409.3,366.9z
	 M425.3,361.5c0,0.6-0.4,1.1-1,1.1c-0.2,0-0.3,0-0.6-0.1c-0.6-0.4-0.9-0.9-1.8-0.9c-0.7,0-1,0.3-1,0.9s0.7,0.9,1.5,1.5
	c1.1,0.7,2.4,1.5,2.4,2.9c0,1.5-0.9,2.5-2.7,2.5c-1.1,0-2.6-0.3-2.6-1.7c0-0.6,0.3-1,0.9-1.1c0,0,0,0,0.1,0c0.6,0,0.9,0.7,1.6,0.7
	c0.3,0,0.4-0.1,0.4-0.3c0-0.3-0.8-0.8-1.7-1.3c-1.1-0.7-2.2-1.3-2.2-2.9c0-1.8,1.5-3.1,3.1-3.1c0.1,0,0.1,0,0.2,0
	c1.2,0,2.4,0.6,3,1.5C425.3,361.1,425.3,361.3,425.3,361.5L425.3,361.5z M432.7,367.8c-0.7,0.9-1.8,1.5-2.9,1.5
	c-2.2,0-3.5-1.8-3.5-4.3c0-3.1,1.9-5.6,4.6-5.6c0.7,0,1.2,0.2,1.7,0.7c0.2-0.4,0.6-0.7,1.1-0.7c0.6-0.1,1.1,0.3,1.1,0.9v0.1v6.2
	c0,0.3,0.1,0.4,0.2,0.4s0.3-0.1,0.4-0.2c0.4-0.3,0.9-0.2,1.2,0.2c0.1,0.2,0.2,0.4,0.2,0.6c0,0.3-0.2,0.7-0.4,0.9
	c-0.4,0.4-1.1,0.7-1.7,0.7C433.8,369.4,433,368.7,432.7,367.8L432.7,367.8z M428.8,365c0,1.3,0.7,2.1,1.5,2.1c1.5,0,2.4-1.7,2.4-3.1
	v-0.3c-0.1-1.2-0.8-1.9-1.6-1.9C429.5,361.6,428.8,363.2,428.8,365z M438.1,354.6c0-2.4,1-2.8,2.6-2.8h0.2c0.6,0,1,0.3,1.1,0.9
	c0,0.1,0,0.1,0,0.2c0.1,0.6-0.3,1.1-0.9,1.1c-0.1,0-0.1,0-0.2,0h-0.1c-0.2,0-0.4,0.1-0.4,0.4v6.5c0.7-1,1.8-1.6,3-1.5
	c1.2-0.1,2.4,0.8,2.5,2c0,0.1,0,0.2,0,0.3c0,1.3-1.1,2.7-2.8,3.3c0.6,0.1,1,0.6,1.2,1c0.3,0.4,0.7,0.9,0.9,0.9
	c0.3,0,0.6-0.4,0.9-0.4c0.6,0,1,0.4,1,1l0,0c-0.1,1-0.9,1.7-1.9,1.7l0,0c-1,0-1.3-0.2-2.4-1.6c-0.3-0.6-0.8-1.1-1.2-1.7
	c-0.3-0.2-0.4-0.7-0.4-1c0-0.4,0.2-0.8,0.8-1c1.5-0.8,1.7-1.2,1.7-1.7c0-0.3-0.2-0.6-0.7-0.6c-1.1,0-2.5,1-2.5,3.4v3.1
	c0,0.6-0.4,1.1-1.1,1.1h-0.1c-0.6,0-1.1-0.4-1.1-1c0,0,0,0,0-0.1L438.1,354.6z M454.2,367.8c-0.7,0.9-1.8,1.5-2.9,1.5
	c-2.2,0-3.5-1.8-3.5-4.3c0-3.1,1.9-5.6,4.6-5.6c0.7,0,1.2,0.2,1.7,0.7c0.2-0.4,0.7-0.7,1.1-0.7c0.6-0.1,1.1,0.3,1.1,0.9v0.1v6.2
	c0,0.3,0.1,0.4,0.2,0.4s0.3-0.1,0.4-0.2c0.4-0.3,0.9-0.2,1.2,0.2c0.1,0.2,0.2,0.3,0.1,0.6c0,0.3-0.2,0.7-0.4,0.9
	c-0.4,0.4-1.1,0.7-1.7,0.7C455.3,369.3,454.4,368.7,454.2,367.8L454.2,367.8z M450.2,365c0,1.3,0.7,2.1,1.5,2.1
	c1.5,0,2.4-1.7,2.4-3.1v-0.3c-0.1-1.2-0.8-1.9-1.6-1.9C451,361.6,450.2,363.2,450.2,365z M503.5,317.8c0,0-0.1-0.3-0.6-1.2
	c-0.2-0.7-0.7-1.2-1.1-1.8c-0.3-0.4-0.9-0.8-1.6-0.7c-0.6,0.1-0.9,0.7-0.9,1.2l0,0c0.1,0.7,0.4,1.2,0.9,1.7c0.3,0.2,1.9,1.6,1.9,1.6
	c-0.9,0.1-1.7,0.2-2.6,0.2c-1.3,0.1-1.9,2.1-1.6,2.7c0.6,0.6,1.6,0.8,2.4,0.4c0.8-0.3,2.5-2.2,2.5-2.2c0,0.7-0.2,1.3-0.4,2
	c-0.9,2.2,0.8,2.8,0.9,2.8c0.2,0.1,0.4,0.1,0.8,0.1c0.9-0.3,1.3-1.3,1.1-2.2c-0.2-0.9-0.9-2.8-0.9-2.8c0.7,0.7,1.5,1.3,2.2,1.8
	c0.6,0.2,1.2,0.1,1.8-0.2c0.3-0.2,0.8-0.6,0.7-1c-0.2-0.4,0-1-0.8-1.5s-1.9-0.3-3.7-0.1c2.9-1.8,2.7-3.5,2.4-3.9
	c-0.3-0.4-0.7-0.3-1-0.2c-0.3,0.1-0.6-0.1-0.9,0.1c-0.9,0.8-1.5,1.9-1.5,3L503.5,317.8z M518.1,304c0,0-0.6-0.3-2.1-1.3
	c-1.1-0.8-2.4-1.3-3.7-1.8c-1.1-0.3-2.2-0.1-3.1,0.6s-0.7,2,0,2.8c0.9,0.9,2,1.5,3.3,1.6c0.8,0,4.7,0.3,4.7,0.3
	c-1.1,1.1-2.5,2.2-3.7,3.1c-2,1.6-0.8,5.4,0.4,5.8c1.2,0.4,3.1-0.3,4-1.8c0.9-1.5,1.5-6.2,1.5-6.2c0.7,1.1,1.1,2.4,1.5,3.7
	c1,4.4,4.2,3.6,4.4,3.5c0.4-0.1,0.9-0.3,1.2-0.7c1-1.5,0.7-3.5-0.7-4.7s-4.5-3.5-4.5-3.5s4.3,0.8,5.5,0.4c1.2-0.3,2.1-1.6,2.6-2.2
	c0.4-0.7,0.8-1.7-0.1-2.2c-0.8-0.6-1.1-1.6-2.8-1.3c-1.7,0.2-3.3,1.5-5.8,3.8c2.6-5.9,0.6-8.4-0.6-8.8c-1.1-0.3-1.3,0.1-1.9,0.7
	c-0.6,0.6-1,0.4-1.2,1c-1.2,3.1,0.9,6.3,0.9,6.3L518.1,304z M46.8,254.5c0.8-0.8,0.8-2.1,0-2.9l0,0l-4.9-4.8
	c-0.9-0.7-2.1-0.6-2.9,0.2c-0.7,0.8-0.7,1.9,0,2.7l4.9,4.8C44.7,255.3,46,255.4,46.8,254.5L46.8,254.5L46.8,254.5z M36.9,269.3
	c0.1-1.1-0.8-2.1-1.9-2.2l0,0l-4.8-0.2c-1.1-0.1-2.1,0.8-2.2,1.9c-0.1,1.1,0.8,2.1,1.9,2.2H30l4.8,0.2h0.1
	C36,271.2,36.9,270.3,36.9,269.3z M40.5,261.2c0.4-1-0.1-2.2-1.1-2.7l0,0l-7.5-2.9c-1.1-0.3-2.2,0.2-2.6,1.3c-0.3,1,0.2,2,1.1,2.5
	l7.5,2.9c0.2,0.1,0.4,0.1,0.8,0.1C39.5,262.6,40.2,262,40.5,261.2z M411.7,261.7c11.7,0,19.9,13.5,16.3,33
	c-4,22.2-16.4,32.9-30.2,32.9c-13.8,0-23.9-10.8-19.3-32.9C383.1,272.5,395.4,261.7,411.7,261.7L411.7,261.7z M398.1,275.2
	c-0.9,0-1.6,1-1.6,2.4c0,1.2,0.7,2.4,1.6,2.4c0.9,0,1.6-1,1.6-2.4C399.6,276.2,399,275.2,398.1,275.2L398.1,275.2z M407.4,275.2
	c-0.9,0-1.6,1-1.6,2.4c0,1.2,0.8,2.4,1.6,2.4c0.8,0,1.6-1,1.6-2.4S408.3,275.2,407.4,275.2L407.4,275.2z M413.7,284.2
	c0.2-0.6,0-1.1-0.4-1.3c-0.6-0.2-1.1,0-1.3,0.4c-3.3,6.4-7,9.9-10.7,9.5c-3.1-0.2-6.2-3.3-7.6-7.9c-0.2-0.6-0.8-0.8-1.3-0.7
	c-0.6,0.2-0.8,0.8-0.7,1.3c1.8,5.4,5.4,9,9.4,9.3h0.6C405,294.9,409.5,293,413.7,284.2L413.7,284.2z"/>
<path class="st2" d="M76.7,316.2c20.4,0,31.3-14,34.9-31.1c2.5-11.6-1.3-23.8-13.1-23.8c-7.5,0-13,4.6-14.7,12.2
	c-0.9,4.2,0.3,8.5,3.3,11.7c1.1,1,1.5,2.6,1.1,4c-0.7,2.9-3.7,5.7-6.8,5.7c-1.1,0-2.2-0.3-3.1-1.1c-5.4-5-7.5-12.9-6.1-19.9
	c2.9-13.5,15.3-22.4,29.1-22.4c18.6,0,26.7,16.3,22.9,33.5c-5.6,26.7-24.5,42-49.8,42c-24.5,0-37-16.2-32.1-39.8
	c3-14.1,12.2-26.4,23.5-33.8c1.5-0.9,3.3-1.5,5-1.6c3.1,0,4.7,2.4,4.2,5.3c-0.6,1.8-1.7,3.3-3.1,4.4c-7.7,6.7-14.5,14.8-16.8,25.8
	C51.5,302.9,58,316.2,76.7,316.2z M140.6,280.8c-2.7,12.9,24.9,14.6,21.2,32.1c-1.9,8.8-10.8,14-19.9,14c-5,0-11.4-2.5-12.9-6.4
	c-1.3-4.2,3.8-9.2,7.5-6.5c1.8,1.2,3.1,3.8,7.4,3.8c4.6,0,7.2-1.9,7.7-4.9c2.2-10.4-25.4-11.8-21.1-31.9
	c2.6-12.1,13.4-19.9,25.2-19.9c12.5,0,19.3,8.2,16.8,20.2c-0.6,2.8-3,4.8-5.8,4.8c-2.8,0-4.6-2-3.9-4.8c1.1-5.4-1.5-10.7-9-10.7
	C146.6,270.6,141.7,275.5,140.6,280.8L140.6,280.8z M206,316.1c-0.3,1.8,0,2.2,0.8,2.2c0.9-0.1,1.7-0.4,2.2-1
	c3.5-2.2,5.8,0.3,5.4,3.3c-0.4,1.6-1.3,2.8-2.7,3.7c-2.4,1.8-5.3,2.8-8.2,2.7c-4.6,0-7.3-1.9-7.4-6.4c-3.7,4.2-9,6.6-14.6,6.7
	c-9.8,0-13.8-8.1-11.4-18.7c2.9-13.9,13.5-24.8,25.7-24.8c3.1,0,5.4,0.9,7.2,3.3c0.9-2.1,3-3.4,5.3-3.3c2.7,0,4.5,1.6,3.8,4.6
	L206,316.1z M180.1,308.3c-1.2,6.1,0.9,9.8,5,9.8c6.4,0,12.2-7.2,13.9-14.4l0.2-0.6c1.3-6.2-1.1-10.1-5.4-10.1
	C187.2,293.1,181.9,300.4,180.1,308.3z M232.6,262.1c2.2-10.3,6.7-12.3,13.9-12.3h0.8c2.5,0,4.3,1.5,3.5,4.7
	c-0.7,3.1-2.9,4.7-5.5,4.7h-0.4c-1.3,0-2.2,0.6-2.6,2.6l-6.1,28.9c3.9-4.4,8.9-7,15-7c7.3,0,10,4.6,8.8,10.5
	c-1.5,6.2-8,12-15.5,14.2c2.2,0.6,3.3,2.4,4.5,4.8c1.2,2.4,2.2,4,3.4,4c1.5,0,2.7-1.9,4.3-1.9c2.2,0,4,1.7,3.5,4.3
	c-1,4.5-5.8,7.1-9.9,7.1c-4.3,0-5.8-0.9-9.2-6.8c-1.6-3.1-2.4-6.2-4.2-7.6c-1.1-1.1-1.6-2.8-1.2-4.4c0.4-2,1.7-3.1,4.4-4.5
	c7.5-3.1,9.4-5.6,9.9-8c0.3-1.5-0.4-2.6-2.8-2.6c-5.2,0-12.2,4.7-14.6,14.7l-3,14.5c-0.6,2.8-3,4.7-5.8,4.7c-2.2,0-4.4-1.6-3.7-4.7
	L232.6,262.1z M303,316.1c-0.3,1.8,0,2.2,0.8,2.2c0.9-0.1,1.7-0.4,2.2-1c3.5-2.2,5.8,0.3,5.4,3.3c-0.4,1.6-1.3,2.8-2.7,3.7
	c-2.4,1.8-5.3,2.8-8.2,2.7c-4.6,0-7.3-1.9-7.4-6.4c-3.7,4.2-9,6.6-14.6,6.7c-9.8,0-13.8-8.1-11.4-18.7c2.9-13.9,13.5-24.8,25.7-24.8
	c3.1,0,5.4,0.9,7.2,3.3c0.9-2.1,2.9-3.4,5.3-3.3c2.7,0,4.5,1.6,3.8,4.6L303,316.1z M277.1,308.3c-1.2,6.1,0.9,9.8,5,9.8
	c6.4,0,12.2-7.2,13.9-14.4l0.2-0.6c1.3-6.2-1.1-10.1-5.4-10.1C284.1,293.1,278.8,300.4,277.1,308.3L277.1,308.3z M325.3,326.2
	c-2.9,0-4.2-1.9-3.6-4.2c0.6-2.9,2.6-3.8,6.5-5.2c13.5-4.7,31.3-19.6,34.4-34.3c1.7-8.2-3-12.2-9.1-12.2c-5.8,0-11.4,3.5-12.9,9.9
	c-0.9,4,0.2,6.5,1.9,8.2c0.9,0.9,1.2,2.4,0.9,3.6c-0.6,2.5-3.1,5-5.7,5c-1,0-2-0.3-2.7-1c-3.6-3.6-5.8-8.9-4.4-15.8
	c2.4-11,12.7-19,24.9-19c11,0,19.7,7.1,16.7,21.5c-3.7,17.7-22,30.5-30.3,34.3h20.9c3,0,4,2.2,3.6,4.5c-0.6,2.7-2.8,4.6-5.6,4.7
	L325.3,326.2z M439.1,271.3c-2.6,0-3.8-2.4-3.4-4.6c0.6-2.4,2.8-4.8,5.5-4.8h5.5c9.5,0,11.8,1.9,9.4,13.5l-10,46.9
	c-0.6,2.7-2.9,4.7-5.7,4.7c-2.4,0-4.6-1.6-3.9-4.7l10-47.3c0.6-2.4,0.1-3.6-1.9-3.6L439.1,271.3z M494.5,302.9l-17.4,21.5
	c-1.1,1.6-2.8,2.5-4.7,2.5c-3.1,0-4-1.8-3.6-3.8c0.3-1.2,0.9-2.2,1.7-3.3l15.5-19.4c-2.2,2.2-5.7,3.1-9.5,3.1
	c-9.4,0-15.5-8.4-12.9-20.8c2.7-13,13.2-21.8,26.3-21.8c13,0,19.9,8.8,17.2,21.8C506.2,287.1,504,291.2,494.5,302.9L494.5,302.9z
	 M482.6,295.4c6.6,0,13-4.6,14.7-12.6c1.8-8.1-2.7-12.6-9.4-12.6c-6.7,0-13,4.5-14.7,12.6C471.5,290.8,475.9,295.4,482.6,295.4
	L482.6,295.4z M411.7,261.7c11.7,0,19.9,13.5,16.3,33c-4,22.2-16.4,32.9-30.3,32.9c-13.9,0-23.9-10.8-19.3-32.9
	C383.1,272.5,395.4,261.7,411.7,261.7L411.7,261.7z M409.7,270.7c-9.1,0.1-18.2,7.6-21.5,23.8c-3.4,16.2,4.4,23.8,11.4,23.8
	c7.1,0,15.1-7.6,18.5-23.8C421.5,278.4,416.6,270.7,409.7,270.7L409.7,270.7z M84.2,191.9l-16,26.9c-1.5,2.6-3.6,4-6.2,4
	c-2.9,0-4.2-1.5-4.6-4.2l-5.8-39.2c-1.9-12.3-3.4-21.7-14.1-21.7c-8.8,0-13.2,6.1-14.5,11.9c-0.9,4.4,0.8,8.8,2.9,11.7
	c1,1,1.1,2.5,0.9,4c-0.7,2.8-3.5,5.3-6.4,5.3c-1.1,0.1-2.2-0.3-3-1.1c-4.7-4.6-6.8-11.9-5.3-19.7c2.8-13.1,14.2-22.4,27.7-22.4
	c15.6,0,20.3,7.2,23.8,33.3l2.9,21.7l15.1-25.7l-3.7-22.4c-0.1-0.7,0-1.2,0.1-1.9c0.7-3,4.2-5.2,7-5.2c1.8,0,3.6,0.9,3.9,3l2,11
	l6.4-11c1.2-1.9,3.3-3,5.5-3c2.8,0,5.4,2.1,4.7,5.2c-0.2,0.7-0.4,1.3-0.9,1.9l-13.4,22.4l4.5,25.9l31-52.3c1.1-1.8,3.1-3,5.3-3
	c2.9,0,5.6,2.1,5,5.2c-0.2,0.7-0.4,1.2-0.8,1.9L99.9,219c-1.5,2.5-3.6,4-6.3,4c-2.6,0-4.2-1.3-4.6-4.2L84.2,191.9z M156.2,173.2
	c14.5,0,23.6,9.1,20.2,24.9c-3.4,15.6-16.2,24.7-30.6,24.7c-14.4,0-23.6-9-20.2-24.7C128.9,182.4,141.9,173.2,156.2,173.2
	L156.2,173.2z M154,183.9c-8,0-14.8,5.5-16.6,14.2c-1.9,8.6,2.6,14,10.7,14c7.9,0,14.8-5.4,16.6-14
	C166.5,189.4,161.9,183.9,154,183.9L154,183.9z M189,178.6c0.6-3.1,3.4-5.4,6.6-5.4c2.8,0,5.2,1.8,4.4,5.4l-1.1,5.3
	c4.5-6.5,10.4-10.7,15.4-10.7c6.3,0,8,4.2,7.3,7.6c-0.8,3.5-3.7,5.8-6.2,5.8c-3,0-2.7-2.6-5.6-2.6c-6.6,0-13,11.7-14.9,18.6
	l-3.1,14.8c-0.6,3.1-3.4,5.5-6.6,5.4c-2.8,0-5.2-1.8-4.4-5.4L189,178.6z M249.8,215.4c-4.3,4.8-10.3,7.6-16.7,7.7
	c-11.1,0-15.8-9.3-13.1-21.5c3.4-15.9,15.4-28.4,29.4-28.4c3.6,0,6.1,1,8.2,3.6l7.9-37.3c0.7-3.1,3.4-5.4,6.6-5.4
	c2.8,0,5.2,1.8,4.3,5.4l-15,70.7c-0.3,2,0,2.5,0.9,2.5c1-0.1,1.9-0.4,2.6-1.1c4-2.5,6.7,0.3,6.2,3.7c-0.4,1.8-1.6,3.3-3.1,4.3
	c-2.7,2.1-5.9,3.3-9.4,3.1C253,222.8,249.9,220.7,249.8,215.4L249.8,215.4z M231.5,201.4c-1.3,6.8,1,11.1,5.7,11.1
	c7.6,0,14.4-8.8,16.3-17.2c1.5-7.2-1.2-11.6-6.2-11.6C239.6,183.9,233.5,192.3,231.5,201.4z M335.3,186.4c-3,0-5-2.2-4.4-5.4
	c0.3-1.7,1.2-3,3.3-4.6c3.1-2.6,6.5-5.7,7.6-11.1c1.8-8.4-3.3-14.1-13.9-14.1c-16.6,0-31.8,14-36.2,35c-4.2,19.6,3.4,34.3,22.7,34.3
	c10.5,0,15.9-4.3,21.7-9.1c2.1-1.8,4.3-2.9,6.2-2.9c1.2,0,2.5,0.4,3.3,1.5c1,0.9,1.5,2.4,1.1,3.6c-0.6,1.8-1.6,3.4-2.9,4.6
	c-6.2,6.7-18.3,13.4-33.2,13.4c-25.1,0-36.9-19.3-31.4-45.1c5.6-26.8,26.9-46.3,50.6-46.3c17.1,0,26.9,10,23.8,24.8
	c-1.9,9-8,16.4-13.8,19.9C338.3,185.7,336.9,186.3,335.3,186.4z M395.4,210.3c-0.3,2,0,2.5,0.9,2.5c0.8,0,1.5-0.3,2.6-1.1
	c4-2.5,6.7,0.3,6.2,3.7c-0.4,1.8-1.6,3.3-3.1,4.3c-2.7,2.1-5.9,3.3-9.3,3.1c-5.3,0-8.4-2.1-8.5-7.4c-4.3,4.8-10.3,7.6-16.7,7.7
	c-11.1,0-15.8-9.3-13.1-21.5c3.4-15.9,15.4-28.4,29.4-28.4c3.6,0,6.2,1,8.3,3.7c1-2.5,3.4-3.7,6.1-3.7c3.1,0,5.2,1.8,4.4,5.3
	L395.4,210.3z M365.7,201.4c-1.3,6.8,1,11.1,5.7,11.1c7.4,0,14-8.3,16-16.5l0.2-0.7c1.5-7.2-1.2-11.6-6.2-11.6
	C373.8,183.9,367.7,192.3,365.7,201.4L365.7,201.4z M428.5,181.8c4.5-5.4,11.2-8.5,15.6-8.5c6.3,0,9.6,2.8,9.8,8
	c5.3-5.6,11.1-8,16.2-8c7,0,12.8,5.3,10.8,14.8l-4.7,22.3c-0.3,2,0,2.5,1,2.5c0.9-0.1,1.8-0.6,2.5-1.1c4-2.5,6.7,0.3,6.2,3.7
	c-0.4,1.8-1.6,3.3-3.1,4.3c-2.6,2.1-5.9,3.3-9.3,3.1c-6.5,0-10-3.4-8.2-12.1l4.2-19.9c1.2-5.6-0.4-7.2-2.8-7.2
	c-5.4,0-12.9,6.2-15.8,20l-3,13.9c-0.8,3.1-3.6,5.3-6.7,5.3c-2.8,0-5-1.8-4.3-5.3l5.8-27.5c1-5-0.8-6.4-3-6.4
	c-5.3,0-11.9,5.2-15,16.3l-3.7,17.5c-0.7,3.1-3.5,5.5-6.7,5.4c-2.6,0-5-1.8-4.3-5.4l8.3-38.9c0.7-3.1,3.5-5.3,6.6-5.3
	c2.8,0,5.2,1.8,4.4,5.3L428.5,181.8z M510.7,180.3c4.2-4.4,9.9-7,15.9-7c11.1,0,15.8,9.3,13.2,21.5c-3.4,15.9-15.5,28.4-29.5,28.4
	c-3.5,0-6.1-0.9-8-3.5l-6.1,28.3c-0.7,3.1-3.5,5.3-6.6,5.3c-2.9,0-5.2-1.8-4.4-5.3l14.8-69.2c0.6-3.1,3.4-5.4,6.6-5.4
	c2.7,0,5.2,1.8,4.4,5.4L510.7,180.3z M528,195.1c1.5-6.8-0.9-11.1-5.7-11.1c-7.6,0-14.2,8.8-16,17.2l-0.2,1.1
	c-1.1,6.5,1.5,10.4,6.3,10.4C520.2,212.6,526.3,204.2,528,195.1L528,195.1z M148.7,191.5c-0.6,0-1,0.7-1,1.6c0,0.9,0.4,1.6,1,1.6
	c0.6,0,1-0.7,1-1.6C149.8,192.2,149.3,191.4,148.7,191.5L148.7,191.5z M155,191.5c-0.6,0-1,0.7-1,1.6c0,0.9,0.4,1.6,1,1.6
	c0.6,0,1-0.7,1-1.6C156,192.2,155.5,191.4,155,191.5L155,191.5z M145.1,198.2c2,6.2,8.3,9.3,13.5-1 M101.6,366.9
	c4,0,5.5-2.7,5.5-6.1c0-2.1-1.2-4.6-3.5-4.6c-1.1-0.1-2.2,0.8-2.4,1.9c0,0.1,0,0.2,0,0.4c0,0.9,0.4,1.7,1.1,2.2
	c0.2,0.2,0.4,0.6,0.4,0.9c0,0.7-0.6,1.2-1.2,1.2c-0.2,0-0.4-0.1-0.7-0.2c-1.2-0.9-2-2.4-2-3.9c0-2.7,2.1-4.5,4.8-4.5
	c3.7,0,5.9,3.3,5.9,6.6c0,5.3-3,8.3-8.2,8.3c-4.8,0-8.1-3.3-8.1-7.9c0-2.6,1.2-5,3.3-6.7c0.2-0.2,0.6-0.3,0.9-0.3
	c0.6,0,1.1,0.4,1.1,1c0,0,0,0,0,0.1c0,0.3-0.2,0.7-0.4,0.9c-1.3,1.3-2.1,3.1-2.2,5C96.1,364.3,97.9,366.9,101.6,366.9z M113.8,361.3
	c0.6-1.1,1.7-1.9,2.9-1.9c1.6,0,2.7,1,2.7,2.9v4.4c0,0.3,0.1,0.4,0.2,0.4c0.1,0,0.3-0.1,0.4-0.2c0.4-0.3,0.9-0.2,1.2,0.2
	c0.1,0.2,0.2,0.3,0.1,0.6c0,0.3-0.1,0.7-0.4,0.9c-0.4,0.4-1.1,0.7-1.7,0.7c-1.3,0-2.2-0.7-2.2-2.5V363c0-1-0.4-1.2-1-1.2
	c-1,0-2.4,1-2.5,3.3v3.3c0,0.7-0.6,1.1-1.1,1.1s-1.1-0.6-1.1-1.1v-7.6c0-0.7,0.6-1.1,1.1-1.1s1.1,0.6,1.1,1.1L113.8,361.3z
	 M127.9,358.8c0.1,0.8,0.4,1.5,1,1.9c0.2,0.2,0.4,0.6,0.4,0.9c0,0.7-0.4,1.1-1.1,1.1l0,0c-0.3,0-0.6-0.1-0.8-0.2
	c-1.1-0.9-1.9-2.2-1.9-3.7c0-2.8,2.2-4.4,5-4.4h4.3c5.4,0,8,3.8,8,7.4s-2.5,7.2-7.5,7.2h-4.9c-0.6,0-1.1-0.4-1.1-1v-0.1
	c0-0.7,0.4-1.1,1.1-1.1l0,0h1c0.7,0,0.7-0.6,0.7-1.2v-7c0-0.7,0.4-1.1,1.1-1.1c0,0,0,0,0.1,0c0.6,0,1.1,0.4,1.2,1v0.1v6.8
	c0,0.8-0.1,1.2-0.4,1.3h1.5c2.6,0,4.9-1.7,4.9-4.8s-2.6-5.2-5.7-5.2h-4C129.1,356.8,127.9,357.5,127.9,358.8L127.9,358.8z
	 M144.1,364.3c-0.1-2.6,1.9-4.8,4.5-4.9c0.1,0,0.3,0,0.4,0c2.9,0,4.3,1.7,4.3,3.4c0,1.7-1.3,3-3.7,3c-0.4,0-0.9-0.1-1.3-0.2
	c-0.4-0.1-0.7-0.6-0.7-1c0-0.6,0.4-1.1,1-1.1l0,0c0.3,0,0.8,0.2,1,0.2c0.6,0.1,1-0.3,1-0.8v-0.1c0-0.7-0.4-1.1-1.8-1.1
	c-1.3,0-2.5,1.1-2.5,2.6c0,0.1,0,0.1,0,0.2c0,1.5,1.1,2.7,2.7,2.8h0.1c0.9,0,1.7-0.2,2.5-0.7c0.2-0.1,0.4-0.2,0.8-0.2
	s0.7,0.2,0.9,0.4c0.3,0.6,0.1,1.3-0.6,1.7c-1.1,0.7-2.4,1-3.7,0.9c-2.7,0.1-5-2-5-4.8C144.1,364.4,144.1,364.4,144.1,364.3
	L144.1,364.3z M159.6,361.6c-1.3,0-2.5,1-2.5,2.4c0,0.1,0,0.2,0,0.3c0,1.7,1,2.7,2.5,2.7c0.7,0,1.5-0.2,1.9-0.7
	c0.2-0.2,0.4-0.3,0.8-0.3c0.6,0,1.1,0.6,1.1,1.1c0,0.3-0.1,0.7-0.3,0.9c-1,0.9-2.4,1.3-3.7,1.2c-2.9,0-4.7-1.8-4.7-4.9
	c-0.1-2.6,1.9-4.8,4.6-4.9c0.1,0,0.2,0,0.4,0c1.9,0,3.6,1.1,3.6,3c0,0.8-0.2,1.5-0.8,2c-0.2,0.2-0.6,0.4-1,0.4c-0.6,0-1.1-0.4-1.1-1
	c0-0.3,0.1-0.6,0.3-0.8c0.2-0.1,0.2-0.3,0.2-0.7C160.9,362.1,160.5,361.6,159.6,361.6z M164.5,364.3c-0.1-2.6,1.9-4.8,4.5-4.9
	c0.1,0,0.3,0,0.4,0c2.9,0,4.3,1.7,4.3,3.4c0,1.7-1.3,3-3.7,3c-0.4,0-0.9-0.1-1.3-0.2c-0.4-0.1-0.7-0.6-0.7-1c0-0.6,0.4-1.1,1-1.1
	l0,0c0.3,0,0.8,0.2,1,0.2c0.6,0.1,1-0.3,1-0.8v-0.1c0-0.7-0.4-1.1-1.8-1.1c-1.3,0-2.5,1.1-2.5,2.6c0,0.1,0,0.1,0,0.2
	c0,1.5,1.1,2.7,2.7,2.8h0.1c0.9,0,1.7-0.2,2.5-0.7c0.2-0.1,0.4-0.2,0.8-0.2c0.3,0,0.7,0.2,0.9,0.4c0.3,0.6,0.1,1.3-0.6,1.7
	c-1.1,0.7-2.4,1-3.7,0.9c-2.7,0.1-5-2.1-5-4.8C164.5,364.4,164.5,364.4,164.5,364.3L164.5,364.3z M178,361.1
	c0.6-0.9,1.6-1.6,2.7-1.7c1-0.1,1.9,0.6,2.2,1.5c0.7-0.9,1.7-1.5,2.8-1.5c1.6,0,2.8,1.2,2.8,2.8c0,0.1,0,0.1,0,0.2v4.4
	c0,0.3,0.1,0.4,0.2,0.4s0.3-0.1,0.4-0.2c0.4-0.3,0.9-0.2,1.2,0.2c0.1,0.2,0.2,0.3,0.1,0.6c0,0.3-0.1,0.7-0.4,0.9
	c-0.4,0.4-1.1,0.7-1.7,0.7c-1.3,0-2.2-0.7-2.2-2.5v-3.8c0-1-0.4-1.3-0.8-1.3c-1,0-2.1,1.1-2.1,3.8v2.7c0,0.6-0.6,1.1-1.1,1.1l0,0
	c-0.6,0-1.1-0.4-1.1-1v-0.1v-5.4c0-0.9-0.4-1.1-0.8-1.1c-1,0-2,1-2.2,3.1v3.4c0,0.6-0.4,1.1-1.1,1.1h-0.1c-0.6,0-1.1-0.4-1.1-1
	c0,0,0,0,0-0.1v-7.6c0-0.7,0.6-1.1,1.1-1.1c0.6,0,1.1,0.6,1.1,1.1L178,361.1z M194.4,354c-0.2,0-0.4,0.1-0.4,0.4v7
	c0.4-1.3,1.7-2.1,3-2c2.1,0,3.4,1.8,3.4,4.2c0,2.9-1.8,5.7-4.9,5.7c-2.6,0-3.7-2-3.7-4.2v-10.5c0-2.4,1-2.8,2.6-2.8h0.2
	c0.6,0,1,0.3,1.1,0.9c0,0.1,0,0.1,0,0.2c0.1,0.6-0.3,1.1-0.9,1.1C194.6,354,194.5,354,194.4,354L194.4,354z M197.8,363.7
	c0-1-0.3-1.9-1.6-1.9c-1.3,0-2.2,1.1-2.2,2.9v0.2c0,1.1,0.4,2.2,1.6,2.2C196.9,367.1,197.8,365.1,197.8,363.7z M201.5,364.3
	c-0.1-2.6,1.9-4.8,4.5-4.9c0.1,0,0.3,0,0.4,0c2.9,0,4.3,1.7,4.3,3.4c0,1.7-1.3,3-3.7,3c-0.4,0-0.9-0.1-1.3-0.2
	c-0.4-0.1-0.7-0.6-0.7-1c0-0.6,0.4-1.1,1-1.1l0,0c0.3,0,0.8,0.2,1,0.2c0.6,0.1,1-0.3,1-0.8v-0.1c0-0.7-0.4-1.1-1.8-1.1
	c-1.3,0-2.5,1.1-2.5,2.6c0,0.1,0,0.1,0,0.2c0,1.5,1.1,2.7,2.7,2.8h0.1c0.9,0,1.7-0.2,2.5-0.7c0.2-0.1,0.4-0.2,0.8-0.2
	s0.7,0.2,0.9,0.4c0.3,0.6,0,1.3-0.6,1.7c-1.1,0.7-2.4,1-3.7,0.9c-2.7,0.1-5-2-5.2-4.7C201.4,364.5,201.4,364.4,201.5,364.3
	L201.5,364.3z M212.8,360.5c0-0.6,0.4-1.1,1-1.1h0.1c0.6,0,1.1,0.4,1.1,1c0,0,0,0,0,0.1v0.9c0.7-1.2,1.6-2,2.6-2
	c0.9-0.1,1.7,0.6,1.8,1.5v0.1c0,0.6-0.4,1.1-1,1.2c-0.7,0-0.7-0.4-1.2-0.4c-1.3,0-2,2.5-2,3.7v2.8c0,0.6-0.4,1.1-1,1.1H214
	c-0.6,0-1.1-0.4-1.1-1v-0.1L212.8,360.5z M225.8,359.8l2.9-4.9c0.2-0.3,0.6-0.6,1-0.6c0.8,0,1,0.4,1,0.9c0,0.2-0.1,0.6-0.2,0.8
	l-2.6,4.4c0.3-0.6,1-0.8,2-0.8c2.1,0,3.8,1.9,3.8,4.7c0,2.7-2.2,4.9-4.9,4.9s-4.9-2.2-4.9-4.9C224,363.4,224.2,362.5,225.8,359.8
	L225.8,359.8z M228.9,361.6c-1.5-0.1-2.8,1.1-2.8,2.6c-0.1,1.5,1.1,2.8,2.6,2.8c1.5,0.1,2.8-1.1,2.8-2.6v-0.1
	c0.1-1.3-0.9-2.7-2.4-2.8C229.1,361.5,229,361.5,228.9,361.6L228.9,361.6z M235.4,361.9c-0.6,0-1.1-0.4-1.1-1c0,0,0,0,0-0.1
	c0-0.6,0.4-1.1,1-1.1c0,0,0,0,0.1,0h1.2v-1.5c0-0.6,0.4-1.1,1-1.1h0.1c0.6,0,1.1,0.4,1.1,1v0.1v1.5h1.8c0.6,0,1,0.4,1,1v0.1
	c0,0.6-0.3,1-0.9,1.1h-0.1h-1.8v4.3c0,0.7,0.1,1,0.4,1c0.2,0,0.4-0.1,0.6-0.2c0.2-0.2,0.6-0.3,0.9-0.3c0.6,0,1,0.3,1.1,0.9
	c0,0.1,0,0.1,0,0.2c0,0.2-0.1,0.6-0.2,0.8c-0.6,0.7-1.5,1-2.4,0.9c-2,0-2.7-1.2-2.7-2.9v-4.6L235.4,361.9z M243.4,354.6
	c0-2.4,1-2.8,2.6-2.8h0.2c0.6,0,1,0.3,1.1,0.9c0,0.1,0,0.1,0,0.2c0.1,0.6-0.3,1.1-0.9,1.1c-0.1,0-0.1,0-0.2,0h-0.1
	c-0.2,0-0.4,0.1-0.4,0.4v6.8c0.6-1.1,1.7-1.9,3-1.9c1.6,0,2.7,1,2.7,2.9v4.4c0,0.3,0.1,0.4,0.2,0.4s0.3-0.1,0.4-0.2
	c0.4-0.3,0.9-0.2,1.2,0.2c0.1,0.2,0.2,0.4,0.2,0.6c0,0.3-0.2,0.7-0.4,0.9c-0.4,0.4-1.1,0.7-1.7,0.7c-1.3,0-2.2-0.7-2.2-2.5V363
	c0-1-0.4-1.2-1-1.2c-1,0-2.4,1-2.5,3.3v3.3c0,0.7-0.6,1.1-1.1,1.1c-0.7,0-1.1-0.6-1.1-1.1V354.6z M264.3,367.8
	c-0.7,0.9-1.8,1.5-2.9,1.5c-2.2,0-3.5-1.8-3.5-4.3c0-3.1,1.9-5.6,4.6-5.6c0.7,0,1.2,0.2,1.7,0.7c0.2-0.4,0.6-0.7,1.1-0.7
	c0.6-0.1,1.1,0.3,1.1,0.9v0.1v6.2c0,0.3,0.1,0.4,0.2,0.4s0.3-0.1,0.4-0.2c0.4-0.3,0.9-0.2,1.2,0.2c0.1,0.2,0.2,0.3,0.1,0.6
	c0,0.3-0.2,0.7-0.4,0.9c-0.4,0.4-1.1,0.7-1.7,0.7C265.4,369.3,264.6,368.7,264.3,367.8L264.3,367.8z M260.3,365
	c0,1.3,0.7,2.1,1.5,2.1c1.5,0,2.4-1.7,2.4-3.1v-0.3c-0.1-1.2-0.8-1.9-1.6-1.9C261.1,361.6,260.3,363.2,260.3,365z M271.9,361.3
	c0.6-1.1,1.7-1.9,2.9-1.9c1.6,0,2.7,1,2.7,2.9v4.4c0,0.3,0.1,0.4,0.2,0.4s0.3-0.1,0.4-0.2c0.4-0.3,0.9-0.2,1.2,0.2
	c0.1,0.2,0.2,0.3,0.1,0.6c0,0.3-0.2,0.7-0.4,0.9c-0.4,0.4-1.1,0.7-1.7,0.7c-1.3,0-2.2-0.7-2.2-2.5V363c0-1-0.4-1.2-1-1.2
	c-1,0-2.4,1-2.5,3.3v3.3c0,0.6-0.4,1.1-1.1,1.1h-0.1c-0.6,0-1.1-0.4-1.1-1c0,0,0,0,0-0.1v-7.6c0-0.7,0.6-1.1,1.1-1.1
	c0.7,0,1.1,0.6,1.1,1.1L271.9,361.3z M288.6,366.7c0,0.3,0.1,0.4,0.2,0.4s0.3-0.1,0.4-0.2c0.4-0.3,0.9-0.2,1.2,0.2
	c0.1,0.2,0.2,0.3,0.1,0.6c0,0.3-0.2,0.7-0.4,0.9c-0.4,0.4-1.1,0.7-1.7,0.7c-0.9,0.1-1.8-0.4-2-1.5c-0.7,0.9-1.8,1.5-2.9,1.5
	c-2.2,0-3.5-1.8-3.5-4.3c0-3.1,1.9-5.6,4.6-5.6c0.7,0,1.2,0.2,1.7,0.7v-7.3c0-0.7,0.6-1.1,1.2-1c0.6,0,1,0.4,1,1L288.6,366.7
	L288.6,366.7z M282.4,365c0,1.3,0.7,2.1,1.5,2.1c1.5,0,2.4-1.7,2.4-3.3c0-1.3-0.7-2.1-1.6-2.1C283.2,361.6,282.4,363.2,282.4,365z
	 M297.4,368.7c-0.2,0.3-0.4,0.6-0.9,0.6c-0.7,0-1.1-0.4-1.2-1.1c0-0.2,0-0.3,0.1-0.6l6.4-11h-5.6c-0.6,0-1.1-0.4-1.1-1
	c0,0,0,0,0-0.1c0-0.6,0.3-1,0.9-1.1h0.1h7.3c0.8,0,1.1,0.3,1.1,0.9s0,0.8-0.8,1.9L297.4,368.7z M306.1,361.9c-0.6,0-1.1-0.4-1.1-1
	c0,0,0,0,0-0.1c0-0.6,0.4-1.1,1-1.1c0,0,0,0,0.1,0h1.2v-1.5c0-0.6,0.4-1.1,1-1.1h0.1c0.6,0,1.1,0.4,1.1,1v0.1v1.5h1.8
	c0.6,0,1,0.4,1.1,1v0.1c0,0.6-0.3,1-0.9,1.1h-0.1h-1.9v4.3c0,0.7,0.1,1,0.4,1c0.2,0,0.4-0.1,0.6-0.2c0.2-0.2,0.6-0.3,0.9-0.3
	c0.6,0,1,0.3,1.1,0.9c0,0.1,0,0.1,0,0.2c0,0.2-0.1,0.6-0.2,0.8c-0.6,0.7-1.5,1-2.4,0.9c-2,0-2.7-1.2-2.7-2.9v-4.6L306.1,361.9z
	 M314.1,354.6c0-2.4,1-2.8,2.6-2.8h0.2c0.6,0,1,0.3,1.1,0.9c0,0.1,0,0.1,0,0.2c0.1,0.6-0.3,1.1-0.9,1.1c-0.1,0-0.1,0-0.2,0h-0.1
	c-0.2,0-0.4,0.1-0.4,0.4v6.8c0.6-1.1,1.7-1.9,3-1.9c1.6,0,2.7,1,2.7,2.9v4.4c0,0.3,0.1,0.4,0.2,0.4c0.1,0,0.3-0.1,0.4-0.2
	c0.4-0.3,0.9-0.2,1.2,0.2c0.1,0.2,0.2,0.3,0.1,0.6c0,0.3-0.2,0.7-0.4,0.9c-0.4,0.4-1.1,0.7-1.7,0.7c-1.3,0-2.2-0.7-2.2-2.5V363
	c0-1-0.4-1.2-1-1.2c-1,0-2.4,1-2.5,3.3v3.3c0,0.7-0.6,1.1-1.1,1.1c-0.7,0-1.1-0.6-1.1-1.1L314.1,354.6z M326.1,370.7
	c-0.1,0.3-0.4,0.6-0.8,0.7c-0.7,0.1-1.2-0.2-1.5-0.9c-0.1-0.2,0-0.4,0-0.8l1.2-3c0.1-0.3,0.4-0.6,0.8-0.7c0.7-0.1,1.2,0.2,1.5,0.9
	c0.1,0.2,0,0.4,0,0.7L326.1,370.7z M333.9,369c-0.6,0.1-1-0.3-1.1-0.9V368c0-0.7,0.4-0.9,1.2-1.2c2.9-1.1,6.1-4.5,6.1-7.6
	c0.1-1.3-0.9-2.6-2.2-2.7c-0.1,0-0.2,0-0.3,0c-1.2-0.1-2.2,0.8-2.4,1.9c0,0.1,0,0.1,0,0.2c0,0.7,0.2,1.3,0.8,1.8
	c0.2,0.2,0.4,0.6,0.4,0.9c0,0.7-0.4,1.1-1.1,1.2c-0.2,0-0.4-0.1-0.7-0.2c-1.1-0.9-1.8-2.1-1.8-3.6c0-2.6,2-4.4,4.7-4.4
	c2.6-0.1,4.7,1.9,4.9,4.4c0,0.2,0,0.3,0,0.6c0,3.8-3.3,6.7-5,7.6h4.6c0.6,0,1,0.4,1.1,1v0.1c0,0.6-0.4,1.1-1,1.1l0,0h-8.2V369z
	 M349.8,354.2c3.1,0,5.3,2.5,5.3,7.5c0,5-2.1,7.4-5.3,7.4s-5.3-2.5-5.3-7.4C344.5,356.8,346.6,354.3,349.8,354.2L349.8,354.2z
	 M349.8,356.5c-1.5,0-2.9,1.7-2.9,5.3c0,3.6,1.5,5.3,2.9,5.3c1.5,0,3-1.7,3-5.3C352.8,358.2,351.3,356.5,349.8,356.5L349.8,356.5z
	 M357.2,356.7c-0.7,0-1.1-0.4-1.1-1.1s0.4-1.1,1.1-1.1h1.2c2.2,0,2.9,0.4,2.9,3.1v10.5c0,0.6-0.4,1.1-1,1.1c0,0,0,0-0.1,0
	c-0.6,0-1.1-0.4-1.1-1c0,0,0,0,0-0.1v-10.7c0-0.6-0.1-0.8-0.6-0.8L357.2,356.7z M371.3,363.8l-2.9,4.9c-0.2,0.3-0.6,0.6-1,0.6
	c-0.8,0-1-0.4-1-0.9c0-0.2,0.1-0.6,0.2-0.8l2.6-4.4c-0.3,0.6-1,0.8-2,0.8c-2.1,0-3.8-1.9-3.8-4.7c0-2.7,2.2-4.9,4.9-4.9
	s4.9,2.2,4.9,4.9l0,0C373.1,360.1,372.9,361,371.3,363.8L371.3,363.8z M368.2,362c1.5,0.1,2.8-1.1,2.8-2.6c0.1-1.5-1.1-2.8-2.6-2.8
	c-1.5-0.1-2.8,1.1-2.8,2.6v0.1c-0.1,1.5,0.9,2.7,2.4,2.8C368,362,368.2,362,368.2,362L368.2,362z M384.8,367.8
	c-0.7,0.9-1.8,1.5-2.9,1.5c-2.2,0-3.5-1.8-3.5-4.3c0-3.1,1.9-5.6,4.6-5.6c0.7,0,1.2,0.2,1.7,0.7c0.2-0.4,0.6-0.7,1.1-0.7
	c0.6-0.1,1.1,0.3,1.1,0.9v0.1v6.2c0,0.3,0.1,0.4,0.2,0.4c0.1,0,0.3-0.1,0.4-0.2c0.4-0.3,0.9-0.2,1.2,0.2c0.1,0.2,0.2,0.4,0.2,0.6
	c0,0.3-0.2,0.7-0.4,0.9c-0.4,0.4-1.1,0.7-1.7,0.7C385.9,369.4,385,368.7,384.8,367.8L384.8,367.8z M380.7,365c0,1.3,0.7,2.1,1.5,2.1
	c1.5,0,2.4-1.7,2.4-3.1v-0.3c-0.1-1.2-0.8-1.9-1.6-1.9C381.5,361.6,380.7,363.2,380.7,365z M389.9,361.9c-0.6,0-1.1-0.4-1.1-1
	c0,0,0,0,0-0.1c0-0.6,0.4-1.1,1-1.1c0,0,0,0,0.1,0h1.2v-1.5c0-0.6,0.4-1.1,1-1.1h0.1c0.6,0,1.1,0.4,1.1,1v0.1v1.5h1.8
	c0.6,0,1,0.4,1.1,1v0.1c0,0.6-0.3,1-0.9,1.1h-0.1h-1.8v4.3c0,0.7,0.1,1,0.4,1c0.2,0,0.4-0.1,0.6-0.2c0.2-0.2,0.6-0.3,0.9-0.3
	c0.6,0,1,0.3,1.1,0.9c0,0.1,0,0.1,0,0.2c0,0.2-0.1,0.6-0.2,0.8c-0.6,0.7-1.5,1-2.4,0.9c-2,0-2.7-1.2-2.7-2.9v-4.6L389.9,361.9z
	 M409.3,366.9c4,0,5.5-2.7,5.5-6.1c0-2.1-1.2-4.6-3.5-4.6c-1.1-0.1-2.2,0.8-2.4,1.9c0,0.1,0,0.2,0,0.3c0,0.9,0.4,1.7,1.1,2.2
	c0.2,0.2,0.4,0.6,0.4,0.9c0,0.7-0.6,1.2-1.2,1.2c-0.2,0-0.4-0.1-0.7-0.2c-1.2-0.9-2-2.4-2-3.9c0-2.7,2.1-4.5,4.8-4.5
	c3.7,0,5.9,3.3,5.9,6.6c0,5.3-3,8.3-8.2,8.3c-4.8,0-8.1-3.3-8.1-7.9c0-2.6,1.2-5,3.3-6.7c0.2-0.2,0.6-0.3,0.9-0.3
	c0.6,0,1.1,0.4,1.1,1c0,0,0,0,0,0.1c0,0.3-0.2,0.7-0.4,0.9c-1.3,1.3-2.1,3.1-2.2,5C404,364.3,405.6,366.9,409.3,366.9L409.3,366.9z
	 M425.3,361.5c0,0.6-0.4,1.1-1,1.1c-0.2,0-0.3,0-0.6-0.1c-0.6-0.4-0.9-0.9-1.8-0.9c-0.7,0-1,0.3-1,0.9s0.7,0.9,1.5,1.5
	c1.1,0.7,2.4,1.5,2.4,2.9c0,1.5-0.9,2.5-2.7,2.5c-1.1,0-2.6-0.3-2.6-1.7c0-0.6,0.3-1,0.9-1.1c0,0,0,0,0.1,0c0.6,0,0.9,0.7,1.6,0.7
	c0.3,0,0.4-0.1,0.4-0.3c0-0.3-0.8-0.8-1.7-1.3c-1.1-0.7-2.2-1.3-2.2-2.9c0-1.8,1.5-3.1,3.1-3.1c0.1,0,0.1,0,0.2,0
	c1.2,0,2.4,0.6,3,1.5C425.3,361.1,425.3,361.3,425.3,361.5L425.3,361.5z M432.7,367.8c-0.7,0.9-1.8,1.5-2.9,1.5
	c-2.2,0-3.5-1.8-3.5-4.3c0-3.1,1.9-5.6,4.6-5.6c0.7,0,1.2,0.2,1.7,0.7c0.2-0.4,0.6-0.7,1.1-0.7c0.6-0.1,1.1,0.3,1.1,0.9v0.1v6.2
	c0,0.3,0.1,0.4,0.2,0.4s0.3-0.1,0.4-0.2c0.4-0.3,0.9-0.2,1.2,0.2c0.1,0.2,0.2,0.4,0.2,0.6c0,0.3-0.2,0.7-0.4,0.9
	c-0.4,0.4-1.1,0.7-1.7,0.7C433.8,369.4,433,368.7,432.7,367.8L432.7,367.8z M428.8,365c0,1.3,0.7,2.1,1.5,2.1c1.5,0,2.4-1.7,2.4-3.1
	v-0.3c-0.1-1.2-0.8-1.9-1.6-1.9C429.5,361.6,428.8,363.2,428.8,365z M438.1,354.6c0-2.4,1-2.8,2.6-2.8h0.2c0.6,0,1,0.3,1.1,0.9
	c0,0.1,0,0.1,0,0.2c0.1,0.6-0.3,1.1-0.9,1.1c-0.1,0-0.1,0-0.2,0h-0.1c-0.2,0-0.4,0.1-0.4,0.4v6.5c0.7-1,1.8-1.6,3-1.5
	c1.2-0.1,2.4,0.8,2.5,2c0,0.1,0,0.2,0,0.3c0,1.3-1.1,2.7-2.8,3.3c0.6,0.1,1,0.6,1.2,1c0.3,0.4,0.7,0.9,0.9,0.9
	c0.3,0,0.6-0.4,0.9-0.4c0.6,0,1,0.4,1,1l0,0c-0.1,1-0.9,1.7-1.9,1.7l0,0c-1,0-1.3-0.2-2.4-1.6c-0.3-0.6-0.8-1.1-1.2-1.7
	c-0.3-0.2-0.4-0.7-0.4-1c0-0.4,0.2-0.8,0.8-1c1.5-0.8,1.7-1.2,1.7-1.7c0-0.3-0.2-0.6-0.7-0.6c-1.1,0-2.5,1-2.5,3.4v3.1
	c0,0.6-0.4,1.1-1.1,1.1h-0.1c-0.6,0-1.1-0.4-1.1-1c0,0,0,0,0-0.1L438.1,354.6z M454.2,367.8c-0.7,0.9-1.8,1.5-2.9,1.5
	c-2.2,0-3.5-1.8-3.5-4.3c0-3.1,1.9-5.6,4.6-5.6c0.7,0,1.2,0.2,1.7,0.7c0.2-0.4,0.7-0.7,1.1-0.7c0.6-0.1,1.1,0.3,1.1,0.9v0.1v6.2
	c0,0.3,0.1,0.4,0.2,0.4s0.3-0.1,0.4-0.2c0.4-0.3,0.9-0.2,1.2,0.2c0.1,0.2,0.2,0.3,0.1,0.6c0,0.3-0.2,0.7-0.4,0.9
	c-0.4,0.4-1.1,0.7-1.7,0.7C455.3,369.3,454.4,368.7,454.2,367.8L454.2,367.8z M450.2,365c0,1.3,0.7,2.1,1.5,2.1
	c1.5,0,2.4-1.7,2.4-3.1v-0.3c-0.1-1.2-0.8-1.9-1.6-1.9C451,361.6,450.2,363.2,450.2,365z M503.5,317.8c0,0-0.1-0.3-0.6-1.2
	c-0.2-0.7-0.7-1.2-1.1-1.8c-0.3-0.4-0.9-0.8-1.6-0.7c-0.6,0.1-0.9,0.7-0.9,1.2l0,0c0.1,0.7,0.4,1.2,0.9,1.7c0.3,0.2,1.9,1.6,1.9,1.6
	c-0.9,0.1-1.7,0.2-2.6,0.2c-1.3,0.1-1.9,2.1-1.6,2.7c0.6,0.6,1.6,0.8,2.4,0.4c0.8-0.3,2.5-2.2,2.5-2.2c0,0.7-0.2,1.3-0.4,2
	c-0.9,2.2,0.8,2.8,0.9,2.8c0.2,0.1,0.4,0.1,0.8,0.1c0.9-0.3,1.3-1.3,1.1-2.2c-0.2-0.9-0.9-2.8-0.9-2.8c0.7,0.7,1.5,1.3,2.2,1.8
	c0.6,0.2,1.2,0.1,1.8-0.2c0.3-0.2,0.8-0.6,0.7-1c-0.2-0.4,0-1-0.8-1.5s-1.9-0.3-3.7-0.1c2.9-1.8,2.7-3.5,2.4-3.9
	c-0.3-0.4-0.7-0.3-1-0.2c-0.3,0.1-0.6-0.1-0.9,0.1c-0.9,0.8-1.5,1.9-1.5,3L503.5,317.8z M518.1,304c0,0-0.6-0.3-2.1-1.3
	c-1.1-0.8-2.4-1.3-3.7-1.8c-1.1-0.3-2.2-0.1-3.1,0.6s-0.7,2,0,2.8c0.9,0.9,2,1.5,3.3,1.6c0.8,0,4.7,0.3,4.7,0.3
	c-1.1,1.1-2.5,2.2-3.7,3.1c-2,1.6-0.8,5.4,0.4,5.8c1.2,0.4,3.1-0.3,4-1.8c0.9-1.5,1.5-6.2,1.5-6.2c0.7,1.1,1.1,2.4,1.5,3.7
	c1,4.4,4.2,3.6,4.4,3.5c0.4-0.1,0.9-0.3,1.2-0.7c1-1.5,0.7-3.5-0.7-4.7s-4.5-3.5-4.5-3.5s4.3,0.8,5.5,0.4c1.2-0.3,2.1-1.6,2.6-2.2
	c0.4-0.7,0.8-1.7-0.1-2.2c-0.8-0.6-1.1-1.6-2.8-1.3c-1.7,0.2-3.3,1.5-5.8,3.8c2.6-5.9,0.6-8.4-0.6-8.8c-1.1-0.3-1.3,0.1-1.9,0.7
	c-0.6,0.6-1,0.4-1.2,1c-1.2,3.1,0.9,6.3,0.9,6.3L518.1,304z M46.8,254.5c0.8-0.8,0.8-2.1,0-2.9l0,0l-4.9-4.8
	c-0.9-0.7-2.1-0.6-2.9,0.2c-0.7,0.8-0.7,1.9,0,2.7l4.9,4.8C44.7,255.3,46,255.4,46.8,254.5L46.8,254.5L46.8,254.5z M36.9,269.3
	c0.1-1.1-0.8-2.1-1.9-2.2l0,0l-4.8-0.2c-1.1-0.1-2.1,0.8-2.2,1.9c-0.1,1.1,0.8,2.1,1.9,2.2H30l4.8,0.2h0.1
	C36,271.2,36.9,270.3,36.9,269.3z M40.5,261.2c0.4-1-0.1-2.2-1.1-2.7l0,0l-7.5-2.9c-1.1-0.3-2.2,0.2-2.6,1.3c-0.3,1,0.2,2,1.1,2.5
	l7.5,2.9c0.2,0.1,0.4,0.1,0.8,0.1C39.5,262.6,40.2,262,40.5,261.2z M411.7,261.7c11.7,0,19.9,13.5,16.3,33
	c-4,22.2-16.4,32.9-30.2,32.9c-13.8,0-23.9-10.8-19.3-32.9C383.1,272.5,395.4,261.7,411.7,261.7L411.7,261.7z M398.1,275.2
	c-0.9,0-1.6,1-1.6,2.4c0,1.2,0.7,2.4,1.6,2.4c0.9,0,1.6-1,1.6-2.4C399.6,276.2,399,275.2,398.1,275.2L398.1,275.2z M407.4,275.2
	c-0.9,0-1.6,1-1.6,2.4c0,1.2,0.8,2.4,1.6,2.4c0.8,0,1.6-1,1.6-2.4S408.3,275.2,407.4,275.2L407.4,275.2z M413.7,284.2
	c0.2-0.6,0-1.1-0.4-1.3c-0.6-0.2-1.1,0-1.3,0.4c-3.3,6.4-7,9.9-10.7,9.5c-3.1-0.2-6.2-3.3-7.6-7.9c-0.2-0.6-0.8-0.8-1.3-0.7
	c-0.6,0.2-0.8,0.8-0.7,1.3c1.8,5.4,5.4,9,9.4,9.3h0.6C405,294.9,409.5,293,413.7,284.2L413.7,284.2z"/>
<g>
	<path class="st3" d="M646.1,130.5c0,0-9.2,8.5-9.2,13.2s3.6,9.8,14.1,7.1c10.5-2.7,12.8-6.2,12.9-8.6c0,0-6.7-0.9-4.7-7.9
		L646.1,130.5z"/>
	<g>
		<path class="st4" d="M720.6,340c-9.6,36.7-47.5,71.8-90.4,81.9c-36.9,8.8-78-19.7-77.4-37.3c0.7-19.7,25.5-18.6,37.8,2.2
			c19.1,32,84.2,9.6,108.5-35L720.6,340z"/>
	</g>
	<path class="st5" d="M625.3,138.5c-18.9,7.1-34.1,19.4-43.1,35.6c-3.7,6.6-5.3,12-5.6,16.3c0,0-12.7,3.5-14.8,13.9
		c-2.1,10.4,10.9,8.3,13.5,6.4c2.6-1.9,8.1-7.5,8.1-7.5c5,1.5,13.5-0.9,13.5-0.9s9.6-4.3,14.1-4.8c4.5-0.4,13-0.2,13-0.2
		s8.3-4,14.6-7.5c6.4-3.6,8.3-6.4,8.3-6.4s2.8,8.1-0.2,12.5c-3.8,5.4-9,6.2-9,6.2l9.4,10.7l8.8-16.7l8.8,5.2c0,0-4,18.2-6.4,21.1
		c-2.4,2.9,0,0,0,0l2.6,2.8c0,0-10.7,18.4-13.7,19.1c-3,0.7,0,0,0,0l1.9,17.7c0,0,7.7,3.6,7.3,13c-0.4,9.4-4.9,14.1-4.9,14.1
		s-2.6,4.3-4.5,9.9c-1.9,5.6-9,5.9-10.9,5.4c-1.9-0.6-5.6-1.9-7.3-7.7l-6.8-2.1c2.6,16.9,0.9,37.6,0.9,37.6c5.3,0,10.1,0.3,13.6,1.2
		c-2.5,14.1-13.2,34.9,3.1,38.3c8.9,1.8,20.8-4,20.8-4c15.7-0.6,38.8-3.6,59.8-18.6c21.2-15.3,30.7-46.1,33.2-77.4
		c0,0-7.5-0.1-25.1-2.1c-17.7-2-28.7-7.7-28.7-7.7l-7.6-17.8h-0.9l-0.2,1.2l-1.3,1l-8.6-2l-0.6-1.2l2.5-11.3l0.9-1.6
		c3-0.3,9.8,2.2,9.8,2.2l-0.1,1.7l1-0.1l10.1-6.6l48.5,4.9c-1.3-14.1-4-26.8-7.3-36.1c-11.3-32.1-34.6-56-65.2-62.2
		c0,0-12.2,7.7-14.9,7.7l-2.1-0.2c0,0,3.1,8.5-14.6,10.4c-9,0.9-12-3-12.8-6.2c0,0-1.9,3.6-5.9-0.4
		C626.1,140.7,625.3,138.5,625.3,138.5z"/>
	<polygon class="st6" points="617.3,186.8 603.6,197.7 625.7,198 637.9,191.3 	"/>
	<polygon class="st6" points="649.1,189.8 638.5,200.7 646.2,211.6 654.4,195.2 	"/>
	<path class="st5" d="M541.6,304.9c0.9,15,13.1,41.7,29.4,50.2c14.7,7.6,22.9-7.2,21.3-13.1c-0.1-0.6-1.1-3.7-1.3-4.4
		c5.7-3.5,12.5-5.3,22-5.5c0,0,4.4-19.6,1-35.9c0,0-7.1,1.7-12-0.9c0,0-14.6,4.5-19.1,13.5l-2.1,6.2c0,0-7.3,9.1-18.4-3.3
		c-8.3-9.2-14.8-9.6-15.6-21.4C546.8,289.8,541.3,294.5,541.6,304.9z"/>
	<path class="st6" d="M698.3,216.4c0,0-25.5-13-49.6,31.9l-1.7-4.5c0,0,4.3-3.5,8.3-10.4c4-6.8,3.8-13.5,3.8-13.5l5.5-19.2
		C664.6,200.8,690.2,205.7,698.3,216.4z"/>
	<g>
		<path class="st4" d="M576.7,188.3c-22.7,3.4-23.6-7.1-18.4-7.5c5.2-0.4,19.6-6.6,27.3-12.5L576.7,188.3z"/>
	</g>
	<g>
		<path class="st4" d="M711.5,148.4c-10.2-0.8-2.2,6.7,1.1,9.6c3.4,2.8,27.7,24.9,50.3,18.1c22.6-6.7,29.4-25.5,24.9-26.6
			C783.3,148.4,732.5,150.2,711.5,148.4z"/>
	</g>
	<g>
		<path class="st5" d="M720.7,193.6c0,0-41-39.8-69.8-12.9c-7.1,6.6,9.6,20.6,27.7,24.1c18.2,3.4,28.8,18,28.8,18L720.7,193.6z"/>
	</g>
	<path class="st7" d="M710.4,146.7c0,0,9.2-19.5,0-23.6c-11.7-5.3-5.6-18.1,2-14.8c7.6,3.3,16.8,18.2,5,40.4L710.4,146.7z"/>
	<path class="st7" d="M636.9,108.8c0.2-0.6-0.1-1.1-0.7-1.3c-1.6-0.3-4.7-1.1-7.7-1.2c-7.5-0.3-11.2-1.6-13-2.5
		c-0.7-0.3-1.2,0.2-1.1,1c0.7,3.6,4.8,10.2,11.7,10.8C635,116.4,636,111.3,636.9,108.8z"/>
	<g>
		<path class="st8" d="M683.8,132.7L709,144c0,0-1.1-4.8-3.9-11.3c-2.8-6.5-8.8-15.6-13-19.7c-7.9-7.6-15-10.9-19-12.6
			c-11.9-4.7-29.3-4.3-43.2,9.2c-4.5,4.4-8.2,12.2-8.5,16.7c-0.7,8.3,5.6,12.5,12.8,10.8c4.6-1,7.7-2.4,11.9-6.6
			c0,0,5.5,3.5,15.6,1.6c0,0-6.1,9.3,1.7,9c7.7-0.3,10.3-4.5,12.8-5.7C678.6,134,683.8,132.7,683.8,132.7z"/>
	</g>
	<path class="st9" d="M709,275.7c-0.1-0.6,0.2-1,0.7-1.1c1.5-0.2,4.4-0.6,7.2-0.3c6.7,0.4,10.5,1,12.2,0.3c0.6-0.2,1.1,0.3,1,1
		c-0.9,3.3-5.7,7.4-11.9,7.3C710,282.8,709.6,278,709,275.7z"/>
	<path class="st8" d="M723.1,287c0,0,0.7-1.6,6.5-0.6c2.6,0.4,4.8,0.9,5.7,2.7c1.1,2.1-0.4,4.9-2.1,5.4c-3.9,1-7.5,0-10.7,0.8
		c-0.3,0.1-0.7-0.3-0.4-0.7C722.7,293.4,723.6,291.1,723.1,287z"/>
	<g>
		<path class="st8" d="M678.5,299.8c0,0,12,6.6,12.6,16.2c0.2,4.3-5.6,6.3-11.1,0.1c-3.4-3.8-9.2-5.5-10-5.2l-0.8-0.9
			c0,0-1.8-6.1-4.7-10.9c-0.7-1-2.1-3.1-1.9-4.3c2-10.4,13.4-19.2,16.6-21.5c9.5-6.7,28.6-8.8,38.8,2.5c2.9,3.1,5.6,10.4,4.6,15.1
			c-2.2,10.9-12.6,18-39.8,11.3"/>
	</g>
	<path class="st8" d="M573.4,209.6l3.6,5.2l3.7-0.3l5.5-7.1l-3.9-5.9C582.1,201.3,578.1,206.7,573.4,209.6z"/>
	<path class="st10" d="M622.2,290.5c0,0,8.3,72.3-24.3,78.9c-8.8,1.8-16.5-12.2,1.7-15.8c15.9-3.1,17.4-55.1,12.7-63.2
		C614.3,289.9,618.8,288.9,622.2,290.5z"/>
	<path class="st8" d="M623.5,134.8c0,0,5,12.6,11.2,11c6.2-1.6,1.6-8.6,1.6-8.6S628,139.4,623.5,134.8z"/>
	<g>
		<path class="st8" d="M649.5,263.5c0,0,0.1-13.1-2.4-19.6c0,0,8.4-9.8,12.8-19.3c0.3-0.8-1.9-3-1.6-3.8c3.4-8.4,5.7-13.7,5.8-19.7
			l-9.3-5.7l-8.1,15l-0.7,0.4c-10.1-18.3-39.2-14.6-51.5-8.3c-19.6,10-26.8,37.1-9.2,43.2c0,0,0.9,0.2,2.2,0.4l-0.2,0.1
			c0,0,0.9,7.6,0,16.4c-0.6,5.3-1.9,10.9-4.5,15.4c0,0-6.1,0.2-9.6,3.3c-2.5,2.2-2.9,4.3-4.2,7.5c-3.3-2.8-6.5-4.6-8.2-5.2
			c-5.4-1.9-18.3,2.8-11.2,14.8c3.7,6.2,8.4,7.2,15.4,14.8c7.2,7.9,15.8,2.7,16.6-3.7l0.1,0.1c0,0,19.1-26.6,47.1-13.7
			c0,0-0.6,5.4,7.1,7l6.2-0.3l3.7-3.7l8.9-17.7l1-8.3C655.6,268.1,651.9,263.2,649.5,263.5z"/>
	</g>
	<path class="st5" d="M547.8,292.3c0,0,4.7-11.3,17.5,1c12.8,12.3,15.1,18.4,11.4,22c-3.8,3.6-6.5,4.2-16-6.1
		C551.2,298.9,545.6,299.5,547.8,292.3z"/>
	<path class="st5" d="M650.8,265.6c-5.4-0.3-7.4,3.6-11,13.4c-3.6,9.8-8.3,10.3-9.3,17.4c-1,7.1,8.1,10,11.8,6.3
		c3.7-3.7,6.7-7,10.2-13.1C655.8,283.2,659,266,650.8,265.6z"/>
	<path class="st5" d="M583.8,306.3c0,0,10.5-17.5,25.7-17.5c15.1,0,19.4,7.1,19.4,7.1s-21.2-10-44.1,8.3L583.8,306.3z"/>
	<path class="st5" d="M576.3,236.8c0,0,6.2,8.9,30.1,1.6c19.6-6.1,31.3-16,35.9-21.8c4.4-5.4,0,0,0,0s-9.6,17.2-25.2,23.5
		C595.3,248.8,582.5,249.3,576.3,236.8z"/>
	<path class="st5" d="M677.2,298.9c0,0,16.8,10,31.2,6.2s14.6-11.7,14.6-11.7S715.2,307.2,677.2,298.9z"/>
	<path class="st9" d="M686.8,392.7c0,0,6.4,10.2,23.5,8.6c11.9-1.1,10.4-11.9,0.8-9.6c-11,2.7-19.3-4.3-19.3-4.3L686.8,392.7z"/>
	<path class="st9" d="M682.8,277.4c0-0.6-0.6-0.9-1-0.8c-1.6,0.3-4.7,1-7.7,2.2c-7.1,2.8-12.6,3.3-14.6,3.3c-0.7,0-1.1,0.8-0.8,1.3
		c1.8,2.8,8,8.5,14.5,6.2C682,286.3,682.9,279.8,682.8,277.4z"/>
	<path class="st7" d="M672.5,106c-0.3-0.4-0.2-1.1,0.3-1.5c1.6-0.8,4.8-2.5,8.1-3.5c8-2.6,13-6.1,14.7-7.4c0.6-0.4,1.5-0.1,1.6,0.6
		c0.4,3.7-0.9,12.8-8.1,15.4C679.4,113,674.1,108.2,672.5,106z"/>
	<path class="st11" d="M671.2,123.9c0.1-0.4-0.1-0.7-0.2-1.1c-0.3-1.7-2-2.7-3.7-2.4c-1.7,0.3-2.7,2-2.4,3.7
		c0.2,0.8,0.7,1.5,1.3,1.9C666.3,126,668.4,124.8,671.2,123.9z"/>
	<path class="st11" d="M629,131.4c1.7-0.3,2.7-2,2.4-3.7c-0.3-1.7-2-2.7-3.7-2.4c-1.7,0.3-2.7,2-2.4,3.7
		C625.7,130.8,627.3,131.8,629,131.4z"/>
	<path class="st11" d="M692.4,292.3c1.6,0.1,2.9-1.1,2.9-2.6s-1.1-2.9-2.6-2.9c-1.6-0.1-2.9,1.1-2.9,2.6
		C689.7,290.8,690.9,292.2,692.4,292.3z"/>
	<path class="st11" d="M717.4,288.9c0.8,0.9,2.1,1,3,0.2c0.9-0.8,1-2.1,0.2-3c-0.8-0.9-2.1-1-3-0.2
		C716.8,286.7,716.7,288,717.4,288.9z"/>
	<path class="st11" d="M629.7,217.9c1.8,0,3.1-1.5,3.1-3.1s-1.5-3.1-3.1-3.1c-1.8,0-3.1,1.5-3.1,3.1S627.9,217.9,629.7,217.9z"/>
	<path class="st11" d="M587.1,228.8c0-1.8-1.5-3.1-3.1-3.1c-1.8,0-3.1,1.5-3.1,3.1s1.5,3.1,3.1,3.1
		C585.7,232,587.1,230.6,587.1,228.8z"/>
	<path class="st8" d="M659.6,221.6"/>
	<path class="st10" d="M580.9,214.6c-2.5,0.4-6.1,1.2-10.4,2.7c-4.8,1.6-8.8,2-8.8,2s4.4,9.2,14.8,6.7L580.9,214.6z"/>
	<path class="st10" d="M623.1,199.3c-0.4-0.4-0.3-1.1,0.1-1.5c1.6-1,4.9-3.1,8.4-4.7c8.4-3.8,12.2-6.6,13.9-8.3
		c0.6-0.6,1.6-0.3,1.8,0.3c0.9,3.7,1.8,11.7-5.7,15.4C631.5,205.4,625.2,201.2,623.1,199.3z"/>
	<path class="st12" d="M602.2,224.7c0,0-0.7,1.1-1.6,2.4c-0.9,1.2-2.2,2.2-2.2,2.2s4.9,5.5,12.3-4
		C610.7,225.4,606,225.5,602.2,224.7z"/>
	<path class="st13" d="M651.2,136.3c0.7-1.3-2.7-2-2.7-2S650.7,137.6,651.2,136.3z"/>
	<path class="st13" d="M643.4,138.3c1.8,0.8,2.8-3.7,2.8-3.7S641.7,137.5,643.4,138.3z"/>
	<path class="st13" d="M648.7,139.1c2.7-0.7-1.6-4.4-1.6-4.4S646,139.8,648.7,139.1z"/>
	<path class="st14" d="M586.8,246c0,0,5.5,1.3,14.8,0.4c0,0,3.5,2.2,9.9-0.2c6.4-2.5,8.4-7.7,8.4-7.7s8.3-4.9,12.3-8.6
		c4.6-4.2,8.6-8.9,10.3-12.8c0,0,6.8-2.7,15.4,4.4l2.5,3c0,0-5.5,11.4-12.6,19c0,0,1.8,13.9,1.1,18c0,0-2.4,0.3-8.9,2.7
		c-2.1,0.8-2.5,4.5-4.5,5.9c-2.9,2.2-9.2,5.4-11,7.4c-1.3,1.5-5.4,8.8-2.9,16.2c0.4,1.3-14.4,3.9-18,1.5c-3.5-2.5-4.4-9.4-9.9-13.8
		c-2-1.7-3.9-2.7-5.6-3.4c-3.6-1.3-5.9-0.9-5.9-0.9S586.1,269,586.8,246z"/>
	<g>
		<path class="st15" d="M648.6,262.4c-0.1-0.1-0.2-0.2-0.4-0.3C648.2,262.1,648.3,262.2,648.6,262.4z"/>
		<path class="st16" d="M619.6,281.1c3.6-12,14.8-16.4,17.2-23c2.9-8-1-22.4-1-22.4c10.8,4.6,21-14.4,21-14.4l3.4,2.5
			c-0.1,3.6-12.6,19-12.6,19l1.9,19.9c-9.1-1-13.2,7.2-13.2,7.2s-7.2,2.4-11,6.7c-2.2,2.5-6.1,7.7-3.6,17.2c0,0-13.6,5.4-19.6,1.2
			l-4.5-9.1c0,0,3.8,6.7,12.1,5.2C616.7,289.8,618.1,285.9,619.6,281.1z"/>
	</g>
	<path class="st9" d="M667.3,366.6c0,0,3.3,6.4,8.8,13.4l6.2-5.2l-5.6-8.2H667.3z"/>
	<polygon class="st17" points="683.6,229.7 688.8,230.9 685.2,244.9 680.8,243.7 680.1,242.6 	"/>
	<path class="st17" d="M703.5,239.1l1.5,0.1l4.3,8c0,0,0.4,5.8-2.7,5.6c-3.1-0.2-2.8-7.3-2.8-7.3L703.5,239.1z"/>
	<polygon class="st18" points="688.8,230.9 685.2,244.9 688.8,246.2 690.6,244.6 693.3,231.9 	"/>
	<path class="st18" d="M701.9,237l-1.5,11.9c0,0,2.2,4.7,5,3.8c0,0-3.7-9.8-1.6-13.5c2.1-3.7,0,0,0,0s21,5.3,32.4,5.3
		c11.4,0,24.7-0.8,24.7-0.8l-1.8-3.4c0,0-11.1,1.7-23.1,0.7s-33.4-5-33.4-5L701.9,237z"/>
	<g>
		<g>
			<g>
				
					<ellipse transform="matrix(0.9981 -6.082928e-02 6.082928e-02 0.9981 -15.1801 37.434)" class="st19" cx="607.2" cy="268" rx="12.5" ry="11.1"/>
			</g>
			<polygon class="st20" points="610.1,273.8 609.7,274.3 610.2,274.8 610.6,274.2 			"/>
			<polygon class="st20" points="611.5,274.7 611.1,275.5 611.6,275.9 612.2,275.3 			"/>
			<polygon class="st20" points="616,266.7 615.6,267.5 616.1,267.9 616.8,267.4 			"/>
			<polygon class="st20" points="597.8,269.3 597.4,270 598,270.5 598.5,269.8 			"/>
			<path class="st21" d="M594.5,266.6c0,0,1.2,1.5,2.8,0.1c2.1-1.8,4.3,6.8,7.2,5.9c2.1-0.6,1.5-6.6,2.8-6.8c2.4-0.2,1,6.5,4,6.3
				c2.7-0.2,3.3-6.4,4.9-6.7c1.2-0.2,2.7,0.6,3-1.6c0.3-2-3.6-8.9-13-7.9C597.3,256.9,593.5,264.9,594.5,266.6z"/>
			<path class="st22" d="M600.9,263.5c0,0,1.9,6.2,3.5,6.3c1.8,0.1,0.2-8.1,2.8-8.1c2.6,0.1,3,7.9,4.4,7.6c1.2-0.3,1.2-7.9,3.5-7.5
				c0,0,1.9,0.8,2.2-0.1c0.3-0.9-3-2.1-3.7-1.8c-0.7,0.2-1.6,6.6-2.4,5.4c-0.9-1.6-2.5-6.2-4.6-5.7c-1.5,0.3-2.5,4.9-2.8,6.6
				c-0.2,1.8-1.3-1.6-2.4-4c-0.6-1.3-3.3-0.9-3.1,0.1C598.4,263.1,600.2,261.8,600.9,263.5z"/>
			<polygon class="st23" points="612.8,257.4 611.2,259.1 612.6,259.9 			"/>
			<polygon class="st23" points="604.1,258.2 603.6,259.5 605.5,259.1 			"/>
			<polygon class="st23" points="598.5,264 597.8,265.4 599.7,264.9 			"/>
			<polygon class="st23" points="607.7,260.3 607.2,261.7 608.9,261.2 			"/>
			<polygon class="st23" points="606.6,255.4 606.3,256.4 608.6,257.2 608.9,255.7 			"/>
			<polygon class="st23" points="614.7,259.5 614.6,260 615.6,260.3 615.7,259.8 			"/>
			<polygon class="st23" points="598.7,258.5 599.7,259.3 601.2,258.2 599.5,257.7 			"/>
		</g>
		<g>
			<path class="st24" d="M609.5,257.6l4.4-5.6l0.4-0.2l0.4-0.9l0.4-0.6c0,0,1.2-0.2,1.3,0.9l-0.6,0.7l-0.8,0.6l-0.1,0.7l-4.2,5.2
				C610.9,258.4,609.1,259.1,609.5,257.6z"/>
			<path class="st25" d="M615.2,250.4c0.2-0.2,0.6-0.3,0.9,0c0.3,0.2,0.6,0.8,0.4,1c-0.1,0.2-0.7,0.2-1,0
				C615.2,251,615,250.7,615.2,250.4z"/>
			<path class="st25" d="M614.3,251.8c0,0,0,0.6,0.8,0.7l-0.1,0.7c0,0-1,0.1-1.1-1.1L614.3,251.8z"/>
		</g>
	</g>
	<g>
		<path class="st21" d="M788.1,147.8c-1.2-0.3-4.2-1-14.9-0.6c-6.5,0.3-12.9,1.1-24,1.2c-7.5,0.1-19.9-0.7-29.4-1.3
			c5.9-13.6,5.2-22.6,3.3-28.1c-2.7-7.5-8.1-10.5-10.2-11.4c-3.8-1.7-7.6-0.3-9.4,3.1c-1.9,3.9-0.7,9.9,6.5,13.8
			c1.8,1,2.9,2.5,3.5,4.5c1.2,4.4-0.6,10.2-2.4,14.7c-0.1-0.1-0.2-0.2-0.3-0.2c-0.3-1.2-1.6-5.6-3.9-11.2c-2.8-6.6-9-15.9-13.4-20.2
			c-0.4-0.4-0.9-0.9-2.1-2.2c6.5-3.4,7.9-11.4,7.4-15.4c-0.1-0.9,0.3-3-0.4-3.4c-0.8-0.3-2.8,1.1-3.5,1.8c-0.9,0.7-4.5,4.4-14.1,8
			c-0.6,0.2-1,0.3-1.6,0.6c-3.6-1.5-4.5-1.9-5.2-2.1c-11.1-4.4-27.4-4.7-41.3,6.5c-1.2-0.2-2.6-0.3-3.9-0.4
			c-7.5-0.3-11-1.6-12.5-2.4c-0.8-0.3-2.2-1.3-2.9-0.9c-0.7,0.6-0.3,2.5-0.2,3.4c0.6,3.5,4.3,8.9,10.8,10.4c-2.1,3.8-3.6,8-3.8,10.7
			c-0.3,3.9,0.8,7.3,3.1,9.6l-1.6,0.8c-14.9,6.5-27.5,16.8-36.8,30.5c-7.4,5.2-17.6,8.6-21.7,10c-1.3,0.4-4.3,0.8-7.1,1.5
			c-1.7,0.3-3.1,1.1-3.6,2.4c-0.7,1.8,2.4,5.9,3.7,7.1c3.4,2.8,4.9,2.6,9,3.4c1.2,0.1,2.5,0.2,3.7,0.2c-1.1,0.9-2.1,2-3.4,3.3
			c-3.4,3.5-4.8,5.8-4.4,10.3c0.3,3.7,3,8.4,8.5,8.4c1.5,0,2.8-0.2,4.2-0.8l1.5,2l-3.6,1.1c-4.6,1.6-9.9,1.1-9.9,1.1
			c-0.6,0-1,0.3-1.2,0.8c-0.2,0.4-0.2,1,0,1.5c1.5,3,7,7.1,13.9,7.2c-0.4,1.9-0.6,3.9-0.4,5.8c0.4,7.2,3.9,11.3,10.7,13.7
			c0.3,0.1,0.7,0.2,1.1,0.3c1.3,8.3-2.8,23.1-4.5,28.7c-0.3,0.4-0.7,0.9-1,1.3c-0.1,0.1-0.8,0.3-1.3,0.4c-2.1,0.6-5.6,1.5-9.2,5.9
			c-0.8,1-1.5,2.2-1.9,3.6c-2.7-2.2-5-3.8-6.3-4.4c-3.7-1.3-11.1-1.3-14.4,2.6c-0.6,0.7-1.1,1.9-1.3,3.5l0,0
			c-4.9,3.7-6.6,11.4-6.3,18.6c0.9,16,17.3,44.5,29.7,49.8c4.2,1.8,11.2,3.3,18.2-1.3c5.8-3.9,7.1-12.8,6.3-16.2
			c2.9-1.8,8.9-4.6,17.5-5.7c-2.5,9.8-6.5,17.8-12.6,18.6c-14.9,2.1-11.8,12.6-11,14.4c1.3,2.8,3.7,4.6,6.5,5
			c1.3,0.2,3.5-0.1,4.9-0.4c16.4-3.4,22.6-20.5,24.6-37.8c3.4,0.2,6.8,0.8,10.8,1.6c-0.6,3.4-1.5,7.1-2,9.5
			c-2,8.5-5.7,17.3-1.1,23.1c1.6,2,4,3.8,8.9,4.8c6.5,0.8,12-0.9,16.3-3.5c3.1,0,8-0.1,10.2-0.1c1.2,2.2,3.7,6.4,7.2,11
			c-15.1,12.6-34,20.3-51.7,20.6c-9.3,0.2-22.1-0.6-29.1-12.2c-8.5-14.2-20.9-21.3-29.8-19c-7.1,1.8-11.3,7.6-11.6,16
			c-0.2,7,4.3,14.1,13.6,21.9c12.3,10.1,31.6,17.4,51.5,17.4c4.9,0,9.9-0.1,14.7-1.2c20.2-4.8,39.2-14.7,54.5-27.7
			c3.3,3.3,9.5,7.7,20.9,8.5c1.2,0,2.5-0.1,3.8-0.2c6.7-0.7,8.6-4.7,9.2-6.2c0.7-1.8,0.4-3.7-0.8-5.2c-1.7-1.9-4.6-2.6-8.2-1.8
			c-7.6,1.8-13.9-1.2-16.6-2.9c10.4-10.5,18.6-22.6,24-35.3c1.3-0.9,2.8-1.8,4.2-2.7c23.9-16.5,30.9-50.6,33.4-77.8
			c7.1-3.7,9-8.8,8.8-14c-0.7-13.2-3.6-15.3-3.6-15.3l-6.2-11.2h-0.1c-1.6-13.7-4.4-27.7-8.6-38.1c-2.6-6.4-4.9-11.4-8-16.6
			c7.3,2.4,13.4,2.8,17.7,2.8c3.4,0,6.6-0.4,9.8-1.3c19.9-5.9,25.9-19.4,25.8-25.6C791.3,150,790,148.2,788.1,147.8z M716.2,128.4
			c-0.8-2.8-2.8-4.7-5.4-6.2c-5.5-3-6.3-8.2-5-10.9c0.8-1.6,3.8-2.8,6.6-1.6c1.8,0.8,6.4,3.4,8.6,9.8c1.8,4.9,2.4,14.5-3.4,27.5
			c-1.2-0.1-2.5-0.2-3.5-0.2c-0.4-0.4-1-0.9-1.5-1.3C715,140.6,717.7,133.7,716.2,128.4z M681.4,102.8c7.5-2.4,13.1-7.1,15.1-8.6
			c0.1,3.8-2.2,12.5-7.9,14.4c-8.1,2.8-12.7-0.6-14.6-2.7C675.8,105,678.6,103.7,681.4,102.8z M615.2,105.1
			c2.2,0.9,6.8,2.6,13.2,2.9c0.4,0,0.8,0,1.2,0.1c-0.2,0.2-0.4,0.4-0.8,0.7c-1.6,1.6-3,3.5-4.4,5.5
			C619.8,113.1,616.1,108.1,615.2,105.1z M667.3,125.3c-2.4,1.2-4.8,3.1-6.8,5.7c-8.4,1.3-13-1.3-13.2-1.6c-0.7-0.3-1.5-0.3-1.9,0.2
			c-3.9,4-6.8,5.3-11.1,6.2c-3.3,0.7-6.3,0.1-8.3-1.6c-1.9-1.7-3.6-4.6-3.4-7.9c0.3-3.9,3.8-11.6,8.1-15.7
			c13.1-12.9,30.3-14.6,45.4-8.5c-1.5,0.4-2.8,0.9-3.6,1.3c-0.7,0.3-1.1,0.9-1.2,1.7c-0.1,0.7,0,1.5,0.4,2c1.5,1.9,5.2,4.2,11.4,4.2
			c1.6,0,3.3,0,5.2-0.4c1.8,1.9,2.5,2.6,3.3,3.3c4,4,11.2,13.9,13.9,20.2c1,2.4,2,4.9,2.8,7c-4.6-3.3-9.2-5.5-15.5-7.9l-3.4-1.5
			c0.1,0,0.1-0.1,0.1-0.1c-0.1-0.9-4-1-4.8-0.9c-4.8,0.6-9.4,3.3-13.9,6.4c-9.3,6.5-9.9,0-9.5-0.9c5.2-13.1,22.9-12.3,22.8-13.2
			c-0.1-0.9-7.1-0.9-7.9-0.8c-0.2,0-1.7,0.2-3.7,0.8L667.3,125.3z M634.6,144.7c-2.7,0.7-5.6-2.8-7.5-6.2c0.4,0.1,1,0.3,1.6,0.3
			c0.1,0,0.2,0,0.3,0c0.3,0,0.6,0.1,0.9,0.1c0.2,0,0.4,0,0.7,0.1c2.6,0.2,5-0.1,6.2-0.3c0.2,0.3,0.3,0.8,0.3,1.2
			c-0.6,1.2-1,2.6-1.1,4C635.4,144.5,635.1,144.6,634.6,144.7z M638,137.8c0.2-0.1,0.4-0.2,0.7-0.3c-0.2,0.2-0.4,0.6-0.6,0.8
			C638.1,138.1,638,138,638,137.8z M640.5,137.6l6.2-5.8c5.4,0.7,9,1.9,11.4,3.4c0,0.1-0.1,0.1-0.1,0.2c-0.9,2.1-0.3,4.4,1.5,5.8
			c0.9,0.7,2,1.2,3.4,1.5c-0.1,0.3-0.1,0.7-0.2,0.9c-0.7,1.8-2.5,3.8-5.4,5c-5.3,2.1-12.8,2.7-16.5,1c-1.5-0.7-2.6-2.1-2.9-3.4
			C636.8,142.7,640,138.1,640.5,137.6z M556.1,182.2c5.6-0.6,17.1-2.9,24.9-8.6c-2.1,3.8-3.7,7.5-4.7,10.9c-0.2,0.8-0.4,1.5-0.6,2
			C557,191.5,555.9,182.2,556.1,182.2z M564.1,205.3c-0.6-2.9,1.5-5.8,2.6-7.3c3.4-3.9,8.3-6.4,11.1-6.4c0.4,0,0.8,0.1,1,0.1
			c1.6,0.6,2.7,2.2,3.1,4.4c0.6,2.5,0,5.2-1.5,7.5c-1.2,1.5-3.1,3.5-5.4,5.2c-1.8,1-3.6,1.6-5.3,1.6
			C567.7,210.4,564.9,209.5,564.1,205.3z M649.2,191c0.7,1.9,1.8,3.7,3.7,5.5c-2.1,5.5-4.3,9.9-6.4,13.6c-1.5-2.5-3.7-5.7-6.5-8.1
			c0.4-0.1,0.8-0.3,1.2-0.6C646.5,198.9,648.7,194.8,649.2,191z M646.9,242.5l-2.9-0.6l2.9,3.3c0.9,5.7,0.9,9.1,1.3,14.6
			c-4.6-0.3-10.2,3.6-11.9,6.5l-0.1,0.1c-0.4,0.8-0.8,1.5-0.9,2.4c-0.1,0.1-0.3,0.2-0.4,0.3c-1.3,0.4-3.5,1.5-5.7,3
			c-1.5,0.9-3,2.1-4.6,3.9c-1.7,1.9-6.3,9.3-4.2,17.1c-2.6,1.1-12.1,2.7-15.1,1.9c-1.9-0.4-2.9-1.8-3.9-3.9
			c-1.3-2.9-2.9-6.8-6.2-9.4c-5.9-4.8-9.1-5.3-10.4-5c1.5-2.7,2.6-6.2,3.5-11.1c1.2-6.8,1.2-16.9,1.1-18.2c2.2,0.3,6.1,0.3,12.2-0.2
			c1.1,0.6,4.8,2.2,10.5,0.1c5.8-2.2,9.8-7.6,10.3-9c1.6-1,5.7-3.5,9.4-6.8c5-4.6,9.1-9.9,10.8-13.6c1.6-0.4,7.9-1,14.6,4.5l1.6,1.7
			l-2.9,6.8C653.4,234.4,650.2,238.9,646.9,242.5z M649.8,288.1c-1.6,2.7-2.9,6.7-4.2,10c-1.3,3.6-6.1,5.3-9.4,4.6
			c-1.8-0.3-5-2.9-4.9-7.6c0-0.7,1.3-7.7,0.4-7.9c-0.9-0.1-2.7,3.6-3,4.5c-0.2,0.9-0.6,1.8-0.7,2.8c-1.7-1.1-3.4-1.8-5.6-2
			c-1.3-5,0.3-10.4,1.7-13.1c0.6-0.7,1.3-1.5,2.1-2.2c1.2-0.8,2.5-1.8,3.8-2.8c2.4-1.5,3.8-1.8,4.6-1.9c-0.1,0.8-0.3,1.8-0.6,2.9
			c-0.2,0.9-2.2,6.4-1.3,6.6c0.9,0.2,4.9-11.8,6.2-13.7l0.1-0.1c1.1-1.8,4.8-3.9,8.4-3.1c3.6,0.8,6.8,3.5,7.6,9.4
			C655.6,278.7,652.5,283.4,649.8,288.1z M657.1,219.2c-4.3-3-8.1-3.9-10.8-4c3-5.3,6.6-11.8,9.2-16.7c1.7,1.1,4.2,2.1,7.1,3.1
			C662.1,203.7,661.1,209.9,657.1,219.2z M641.1,199.1c-8.4,4-13.8,1.3-16.2-0.4c1.8-1.1,6.5-3.9,9.4-5.3c7.6-3.4,10.2-6.3,12.3-8.1
			C647.5,189.2,647.1,196.2,641.1,199.1z M623,196.2c-5.4-0.4-10.8,0.1-15.6,1.1c0.2-0.2,0.6-0.3,0.8-0.6c3.8-2.8,7.2-6.1,9.5-9.4
			c4.6,2.5,9,4,13.2,4.9C628,193.7,624.7,195.2,623,196.2z M580.6,208.5c0.9-0.9,1.8-1.9,2.5-2.8l1.2,1.8l-4.4,5.6l-2,0.2l-1.1-1.7
			C578,210.9,579.3,209.8,580.6,208.5z M564.6,220.5c1.7-0.3,4-0.8,6.6-1.7c2.8-0.9,5.4-1.6,7.5-2.1c-1.6,2.6-2.9,5.3-3.7,8
			C569.7,225.4,566.3,222.5,564.6,220.5z M577.2,232.7c-0.6-9,4.7-22.2,17.4-28.7c6.1-3.1,16.7-6.5,26.9-5.9c0,0.1-0.1,0.2-0.1,0.4
			c0,0.8,0.2,1.5,0.8,2c1.6,1.5,4.8,3.1,10.1,3.1c1.6,0,3-0.1,4.6-0.4c3.4,2.5,6.3,6.1,8.1,9.4c-0.7,1-1.2,2-1.9,2.9
			c-0.8,0.1-1.2,0.3-1.2,0.3l-0.4,0.2l-0.2,0.4c-1.5,3.5-5,7.9-10.1,12.3c-3.9,3.6-11.1,8.5-11.1,8.5s-0.7,3.9-9.2,7.5
			c-4.2,1.7-7.2,1-8.4,0.6c1.7-0.3,3.1-0.8,4.3-1.1c0.9-0.3,2-1,2.6-1.3c0,0-9.2,2.5-13.4,2.7c-4.6,0.2-10.1-1.1-10.1-1.1
			C579.2,242.1,577.4,236.8,577.2,232.7z M549.7,287.9c2.4-2.8,8.3-3.5,10.8-2.4c8.2,3.7,18.2,13.7,17.7,12.9
			c-2-3.3-4.8-6.5-7.7-9.2c0.3-1.6,1-3,1.8-4c2.9-3.7,5.5-4.4,7.4-4.8l0,0c1.1-0.2,3.7-0.7,6.1-0.3c1.1,0.1,2.2,0.3,3.1,0.6
			c1.2,0.7,2.5,1.5,3.8,2.5c2.8,2.2,4.4,4.2,5.6,6.8c0.7,1.5,1.3,2.9,2.2,4.2c-9.6,2.9-15,8.4-17.8,11.8c-0.1-0.3-0.2-0.7-0.3-0.9
			c-0.3-0.8-2.5-3.1-2.5-3.1c-0.8,0.3,3,9.2-3.3,13.8c-3.1,2.4-7.2,1.3-10.5-2.2c-3.1-3.5-5.8-6.4-8.2-8.2c-2.8-2.2-6.1-4.5-8-7.7
			C548.6,294.8,547.2,290.8,549.7,287.9z M571.5,353.3c-15.5-6.7-27.3-33.7-28.2-47.7c-0.2-4.5,0.8-8.3,2.9-11.2
			c0.4,1.6,1.1,3.4,2.2,5.2c2.1,3.7,4.7,5.7,7.7,8c2.2,1.8,4.8,3.8,7.9,7.1s6.2,4.5,9.1,4.5c2.1,0,4.2-0.7,5.6-1.7
			c0.4-0.3,0.9-0.7,1.2-1l0.4,1c0.9,2.1,1.8,4.3,2.6,6.3c2.7,6.6,5.8,11.9,6.3,16.2C590,345.9,588,360.5,571.5,353.3z M592.3,335.9
			c-1.6-3.5-4.2-8.3-5.9-13.2c-0.8-2.1-2.6-6.7-3.8-9.9c0.3-0.7,0.4-1.3,0.7-2.1v0.1c0.1-0.1,4.5-10,19.9-14.5
			c1.3,0.6,3.4,0.9,5.6,0.9c1.3,0,2.8-0.1,4.2-0.2c1.9,5.4,1.8,20.9-1,34C601.7,331.9,595.4,334.5,592.3,335.9z M598.8,368.1
			c-4.9,1-7.4-1.5-8.1-3c-1-2.2-2.2-7,8.8-9.5c15.7-3.6,19.2-44.7,16.2-59c1.8-0.3,3.5-0.7,4.7-1
			C621.6,308.3,625.9,362.3,598.8,368.1z M623.9,330.7c1.5-16.2-0.6-31.6-1-35.1c2.1,0.7,4,1.8,5.4,3.3c0.1,0.1,0.2,0.2,0.3,0.3
			c1,2.6,2.9,4.4,5.6,5.3c-0.2,4.5,0.7,8.8,0.8,14.5c0.1,3.6,0.2,7.1,0,10.1c0,0.7-0.1,1.6-0.2,2.5
			C630.9,331,627.3,330.7,623.9,330.7z M640.4,369c-3.1-0.7-5.3-1.9-6.4-3.7c-2.6-4.2-0.7-12,1.1-19.6c1.2-4.9,2.5-10,2.7-14.7
			c0.2-3.6,0.1-7.6,0-11.4c-0.2-6.3-0.2-10.5,0.3-14.8c4.2-0.2,8.6-2.5,10.2-6.7c1.1-2.9,2.7-5.6,4.2-8.3c0-0.1,0.1-0.1,0.1-0.2
			c9.1,3.1,17.2,23.5,17.8,33.2c1.2,14.9-1.5,22.9-6.6,32.2c-0.1,0.1-0.1,0.3-0.2,0.4C663.4,356,656.6,372.4,640.4,369z
			 M673.8,279.9c2.5-1,6.8-2.2,8.5-2.6c2,0.3-1.6,9.2-8.8,11.9c-5.2,1.9-11.8-3.3-13.9-5.9C661.9,283.1,667.1,282.5,673.8,279.9z
			 M670.3,291.6c1.1,0,2.4-0.2,3.6-0.7c9.4-3.5,10.4-10.4,10.4-13.4l0,0c0-0.7-0.3-1.2-0.8-1.7c-0.6-0.4-1.1-0.6-1.8-0.4
			c-1,0.2-2.7,0.6-4.6,1.1c1.7-1.6,3.1-2.6,3.7-3c8.9-6.3,26.6-7,36.4,3.7c2.7,2.9,5.8,8.8,5.6,13c-0.3,6.7-4.7,10.2-9.3,12.3
			c-6.8,3-13.7,3.8-28.5,0.2l-4.4-1.9c-2-0.8-2.4-1.5-2.5-1.6c-0.7-0.3-2.7-0.2-3,0.4c-0.3,0.7,2.2,1.2,3,1.6
			c0.1,0.1,12.2,6.1,12.7,14.7c0.1,1-0.6,2.9-2.1,3.4c-1.6,0.3-3.9,0.6-7-2.7c-2.7-3-7.2-5.3-9.8-5.7c-1.7-5.5-4.2-11.3-7.5-16
			c0.3-1.5,0.9-2.9,1.6-4.4C667.2,291.3,668.6,291.6,670.3,291.6z M724.9,287.5l0.7-0.2c0.8-0.1,2-0.1,3.9,0.2c2.6,0.4,3.9,1,4.7,2
			c1.1,1.6,0.7,2.6,0.4,2.9c-0.3,0.7-1.3,1.1-1.7,1.2c-1.9,0.4-3.7,0.4-5.5,0.4c-0.8,0-1.5,0-2.2,0h-0.7c0.1-0.6,0.3-1.1,0.4-1.7
			C725.3,290.8,725.2,289.1,724.9,287.5z M719.7,276c0.8,0.1,1.6,0.1,2.4,0.2c3.3,0.2,6.3-0.2,7.6-0.4c-1.3,2.8-3.7,4.7-6.8,5.6
			C721.9,279.4,720.8,277.4,719.7,276z M681.7,372.5l-3.1-4.6c2.8-0.4,5.8-1.1,9-1.9C685.7,368.3,683.7,370.5,681.7,372.5z
			 M675.8,378.2c-2.8-3.6-4.9-7.1-6.2-9.3c1.9-0.1,4-0.2,6.3-0.6h0.4l3.9,5.8c-1,1-2,2-3.1,2.9L675.8,378.2z M711.5,393.3
			c2.5-0.4,4.5-0.2,5.5,0.9c0.6,0.7,0.9,1.5,0.8,2.5c-0.4,2.2-3.5,3.9-7.2,4.3c-13.4,1.2-20.4-5-22.3-7.3l4.6-4
			C696.2,392.8,703.3,394.8,711.5,393.3z M629.8,419.8c-22.7,5.4-47.3-4-61.8-15.8c-8-6.5-12.7-13.6-12.5-19
			c0.2-6.1,2.9-10,7.7-11.2c7.2-1.8,18.2,2.6,25.4,14.7c6.4,10.8,16,16.4,31.3,16.2c26-0.4,55.3-16.7,72.7-40.3
			c6.4-2,13.4-4.9,20.4-9C699.4,386.3,666.6,411,629.8,419.8z M718.8,348.5c-24,16.5-47.6,17.3-57.6,16.7c3.1-3.1,5.4-6.7,6.5-9.6
			c3.1-7.7,7.7-16,6.5-31.5c-0.2-2.6-0.8-6.5-2-10.8c1.9,0.7,4.7,2,6.7,4.3c2.8,3.1,5.7,4.3,8.1,4.3c0.9,0,1.7-0.1,2.4-0.4
			c2-0.9,3.3-2.8,3.1-5c-0.2-4.4-2.6-8.1-5.3-11c13.5,3.9,23.7,2.4,30-1.7c2.7-1.7,4.6-3.9,5.9-6.7l0.9-0.1h0.8c0.8,0,1.6,0,2.4,0
			c1.9,0,4,0.1,6.3-0.4c1.2-0.3,2.4-1.3,3-2.8c0.7-1.6,0.8-3.3,0-4.6c-1.2-2.6-4.5-3.1-6.7-3.5c-1.8-0.3-3.3-0.3-4.3-0.3l-1.3,0.1
			c-0.1-0.6-0.3-1.1-0.6-1.7c3.8-1.7,6.3-4.9,7.7-7.2c0.9-1.5,1-1.9,0.4-2.4c0,0-5.8,0.7-9.2,0.4c-1.5-0.1-3.7-0.9-5.6-1v0.1
			c-4.8-4.2-11.3-6.4-18.6-6.4c-0.1,0-0.2,0-0.3,0c-7.2,0-14.6,2.1-19.7,5.7c-1,0.8-3.9,2.9-7.1,5.9c-6.3,2.1-10.8,2.2-11.7,2.2
			l-1.2,0.2c-0.8,0-1.1,0.7-1.1,0.7c-0.3,0.7,1,2.4,1.5,3c0.9,1.5,2.5,3.1,4.6,4.6c-0.4,1-0.9,1.9-1.2,2.9c-2.4-2.5-4.9-4.4-8.1-5.3
			c2.2-4,4-8.1,3.4-12.7c-1.2-8.6-4.5-12.9-7.3-14.2c0-2.2,0-4.7-0.1-7c-0.2-4.4-0.8-8.2-1-9.8c2.8-3,5.4-6.7,7.4-10
			c8.8,3.1,16.6,5.6,23.3,7.4l-0.2,0.9c-0.2,1,0.4,2,1.3,2.2l8,1.8c0.1,0,0.2,0,0.4,0c0.9,0,1.6-0.6,1.8-1.5l0.2-0.9
			c0,0.6,0.1,1.1,0.2,1.7l7.5,16c13.8,7.4,42,9.5,52.6,10.2C749.2,303.2,739.7,334.1,718.8,348.5z M692.7,232.7l-2.7,11.8
			c-0.1,0.3-0.3,0.6-0.7,0.6h-0.1l-8-1.8c-0.3-0.1-0.6-0.4-0.6-0.8l2.7-11.8c0.1-0.3,0.3-0.6,0.7-0.6h0.1l8,1.8
			C692.5,231.9,692.8,232.4,692.7,232.7z M705.6,237.8l-0.3,2.5l0,0l3.3,7c0,0,0.7,4.6-2.9,4.7c-3.6,0.1-4.4-3.6-4.4-3.6l1.2-9.4
			h0.1l0.2-1.6l1.6,0.2v-0.1l0.6,0.1l0,0L705.6,237.8z M705.7,239.4l0.3-1.7l1.1,0.2l-0.3,1.7L705.7,239.4z M707.9,239.9l0.3-1.7
			l1.1,0.2l-0.3,1.7L707.9,239.9z M710,240.3l0.3-1.7l1.1,0.2l-0.2,1.7L710,240.3z M712.3,240.7l0.2-1.7l1.1,0.2l-0.2,1.7
			L712.3,240.7z M714.5,241l0.2-1.7l1.1,0.2l-0.2,1.7L714.5,241z M716.8,241.4l0.2-1.7l1.1,0.1l-0.2,1.7L716.8,241.4z M719,241.7
			l0.2-1.7l1.1,0.1l-0.2,1.7L719,241.7z M721.3,242l0.2-1.7l1.1,0.1l-0.2,1.7L721.3,242z M723.6,242.2l0.2-1.7l1.1,0.1l-0.2,1.7
			L723.6,242.2z M725.9,242.6l0.2-1.7l1.1,0.1l-0.2,1.7L725.9,242.6z M728.1,242.8l0.2-1.7l1.1,0.1l-0.2,1.7L728.1,242.8z
			 M730.3,243l0.2-1.7l1.1,0.1l-0.2,1.7L730.3,243z M732.6,243.3l0.1-1.7l1.1,0.1l-0.1,1.7L732.6,243.3z M734.8,243.4l0.1-1.7
			l1.1,0.1l-0.1,1.7L734.8,243.4z M737.1,243.6l0.1-1.7l1.1,0.1l-0.1,1.7L737.1,243.6z M739.4,243.7l0.1-1.7h1.1l-0.1,1.7
			C740.1,243.7,739.8,243.7,739.4,243.7z M760.1,241l0.3,1.7c-0.2,0-0.3,0.1-0.6,0.1l-0.3-1.7L760.1,241z M758.5,241.4l0.3,1.7
			c-0.3,0.1-0.8,0.1-1.1,0.2l-0.2-1.7C757.7,241.5,758.1,241.5,758.5,241.4z M741.7,243.8l0.1-1.7c0.3,0,0.8,0,1.1,0v1.7
			C742.5,243.8,742,243.8,741.7,243.8z M743.9,243.9v-1.7c0.3,0,0.8,0,1.1,0v1.7C744.7,243.9,744.3,243.9,743.9,243.9z M746.2,243.9
			v-1.7h0.6h0.6v1.7h-0.6H746.2z M748.4,242.2c0.3,0,0.8,0,1.1,0v1.7c-0.3,0-0.8,0-1.1,0V242.2z M754.2,243.6
			c-0.3,0-0.8,0.1-1.1,0.1L753,242c0.3,0,0.8,0,1.1-0.1L754.2,243.6z M751.8,242.1l0.1,1.7c-0.3,0-0.8,0-1.1,0l-0.1-1.7
			C751.1,242.1,751.4,242.1,751.8,242.1z M756.3,241.7l0.2,1.7c-0.3,0-0.8,0.1-1.1,0.1l-0.2-1.7
			C755.6,241.8,755.9,241.8,756.3,241.7z M744.2,196.8c3.1,8.9,5.6,20.9,7,34.2l-46.8-4.8l-10.4,6.8c0.2-1-0.4-2-1.3-2.2l-8-1.8
			c-0.1,0-0.2,0-0.4,0c-0.9,0-1.6,0.6-1.8,1.5l-0.1,0.2c-9.5-2.8-17.6-5.7-21.2-7.2l-1.5-1.8c3.8-8.6,4.8-15.7,5.4-19.2
			c3.4,1,7,1.9,10.1,2.7c11.1,2.8,14.6,6.7,22.1,10.4c2.8,1.3,5.9,2.1,3.3-0.3c-5.8-5.2-15.4-11-24.9-13.8
			c-6.2-1.8-14.5-3.6-17.7-5.8c-4.3-3-6.7-7.4-6.2-10.9c0.6-3.4,4.2-6.5,10.3-7.7c35.2-7.2,53.5,17.2,54.1,15.9
			c0.2-0.4-1.3-2.4-2.1-3.5c-10.7-13.6-35.1-20.6-52.2-15.8c-10.2,2.9-12.1,6.3-12.8,10.2v0.1c-0.3-0.9-0.9-2.1-1.6-2.2
			c-0.9-0.2-1.9,1.1-2.6,1.8c-1.1,1.1-2.7,3.1-8.1,5.9c-5.8-0.1-11.7-1.6-18-5.4c-0.6-0.3-1.3-0.4-2-0.3c-0.7,0.2-1.2,0.6-1.6,1.2
			c-5.9,10.8-21.9,18.1-29.8,15.9l-0.6,1.7l0,0c0.8-2,1-4.3,0.4-7c-0.8-3.8-1.7-5.3-4.8-6.5c-0.3-0.1-0.7-0.2-1.1-0.3
			c-0.1-4.8,1.8-10.4,4.5-14.8c9.1-15.1,23.6-26.6,40.5-33.7l0.8-0.4c1.6,3.3,4.5,7.6,8.8,7.6c0.4,0,0.9,0,1.5-0.2
			c0.2-0.1,0.4-0.1,0.7-0.3c0.4,1.7,1.8,2.9,3.7,3.7c1.8,0.8,4.2,1.1,6.8,1.1c3.7,0,7.9-0.8,11.2-2.1c3.5-1.5,5.7-3.4,6.6-5.7
			c0.3-0.8,0.6-1.1,0.7-1.5c2.1-0.1,4.7-0.8,7.2-2.7c3.1-2.6,6.2-4.2,8.6-5.3c2.6,0.6,4.9,1.1,7.3,1.9l14.2,6.3
			c1.8,1.1,3.6,2.4,5.5,3.8c-1.9,0.3-3.3,1.3-3.7,2.8c-0.3,1-1.6,4.3,6.8,11.1l0.6,0.6c8,6.8,15.6,11.1,22.3,13.8
			C737.9,181.7,741.3,189,744.2,196.8z M787.1,158.2c-6.4,11.9-17.3,15.9-30.1,17.6c-14.8,1.9-37.1-10-47.6-20.8c0,0-4.4-4.8,0.8-5
			c8.4-0.3,28.6,1.7,34.9,1.7c5.5,0,23.1-1.1,26.8-1.6C787.7,148.3,789.9,153,787.1,158.2z"/>
		<path class="st21" d="M623.6,168.3c-5,0.6-8.5,1.7-10.8,3.4c-4,3-2.8,6.7,1.7,7.3c4.5,0.6,4.8,0.9,9.1-2.2
			C628.1,173.4,628.7,167.7,623.6,168.3z"/>
		<path class="st21" d="M596,168.9c-2.8,0-5,2.2-5,5s2.2,5,5,5s5-2.2,5-5S598.7,168.9,596,168.9z"/>
		<path class="st21" d="M644,128.1c1.9,0.7,2,0.9,4.2-0.1c2.4-1,3-3.8,0.8-4.2c-2.2-0.2-3.9-0.1-5,0.4
			C641.7,125.3,642,127.5,644,128.1z"/>
		<path class="st21" d="M634.5,125c1.2,0,2.4-1,2.4-2.2c0-1.2-1-2.4-2.2-2.4s-2.4,1-2.4,2.2C632.3,124,633.3,125,634.5,125z"/>
		<path class="st21" d="M660.8,121.7c1.2,0,2.4-1,2.4-2.2s-1-2.4-2.2-2.4s-2.4,1-2.4,2.2C658.5,120.7,659.6,121.7,660.8,121.7z"/>
		<path class="st21" d="M700.5,291.5c-0.7,0.3-0.3,1.5,0.9,1.7c0.1,0,1.7,0.3,2.5,0.3c3.9-0.1,5-1.5,6.6-3.9c1,1.6,2.8,2.7,4.9,1.7
			c0.8-0.3,1.3-1.5,1.2-1.9c-0.2-0.4-0.7,0.1-1.1,0.3c-2.4,1-4.4-1.5-4.5-1.6c-0.1-0.2-0.3-0.3-0.7-0.3c-0.2,0-0.6,0.1-0.7,0.3
			c-2.8,4.2-7.5,3.5-7.7,3.5C701.2,291.6,701,291.3,700.5,291.5z"/>
		<path class="st21" d="M695.6,283.8c0.1,0,0.8,0.4,2,0.4c0.3,0,1.5-0.1,1.8-0.2c1.7-0.3,2.8-1.9,2.8-2.7c0-0.4-0.3-0.6-0.8-0.2
			c-0.6,0.3-1.8,1.2-2.9,1.3c-1.7,0.2-2.5,0.1-2.7,0C695,282.4,694.9,283.4,695.6,283.8z"/>
		<path class="st21" d="M715.7,282.9c1.5,0,1.9-0.8,2.2-1.5c0.2-0.4,0-0.6-0.4-0.4c-0.6,0.2-1.3,0.4-2.1,0.2
			c-1.2-0.2-1.8-0.6-1.9-0.7c-0.6-0.3-1,0.7-0.6,1.1C713,281.6,713.9,282.9,715.7,282.9z"/>
		<path class="st21" d="M708.8,286.6c1,0.2,1.3,0.1,2.2-1s0.9-1.9-0.8-2.2c-0.9-0.2-2.1-0.2-3.7,0.4
			C705.1,284.3,706.9,286.1,708.8,286.6z"/>
		<path class="st21" d="M650.3,160.7c0.2-1.3,5.7-3.5,4.8-4.5c-0.6-0.7-2.4-1.2-4.8-0.1c-1.3,0.7-8.4,6.7-8.8,7.9
			c-1.2,3.8,8.4,0.9,11.4-0.3c2.1-0.9,4-1.9,4.7-3.8C658.2,158.9,650.2,161.8,650.3,160.7z"/>
		<path class="st21" d="M600.6,222.6c2.6,0.3,2.8,0.4,5.2-1.2c2.6-1.9,2.9-5.2,0-4.8s-4.8,1-6.2,1.9
			C597.3,220.1,598.1,222.3,600.6,222.6z"/>
		<path class="st21" d="M618,211.3c1.3-0.8,1.6-1.2,1.9-2.6c0.1-0.7-4.8,1.3-4.8,0.7c0-0.9,3.4-2.1,2.7-2.8
			c-0.4-0.3-2.6,0.6-4.2,1.8c-0.8,0.7-1.5,1-1.6,1.8C611.5,212.7,616.1,212.3,618,211.3z"/>
		<path class="st21" d="M592.1,218.1c0.4,0.4-4,2.4-3.5,2.9c0.7,0.8,1.6,0.8,2.9,0.3c2-0.7,5.6-5,3-4.9c-2.4,0.1-6.5,0.3-6.6,2.1
			C588,219.5,591.6,217.6,592.1,218.1z"/>
		<path class="st21" d="M590.5,230c-0.2,0.6,0,1.1,0.6,1.3c1,0.4,1.9,0.7,2.9,0.7c1.7,0,3.3-0.7,4.7-1.6c0.8,0.6,2.1,1.3,4,1.3
			c0.1,0,0.2,0,0.2,0c2.9-0.1,5.8-2,8.8-5.6c4.2-0.3,8.5-1.9,10.9-6.4c0.2-0.4,0.9-1.9,0.3-2.2c-0.2-0.1-3.6,4.5-8.4,5.8
			c-4.8,1.5-11.6,0.1-11.7,0.1c-0.4-0.1-0.9,0.1-1.1,0.4c0,0-2,3.8-5.2,5.5C594.5,230.6,590.7,229.8,590.5,230z M603.2,225.5
			c1.1,0.2,3.3,0.6,5.7,0.7c-2.1,2.2-4.2,3.5-6.1,3.5c-1.1,0-1.9-0.2-2.5-0.6h-0.1C601.5,228,602.4,226.7,603.2,225.5z"/>
		<polygon class="st21" points="703.2,241.2 702.7,245.8 706.2,246 704.4,241 		"/>
		<polygon class="st21" points="704,239.2 704.5,239.3 704.8,237.6 704.3,237.5 		"/>
		<path class="st21" d="M690.5,232.9l-4.9-1.2h-0.1c-0.3,0-0.6,0.2-0.7,0.6l-2.1,9.2c-0.1,0.3,0.1,0.8,0.6,0.8l4.9,1.2h0.1
			c0.3,0,0.6-0.2,0.7-0.6l2.1-9.2C691.2,233.4,691,232.9,690.5,232.9z"/>
	</g>
</g>
<path class="st26" d="M748.4,243.6c-0.2-0.7-0.6-1.3-0.9-1.9c-0.3-0.6-0.8-1.2-1.2-1.7c-0.4-0.6-1-1-1.6-1.5
	c-0.6-0.4-1.1-0.8-1.8-1.1c-1.3-0.7-2.7-1.1-4.2-1.2c-1.5-0.1-2.9,0.1-4.4,0.6c-0.7,0.2-1.3,0.6-1.9,0.9c-0.6,0.3-1.2,0.8-1.7,1.2
	c-0.4,0.4-1,1-1.5,1.6c-0.4,0.6-0.8,1.1-1.1,1.8c-0.7,1.3-1.1,2.7-1.2,4.2c-0.1,1.5,0.1,2.9,0.6,4.4c0.2,0.7,0.6,1.3,0.9,1.9
	c0.3,0.6,0.8,1.2,1.2,1.7c0.4,0.6,1,1,1.6,1.5c0.6,0.4,1.1,0.8,1.8,1.1c1.3,0.7,2.7,1.1,4.2,1.2s2.9-0.1,4.4-0.6
	c0.7-0.2,1.3-0.6,1.9-0.9c0.6-0.3,1.2-0.8,1.7-1.2c0.6-0.4,1-1,1.5-1.6c0.4-0.6,0.8-1.1,1.1-1.8c0.7-1.3,1.1-2.7,1.2-4.2
	C749.1,246.4,748.9,244.9,748.4,243.6z M728.3,246.4c0.1-1.5,0.6-2.7,1.1-3.9l3.7,13C730,253.7,728,250.2,728.3,246.4z M737.3,256.8
	c-1-0.1-1.9-0.2-2.7-0.6l3.6-8.3l2.4,8.4c0,0,0,0.1,0.1,0.1C739.6,256.8,738.4,256.9,737.3,256.8z M739.7,242.6c0.6,0,1.1,0,1.1,0
	c0.6,0,0.6-0.8,0-0.8c0,0-1.6,0-2.6-0.1c-1-0.1-2.6-0.3-2.6-0.3c-0.6-0.1-0.7,0.7-0.1,0.8c0,0,0.4,0.1,1,0.2l1.2,4.3l-2.6,6.2
	l-2.8-10.8c0.6,0,1.1,0,1.1,0c0.6,0,0.6-0.8,0-0.8c0,0-1.6,0-2.6-0.1c-0.2,0-0.4,0-0.7-0.1c1.9-2.5,5-4,8.4-3.8
	c2.6,0.2,4.7,1.3,6.4,3h-0.1c-1-0.1-1.7,0.7-1.8,1.6c-0.1,0.8,0.3,1.5,0.8,2.4c0.3,0.7,0.7,1.6,0.6,2.7c-0.1,0.8-0.4,1.8-0.9,3.1
	l-1.2,3.1L739.7,242.6z M747.7,247.9c-0.2,3.6-2.5,6.6-5.5,8.1l3.6-8.4c0.7-1.3,0.9-2.5,1-3.5c0-0.3,0-0.7,0-1
	C747.5,244.5,747.9,246.2,747.7,247.9z"/>
</svg>
