<svg xmlns="http://www.w3.org/2000/svg" viewBox="0 0 735.99 520"><defs><style>.a{fill:#fff8e6;}.b{fill:#444;}</style></defs><title>logo</title><circle class="a" cx="367.99" cy="260" r="260"/><path class="a" d="M442.18,428.83a9.77,9.77,0,0,1-7.37-3.43,10.13,10.13,0,0,1-1.73-.61,9.83,9.83,0,0,1-4.35,1,9.52,9.52,0,0,1-3.18-.53,12.55,12.55,0,0,1-4,.63,11.14,11.14,0,0,1-9.88-5.3l-.27.48a9.39,9.39,0,0,1-8.12,4.72,9.68,9.68,0,0,1-5.12-1.46,11.38,11.38,0,0,1-5.73,1.46,11.9,11.9,0,0,1-3.14-.41,13.1,13.1,0,0,1-3.6.51,12.49,12.49,0,0,1-4.36-.76,11.87,11.87,0,0,1-4,.66,11.54,11.54,0,0,1-4.82-1,9.8,9.8,0,0,1-4.35,1,9.66,9.66,0,0,1-2.77-.4,12.2,12.2,0,0,1-3.13.4,11.88,11.88,0,0,1-3.13-.41,13.17,13.17,0,0,1-3.61.51,12.37,12.37,0,0,1-7.13-2.2,11.21,11.21,0,0,1-6.72,2.1,11.54,11.54,0,0,1-4.82-1,9.83,9.83,0,0,1-4.35,1,9.52,9.52,0,0,1-3.18-.53,12.55,12.55,0,0,1-4,.63,11.8,11.8,0,0,1-6.65-1.91,15.45,15.45,0,0,1-7.41,1.81,14.46,14.46,0,0,1-11.76-5.55,9.45,9.45,0,0,1-8.73,5.58,9.77,9.77,0,0,1-4-.82,18.35,18.35,0,0,1-5.92.89,15.31,15.31,0,0,1-7.77-2.08,14.35,14.35,0,0,1-7.53,2.08,13.06,13.06,0,0,1-4.92-.93,12.15,12.15,0,0,1-9-.06,9.82,9.82,0,0,1-7.65.22,10,10,0,0,1-7.5-.13,18.2,18.2,0,0,1-5.94.9,15.3,15.3,0,0,1-6.92-1.62,15.73,15.73,0,0,1-7.1,1.52,15.38,15.38,0,0,1-6.51-1.37,17.11,17.11,0,0,1-7.35,1.47,15.14,15.14,0,0,1-9-2.91,19.15,19.15,0,0,1-9.75,2.57h-6.75a9.5,9.5,0,0,1-7-2.95c-.2.19-.41.38-.63.56a11.15,11.15,0,0,1-7.41,2.63,11.57,11.57,0,0,1-4.82-1,9.79,9.79,0,0,1-4.34,1,9.53,9.53,0,0,1-5.93-2,20.7,20.7,0,0,1-9.21,2c-10.93,0-18.9-7.87-19-18.71a19.61,19.61,0,0,1,7.5-15.48l.09-.07a10.26,10.26,0,0,1,6.08-2.07,9.64,9.64,0,0,1,3.59.68,16.07,16.07,0,0,1,4.67-.68,15.74,15.74,0,0,1,13.14,7,10.54,10.54,0,0,1,1.71.31,12.51,12.51,0,0,1,2.94-.35,12.11,12.11,0,0,1,5.25,1.15c2.27-4.79,7.31-7.89,13.6-7.89h5.83c7,0,12.12,3,15.27,7.22a15.28,15.28,0,0,1,3.88-.48,15,15,0,0,1,7.26,1.74,15.26,15.26,0,0,1,7.2-1.74,13.79,13.79,0,0,1,6.55,1.59,15.2,15.2,0,0,1,6.86-1.59,15.66,15.66,0,0,1,5.73,1,9.93,9.93,0,0,1,7-.68,10.94,10.94,0,0,1,2.65-.34,12.25,12.25,0,0,1,3.48.48,12.31,12.31,0,0,1,3.37-.48c.54-6.42,4.94-10.48,11.52-10.48h.27a9.27,9.27,0,0,1,9.45,9.51,9.84,9.84,0,0,1-.29,2.39l.3.16a15.29,15.29,0,0,1,6.86-1.58,15.7,15.7,0,0,1,5.73,1,9.8,9.8,0,0,1,4.38-1,10.17,10.17,0,0,1,2.49.31,10.77,10.77,0,0,1,8.48,1.46l2.37-4a9.62,9.62,0,0,1,8.23-4.74,9.43,9.43,0,0,1,8,4.22,9.77,9.77,0,0,1,2.94-.44h.39c1.53-4.54,5.47-7.28,10.87-7.28h.27a9.27,9.27,0,0,1,9.45,9.51,10.11,10.11,0,0,1-.29,2.43,10.87,10.87,0,0,1,3.17,2.67,13.67,13.67,0,0,1,9.89-4.13,12.79,12.79,0,0,1,2,.16,10.57,10.57,0,0,1,1.8-.16,9.87,9.87,0,0,1,3.67.7,10.07,10.07,0,0,1,6.32-.35,12.66,12.66,0,0,1,3-.35,11.84,11.84,0,0,1,6.46,1.83,13.16,13.16,0,0,1,1.18-.61v-2.22a9.58,9.58,0,0,1,17.69-5.05,9.65,9.65,0,0,1,3.63-.69h10a9.69,9.69,0,0,1,7.24,3.05c1.64-4.24,5.49-6.79,10.69-6.79h.27a9.27,9.27,0,0,1,9.45,9.51,10.11,10.11,0,0,1-.29,2.43,11.06,11.06,0,0,1,4.66,5.06c.21-7.73,6.36-13.5,14.47-13.5a14.91,14.91,0,0,1,8.33,2.46,14.49,14.49,0,0,1,8.15-2.46,14.82,14.82,0,0,1,5.89,1.21,9.39,9.39,0,0,1,4.16-1h1.61a13.9,13.9,0,0,1,6.41,1.36,15.52,15.52,0,0,1,7-1.6c6.31,0,11.34,3.39,13.52,8.61a13.75,13.75,0,0,1,6.57-1.63,12.69,12.69,0,0,1,2,.16,10.76,10.76,0,0,1,1.8-.16,10.59,10.59,0,0,1,1.5.11,9.7,9.7,0,0,1,14.61,0,19.12,19.12,0,0,1,4.48-5l.09-.06a10.2,10.2,0,0,1,6.08-2.08,9.73,9.73,0,0,1,3.6.68,16.05,16.05,0,0,1,4.66-.68,15.75,15.75,0,0,1,13.15,7c.38,0,.76-.05,1.14-.05a13.6,13.6,0,0,1,6,1.39,13.78,13.78,0,0,1,6.11-1.39,13.09,13.09,0,0,1,1.69.11c.49-6.48,4.91-10.59,11.52-10.59h.27a9.27,9.27,0,0,1,9.45,9.51,9.77,9.77,0,0,1-.3,2.44l.16.09a13.8,13.8,0,0,1,6.44-1.56,12.79,12.79,0,0,1,2,.16,10.57,10.57,0,0,1,1.8-.16,9.42,9.42,0,0,1,9.55,9.48V409a9.42,9.42,0,0,1-.73,14.11,11.09,11.09,0,0,1-7.41,2.64,11.83,11.83,0,0,1-3.13-.41,13.17,13.17,0,0,1-3.61.51,12.46,12.46,0,0,1-4.48-.81,11.17,11.17,0,0,1-4,.71,11.44,11.44,0,0,1-4.28-.77,9.95,9.95,0,0,1-6.63.37,12.22,12.22,0,0,1-3.14.4,11.9,11.9,0,0,1-3.14-.41,13.17,13.17,0,0,1-3.61.51,12.41,12.41,0,0,1-5.29-1.15,13.14,13.14,0,0,1-12.89-1.21,20.59,20.59,0,0,1-9.69,2.26,19.31,19.31,0,0,1-12-3.94l-.09.09a12.16,12.16,0,0,1-9.1,3.95,12.36,12.36,0,0,1-4.91-1,11.68,11.68,0,0,1-4.52.87,11.9,11.9,0,0,1-3.14-.41,13.17,13.17,0,0,1-3.61.51,12.35,12.35,0,0,1-10.7-6l-.71,1.2a9.64,9.64,0,0,1-13.22,3.39,9.8,9.8,0,0,1-11.19-.88,14.59,14.59,0,0,1-7.83,2.23,14.85,14.85,0,0,1-6.16-1.33,9.45,9.45,0,0,1-4.42,1.09h-11a9.74,9.74,0,0,1-4.24-.95,9.77,9.77,0,0,1-5.24,3.86l-.19.05A9.25,9.25,0,0,1,442.18,428.83ZM541,369c-10.26,0-19.07-3.48-25.49-10.06-6.74-6.91-10.29-16.83-10.29-28.71a68.94,68.94,0,0,1,.5-8.08,86.63,86.63,0,0,1-14.56,16.66h2.57A12.85,12.85,0,0,1,504,343.34a13.26,13.26,0,0,1,2.55,11.1,1.77,1.77,0,0,1,0,.2,15.87,15.87,0,0,1-15.38,12.62H442.52A13,13,0,0,1,432,362.54a11.76,11.76,0,0,1-2.31-5.09,18,18,0,0,1-5.22,5.64,25,25,0,0,1-15.79,5.2c-5.36,0-9.76-1.53-12.88-4.3a34.38,34.38,0,0,1-17.12,4.75c-10,0-15.75-4.55-18.84-8.38-.38-.47-.74-1-1.08-1.46-4.27,6.15-11.88,9.39-18.46,9.39-10.25,0-14.61-4.55-19.5-13.52a2.91,2.91,0,0,1-.18-.35q-.18-.35-.33-.69l-.39,1.83A16,16,0,0,1,304,368.29a13.28,13.28,0,0,1-10.41-4.73c-.21-.26-.41-.53-.6-.8l-.45.33a25,25,0,0,1-15.78,5.2c-5.37,0-9.77-1.53-12.89-4.3a34.32,34.32,0,0,1-17.11,4.75c-10,0-15.75-4.55-18.84-8.38a24.07,24.07,0,0,1-4.18-7.87c-6.16,9.55-17.8,15.8-30.83,15.8-9.68,0-21.75-4.92-25-14,0-.1-.07-.21-.1-.31a16.1,16.1,0,0,1,14.83-20.3,13.19,13.19,0,0,1,7.62,2.42,23.07,23.07,0,0,1,2.62,2.19c1.5,1.39,1.73,1.57,2.9,1.57a7.52,7.52,0,0,0,2.58-.35c-1.08-1.49-5-4.05-7.74-5.79-5.45-3.52-13-8.4-17.58-16-11.28,32-37.46,50.74-72.09,50.74-18.62,0-33.44-6.15-42.87-17.78s-12.45-27.64-8.56-46a76,76,0,0,1,4.8-14.77,10.78,10.78,0,0,1-7,2.54h-.61L40.13,292a10.81,10.81,0,0,1-6.21-19.2A10.81,10.81,0,0,1,42.12,255a11.33,11.33,0,0,1,2,.19,11.63,11.63,0,0,1-.19-1.88,10.81,10.81,0,0,1,18.36-7.88L69,252a10.82,10.82,0,0,1,1.54,13.6,83.87,83.87,0,0,1,14.2-11.93l.45-.28c2.14-1.22,6.38-3.26,10.78-3.26a13.61,13.61,0,0,1,10.86,5,13,13,0,0,1,2,3.52,50,50,0,0,1,28.68-8.82c13,0,23.74,4.82,31.1,14a41.46,41.46,0,0,1,8,16.86A43,43,0,0,1,212,262.74c10.77,0,19.8,3.81,25.43,10.75s7.41,16.17,5.28,26.36a16.93,16.93,0,0,1-.8,2.59,38.78,38.78,0,0,1,24.23-9,21.43,21.43,0,0,1,9.19,1.87,16.47,16.47,0,0,1,7.75-1.87,13.37,13.37,0,0,1,10.69,4.7,13.1,13.1,0,0,1,2.33,11.21l-6.12,28.76a11.69,11.69,0,0,1,3.91,1.46l14.7-69.2c3.4-16,11.68-23.12,26.83-23.12h1a12.89,12.89,0,0,1,10.4,4.65c1.39,1.75,3.51,5.56,2.17,11.45a15.5,15.5,0,0,1-12.09,12.36l-4,18.82a35.64,35.64,0,0,1,8.85-1.09c8.83,0,13.7,3.68,16.23,6.76,3.47,4.24,4.75,10.08,3.63,16.52,8.11-14.12,21.73-23.28,36.35-23.28a21.46,21.46,0,0,1,9.19,1.87,16.4,16.4,0,0,1,7.74-1.87,13.38,13.38,0,0,1,10.7,4.7,13.1,13.1,0,0,1,2.32,11.21l-6.11,28.76a11.69,11.69,0,0,1,6.92,4,12.6,12.6,0,0,1,2.6,5.39c2.86-5.24,8.35-7.09,12.6-8.51,7.05-2.47,14.9-7.2,21.9-13.05a14.25,14.25,0,0,1-6.09,1.44,13.28,13.28,0,0,1-9.38-3.68c-7.48-7.48-10.37-17.71-8.12-28.78l0-.11C446.4,276,463.54,262.74,484,262.74c10.63,0,19.62,3.86,25.31,10.89a28.77,28.77,0,0,1,6.22,17.29c9.7-17.73,25.17-27.5,44.55-27.51,9.14,0,17.34,4.32,23.08,12.17.54.73,1,1.48,1.53,2.26.05-.36.11-.73.18-1.1,0-.07,0-.14,0-.21,1.66-7.27,8.21-12.75,15.23-12.75h7.43c6.58,0,14,.47,18.55,6.09,2.79,3.44,3.64,7.65,3.38,12.64A43.14,43.14,0,0,1,655.79,264a11.37,11.37,0,0,1-.93-1,13.78,13.78,0,0,1-2.49-11.8l6.06-28.41A26.85,26.85,0,0,1,644,226.59c-7,0-12.36-2.2-15.86-6.54-3.8-4.7-4.83-11.32-3-19.66l5.12-24.67c-3.18,2.86-7,8.52-9.05,18.43l-4.1,19c-1.89,8.84-10,13.47-17,13.47a14.11,14.11,0,0,1-11.11-5,13.8,13.8,0,0,1-2.5-11.82l7.39-34.61c-2.91,2.28-6.19,6.75-8.32,14.2l-5.06,23.59a17.14,17.14,0,0,1-17,13.65,14.1,14.1,0,0,1-11-5c-.25-.31-.49-.63-.71-1l-.29.21A27.67,27.67,0,0,1,534,226.59c-6.28,0-11.29-1.84-14.66-5.2a38.27,38.27,0,0,1-19.74,5.71c-11,0-17.31-5-20.69-9.17a25.54,25.54,0,0,1-2.66-4,30.85,30.85,0,0,1-3,3.7c-9.08,10-27.3,20.78-51,20.78-17.58,0-31.85-6.14-41.24-17.75a46.2,46.2,0,0,1-5.4-8.39,18.71,18.71,0,0,1-6.82,8.6,27.67,27.67,0,0,1-17.43,5.75c-6.28,0-11.29-1.84-14.66-5.2a38.27,38.27,0,0,1-19.74,5.71c-11,0-17.31-5-20.69-9.17-5.81-7.19-7.59-17.78-5-29.8a65.82,65.82,0,0,1,3.23-10.68,12.4,12.4,0,0,1-1.49.08,12.64,12.64,0,0,1-8.61-3.24c-3.2,1.76-9.16,10.23-11.54,18.92l-4.21,19.88a17.06,17.06,0,0,1-16.86,13.67,14.3,14.3,0,0,1-11.21-5A14,14,0,0,1,238,209.81l.61-2.9c-9.21,12.26-23.76,19.68-40.42,19.68-12.59,0-23.07-4.4-29.51-12.38-4.46-5.52-9.08-15.37-5.73-30.86.11-.52.23-1,.35-1.55l-21.07,35.43c-3.63,6-9.09,9.36-15.4,9.36-7.37,0-12.8-4.67-14.17-12.19,0,0-2.53-15.06-2.53-15.06L99.47,217.18c-3.45,6-9,9.41-15.26,9.41-7.52,0-12.69-4.42-14.16-12.13,0-.1,0-.2,0-.31l-8-53.31c-2.89-19.05-4.69-22.65-11.34-22.65-8.56,0-11.15,6.17-11.93,9.85-.66,3.31.79,6.92,2.32,9.13,1.72,2,3.86,5.78,2.86,11.8l-.09.47c-1.71,7.5-9,13.37-16.49,13.37a13.26,13.26,0,0,1-9.7-3.83c-8.57-8.37-12.07-21.16-9.38-34.23a46.3,46.3,0,0,1,45.48-36.87c28.31,0,35.55,16.85,40.29,52.25l.86,6.52,7.36-12.47-4.57-27.3a13.81,13.81,0,0,1,.16-5.75c1.75-8.42,10.21-13.42,17.38-13.42a13.16,13.16,0,0,1,11.37,5.88,16.85,16.85,0,0,1,12.82-5.88,15.05,15.05,0,0,1,11.61,5.4,13.37,13.37,0,0,1,2.69,11.22,16,16,0,0,1-2.24,5.16l-16.62,27.8,1.91,10.94,31-52.5.17-.28a16.37,16.37,0,0,1,13.87-7.74,15.49,15.49,0,0,1,12,5.51,13.08,13.08,0,0,1,2.68,11.11,15.34,15.34,0,0,1-1.28,3.56l-.1.22a7,7,0,0,1-.6,1.23l-15.58,26.19a50.23,50.23,0,0,1,33.57-12.39c12.56,0,23,4.38,29.45,12.34a30.39,30.39,0,0,1,5.41,10.23l1.89-8.91a17,17,0,0,1,16.85-13.66,14.36,14.36,0,0,1,11,4.75,26.69,26.69,0,0,1,14.4-4.75c7.92,0,12.32,3.39,14.62,6.23a15.52,15.52,0,0,1,3.05,6.31c8.47-7.88,19-12.54,30-12.54a26.85,26.85,0,0,1,5.52.54l8.45-40,.06-.22A17.34,17.34,0,0,1,369.91,90a14.16,14.16,0,0,1,11.28,5.15,13.82,13.82,0,0,1,2.32,11.93L365,194.18a12.39,12.39,0,0,1,5.47,1.8,79,79,0,0,1,1.19-28.58c8.45-40.17,40.68-69.35,76.63-69.35,14.73,0,26.83,4.92,34.07,13.85,6.32,7.81,8.5,18.3,6.12,29.53a51.72,51.72,0,0,1-22.27,32.18,18.58,18.58,0,0,1-10.08,3.29A13.75,13.75,0,0,1,442.32,160a2,2,0,0,1,.05-.24c.94-4.07,3.21-7.46,7.12-10.66,3.74-3.14,6.68-5.93,7.66-10.63.41-2,.6-4.69-.85-6.48-1.62-2-5.35-3.13-10.22-3.13-19.26,0-36.36,17-41.57,41.36-2.66,12.65-1.29,23.14,3.87,29.5,4,5,10.48,7.5,19.13,7.5,11.07,0,16.56-4,24.29-10.54l.09-.07c4.63-3.81,9.15-5.74,13.43-5.74a13.76,13.76,0,0,1,7.69,2.28c.19-1.64.47-3.33.83-5,5.54-26.07,25.67-45,47.85-45a23,23,0,0,1,10.6,2.28,17.6,17.6,0,0,1,8.82-2.28,14.21,14.21,0,0,1,11.35,5A13.9,13.9,0,0,1,554.89,160l-7.27,34.21a12.43,12.43,0,0,1,5.11,1.59L561,156.63a17,17,0,0,1,16.85-13.49,14.4,14.4,0,0,1,10.89,4.63c5.16-2.91,10.66-4.63,15.51-4.63,7.67,0,12.93,2.41,16.3,5.94a34.89,34.89,0,0,1,19-5.94,23.15,23.15,0,0,1,18.2,8.24c4.51,5.55,6,13.19,4.27,21.51l-4.54,21.29a12.44,12.44,0,0,1,6.5,2.52L672.46,157a17.06,17.06,0,0,1,16.86-13.65,14.51,14.51,0,0,1,10.22,3.95,36.68,36.68,0,0,1,16.86-4.12c10.92,0,17.26,5,20.65,9.1,5.84,7.16,7.7,17.74,5.24,29.8-5.56,26.13-25.75,45.06-48,45.06a28.16,28.16,0,0,1-5.33-.46L683,254.48a16.88,16.88,0,0,1-5.81,9.59,28.64,28.64,0,0,1,15.06,9.53c5.81,7.16,7.72,17.23,5.39,28.34-1,4.79-2.95,9.24-7.3,15.67a11.94,11.94,0,0,1,4.94-1.07h.56c.12-.3.26-.59.41-.88a9.86,9.86,0,0,1,3.53-3.72,9.61,9.61,0,0,1,6.92-3,10.84,10.84,0,0,1,3.12.47,11.22,11.22,0,0,1,6.85,6.17c0,.06.05.12.08.19a10.86,10.86,0,0,1,8.08,3.56l0,0c3.35,2.55,5.41,7.72,2.2,13.39a17,17,0,0,1-2.6,3.52,12.56,12.56,0,0,1-2,10.95,7.85,7.85,0,0,1-1.56,1.54,13.75,13.75,0,0,1-4.91,2.31,12.61,12.61,0,0,1-2.78.3,12.37,12.37,0,0,1-5.85-1.47,13.7,13.7,0,0,1-6.84,2.43,9.37,9.37,0,0,1-5.35,7.17c-.39.19-.77.36-1.16.51a10.24,10.24,0,0,1-5.6,4.61,8.07,8.07,0,0,1-2.17.4h-.38a10.68,10.68,0,0,1-4-.74,10.48,10.48,0,0,1-4.09-3,10.2,10.2,0,0,1-6.28-3.77,10,10,0,0,1-.71-10.31,10.64,10.64,0,0,1,.87-1.55c0-.2-.06-.4-.08-.6a10.05,10.05,0,0,1,.42-3.83l-16.57,20.53a16.17,16.17,0,0,1-12.68,6.48c-5.66,0-8.83-2.44-10.5-4.48A12.14,12.14,0,0,1,630,353.45c0-.22.1-.44.16-.66a21.86,21.86,0,0,1,3.58-7.06l8-10a24.67,24.67,0,0,1-13.5-8.53,27.85,27.85,0,0,1-5.34-10.91l-8.4,39.27a15.78,15.78,0,0,1-15.55,12.71,13.62,13.62,0,0,1-10.7-4.82,13.14,13.14,0,0,1-2.48-11.18l12.67-59.74h-1.12a12.52,12.52,0,0,1-7.55-2.43,58.44,58.44,0,0,1,1.61,13.94,75.69,75.69,0,0,1-1.3,13.66c-3,16.07-8.94,28.79-17.73,37.8A43,43,0,0,1,541,369ZM252.84,336.54a11.51,11.51,0,0,0-.24,3.49c4-.78,8.91-6.92,10.48-13.4a8.63,8.63,0,0,1,.35-1.09v0a9.18,9.18,0,0,0,.08-3.38C259.22,322.45,254.59,328.66,252.84,336.54Zm131.88,0a12,12,0,0,0-.25,3.49c4-.78,8.92-6.93,10.49-13.4a6.6,6.6,0,0,1,.35-1.09v0a9.18,9.18,0,0,0,.08-3.38C391.1,322.45,386.47,328.66,384.72,336.54Zm-35.67.31a13.8,13.8,0,0,1,5.46,1.11c.18-1.45.42-2.93.74-4.44.42-2,.94-3.91,1.54-5.79a38.79,38.79,0,0,1-9.5,9.26A10.92,10.92,0,0,1,349.05,336.85ZM89.52,291.41a44.22,44.22,0,0,0-7.14,16.48c-2.07,9.57-.92,17.61,3.22,22.74,3.75,4.64,10,7,18.58,7,27.87,0,36.83-22.5,39.69-35.91,1.69-7.77.68-15.38-2.58-19.42-1.8-2.23-4.17-3.27-7.48-3.27-6.38,0-10.68,3.68-12.1,10.36l0,.15a10.1,10.1,0,0,0,2.44,8.52,13.47,13.47,0,0,1,3.5,12.85c-1.78,7.7-9.42,13.94-17.14,13.94a14.15,14.15,0,0,1-9.06-3.14c-.23-.17-.44-.35-.65-.54A37.2,37.2,0,0,1,89.52,291.41ZM683.74,326.6q-2.16,2.79-4.78,6l-2.61,3.24a9,9,0,0,1,4-1.12h.52a10.34,10.34,0,0,1,4.14.83,9,9,0,0,1,2-.37c-.23-.24-.45-.48-.66-.73A11.42,11.42,0,0,1,683.74,326.6ZM209.29,291.66c-6.06,0-9.53,3.72-10.28,7.41-.54,2.52,2.42,5,9.7,10,5.62,3.86,13,8.92,17,16.45a55.51,55.51,0,0,1,7.58-14.09,16.14,16.14,0,0,1-6.45,1.33A13.6,13.6,0,0,1,216,307.82a13.18,13.18,0,0,1-2.39-11.28,4.85,4.85,0,0,0-.44-3.77C212.63,292.06,211.2,291.66,209.29,291.66Zm266,22.78a15.87,15.87,0,0,1-1.57,4.11c6-6.47,10.48-13.61,11.94-20.33.51-2.59.32-4.65-.52-5.68-.69-.84-2.14-1.33-4-1.33-4,0-8.61,2.2-9.72,7.12-.55,2.55,0,3.25.3,3.51A12.83,12.83,0,0,1,475.26,314.44Zm188.56-23.23c-4.79,0-10.52,2.83-12.23,10.77-.59,2.67-.42,4.82.46,5.91s2.39,1.48,4.49,1.48c4.91,0,10.6-3.34,12.24-10.79.57-2.65.39-4.8-.49-5.89S665.91,291.21,663.82,291.21Zm-606-12.1a10.72,10.72,0,0,1,.28,3.06s0,.06,0,.09a85.66,85.66,0,0,1,10-14.06,10.88,10.88,0,0,1-4.94,2.16,10.74,10.74,0,0,1-5.36,8.75Zm638.61-82.53a2.55,2.55,0,0,0,.51,0c5.63,0,11.61-7.67,13.62-17.45.69-3.14.43-4.9.2-5.55h-.19c-5.46,0-12.12,8.09-14,17l-.31,1.43C695.88,194.72,696.24,196.15,696.47,196.58Zm-191.13,0c5.26,0,11.95-7.8,14-16.37a6.92,6.92,0,0,1,.35-1.09l.06-.15c.6-3.35,0-5-.23-5.36a2.62,2.62,0,0,0-.41,0c-5.67,0-11.6,7.51-13.8,17.48-.61,3.09-.32,4.86-.07,5.52Zm-182.61,0c5.49,0,12.31-8.11,14.32-17,.78-3.74.16-5.54-.11-5.94a2.62,2.62,0,0,0-.41,0c-5.67,0-11.6,7.51-13.8,17.48-.61,3.09-.32,4.86-.07,5.52Z" transform="translate(-7.36 -0.46)"/><path class="a" d="M104.18,345.63c27.76,0,42.58-19.08,47.52-42.24,3.41-15.67-1.87-32.36-17.88-32.36-10.22,0-17.72,6.3-19.93,16.69a18.09,18.09,0,0,0,4.43,15.84,5.58,5.58,0,0,1,1.53,5.45c-.85,3.92-5.11,7.84-9.37,7.84a6.27,6.27,0,0,1-4.26-1.54C98.9,308.5,96,297.77,98.05,288.23c3.92-18.39,20.78-30.49,39.51-30.49,25.38,0,36.28,22.15,31.17,45.65-7.66,36.28-33.21,57.06-67.79,57.06-33.21,0-50.41-22-43.6-54.16C61.43,287,74,270.35,89.19,260.3A15.16,15.16,0,0,1,96,258.09c4.25,0,6.47,3.23,5.61,7.15a13,13,0,0,1-4.25,6c-10.56,9.2-19.76,20.1-22.83,35.09C70,327.58,78.8,345.63,104.18,345.63Zm87-48.16C187.46,315,225,317.37,220,341.14c-2.53,11.88-14.71,19.16-27,19.16-6.83,0-15.59-3.42-17.52-8.77-1.78-5.64,5.2-12.47,10.25-8.91,2.37,1.63,4.3,5.2,10.1,5.2,6.23,0,9.8-2.67,10.54-6.68,3.12-14.26-34.46-16-28.66-43.37,3.56-16.49,18.12-27,34.31-27,16.93,0,26.28,11.13,22.87,27.47a8.09,8.09,0,0,1-8,6.54c-3.86,0-6.24-2.68-5.35-6.54,1.49-7.28-1.93-14.55-12.18-14.55C199.34,283.66,192.66,290.19,191.17,297.47Zm89.05,48c-.45,2.38,0,3,1,3a5.93,5.93,0,0,0,3.12-1.33c4.75-3,8,.44,7.27,4.45a9,9,0,0,1-3.71,5.05,17.26,17.26,0,0,1-11.14,3.72c-6.24,0-9.95-2.53-10.1-8.77a27.37,27.37,0,0,1-19.9,9.21c-13.22,0-18.71-11-15.6-25.55,4-18.86,18.27-33.71,34.91-33.71,4.3,0,7.28,1.19,9.8,4.46a7.32,7.32,0,0,1,7.13-4.46c3.71,0,6.09,2.08,5.2,6.24ZM245,334.9c-1.64,8.17,1.18,13.22,6.83,13.22,8.76,0,16.63-9.81,19-19.61l.3-.74c1.78-8.47-1.49-13.67-7.28-13.67C254.52,314.1,247.39,324.06,245,334.9Zm71.36-62.83c3-14,9.2-16.78,19-16.78h1c3.41,0,5.79,1.93,4.75,6.39-.89,4.3-4,6.38-7.43,6.38h-.59c-1.78,0-3,.74-3.56,3.57L321.28,311c5.34-5.95,12-9.51,20.49-9.51,10,0,13.52,6.24,11.89,14.41-1.94,8.46-10.85,16.33-21.1,19.45,3.12.75,4.46,3.27,6.09,6.54s3.12,5.49,4.61,5.49c1.93,0,3.71-2.52,5.79-2.52,3.12,0,5.5,2.23,4.75,5.79-1.33,6.09-7.87,9.66-13.51,9.66-5.79,0-8-1.19-12.48-9.36-2.08-4.31-3.27-8.47-5.64-10.4a6.15,6.15,0,0,1-1.64-5.94c.6-2.82,2.23-4.31,6-6.09,10.24-4.31,12.77-7.57,13.51-10.84.45-1.93-.59-3.57-3.86-3.57-7,0-16.64,6.39-19.9,20.06l-4.16,19.75a8,8,0,0,1-8,6.39c-3.12,0-5.94-2.08-5.05-6.39Zm95.71,73.37c-.44,2.38,0,3,1,3a5.93,5.93,0,0,0,3.12-1.33c4.75-3,8,.44,7.28,4.45a9,9,0,0,1-3.71,5.05,17.26,17.26,0,0,1-11.14,3.72c-6.24,0-10-2.53-10.1-8.77a27.37,27.37,0,0,1-19.91,9.21c-13.21,0-18.71-11-15.59-25.55,4-18.86,18.27-33.71,34.9-33.71,4.31,0,7.28,1.19,9.81,4.46a7.31,7.31,0,0,1,7.12-4.46c3.72,0,6.09,2.08,5.2,6.24Zm-35.2-10.54c-1.63,8.17,1.19,13.22,6.83,13.22,8.77,0,16.64-9.81,19-19.61l.29-.74c1.78-8.47-1.48-13.67-7.27-13.67C386.4,314.1,379.27,324.06,376.89,334.9Zm65.63,24.36c-4,0-5.64-2.53-4.9-5.65.74-4,3.56-5.2,8.91-7,18.27-6.39,42.63-26.73,46.93-46.78,2.23-11.14-4.15-16.64-12.32-16.64-7.88,0-15.6,4.75-17.53,13.37-1.19,5.49.3,8.91,2.67,11.14a4.86,4.86,0,0,1,1.19,4.9c-.74,3.41-4.31,6.83-7.72,6.83a5.37,5.37,0,0,1-3.71-1.34c-4.91-4.9-7.88-12-6-21.53,3.27-15,17.23-25.84,33.87-25.84,15,0,26.88,9.65,22.72,29.25-5.05,24.07-29.85,41.59-41.29,46.79h28.37c4.16,0,5.5,3.12,4.9,6.09a8,8,0,0,1-7.57,6.39Zm154.76-74.71c-3.56,0-5.2-3.27-4.6-6.24.74-3.27,3.86-6.53,7.42-6.53h7.43c12.92,0,16,2.67,12.77,18.26l-13.66,63.87a7.81,7.81,0,0,1-7.72,6.39c-3.27,0-6.24-2.08-5.35-6.39l13.66-64.46c.74-3.27.15-4.9-2.67-4.9Zm75.45,43.07-23.61,29.26a8.2,8.2,0,0,1-6.39,3.42c-4.31,0-5.5-2.38-4.9-5.2a13.84,13.84,0,0,1,2.23-4.46l21.09-26.44c-3,3.12-7.73,4.31-12.93,4.31-12.77,0-21.09-11.44-17.52-28.22,3.71-17.67,18-29.55,35.79-29.55s27,11.88,23.32,29.55C688.62,306.08,685.65,311.58,672.73,327.62Zm-16.19-10.25c9.06,0,17.68-6.24,20.05-17.08,2.38-11-3.71-17.08-12.77-17.08-9.21,0-17.67,6.09-20.05,17.08C641.39,311.13,647.33,317.37,656.54,317.37Zm-96.49-46c15.81,0,27.05,18.25,22.13,44.85C576.6,346.43,559.9,361,541,361s-32.58-14.7-26.19-44.71S537.94,271.42,560.05,271.41Zm-2.68,12.48c-12.41.15-24.71,10.39-29.31,32.37s6,32.38,15.65,32.38,20.64-10.39,25.25-32.38S566.73,283.77,557.37,283.89Zm-443-107.37-21.8,36.62c-2,3.57-4.94,5.45-8.34,5.45-3.92,0-5.62-2.05-6.3-5.62l-8-53.31c-2.55-16.87-4.6-29.47-19.25-29.47-11.92,0-18,8.18-19.75,16.18-1.19,6,1,11.92,3.92,15.84,1.36,1.36,1.53,3.41,1.19,5.45-.85,3.75-4.77,7.15-8.69,7.15a5.38,5.38,0,0,1-4.09-1.53c-6.47-6.3-9.36-16.18-7.15-26.91a38.42,38.42,0,0,1,37.64-30.49c21.29,0,27.59,9.71,32.36,45.31L90,190.65l20.61-34.91-5.11-30.49a6.86,6.86,0,0,1,.17-2.55c.85-4.09,5.62-7,9.54-7,2.38,0,4.94,1.2,5.28,4.09l2.72,15,8.69-15a8.78,8.78,0,0,1,7.49-4.09c3.75,0,7.33,2.9,6.47,7a8.88,8.88,0,0,1-1.19,2.55l-18.22,30.49L132.59,191l42.07-71.19a8.44,8.44,0,0,1,7.15-4.09c3.92,0,7.67,2.9,6.81,7a19.79,19.79,0,0,1-1,2.55l-52.29,87.89c-2,3.4-4.94,5.45-8.51,5.45s-5.62-1.88-6.3-5.62Zm98.1-25.38c19.76,0,32,12.43,27.42,33.89-4.6,21.29-22,33.56-41.73,33.56-19.58,0-32-12.27-27.42-33.56C175.33,163.57,192.87,151.14,212.46,151.14Zm-3.07,14.48c-10.9,0-20.09,7.49-22.65,19.41-2.55,11.76,3.58,19.08,14.48,19.08,10.73,0,20.1-7.32,22.65-19.08C226.42,173.11,220.12,165.62,209.39,165.62ZM257,158.46a9,9,0,0,1,9-7.32c3.75,0,7,2.38,6,7.32l-1.53,7.16c6.13-8.86,14.14-14.48,20.95-14.48,8.52,0,10.9,5.62,9.88,10.39s-5.11,8-8.35,8c-4.08,0-3.74-3.57-7.66-3.57-9,0-17.71,15.84-20.27,25.38l-4.26,20.09a9,9,0,0,1-9,7.33c-3.75,0-7-2.39-6-7.33Zm82.72,50.08a31.39,31.39,0,0,1-22.82,10.56c-15.16,0-21.46-12.61-17.88-29.3,4.6-21.63,20.95-38.66,40-38.66,4.94,0,8.18,1.36,11.07,4.94l10.73-50.76a9.26,9.26,0,0,1,9-7.32c3.75,0,7,2.38,5.79,7.32l-20.44,96.23c-.51,2.73,0,3.41,1.2,3.41a6.29,6.29,0,0,0,3.57-1.53c5.45-3.41,9.2.51,8.35,5.11a10.33,10.33,0,0,1-4.26,5.79,19.82,19.82,0,0,1-12.77,4.26C344.19,218.59,339.94,215.69,339.76,208.54ZM314.9,189.46c-1.88,9.37,1.36,15.16,7.83,15.16,10.39,0,19.59-11.92,22.14-23.33,2.05-9.71-1.7-15.67-8.34-15.67C325.8,165.62,317.62,177,314.9,189.46ZM456.13,168.9c-4.09,0-6.82-3.07-6-7.32.51-2.22,1.7-4.09,4.43-6.31,4.25-3.57,8.85-7.83,10.38-15.15,2.39-11.42-4.42-19.25-18.9-19.25-22.65,0-43.26,19.08-49.39,47.69-5.62,26.74,4.6,46.67,30.82,46.67,14.31,0,21.63-5.79,29.47-12.44,2.9-2.38,5.79-3.91,8.35-3.91a5.43,5.43,0,0,1,4.42,2,5.34,5.34,0,0,1,1.54,4.94,15.58,15.58,0,0,1-3.92,6.3c-8.35,9.2-24.87,18.23-45.14,18.23-34.23,0-50.24-26.23-42.75-61.32,7.67-36.45,36.62-63,68.81-63,23.17,0,36.62,13.63,32.36,33.72-2.55,12.27-10.9,22.32-18.73,27.09A10.87,10.87,0,0,1,456.13,168.9Zm81.74,32.65c-.51,2.73,0,3.41,1.2,3.41,1,0,2-.51,3.57-1.53,5.45-3.41,9.2.51,8.35,5.11a10.33,10.33,0,0,1-4.26,5.79A19.82,19.82,0,0,1,534,218.59c-7.16,0-11.41-2.9-11.59-10.05a31.39,31.39,0,0,1-22.82,10.56c-15.16,0-21.46-12.61-17.88-29.3,4.6-21.63,20.95-38.66,40-38.66,4.94,0,8.35,1.36,11.24,5.11,1.37-3.41,4.6-5.11,8.18-5.11,4.26,0,7,2.38,6,7.15Zm-40.36-12.09c-1.88,9.37,1.36,15.16,7.83,15.16,10.05,0,19.08-11.24,21.8-22.48l.34-.85c2-9.71-1.7-15.67-8.34-15.67C508.41,165.62,500.23,177,497.51,189.46ZM583,162.72c6.13-7.32,15.32-11.58,21.28-11.58,8.52,0,13.12,3.75,13.29,10.9,7.15-7.66,15.16-10.9,22-10.9,9.54,0,17.37,7.15,14.65,20.1l-6.47,30.31c-.52,2.73,0,3.41,1.36,3.41a6.42,6.42,0,0,0,3.41-1.53c5.44-3.41,9.19.51,8.34,5.11a10.29,10.29,0,0,1-4.26,5.79,19.26,19.26,0,0,1-12.6,4.26c-8.86,0-13.63-4.6-11.07-16.52L638.53,175c1.7-7.66-.68-9.7-3.75-9.7-7.32,0-17.54,8.34-21.46,27.25l-4.09,18.9a9.33,9.33,0,0,1-9.19,7.16c-3.75,0-6.82-2.39-5.79-7.16l8-37.47c1.36-6.81-1-8.68-4.09-8.68-7.15,0-16.18,7-20.44,22.14l-5.11,23.84a9.17,9.17,0,0,1-9.19,7.33c-3.58,0-6.82-2.39-5.79-7.33l11.24-53a9.14,9.14,0,0,1,9-7.15c3.75,0,7,2.38,6,7.15Zm111.76-2a30.31,30.31,0,0,1,21.63-9.54c15.16,0,21.46,12.6,18.05,29.29-4.6,21.64-21.12,38.67-40.19,38.67-4.77,0-8.18-1.19-10.9-4.77l-8.18,38.49a9,9,0,0,1-9,7.15c-3.91,0-7-2.38-6-7.15l20.1-94.19a9,9,0,0,1,9-7.32c3.74,0,7,2.38,6,7.32Zm23.67,20.1c2-9.37-1.19-15.16-7.83-15.16-10.39,0-19.42,11.92-21.8,23.33l-.34,1.53c-1.54,8.86,2,14.14,8.51,14.14C707.71,204.62,715.89,193.21,718.44,180.78Zm-516.2-4.89c-.77,0-1.4.94-1.4,2.11s.63,2.1,1.4,2.1,1.41-.94,1.41-2.1S203,175.89,202.24,175.89Zm8.43,0c-.77,0-1.4.94-1.4,2.11s.63,2.1,1.4,2.1,1.41-.94,1.41-2.1S211.45,175.89,210.67,175.89ZM197.33,185c2.81,8.43,11.23,12.64,18.26-1.4M138,414.69c5.5,0,7.52-3.74,7.52-8.26,0-2.9-1.68-6.2-4.79-6.2a2.89,2.89,0,0,0-3.13,3.16,4.16,4.16,0,0,0,1.52,3,1.54,1.54,0,0,1,.57,1.15,1.67,1.67,0,0,1-1.62,1.65,1.51,1.51,0,0,1-.94-.3,7,7,0,0,1-2.77-5.36c0-3.68,2.83-6.07,6.61-6.07,5.06,0,8.12,4.45,8.12,9,0,7.21-4.11,11.36-11.09,11.36-6.64,0-10.92-4.42-11-10.75a11.67,11.67,0,0,1,4.38-9.11,2.32,2.32,0,0,1,1.28-.47,1.48,1.48,0,0,1,1.52,1.52,2.23,2.23,0,0,1-.61,1.25,9.87,9.87,0,0,0-3,6.81C130.61,411.08,133,414.69,138,414.69ZM154.71,407a4.41,4.41,0,0,1,4-2.56c2.09,0,3.67,1.31,3.67,4v5.9c0,.51.1.61.34.61a1,1,0,0,0,.57-.27,1.21,1.21,0,0,1,1.92,1.08,1.46,1.46,0,0,1-.6,1.18,3.23,3.23,0,0,1-2.36.84c-1.79,0-3-.94-3-3.37v-5.23c0-1.38-.61-1.72-1.31-1.72-1.45,0-3.21,1.42-3.31,4.42v4.38a1.55,1.55,0,0,1-3.1,0V405.92a1.55,1.55,0,0,1,3.1,0Zm19.22-3.4a3.73,3.73,0,0,0,1.41,2.56,1.67,1.67,0,0,1,.61,1.25A1.54,1.54,0,0,1,174.4,409a1.94,1.94,0,0,1-1.12-.37,6.38,6.38,0,0,1-2.59-5c0-3.78,3-5.9,6.91-5.9h5.83c7.32,0,10.89,5.12,10.89,10.08s-3.4,9.77-10.28,9.77H177.3a1.48,1.48,0,0,1-1.55-1.55,1.53,1.53,0,0,1,1.55-1.58h1.38c.84,0,.84-.71.84-1.75v-9.41a1.55,1.55,0,0,1,1.62-1.59,1.5,1.5,0,0,1,1.62,1.59v9.37c0,1-.2,1.69-.68,1.79H184c3.58,0,6.78-2.29,6.78-6.64s-3.47-6.95-7.79-6.95H177.5C175.44,400.83,173.93,401.74,173.93,403.6Zm21.94,7.55a6.42,6.42,0,0,1,6.71-6.71c3.94,0,5.8,2.36,5.8,4.55,0,2.36-1.79,4.11-5,4.11a4.77,4.77,0,0,1-1.82-.37,1.41,1.41,0,0,1-.91-1.35,1.47,1.47,0,0,1,1.48-1.51c.4,0,1,.27,1.45.27a1.28,1.28,0,0,0,1.42-1.25c0-.84-.68-1.48-2.4-1.48a3.43,3.43,0,0,0-3.37,3.74,3.7,3.7,0,0,0,3.84,3.77,5.77,5.77,0,0,0,3.31-.94,1.92,1.92,0,0,1,1-.3,1.28,1.28,0,0,1,1.17.67,1.69,1.69,0,0,1-.74,2.26,8.53,8.53,0,0,1-5,1.28A6.72,6.72,0,0,1,195.87,411.15ZM217,407.47a3.29,3.29,0,0,0-3.34,3.64c0,2.36,1.38,3.65,3.37,3.65a3.85,3.85,0,0,0,2.67-.95,1.51,1.51,0,0,1,1-.4,1.54,1.54,0,0,1,1.48,1.51,1.32,1.32,0,0,1-.5,1.15,7.11,7.11,0,0,1-5.09,1.72c-4,0-6.41-2.46-6.41-6.68a6.45,6.45,0,0,1,6.78-6.67c2.63,0,4.89,1.52,4.89,4.18a3.55,3.55,0,0,1-1.11,2.76,1.89,1.89,0,0,1-1.32.61,1.48,1.48,0,0,1-1.08-2.53,1.18,1.18,0,0,0,.37-.84C218.79,408,218.22,407.47,217,407.47Zm6.71,3.68a6.42,6.42,0,0,1,6.71-6.71c3.94,0,5.79,2.36,5.79,4.55,0,2.36-1.78,4.11-5,4.11a4.81,4.81,0,0,1-1.82-.37,1.42,1.42,0,0,1-.91-1.35,1.48,1.48,0,0,1,1.49-1.51c.4,0,1,.27,1.45.27a1.27,1.27,0,0,0,1.41-1.25c0-.84-.67-1.48-2.39-1.48a3.43,3.43,0,0,0-3.37,3.74,3.7,3.7,0,0,0,3.84,3.77,5.73,5.73,0,0,0,3.3-.94,2,2,0,0,1,1-.3,1.28,1.28,0,0,1,1.18.67,1.7,1.7,0,0,1-.74,2.26,8.55,8.55,0,0,1-5,1.28A6.72,6.72,0,0,1,223.75,411.15Zm18.37-4.48a5,5,0,0,1,3.67-2.23,2.76,2.76,0,0,1,3,2.06,4.84,4.84,0,0,1,3.84-2.06,3.79,3.79,0,0,1,3.81,4v5.9c0,.51.1.61.34.61a1.07,1.07,0,0,0,.57-.27,1.21,1.21,0,0,1,1.92,1.08,1.49,1.49,0,0,1-.6,1.18,3.23,3.23,0,0,1-2.36.84c-1.79,0-3-.94-3-3.37v-5.23c0-1.45-.54-1.78-1.11-1.78-1.35,0-2.94,1.58-2.94,5.19v3.71a1.52,1.52,0,0,1-1.61,1.48,1.44,1.44,0,0,1-1.52-1.48V409c0-1.28-.54-1.58-1.11-1.58-1.32,0-2.77,1.34-3,4.21v4.65a1.49,1.49,0,0,1-1.59,1.52,1.47,1.47,0,0,1-1.51-1.52V405.92a1.55,1.55,0,0,1,3.1,0ZM264.3,397c-.37,0-.61.14-.61.68v9.54a4,4,0,0,1,4.08-2.8c2.94,0,4.65,2.49,4.65,5.6,0,4-2.42,7.85-6.74,7.85-3.47,0-5.09-2.7-5.09-5.66V397.8c0-3.2,1.32-3.84,3.58-3.84h.26a1.34,1.34,0,0,1,1.45,1.51,1.39,1.39,0,0,1-1.45,1.55ZM269,410.14c0-1.35-.5-2.67-2.16-2.67-1.82,0-3,1.55-3.1,4v.33c0,1.55.64,3,2.13,3C267.87,414.86,269,412.13,269,410.14Zm5.09,1a6.42,6.42,0,0,1,6.71-6.71c3.94,0,5.8,2.36,5.8,4.55,0,2.36-1.79,4.11-5,4.11a4.81,4.81,0,0,1-1.82-.37,1.41,1.41,0,0,1-.91-1.35,1.48,1.48,0,0,1,1.48-1.51c.41,0,1,.27,1.45.27a1.28,1.28,0,0,0,1.42-1.25c0-.84-.68-1.48-2.4-1.48a3.43,3.43,0,0,0-3.37,3.74,3.7,3.7,0,0,0,3.85,3.77,5.76,5.76,0,0,0,3.3-.94,2,2,0,0,1,1-.3,1.29,1.29,0,0,1,1.18.67,1.71,1.71,0,0,1-.74,2.26,8.57,8.57,0,0,1-5,1.28A6.72,6.72,0,0,1,274,411.15ZM289.31,406a1.46,1.46,0,0,1,1.55-1.52,1.48,1.48,0,0,1,1.55,1.52v1.21c.85-1.69,2.19-2.73,3.48-2.73a2.19,2.19,0,0,1,2.39,2.12,1.58,1.58,0,0,1-1.38,1.66c-.85,0-.91-.68-1.69-.68-1.79,0-2.8,3.31-2.8,5v3.75a1.45,1.45,0,0,1-1.55,1.51,1.47,1.47,0,0,1-1.55-1.51Zm17.83-1,3.95-6.68a1.56,1.56,0,0,1,1.35-.81c1,0,1.45.57,1.45,1.25a2.17,2.17,0,0,1-.31,1l-3.47,6c.44-.71,1.45-1,2.7-1,2.86,0,5.26,2.56,5.26,6.37a6.71,6.71,0,0,1-13.42,0C304.65,409.87,305,408.65,307.14,405Zm4.22,2.39a3.73,3.73,0,1,0,3.57,3.74A3.47,3.47,0,0,0,311.36,407.34Zm8.83.37a1.43,1.43,0,0,1-1.49-1.48,1.47,1.47,0,0,1,1.49-1.55h1.62v-1.93a1.45,1.45,0,0,1,1.55-1.51,1.47,1.47,0,0,1,1.55,1.51v1.93h2.43a1.41,1.41,0,0,1,1.44,1.55,1.38,1.38,0,0,1-1.44,1.48h-2.43v5.87c0,.94.17,1.31.6,1.31a1.08,1.08,0,0,0,.75-.3,1.59,1.59,0,0,1,1.21-.51,1.37,1.37,0,0,1,1.45,1.52,1.82,1.82,0,0,1-.37,1,4.19,4.19,0,0,1-3.14,1.28c-2.69,0-3.6-1.72-3.6-3.94v-6.24ZM331,397.8c0-3.2,1.32-3.84,3.58-3.84h.27a1.34,1.34,0,0,1,1.45,1.51,1.39,1.39,0,0,1-1.45,1.55h-.14c-.37,0-.61.14-.61.68V407a4.41,4.41,0,0,1,4.05-2.56c2.09,0,3.67,1.31,3.67,4v5.9c0,.51.11.61.34.61a1,1,0,0,0,.57-.27,1.21,1.21,0,0,1,1.93,1.08,1.48,1.48,0,0,1-.61,1.18,3.21,3.21,0,0,1-2.36.84c-1.79,0-3-.94-3-3.37v-5.23c0-1.38-.6-1.72-1.31-1.72-1.45,0-3.2,1.42-3.31,4.42v4.38a1.55,1.55,0,0,1-3.1,0Zm28.49,18.07a4.76,4.76,0,0,1-3.95,2c-3,0-4.78-2.49-4.78-5.8,0-4.28,2.56-7.65,6.3-7.65a3,3,0,0,1,2.33.94,1.46,1.46,0,0,1,1.48-.94,1.41,1.41,0,0,1,1.55,1.48v8.43c0,.51.1.61.34.61a1.07,1.07,0,0,0,.57-.27,1.21,1.21,0,0,1,1.92,1.08,1.48,1.48,0,0,1-.61,1.18,3.18,3.18,0,0,1-2.35.84A2.56,2.56,0,0,1,359.53,415.87ZM354.1,412c0,1.76.84,2.84,2.06,2.84,1.92,0,3.13-2.23,3.2-4.28v-.44c-.1-1.72-1-2.67-2.16-2.67C355.18,407.47,354.1,409.6,354.1,412Zm15.71-5a4.38,4.38,0,0,1,4-2.56c2.09,0,3.68,1.31,3.68,4v5.9c0,.51.1.61.34.61a1.1,1.1,0,0,0,.57-.27,1.21,1.21,0,0,1,1.92,1.08,1.48,1.48,0,0,1-.61,1.18,3.19,3.19,0,0,1-2.36.84c-1.78,0-3-.94-3-3.37v-5.23c0-1.38-.61-1.72-1.32-1.72-1.45,0-3.2,1.42-3.3,4.42v4.38a1.49,1.49,0,0,1-1.59,1.52,1.47,1.47,0,0,1-1.51-1.52V405.92a1.55,1.55,0,0,1,3.1,0Zm22.79,7.35c0,.51.1.61.33.61a1.09,1.09,0,0,0,.58-.27,1.21,1.21,0,0,1,1.92,1.08,1.48,1.48,0,0,1-.61,1.18,3.21,3.21,0,0,1-2.36.84,2.57,2.57,0,0,1-2.8-1.92,4.75,4.75,0,0,1-3.94,2c-3,0-4.79-2.49-4.79-5.8,0-4.28,2.56-7.65,6.31-7.65a3,3,0,0,1,2.25.88v-9.88a1.56,1.56,0,0,1,3.11,0ZM384.24,412c0,1.76.84,2.84,2.05,2.84,2,0,3.2-2.33,3.2-4.45,0-1.89-.94-2.94-2.15-2.94C385.31,407.47,384.24,409.6,384.24,412Zm20.25,5.06a1.33,1.33,0,0,1-1.18.71,1.61,1.61,0,0,1-1.61-1.48,1.42,1.42,0,0,1,.2-.71l8.76-14.94h-7.82a1.43,1.43,0,0,1-1.48-1.48,1.36,1.36,0,0,1,1.45-1.48h10c1.08,0,1.59.5,1.59,1.24s-.07,1-1.05,2.67Zm11.87-9.37a1.43,1.43,0,0,1-1.48-1.48,1.46,1.46,0,0,1,1.48-1.55H418v-1.93a1.45,1.45,0,0,1,1.55-1.51,1.47,1.47,0,0,1,1.55,1.51v1.93h2.43a1.42,1.42,0,0,1,1.45,1.55,1.38,1.38,0,0,1-1.45,1.48h-2.43v5.87c0,.94.17,1.31.61,1.31a1.06,1.06,0,0,0,.74-.3,1.59,1.59,0,0,1,1.21-.51,1.37,1.37,0,0,1,1.45,1.52,1.75,1.75,0,0,1-.37,1,4.19,4.19,0,0,1-3.14,1.28c-2.69,0-3.6-1.72-3.6-3.94v-6.24Zm10.85-9.91c0-3.2,1.32-3.84,3.58-3.84h.27a1.34,1.34,0,0,1,1.45,1.51,1.39,1.39,0,0,1-1.45,1.55h-.14c-.37,0-.61.14-.61.68V407a4.41,4.41,0,0,1,4.05-2.56c2.09,0,3.68,1.31,3.68,4v5.9c0,.51.1.61.33.61a1.09,1.09,0,0,0,.58-.27,1.21,1.21,0,0,1,1.92,1.08,1.48,1.48,0,0,1-.61,1.18,3.21,3.21,0,0,1-2.36.84c-1.79,0-3-.94-3-3.37v-5.23c0-1.38-.6-1.72-1.31-1.72-1.45,0-3.2,1.42-3.31,4.42v4.38a1.55,1.55,0,0,1-3.1,0Zm16.32,22.08a1.79,1.79,0,0,1-1,.91,1.72,1.72,0,0,1-1.92-1.18,1.47,1.47,0,0,1,.07-1l1.72-4.08a1.61,1.61,0,0,1,1-.87,1.73,1.73,0,0,1,2,1.18,1.32,1.32,0,0,1-.07.94Zm10.72-2.33a1.33,1.33,0,0,1-1.48-1.38c0-.94.64-1.25,1.75-1.65,3.94-1.48,8.26-6.07,8.26-10.38a3.38,3.38,0,0,0-3.47-3.68,2.93,2.93,0,0,0-3.21,2.87,2.83,2.83,0,0,0,1.11,2.42,1.44,1.44,0,0,1,.54,1.18,1.62,1.62,0,0,1-1.51,1.62,1.6,1.6,0,0,1-.95-.3,6.2,6.2,0,0,1-2.42-4.89c0-3.51,2.76-5.9,6.47-5.9a6.34,6.34,0,0,1,6.64,6.71c0,5.16-4.38,9.1-6.91,10.38h6.2a1.39,1.39,0,0,1,1.45,1.49,1.46,1.46,0,0,1-1.48,1.51Zm21.57-20.09c4.28,0,7.22,3.41,7.22,10.18s-2.87,10.15-7.22,10.15-7.18-3.37-7.18-10.15S471.54,397.46,475.82,397.46Zm0,3c-2,0-4,2.29-4,7.18s2,7.18,4,7.18,4.08-2.29,4.08-7.18S477.88,400.46,475.82,400.46Zm10.05.3a1.53,1.53,0,0,1,0-3.06h1.62c3.1,0,3.94.6,3.94,4.25v14.32a1.48,1.48,0,0,1-1.55,1.52,1.51,1.51,0,0,1-1.59-1.52V401.81c0-.71-.2-1.05-.8-1.05Zm19.25,9.55L501.17,417a1.57,1.57,0,0,1-1.35.81c-1,0-1.45-.57-1.45-1.25a2.2,2.2,0,0,1,.31-1l3.47-6c-.44.71-1.45,1-2.7,1-2.86,0-5.26-2.56-5.26-6.37a6.71,6.71,0,1,1,13.42,0C507.61,405.38,507.31,406.6,505.12,410.31Zm-4.22-2.4a3.73,3.73,0,1,0-3.57-3.74A3.47,3.47,0,0,0,500.9,407.91Zm22.52,8a4.75,4.75,0,0,1-3.94,2c-3,0-4.79-2.49-4.79-5.8,0-4.28,2.56-7.65,6.3-7.65a2.93,2.93,0,0,1,2.33.94,1.46,1.46,0,0,1,1.48-.94,1.41,1.41,0,0,1,1.55,1.48v8.43c0,.51.1.61.34.61a1,1,0,0,0,.57-.27,1.21,1.21,0,0,1,1.93,1.08,1.48,1.48,0,0,1-.61,1.18,3.23,3.23,0,0,1-2.36.84A2.57,2.57,0,0,1,523.42,415.87ZM518,412c0,1.76.85,2.84,2.06,2.84,1.92,0,3.13-2.23,3.2-4.28v-.44c-.1-1.72-1-2.67-2.16-2.67C519.07,407.47,518,409.6,518,412Zm12.44-4.31a1.43,1.43,0,0,1-1.48-1.48,1.46,1.46,0,0,1,1.48-1.55h1.62v-1.93a1.45,1.45,0,0,1,1.55-1.51,1.47,1.47,0,0,1,1.55,1.51v1.93h2.43a1.42,1.42,0,0,1,1.45,1.55,1.38,1.38,0,0,1-1.45,1.48h-2.43v5.87c0,.94.17,1.31.61,1.31a1,1,0,0,0,.74-.3,1.59,1.59,0,0,1,1.21-.51,1.37,1.37,0,0,1,1.45,1.52,1.75,1.75,0,0,1-.37,1,4.18,4.18,0,0,1-3.13,1.28c-2.7,0-3.61-1.72-3.61-3.94v-6.24Zm26.43,7c5.49,0,7.52-3.74,7.52-8.26,0-2.9-1.69-6.2-4.79-6.2a2.9,2.9,0,0,0-3.14,3.16,4.16,4.16,0,0,0,1.52,3,1.52,1.52,0,0,1,.58,1.15,1.67,1.67,0,0,1-1.62,1.65,1.54,1.54,0,0,1-.95-.3,7,7,0,0,1-2.76-5.36c0-3.68,2.83-6.07,6.61-6.07,5,0,8.12,4.45,8.12,9,0,7.21-4.11,11.36-11.09,11.36-6.64,0-10.92-4.42-11-10.75a11.65,11.65,0,0,1,4.39-9.11,2.32,2.32,0,0,1,1.28-.47,1.47,1.47,0,0,1,1.51,1.52,2.21,2.21,0,0,1-.6,1.25,9.87,9.87,0,0,0-3,6.81C549.48,411.08,551.84,414.69,556.86,414.69Zm21.74-7.35a1.44,1.44,0,0,1-2.16,1.28c-.77-.57-1.28-1.25-2.46-1.25-.91,0-1.45.51-1.45,1.18s.85,1.25,2,2c1.49.95,3.27,2,3.27,4s-1.28,3.34-3.6,3.34c-1.56,0-3.58-.47-3.58-2.33a1.39,1.39,0,0,1,1.38-1.48c.78,0,1.29.91,2.13.91.47,0,.64-.17.64-.44,0-.5-1-1-2.26-1.82-1.48-.87-3-1.78-3-4a4.29,4.29,0,0,1,4.59-4.25,5.08,5.08,0,0,1,4.18,2A1.44,1.44,0,0,1,578.6,407.34Zm10.08,8.53a4.75,4.75,0,0,1-3.94,2c-3,0-4.79-2.49-4.79-5.8,0-4.28,2.56-7.65,6.3-7.65a2.93,2.93,0,0,1,2.33.94,1.47,1.47,0,0,1,1.48-.94,1.41,1.41,0,0,1,1.55,1.48v8.43c0,.51.1.61.34.61a1,1,0,0,0,.57-.27,1.21,1.21,0,0,1,1.93,1.08,1.48,1.48,0,0,1-.61,1.18,3.23,3.23,0,0,1-2.36.84A2.57,2.57,0,0,1,588.68,415.87ZM583.25,412c0,1.76.85,2.84,2.06,2.84,1.92,0,3.13-2.23,3.2-4.28v-.44c-.1-1.72-1-2.67-2.16-2.67C584.33,407.47,583.25,409.6,583.25,412Zm12.64-14.22c0-3.2,1.32-3.84,3.58-3.84h.27a1.34,1.34,0,0,1,1.45,1.51,1.39,1.39,0,0,1-1.45,1.55h-.14c-.37,0-.6.14-.6.68v8.8a4.69,4.69,0,0,1,4.11-2.06,3.08,3.08,0,0,1,3.37,3.3c0,1.89-1.59,3.64-3.78,4.42a2.72,2.72,0,0,1,1.66,1.35c.43.64.9,1.18,1.18,1.18.43,0,.7-.57,1.21-.57a1.4,1.4,0,0,1,1.41,1.41,2.43,2.43,0,0,1-2.62,2.26c-1.32,0-1.86-.24-3.27-2.09a22.41,22.41,0,0,0-1.69-2.33,1.89,1.89,0,0,1-.68-1.41c0-.68.31-1,1.12-1.45,1.92-1.05,2.29-1.65,2.29-2.33,0-.4-.24-.71-.91-.71-1.55,0-3.4,1.45-3.4,4.59v4.21a1.49,1.49,0,0,1-1.59,1.52,1.47,1.47,0,0,1-1.52-1.52Zm22,18.07a4.76,4.76,0,0,1-3.95,2c-3,0-4.79-2.49-4.79-5.8,0-4.28,2.57-7.65,6.31-7.65a2.92,2.92,0,0,1,2.32.94,1.48,1.48,0,0,1,1.49-.94,1.41,1.41,0,0,1,1.55,1.48v8.43c0,.51.1.61.34.61a1.1,1.1,0,0,0,.57-.27,1.21,1.21,0,0,1,1.92,1.08,1.48,1.48,0,0,1-.61,1.18,3.19,3.19,0,0,1-2.36.84A2.56,2.56,0,0,1,617.91,415.87ZM612.48,412c0,1.76.84,2.84,2,2.84,1.93,0,3.14-2.23,3.21-4.28v-.44c-.1-1.72-1-2.67-2.16-2.67C613.56,407.47,612.48,409.6,612.48,412ZM685,347.82s-.18-.45-.73-1.62a10,10,0,0,0-1.46-2.51,2.31,2.31,0,0,0-2.09-.94,1.41,1.41,0,0,0-1.15,1.67,3.74,3.74,0,0,0,1.25,2.26c.51.31,2.64,2.07,2.64,2.07a30.06,30.06,0,0,1-3.49.38c-1.82.08-2.66,2.86-2.1,3.59a2.87,2.87,0,0,0,3.14.6c1.1-.48,3.37-3,3.37-3a10,10,0,0,1-.61,2.8c-1.19,3,1,3.76,1.19,3.85a3.63,3.63,0,0,0,1,.12,2.65,2.65,0,0,0,1.52-3c-.32-1.27-1.25-3.88-1.25-3.88a20.16,20.16,0,0,0,3.08,2.51,2.9,2.9,0,0,0,2.4-.3c.52-.25,1.13-.71.86-1.39s0-1.39-1.07-1.94-2.53-.48-5-.11c3.92-2.45,3.73-4.73,3.2-5.36s-.84-.46-1.37-.38-.76-.1-1.18.12a5.49,5.49,0,0,0-2,4.12Zm19.74-18.9s-.77-.52-2.88-1.76a19.59,19.59,0,0,0-5-2.38,4.37,4.37,0,0,0-4.28.78c-1.26.94-.93,2.73,0,3.85a7.22,7.22,0,0,0,4.4,2.2c1.13-.06,6.35.42,6.35.42a55.19,55.19,0,0,1-5.07,4.34c-2.76,2.07-1.1,7.33.57,7.89s4.33-.5,5.55-2.43,2.06-8.36,2.06-8.36a19.74,19.74,0,0,1,2.05,5c1.38,6,5.58,4.84,6,4.76a6.74,6.74,0,0,0,1.69-.88,5,5,0,0,0-.87-6.4c-1.87-1.66-6.13-4.74-6.13-4.74s5.73,1,7.53.64,2.9-2.1,3.44-3,1-2.32-.13-3.11-1.53-2.15-3.77-1.89-4.49,1.95-7.91,5.14c3.53-8.06.79-11.41-.72-11.85s-1.82.18-2.55.89-1.3.66-1.73,1.45c-1.65,4.29,1.27,8.61,1.27,8.61ZM63.5,261.66a2.82,2.82,0,0,0,0-4l-6.73-6.55a2.81,2.81,0,0,0-3.92,4l6.73,6.56a2.8,2.8,0,0,0,4,0ZM50.15,281.75a2.8,2.8,0,0,0-2.65-3l-6.63-.36a2.81,2.81,0,1,0-.3,5.61l6.62.36h.16A2.81,2.81,0,0,0,50.15,281.75ZM55,270.8a2.79,2.79,0,0,0-1.6-3.63l-10.3-4a2.81,2.81,0,0,0-2,5.24l10.3,4a2.6,2.6,0,0,0,1,.2A2.8,2.8,0,0,0,55,270.8Zm505,.61c15.81,0,27.05,18.25,22.13,44.85C576.6,346.43,559.9,361,541,361s-32.58-14.7-26.19-44.71S537.94,271.42,560.05,271.41Zm-18.47,18.41c-1.17,0-2.11,1.42-2.11,3.17s.94,3.18,2.11,3.18,2.12-1.43,2.12-3.18S542.75,289.82,541.58,289.82Zm12.7,0c-1.17,0-2.12,1.42-2.12,3.17s1,3.18,2.12,3.18,2.11-1.43,2.11-3.18S555.45,289.82,554.28,289.82Zm8.66,12.26a1.4,1.4,0,0,0-2.51-1.25c-4.37,8.74-9.51,13.36-14.48,13-4.34-.31-8.34-4.42-10.44-10.71a1.4,1.4,0,1,0-2.66.89c2.46,7.39,7.4,12.23,12.9,12.62l.75,0C550.84,316.66,557,314,562.94,302.08Z" transform="translate(-7.36 -0.46)"/><path class="b" d="M104.18,345.63c27.76,0,42.58-19.08,47.52-42.24,3.41-15.67-1.87-32.36-17.88-32.36-10.22,0-17.72,6.3-19.93,16.69a18.09,18.09,0,0,0,4.43,15.84,5.58,5.58,0,0,1,1.53,5.45c-.85,3.92-5.11,7.84-9.37,7.84a6.27,6.27,0,0,1-4.26-1.54C98.9,308.5,96,297.77,98.05,288.23c3.92-18.39,20.78-30.49,39.51-30.49,25.38,0,36.28,22.15,31.17,45.65-7.66,36.28-33.21,57.06-67.79,57.06-33.21,0-50.41-22-43.6-54.16C61.43,287,74,270.35,89.19,260.3A15.16,15.16,0,0,1,96,258.09c4.25,0,6.47,3.23,5.61,7.15a13,13,0,0,1-4.25,6c-10.56,9.2-19.76,20.1-22.83,35.09C70,327.58,78.8,345.63,104.18,345.63Zm87-48.16C187.46,315,225,317.37,220,341.14c-2.53,11.88-14.71,19.16-27,19.16-6.83,0-15.59-3.42-17.52-8.77-1.78-5.64,5.2-12.47,10.25-8.91,2.37,1.63,4.3,5.2,10.1,5.2,6.23,0,9.8-2.67,10.54-6.68,3.12-14.26-34.46-16-28.66-43.37,3.56-16.49,18.12-27,34.31-27,16.93,0,26.28,11.13,22.87,27.47a8.09,8.09,0,0,1-8,6.54c-3.86,0-6.24-2.68-5.35-6.54,1.49-7.28-1.93-14.55-12.18-14.55C199.34,283.66,192.66,290.19,191.17,297.47Zm89.05,48c-.45,2.38,0,3,1,3a5.93,5.93,0,0,0,3.12-1.33c4.75-3,8,.44,7.27,4.45a9,9,0,0,1-3.71,5.05,17.26,17.26,0,0,1-11.14,3.72c-6.24,0-9.95-2.53-10.1-8.77a27.37,27.37,0,0,1-19.9,9.21c-13.22,0-18.71-11-15.6-25.55,4-18.86,18.27-33.71,34.91-33.71,4.3,0,7.28,1.19,9.8,4.46a7.32,7.32,0,0,1,7.13-4.46c3.71,0,6.09,2.08,5.2,6.24ZM245,334.9c-1.64,8.17,1.18,13.22,6.83,13.22,8.76,0,16.63-9.81,19-19.61l.3-.74c1.78-8.47-1.49-13.67-7.28-13.67C254.52,314.1,247.39,324.06,245,334.9Zm71.36-62.83c3-14,9.2-16.78,19-16.78h1c3.41,0,5.79,1.93,4.75,6.39-.89,4.3-4,6.38-7.43,6.38h-.59c-1.78,0-3,.74-3.56,3.57L321.28,311c5.34-5.95,12-9.51,20.49-9.51,10,0,13.52,6.24,11.89,14.41-1.94,8.46-10.85,16.33-21.1,19.45,3.12.75,4.46,3.27,6.09,6.54s3.12,5.49,4.61,5.49c1.93,0,3.71-2.52,5.79-2.52,3.12,0,5.5,2.23,4.75,5.79-1.33,6.09-7.87,9.66-13.51,9.66-5.79,0-8-1.19-12.48-9.36-2.08-4.31-3.27-8.47-5.64-10.4a6.15,6.15,0,0,1-1.64-5.94c.6-2.82,2.23-4.31,6-6.09,10.24-4.31,12.77-7.57,13.51-10.84.45-1.93-.59-3.57-3.86-3.57-7,0-16.64,6.39-19.9,20.06l-4.16,19.75a8,8,0,0,1-8,6.39c-3.12,0-5.94-2.08-5.05-6.39Zm95.71,73.37c-.44,2.38,0,3,1,3a5.93,5.93,0,0,0,3.12-1.33c4.75-3,8,.44,7.28,4.45a9,9,0,0,1-3.71,5.05,17.26,17.26,0,0,1-11.14,3.72c-6.24,0-10-2.53-10.1-8.77a27.37,27.37,0,0,1-19.91,9.21c-13.21,0-18.71-11-15.59-25.55,4-18.86,18.27-33.71,34.9-33.71,4.31,0,7.28,1.19,9.81,4.46a7.31,7.31,0,0,1,7.12-4.46c3.72,0,6.09,2.08,5.2,6.24Zm-35.2-10.54c-1.63,8.17,1.19,13.22,6.83,13.22,8.77,0,16.64-9.81,19-19.61l.29-.74c1.78-8.47-1.48-13.67-7.27-13.67C386.4,314.1,379.27,324.06,376.89,334.9Zm65.63,24.36c-4,0-5.64-2.53-4.9-5.65.74-4,3.56-5.2,8.91-7,18.27-6.39,42.63-26.73,46.93-46.78,2.23-11.14-4.15-16.64-12.32-16.64-7.88,0-15.6,4.75-17.53,13.37-1.19,5.49.3,8.91,2.67,11.14a4.86,4.86,0,0,1,1.19,4.9c-.74,3.41-4.31,6.83-7.72,6.83a5.37,5.37,0,0,1-3.71-1.34c-4.91-4.9-7.88-12-6-21.53,3.27-15,17.23-25.84,33.87-25.84,15,0,26.88,9.65,22.72,29.25-5.05,24.07-29.85,41.59-41.29,46.79h28.37c4.16,0,5.5,3.12,4.9,6.09a8,8,0,0,1-7.57,6.39Zm154.76-74.71c-3.56,0-5.2-3.27-4.6-6.24.74-3.27,3.86-6.53,7.42-6.53h7.43c12.92,0,16,2.67,12.77,18.26l-13.66,63.87a7.81,7.81,0,0,1-7.72,6.39c-3.27,0-6.24-2.08-5.35-6.39l13.66-64.46c.74-3.27.15-4.9-2.67-4.9Zm75.45,43.07-23.61,29.26a8.2,8.2,0,0,1-6.39,3.42c-4.31,0-5.5-2.38-4.9-5.2a13.84,13.84,0,0,1,2.23-4.46l21.09-26.44c-3,3.12-7.73,4.31-12.93,4.31-12.77,0-21.09-11.44-17.52-28.22,3.71-17.67,18-29.55,35.79-29.55s27,11.88,23.32,29.55C688.62,306.08,685.65,311.58,672.73,327.62Zm-16.19-10.25c9.06,0,17.68-6.24,20.05-17.08,2.38-11-3.71-17.08-12.77-17.08-9.21,0-17.67,6.09-20.05,17.08C641.39,311.13,647.33,317.37,656.54,317.37Zm-96.49-46c15.81,0,27.05,18.25,22.13,44.85C576.6,346.43,559.9,361,541,361s-32.58-14.7-26.19-44.71S537.94,271.42,560.05,271.41Zm-2.68,12.48c-12.41.15-24.71,10.39-29.31,32.37s6,32.38,15.65,32.38,20.64-10.39,25.25-32.38S566.73,283.77,557.37,283.89Zm-443-107.37-21.8,36.62c-2,3.57-4.94,5.45-8.34,5.45-3.92,0-5.62-2.05-6.3-5.62l-8-53.31c-2.55-16.87-4.6-29.47-19.25-29.47-11.92,0-18,8.18-19.75,16.18-1.19,6,1,11.92,3.92,15.84,1.36,1.36,1.53,3.41,1.19,5.45-.85,3.75-4.77,7.15-8.69,7.15a5.38,5.38,0,0,1-4.09-1.53c-6.47-6.3-9.36-16.18-7.15-26.91a38.42,38.42,0,0,1,37.64-30.49c21.29,0,27.59,9.71,32.36,45.31L90,190.65l20.61-34.91-5.11-30.49a6.86,6.86,0,0,1,.17-2.55c.85-4.09,5.62-7,9.54-7,2.38,0,4.94,1.2,5.28,4.09l2.72,15,8.69-15a8.78,8.78,0,0,1,7.49-4.09c3.75,0,7.33,2.9,6.47,7a8.88,8.88,0,0,1-1.19,2.55l-18.22,30.49L132.59,191l42.07-71.19a8.44,8.44,0,0,1,7.15-4.09c3.92,0,7.67,2.9,6.81,7a19.79,19.79,0,0,1-1,2.55l-52.29,87.89c-2,3.4-4.94,5.45-8.51,5.45s-5.62-1.88-6.3-5.62Zm98.1-25.38c19.76,0,32,12.43,27.42,33.89-4.6,21.29-22,33.56-41.73,33.56-19.58,0-32-12.27-27.42-33.56C175.33,163.57,192.87,151.14,212.46,151.14Zm-3.07,14.48c-10.9,0-20.09,7.49-22.65,19.41-2.55,11.76,3.58,19.08,14.48,19.08,10.73,0,20.1-7.32,22.65-19.08C226.42,173.11,220.12,165.62,209.39,165.62ZM257,158.46a9,9,0,0,1,9-7.32c3.75,0,7,2.38,6,7.32l-1.53,7.16c6.13-8.86,14.14-14.48,20.95-14.48,8.52,0,10.9,5.62,9.88,10.39s-5.11,8-8.35,8c-4.08,0-3.74-3.57-7.66-3.57-9,0-17.71,15.84-20.27,25.38l-4.26,20.09a9,9,0,0,1-9,7.33c-3.75,0-7-2.39-6-7.33Zm82.72,50.08a31.39,31.39,0,0,1-22.82,10.56c-15.16,0-21.46-12.61-17.88-29.3,4.6-21.63,20.95-38.66,40-38.66,4.94,0,8.18,1.36,11.07,4.94l10.73-50.76a9.26,9.26,0,0,1,9-7.32c3.75,0,7,2.38,5.79,7.32l-20.44,96.23c-.51,2.73,0,3.41,1.2,3.41a6.29,6.29,0,0,0,3.57-1.53c5.45-3.41,9.2.51,8.35,5.11a10.33,10.33,0,0,1-4.26,5.79,19.82,19.82,0,0,1-12.77,4.26C344.19,218.59,339.94,215.69,339.76,208.54ZM314.9,189.46c-1.88,9.37,1.36,15.16,7.83,15.16,10.39,0,19.59-11.92,22.14-23.33,2.05-9.71-1.7-15.67-8.34-15.67C325.8,165.62,317.62,177,314.9,189.46ZM456.13,168.9c-4.09,0-6.82-3.07-6-7.32.51-2.22,1.7-4.09,4.43-6.31,4.25-3.57,8.85-7.83,10.38-15.15,2.39-11.42-4.42-19.25-18.9-19.25-22.65,0-43.26,19.08-49.39,47.69-5.62,26.74,4.6,46.67,30.82,46.67,14.31,0,21.63-5.79,29.47-12.44,2.9-2.38,5.79-3.91,8.35-3.91a5.43,5.43,0,0,1,4.42,2,5.34,5.34,0,0,1,1.54,4.94,15.58,15.58,0,0,1-3.92,6.3c-8.35,9.2-24.87,18.23-45.14,18.23-34.23,0-50.24-26.23-42.75-61.32,7.67-36.45,36.62-63,68.81-63,23.17,0,36.62,13.63,32.36,33.72-2.55,12.27-10.9,22.32-18.73,27.09A10.87,10.87,0,0,1,456.13,168.9Zm81.74,32.65c-.51,2.73,0,3.41,1.2,3.41,1,0,2-.51,3.57-1.53,5.45-3.41,9.2.51,8.35,5.11a10.33,10.33,0,0,1-4.26,5.79A19.82,19.82,0,0,1,534,218.59c-7.16,0-11.41-2.9-11.59-10.05a31.39,31.39,0,0,1-22.82,10.56c-15.16,0-21.46-12.61-17.88-29.3,4.6-21.63,20.95-38.66,40-38.66,4.94,0,8.35,1.36,11.24,5.11,1.37-3.41,4.6-5.11,8.18-5.11,4.26,0,7,2.38,6,7.15Zm-40.36-12.09c-1.88,9.37,1.36,15.16,7.83,15.16,10.05,0,19.08-11.24,21.8-22.48l.34-.85c2-9.71-1.7-15.67-8.34-15.67C508.41,165.62,500.23,177,497.51,189.46ZM583,162.72c6.13-7.32,15.32-11.58,21.28-11.58,8.52,0,13.12,3.75,13.29,10.9,7.15-7.66,15.16-10.9,22-10.9,9.54,0,17.37,7.15,14.65,20.1l-6.47,30.31c-.52,2.73,0,3.41,1.36,3.41a6.42,6.42,0,0,0,3.41-1.53c5.44-3.41,9.19.51,8.34,5.11a10.29,10.29,0,0,1-4.26,5.79,19.26,19.26,0,0,1-12.6,4.26c-8.86,0-13.63-4.6-11.07-16.52L638.53,175c1.7-7.66-.68-9.7-3.75-9.7-7.32,0-17.54,8.34-21.46,27.25l-4.09,18.9a9.33,9.33,0,0,1-9.19,7.16c-3.75,0-6.82-2.39-5.79-7.16l8-37.47c1.36-6.81-1-8.68-4.09-8.68-7.15,0-16.18,7-20.44,22.14l-5.11,23.84a9.17,9.17,0,0,1-9.19,7.33c-3.58,0-6.82-2.39-5.79-7.33l11.24-53a9.14,9.14,0,0,1,9-7.15c3.75,0,7,2.38,6,7.15Zm111.76-2a30.31,30.31,0,0,1,21.63-9.54c15.16,0,21.46,12.6,18.05,29.29-4.6,21.64-21.12,38.67-40.19,38.67-4.77,0-8.18-1.19-10.9-4.77l-8.18,38.49a9,9,0,0,1-9,7.15c-3.91,0-7-2.38-6-7.15l20.1-94.19a9,9,0,0,1,9-7.32c3.74,0,7,2.38,6,7.32Zm23.67,20.1c2-9.37-1.19-15.16-7.83-15.16-10.39,0-19.42,11.92-21.8,23.33l-.34,1.53c-1.54,8.86,2,14.14,8.51,14.14C707.71,204.62,715.89,193.21,718.44,180.78Zm-516.2-4.89c-.77,0-1.4.94-1.4,2.11s.63,2.1,1.4,2.1,1.41-.94,1.41-2.1S203,175.89,202.24,175.89Zm8.43,0c-.77,0-1.4.94-1.4,2.11s.63,2.1,1.4,2.1,1.41-.94,1.41-2.1S211.45,175.89,210.67,175.89ZM197.33,185c2.81,8.43,11.23,12.64,18.26-1.4M138,414.69c5.5,0,7.52-3.74,7.52-8.26,0-2.9-1.68-6.2-4.79-6.2a2.89,2.89,0,0,0-3.13,3.16,4.16,4.16,0,0,0,1.52,3,1.54,1.54,0,0,1,.57,1.15,1.67,1.67,0,0,1-1.62,1.65,1.51,1.51,0,0,1-.94-.3,7,7,0,0,1-2.77-5.36c0-3.68,2.83-6.07,6.61-6.07,5.06,0,8.12,4.45,8.12,9,0,7.21-4.11,11.36-11.09,11.36-6.64,0-10.92-4.42-11-10.75a11.67,11.67,0,0,1,4.38-9.11,2.32,2.32,0,0,1,1.28-.47,1.48,1.48,0,0,1,1.52,1.52,2.23,2.23,0,0,1-.61,1.25,9.87,9.87,0,0,0-3,6.81C130.61,411.08,133,414.69,138,414.69ZM154.71,407a4.41,4.41,0,0,1,4-2.56c2.09,0,3.67,1.31,3.67,4v5.9c0,.51.1.61.34.61a1,1,0,0,0,.57-.27,1.21,1.21,0,0,1,1.92,1.08,1.46,1.46,0,0,1-.6,1.18,3.23,3.23,0,0,1-2.36.84c-1.79,0-3-.94-3-3.37v-5.23c0-1.38-.61-1.72-1.31-1.72-1.45,0-3.21,1.42-3.31,4.42v4.38a1.55,1.55,0,0,1-3.1,0V405.92a1.55,1.55,0,0,1,3.1,0Zm19.22-3.4a3.73,3.73,0,0,0,1.41,2.56,1.67,1.67,0,0,1,.61,1.25A1.54,1.54,0,0,1,174.4,409a1.94,1.94,0,0,1-1.12-.37,6.38,6.38,0,0,1-2.59-5c0-3.78,3-5.9,6.91-5.9h5.83c7.32,0,10.89,5.12,10.89,10.08s-3.4,9.77-10.28,9.77H177.3a1.48,1.48,0,0,1-1.55-1.55,1.53,1.53,0,0,1,1.55-1.58h1.38c.84,0,.84-.71.84-1.75v-9.41a1.55,1.55,0,0,1,1.62-1.59,1.5,1.5,0,0,1,1.62,1.59v9.37c0,1-.2,1.69-.68,1.79H184c3.58,0,6.78-2.29,6.78-6.64s-3.47-6.95-7.79-6.95H177.5C175.44,400.83,173.93,401.74,173.93,403.6Zm21.94,7.55a6.42,6.42,0,0,1,6.71-6.71c3.94,0,5.8,2.36,5.8,4.55,0,2.36-1.79,4.11-5,4.11a4.77,4.77,0,0,1-1.82-.37,1.41,1.41,0,0,1-.91-1.35,1.47,1.47,0,0,1,1.48-1.51c.4,0,1,.27,1.45.27a1.28,1.28,0,0,0,1.42-1.25c0-.84-.68-1.48-2.4-1.48a3.43,3.43,0,0,0-3.37,3.74,3.7,3.7,0,0,0,3.84,3.77,5.77,5.77,0,0,0,3.31-.94,1.92,1.92,0,0,1,1-.3,1.28,1.28,0,0,1,1.17.67,1.69,1.69,0,0,1-.74,2.26,8.53,8.53,0,0,1-5,1.28A6.72,6.72,0,0,1,195.87,411.15ZM217,407.47a3.29,3.29,0,0,0-3.34,3.64c0,2.36,1.38,3.65,3.37,3.65a3.85,3.85,0,0,0,2.67-.95,1.51,1.51,0,0,1,1-.4,1.54,1.54,0,0,1,1.48,1.51,1.32,1.32,0,0,1-.5,1.15,7.11,7.11,0,0,1-5.09,1.72c-4,0-6.41-2.46-6.41-6.68a6.45,6.45,0,0,1,6.78-6.67c2.63,0,4.89,1.52,4.89,4.18a3.55,3.55,0,0,1-1.11,2.76,1.89,1.89,0,0,1-1.32.61,1.48,1.48,0,0,1-1.08-2.53,1.18,1.18,0,0,0,.37-.84C218.79,408,218.22,407.47,217,407.47Zm6.71,3.68a6.42,6.42,0,0,1,6.71-6.71c3.94,0,5.79,2.36,5.79,4.55,0,2.36-1.78,4.11-5,4.11a4.81,4.81,0,0,1-1.82-.37,1.42,1.42,0,0,1-.91-1.35,1.48,1.48,0,0,1,1.49-1.51c.4,0,1,.27,1.45.27a1.27,1.27,0,0,0,1.41-1.25c0-.84-.67-1.48-2.39-1.48a3.43,3.43,0,0,0-3.37,3.74,3.7,3.7,0,0,0,3.84,3.77,5.73,5.73,0,0,0,3.3-.94,2,2,0,0,1,1-.3,1.28,1.28,0,0,1,1.18.67,1.7,1.7,0,0,1-.74,2.26,8.55,8.55,0,0,1-5,1.28A6.72,6.72,0,0,1,223.75,411.15Zm18.37-4.48a5,5,0,0,1,3.67-2.23,2.76,2.76,0,0,1,3,2.06,4.84,4.84,0,0,1,3.84-2.06,3.79,3.79,0,0,1,3.81,4v5.9c0,.51.1.61.34.61a1.07,1.07,0,0,0,.57-.27,1.21,1.21,0,0,1,1.92,1.08,1.49,1.49,0,0,1-.6,1.18,3.23,3.23,0,0,1-2.36.84c-1.79,0-3-.94-3-3.37v-5.23c0-1.45-.54-1.78-1.11-1.78-1.35,0-2.94,1.58-2.94,5.19v3.71a1.52,1.52,0,0,1-1.61,1.48,1.44,1.44,0,0,1-1.52-1.48V409c0-1.28-.54-1.58-1.11-1.58-1.32,0-2.77,1.34-3,4.21v4.65a1.49,1.49,0,0,1-1.59,1.52,1.47,1.47,0,0,1-1.51-1.52V405.92a1.55,1.55,0,0,1,3.1,0ZM264.3,397c-.37,0-.61.14-.61.68v9.54a4,4,0,0,1,4.08-2.8c2.94,0,4.65,2.49,4.65,5.6,0,4-2.42,7.85-6.74,7.85-3.47,0-5.09-2.7-5.09-5.66V397.8c0-3.2,1.32-3.84,3.58-3.84h.26a1.34,1.34,0,0,1,1.45,1.51,1.39,1.39,0,0,1-1.45,1.55ZM269,410.14c0-1.35-.5-2.67-2.16-2.67-1.82,0-3,1.55-3.1,4v.33c0,1.55.64,3,2.13,3C267.87,414.86,269,412.13,269,410.14Zm5.09,1a6.42,6.42,0,0,1,6.71-6.71c3.94,0,5.8,2.36,5.8,4.55,0,2.36-1.79,4.11-5,4.11a4.81,4.81,0,0,1-1.82-.37,1.41,1.41,0,0,1-.91-1.35,1.48,1.48,0,0,1,1.48-1.51c.41,0,1,.27,1.45.27a1.28,1.28,0,0,0,1.42-1.25c0-.84-.68-1.48-2.4-1.48a3.43,3.43,0,0,0-3.37,3.74,3.7,3.7,0,0,0,3.85,3.77,5.76,5.76,0,0,0,3.3-.94,2,2,0,0,1,1-.3,1.29,1.29,0,0,1,1.18.67,1.71,1.71,0,0,1-.74,2.26,8.57,8.57,0,0,1-5,1.28A6.72,6.72,0,0,1,274,411.15ZM289.31,406a1.46,1.46,0,0,1,1.55-1.52,1.48,1.48,0,0,1,1.55,1.52v1.21c.85-1.69,2.19-2.73,3.48-2.73a2.19,2.19,0,0,1,2.39,2.12,1.58,1.58,0,0,1-1.38,1.66c-.85,0-.91-.68-1.69-.68-1.79,0-2.8,3.31-2.8,5v3.75a1.45,1.45,0,0,1-1.55,1.51,1.47,1.47,0,0,1-1.55-1.51Zm17.83-1,3.95-6.68a1.56,1.56,0,0,1,1.35-.81c1,0,1.45.57,1.45,1.25a2.17,2.17,0,0,1-.31,1l-3.47,6c.44-.71,1.45-1,2.7-1,2.86,0,5.26,2.56,5.26,6.37a6.71,6.71,0,0,1-13.42,0C304.65,409.87,305,408.65,307.14,405Zm4.22,2.39a3.73,3.73,0,1,0,3.57,3.74A3.47,3.47,0,0,0,311.36,407.34Zm8.83.37a1.43,1.43,0,0,1-1.49-1.48,1.47,1.47,0,0,1,1.49-1.55h1.62v-1.93a1.45,1.45,0,0,1,1.55-1.51,1.47,1.47,0,0,1,1.55,1.51v1.93h2.43a1.41,1.41,0,0,1,1.44,1.55,1.38,1.38,0,0,1-1.44,1.48h-2.43v5.87c0,.94.17,1.31.6,1.31a1.08,1.08,0,0,0,.75-.3,1.59,1.59,0,0,1,1.21-.51,1.37,1.37,0,0,1,1.45,1.52,1.82,1.82,0,0,1-.37,1,4.19,4.19,0,0,1-3.14,1.28c-2.69,0-3.6-1.72-3.6-3.94v-6.24ZM331,397.8c0-3.2,1.32-3.84,3.58-3.84h.27a1.34,1.34,0,0,1,1.45,1.51,1.39,1.39,0,0,1-1.45,1.55h-.14c-.37,0-.61.14-.61.68V407a4.41,4.41,0,0,1,4.05-2.56c2.09,0,3.67,1.31,3.67,4v5.9c0,.51.11.61.34.61a1,1,0,0,0,.57-.27,1.21,1.21,0,0,1,1.93,1.08,1.48,1.48,0,0,1-.61,1.18,3.21,3.21,0,0,1-2.36.84c-1.79,0-3-.94-3-3.37v-5.23c0-1.38-.6-1.72-1.31-1.72-1.45,0-3.2,1.42-3.31,4.42v4.38a1.55,1.55,0,0,1-3.1,0Zm28.49,18.07a4.76,4.76,0,0,1-3.95,2c-3,0-4.78-2.49-4.78-5.8,0-4.28,2.56-7.65,6.3-7.65a3,3,0,0,1,2.33.94,1.46,1.46,0,0,1,1.48-.94,1.41,1.41,0,0,1,1.55,1.48v8.43c0,.51.1.61.34.61a1.07,1.07,0,0,0,.57-.27,1.21,1.21,0,0,1,1.92,1.08,1.48,1.48,0,0,1-.61,1.18,3.18,3.18,0,0,1-2.35.84A2.56,2.56,0,0,1,359.53,415.87ZM354.1,412c0,1.76.84,2.84,2.06,2.84,1.92,0,3.13-2.23,3.2-4.28v-.44c-.1-1.72-1-2.67-2.16-2.67C355.18,407.47,354.1,409.6,354.1,412Zm15.71-5a4.38,4.38,0,0,1,4-2.56c2.09,0,3.68,1.31,3.68,4v5.9c0,.51.1.61.34.61a1.1,1.1,0,0,0,.57-.27,1.21,1.21,0,0,1,1.92,1.08,1.48,1.48,0,0,1-.61,1.18,3.19,3.19,0,0,1-2.36.84c-1.78,0-3-.94-3-3.37v-5.23c0-1.38-.61-1.72-1.32-1.72-1.45,0-3.2,1.42-3.3,4.42v4.38a1.49,1.49,0,0,1-1.59,1.52,1.47,1.47,0,0,1-1.51-1.52V405.92a1.55,1.55,0,0,1,3.1,0Zm22.79,7.35c0,.51.1.61.33.61a1.09,1.09,0,0,0,.58-.27,1.21,1.21,0,0,1,1.92,1.08,1.48,1.48,0,0,1-.61,1.18,3.21,3.21,0,0,1-2.36.84,2.57,2.57,0,0,1-2.8-1.92,4.75,4.75,0,0,1-3.94,2c-3,0-4.79-2.49-4.79-5.8,0-4.28,2.56-7.65,6.31-7.65a3,3,0,0,1,2.25.88v-9.88a1.56,1.56,0,0,1,3.11,0ZM384.24,412c0,1.76.84,2.84,2.05,2.84,2,0,3.2-2.33,3.2-4.45,0-1.89-.94-2.94-2.15-2.94C385.31,407.47,384.24,409.6,384.24,412Zm20.25,5.06a1.33,1.33,0,0,1-1.18.71,1.61,1.61,0,0,1-1.61-1.48,1.42,1.42,0,0,1,.2-.71l8.76-14.94h-7.82a1.43,1.43,0,0,1-1.48-1.48,1.36,1.36,0,0,1,1.45-1.48h10c1.08,0,1.59.5,1.59,1.24s-.07,1-1.05,2.67Zm11.87-9.37a1.43,1.43,0,0,1-1.48-1.48,1.46,1.46,0,0,1,1.48-1.55H418v-1.93a1.45,1.45,0,0,1,1.55-1.51,1.47,1.47,0,0,1,1.55,1.51v1.93h2.43a1.42,1.42,0,0,1,1.45,1.55,1.38,1.38,0,0,1-1.45,1.48h-2.43v5.87c0,.94.17,1.31.61,1.31a1.06,1.06,0,0,0,.74-.3,1.59,1.59,0,0,1,1.21-.51,1.37,1.37,0,0,1,1.45,1.52,1.75,1.75,0,0,1-.37,1,4.19,4.19,0,0,1-3.14,1.28c-2.69,0-3.6-1.72-3.6-3.94v-6.24Zm10.85-9.91c0-3.2,1.32-3.84,3.58-3.84h.27a1.34,1.34,0,0,1,1.45,1.51,1.39,1.39,0,0,1-1.45,1.55h-.14c-.37,0-.61.14-.61.68V407a4.41,4.41,0,0,1,4.05-2.56c2.09,0,3.68,1.31,3.68,4v5.9c0,.51.1.61.33.61a1.09,1.09,0,0,0,.58-.27,1.21,1.21,0,0,1,1.92,1.08,1.48,1.48,0,0,1-.61,1.18,3.21,3.21,0,0,1-2.36.84c-1.79,0-3-.94-3-3.37v-5.23c0-1.38-.6-1.72-1.31-1.72-1.45,0-3.2,1.42-3.31,4.42v4.38a1.55,1.55,0,0,1-3.1,0Zm16.32,22.08a1.79,1.79,0,0,1-1,.91,1.72,1.72,0,0,1-1.92-1.18,1.47,1.47,0,0,1,.07-1l1.72-4.08a1.61,1.61,0,0,1,1-.87,1.73,1.73,0,0,1,2,1.18,1.32,1.32,0,0,1-.07.94Zm10.72-2.33a1.33,1.33,0,0,1-1.48-1.38c0-.94.64-1.25,1.75-1.65,3.94-1.48,8.26-6.07,8.26-10.38a3.38,3.38,0,0,0-3.47-3.68,2.93,2.93,0,0,0-3.21,2.87,2.83,2.83,0,0,0,1.11,2.42,1.44,1.44,0,0,1,.54,1.18,1.62,1.62,0,0,1-1.51,1.62,1.6,1.6,0,0,1-.95-.3,6.2,6.2,0,0,1-2.42-4.89c0-3.51,2.76-5.9,6.47-5.9a6.34,6.34,0,0,1,6.64,6.71c0,5.16-4.38,9.1-6.91,10.38h6.2a1.39,1.39,0,0,1,1.45,1.49,1.46,1.46,0,0,1-1.48,1.51Zm21.57-20.09c4.28,0,7.22,3.41,7.22,10.18s-2.87,10.15-7.22,10.15-7.18-3.37-7.18-10.15S471.54,397.46,475.82,397.46Zm0,3c-2,0-4,2.29-4,7.18s2,7.18,4,7.18,4.08-2.29,4.08-7.18S477.88,400.46,475.82,400.46Zm10.05.3a1.53,1.53,0,0,1,0-3.06h1.62c3.1,0,3.94.6,3.94,4.25v14.32a1.48,1.48,0,0,1-1.55,1.52,1.51,1.51,0,0,1-1.59-1.52V401.81c0-.71-.2-1.05-.8-1.05Zm19.25,9.55L501.17,417a1.57,1.57,0,0,1-1.35.81c-1,0-1.45-.57-1.45-1.25a2.2,2.2,0,0,1,.31-1l3.47-6c-.44.71-1.45,1-2.7,1-2.86,0-5.26-2.56-5.26-6.37a6.71,6.71,0,1,1,13.42,0C507.61,405.38,507.31,406.6,505.12,410.31Zm-4.22-2.4a3.73,3.73,0,1,0-3.57-3.74A3.47,3.47,0,0,0,500.9,407.91Zm22.52,8a4.75,4.75,0,0,1-3.94,2c-3,0-4.79-2.49-4.79-5.8,0-4.28,2.56-7.65,6.3-7.65a2.93,2.93,0,0,1,2.33.94,1.46,1.46,0,0,1,1.48-.94,1.41,1.41,0,0,1,1.55,1.48v8.43c0,.51.1.61.34.61a1,1,0,0,0,.57-.27,1.21,1.21,0,0,1,1.93,1.08,1.48,1.48,0,0,1-.61,1.18,3.23,3.23,0,0,1-2.36.84A2.57,2.57,0,0,1,523.42,415.87ZM518,412c0,1.76.85,2.84,2.06,2.84,1.92,0,3.13-2.23,3.2-4.28v-.44c-.1-1.72-1-2.67-2.16-2.67C519.07,407.47,518,409.6,518,412Zm12.44-4.31a1.43,1.43,0,0,1-1.48-1.48,1.46,1.46,0,0,1,1.48-1.55h1.62v-1.93a1.45,1.45,0,0,1,1.55-1.51,1.47,1.47,0,0,1,1.55,1.51v1.93h2.43a1.42,1.42,0,0,1,1.45,1.55,1.38,1.38,0,0,1-1.45,1.48h-2.43v5.87c0,.94.17,1.31.61,1.31a1,1,0,0,0,.74-.3,1.59,1.59,0,0,1,1.21-.51,1.37,1.37,0,0,1,1.45,1.52,1.75,1.75,0,0,1-.37,1,4.18,4.18,0,0,1-3.13,1.28c-2.7,0-3.61-1.72-3.61-3.94v-6.24Zm26.43,7c5.49,0,7.52-3.74,7.52-8.26,0-2.9-1.69-6.2-4.79-6.2a2.9,2.9,0,0,0-3.14,3.16,4.16,4.16,0,0,0,1.52,3,1.52,1.52,0,0,1,.58,1.15,1.67,1.67,0,0,1-1.62,1.65,1.54,1.54,0,0,1-.95-.3,7,7,0,0,1-2.76-5.36c0-3.68,2.83-6.07,6.61-6.07,5,0,8.12,4.45,8.12,9,0,7.21-4.11,11.36-11.09,11.36-6.64,0-10.92-4.42-11-10.75a11.65,11.65,0,0,1,4.39-9.11,2.32,2.32,0,0,1,1.28-.47,1.47,1.47,0,0,1,1.51,1.52,2.21,2.21,0,0,1-.6,1.25,9.87,9.87,0,0,0-3,6.81C549.48,411.08,551.84,414.69,556.86,414.69Zm21.74-7.35a1.44,1.44,0,0,1-2.16,1.28c-.77-.57-1.28-1.25-2.46-1.25-.91,0-1.45.51-1.45,1.18s.85,1.25,2,2c1.49.95,3.27,2,3.27,4s-1.28,3.34-3.6,3.34c-1.56,0-3.58-.47-3.58-2.33a1.39,1.39,0,0,1,1.38-1.48c.78,0,1.29.91,2.13.91.47,0,.64-.17.64-.44,0-.5-1-1-2.26-1.82-1.48-.87-3-1.78-3-4a4.29,4.29,0,0,1,4.59-4.25,5.08,5.08,0,0,1,4.18,2A1.44,1.44,0,0,1,578.6,407.34Zm10.08,8.53a4.75,4.75,0,0,1-3.94,2c-3,0-4.79-2.49-4.79-5.8,0-4.28,2.56-7.65,6.3-7.65a2.93,2.93,0,0,1,2.33.94,1.47,1.47,0,0,1,1.48-.94,1.41,1.41,0,0,1,1.55,1.48v8.43c0,.51.1.61.34.61a1,1,0,0,0,.57-.27,1.21,1.21,0,0,1,1.93,1.08,1.48,1.48,0,0,1-.61,1.18,3.23,3.23,0,0,1-2.36.84A2.57,2.57,0,0,1,588.68,415.87ZM583.25,412c0,1.76.85,2.84,2.06,2.84,1.92,0,3.13-2.23,3.2-4.28v-.44c-.1-1.72-1-2.67-2.16-2.67C584.33,407.47,583.25,409.6,583.25,412Zm12.64-14.22c0-3.2,1.32-3.84,3.58-3.84h.27a1.34,1.34,0,0,1,1.45,1.51,1.39,1.39,0,0,1-1.45,1.55h-.14c-.37,0-.6.14-.6.68v8.8a4.69,4.69,0,0,1,4.11-2.06,3.08,3.08,0,0,1,3.37,3.3c0,1.89-1.59,3.64-3.78,4.42a2.72,2.72,0,0,1,1.66,1.35c.43.64.9,1.18,1.18,1.18.43,0,.7-.57,1.21-.57a1.4,1.4,0,0,1,1.41,1.41,2.43,2.43,0,0,1-2.62,2.26c-1.32,0-1.86-.24-3.27-2.09a22.41,22.41,0,0,0-1.69-2.33,1.89,1.89,0,0,1-.68-1.41c0-.68.31-1,1.12-1.45,1.92-1.05,2.29-1.65,2.29-2.33,0-.4-.24-.71-.91-.71-1.55,0-3.4,1.45-3.4,4.59v4.21a1.49,1.49,0,0,1-1.59,1.52,1.47,1.47,0,0,1-1.52-1.52Zm22,18.07a4.76,4.76,0,0,1-3.95,2c-3,0-4.79-2.49-4.79-5.8,0-4.28,2.57-7.65,6.31-7.65a2.92,2.92,0,0,1,2.32.94,1.48,1.48,0,0,1,1.49-.94,1.41,1.41,0,0,1,1.55,1.48v8.43c0,.51.1.61.34.61a1.1,1.1,0,0,0,.57-.27,1.21,1.21,0,0,1,1.92,1.08,1.48,1.48,0,0,1-.61,1.18,3.19,3.19,0,0,1-2.36.84A2.56,2.56,0,0,1,617.91,415.87ZM612.48,412c0,1.76.84,2.84,2,2.84,1.93,0,3.14-2.23,3.21-4.28v-.44c-.1-1.72-1-2.67-2.16-2.67C613.56,407.47,612.48,409.6,612.48,412ZM685,347.82s-.18-.45-.73-1.62a10,10,0,0,0-1.46-2.51,2.31,2.31,0,0,0-2.09-.94,1.41,1.41,0,0,0-1.15,1.67,3.74,3.74,0,0,0,1.25,2.26c.51.31,2.64,2.07,2.64,2.07a30.06,30.06,0,0,1-3.49.38c-1.82.08-2.66,2.86-2.1,3.59a2.87,2.87,0,0,0,3.14.6c1.1-.48,3.37-3,3.37-3a10,10,0,0,1-.61,2.8c-1.19,3,1,3.76,1.19,3.85a3.63,3.63,0,0,0,1,.12,2.65,2.65,0,0,0,1.52-3c-.32-1.27-1.25-3.88-1.25-3.88a20.16,20.16,0,0,0,3.08,2.51,2.9,2.9,0,0,0,2.4-.3c.52-.25,1.13-.71.86-1.39s0-1.39-1.07-1.94-2.53-.48-5-.11c3.92-2.45,3.73-4.73,3.2-5.36s-.84-.46-1.37-.38-.76-.1-1.18.12a5.49,5.49,0,0,0-2,4.12Zm19.74-18.9s-.77-.52-2.88-1.76a19.59,19.59,0,0,0-5-2.38,4.37,4.37,0,0,0-4.28.78c-1.26.94-.93,2.73,0,3.85a7.22,7.22,0,0,0,4.4,2.2c1.13-.06,6.35.42,6.35.42a55.19,55.19,0,0,1-5.07,4.34c-2.76,2.07-1.1,7.33.57,7.89s4.33-.5,5.55-2.43,2.06-8.36,2.06-8.36a19.74,19.74,0,0,1,2.05,5c1.38,6,5.58,4.84,6,4.76a6.74,6.74,0,0,0,1.69-.88,5,5,0,0,0-.87-6.4c-1.87-1.66-6.13-4.74-6.13-4.74s5.73,1,7.53.64,2.9-2.1,3.44-3,1-2.32-.13-3.11-1.53-2.15-3.77-1.89-4.49,1.95-7.91,5.14c3.53-8.06.79-11.41-.72-11.85s-1.82.18-2.55.89-1.3.66-1.73,1.45c-1.65,4.29,1.27,8.61,1.27,8.61ZM63.5,261.66a2.82,2.82,0,0,0,0-4l-6.73-6.55a2.81,2.81,0,0,0-3.92,4l6.73,6.56a2.8,2.8,0,0,0,4,0ZM50.15,281.75a2.8,2.8,0,0,0-2.65-3l-6.63-.36a2.81,2.81,0,1,0-.3,5.61l6.62.36h.16A2.81,2.81,0,0,0,50.15,281.75ZM55,270.8a2.79,2.79,0,0,0-1.6-3.63l-10.3-4a2.81,2.81,0,0,0-2,5.24l10.3,4a2.6,2.6,0,0,0,1,.2A2.8,2.8,0,0,0,55,270.8Zm505,.61c15.81,0,27.05,18.25,22.13,44.85C576.6,346.43,559.9,361,541,361s-32.58-14.7-26.19-44.71S537.94,271.42,560.05,271.41Zm-18.47,18.41c-1.17,0-2.11,1.42-2.11,3.17s.94,3.18,2.11,3.18,2.12-1.43,2.12-3.18S542.75,289.82,541.58,289.82Zm12.7,0c-1.17,0-2.12,1.42-2.12,3.17s1,3.18,2.12,3.18,2.11-1.43,2.11-3.18S555.45,289.82,554.28,289.82Zm8.66,12.26a1.4,1.4,0,0,0-2.51-1.25c-4.37,8.74-9.51,13.36-14.48,13-4.34-.31-8.34-4.42-10.44-10.71a1.4,1.4,0,1,0-2.66.89c2.46,7.39,7.4,12.23,12.9,12.62l.75,0C550.84,316.66,557,314,562.94,302.08Z" transform="translate(-7.36 -0.46)"/></svg>