<?xml version="1.0" encoding="utf-8"?>
<!-- Generator: Adobe Illustrator 23.0.0, SVG Export Plug-In . SVG Version: 6.00 Build 0)  -->
<svg version="1.1" id="Layer_1" xmlns="http://www.w3.org/2000/svg" xmlns:xlink="http://www.w3.org/1999/xlink" x="0px"
	 y="0px" viewBox="0 0 736 520" style="enable-background:new 0 0 736 520;" xml:space="preserve">
<style type="text/css">
	.st0{opacity:0.8;fill:#FFF8E6;}
	.st1{fill:#FFF8E6;}
	.st2{fill:#444444;}
	.st3{fill:#FFFDF3;}
	.st4{fill:#FF8800;}
	.st5{fill:#FFD200;}
	.st6{fill:#F4AE00;}
	.st7{fill:#9AC130;}
	.st8{fill:#FFF140;}
	.st9{fill:#F25F5F;}
	.st10{fill:#47A5B2;}
	.st11{fill:#FFAE85;}
	.st12{fill:#ED4A35;}
	.st13{fill:#E0D8A0;}
	.st14{fill:#00709C;}
	.st15{fill:#D65803;}
	.st16{fill:#005683;}
	.st17{fill:#B4BCBF;}
	.st18{fill:#D8D8D8;}
	.st19{fill:#E5AF61;}
	.st20{fill:#CE4646;}
	.st21{fill:#732C14;}
	.st22{fill:#FFDF57;}
	.st23{fill:#195E0D;}
	.st24{fill:#FFD592;}
	.st25{fill:#EDAD51;}
	.st26{fill:#FFFDFD;}
</style>
<title>logo</title>
<circle class="st0" cx="368" cy="260" r="213.9"/>
<path class="st1" d="M311.8,372.6c-1.9,0-3.6-0.8-4.8-2.2c-0.4-0.1-0.8-0.2-1.1-0.4c-0.9,0.4-1.9,0.7-2.8,0.7
	c-0.7,0-1.4-0.1-2.1-0.3c-0.8,0.3-1.7,0.4-2.6,0.4c-2.6,0.1-5.1-1.2-6.5-3.5l-0.2,0.3c-1.1,1.9-3.1,3.1-5.3,3.1
	c-1.2,0-2.3-0.3-3.4-1c-1.1,0.6-2.4,1-3.8,1c-0.7,0-1.4-0.1-2.1-0.3c-0.8,0.2-1.6,0.3-2.4,0.3c-1,0-1.9-0.2-2.9-0.5
	c-0.8,0.3-1.7,0.4-2.6,0.4c-1.1,0-2.2-0.2-3.2-0.7c-0.9,0.4-1.9,0.7-2.8,0.7c-0.6,0-1.2-0.1-1.8-0.3c-0.7,0.2-1.4,0.3-2,0.3
	c-0.7,0-1.4-0.1-2.1-0.3c-0.8,0.2-1.6,0.3-2.4,0.3c-1.7,0-3.3-0.5-4.7-1.4c-1.3,0.9-2.8,1.4-4.4,1.4c-1.1,0-2.2-0.2-3.2-0.7
	c-0.9,0.4-1.9,0.7-2.8,0.7c-0.7,0-1.4-0.1-2.1-0.3c-0.8,0.3-1.7,0.4-2.6,0.4c-1.5,0-3.1-0.4-4.4-1.3c-1.5,0.8-3.2,1.2-4.9,1.2
	c-3,0.1-5.9-1.3-7.7-3.6c-1,2.2-3.3,3.7-5.7,3.7c-0.9,0-1.8-0.2-2.6-0.5c-1.3,0.4-2.6,0.6-3.9,0.6c-1.8,0-3.5-0.5-5.1-1.4
	c-1.5,0.9-3.2,1.4-4.9,1.4c-1.1,0-2.2-0.2-3.2-0.6c-1.9,0.7-4,0.7-5.9,0c-1.6,0.7-3.4,0.8-5,0.1c-1.6,0.6-3.3,0.6-4.9-0.1
	c-1.3,0.4-2.6,0.6-3.9,0.6c-1.6,0-3.1-0.4-4.5-1.1c-1.5,0.7-3,1-4.7,1c-1.5,0-2.9-0.3-4.3-0.9c-1.5,0.7-3.2,1-4.8,1
	c-2.1,0-4.2-0.7-5.9-1.9c-1.9,1.1-4.1,1.7-6.4,1.7h-4.4c-1.7,0-3.4-0.7-4.6-1.9c-0.1,0.1-0.3,0.2-0.4,0.4c-1.4,1.1-3.1,1.8-4.9,1.7
	c-1.1,0-2.2-0.2-3.2-0.7c-0.9,0.4-1.9,0.7-2.8,0.7c-1.4,0-2.8-0.4-3.9-1.3c-1.9,0.9-3.9,1.3-6,1.3c-7.2,0-12.4-5.2-12.4-12.3
	c0-4,1.8-7.7,4.9-10.1l0.1,0c1.1-0.9,2.5-1.3,4-1.4c0.8,0,1.6,0.1,2.4,0.4c1-0.3,2-0.4,3.1-0.4c3.5,0,6.7,1.7,8.6,4.6
	c0.4,0,0.8,0.1,1.1,0.2c0.6-0.2,1.3-0.2,1.9-0.2c1.2,0,2.4,0.2,3.4,0.8c1.5-3.1,4.8-5.2,8.9-5.2h3.8c4.6,0,7.9,2,10,4.7
	c0.8-0.2,1.7-0.3,2.5-0.3c1.7,0,3.3,0.4,4.8,1.1c1.5-0.8,3.1-1.2,4.7-1.1c1.5,0,3,0.3,4.3,1c1.4-0.7,2.9-1.1,4.5-1
	c1.3,0,2.6,0.2,3.8,0.7c1.4-0.7,3.1-0.9,4.6-0.4c0.6-0.1,1.2-0.2,1.7-0.2c0.8,0,1.5,0.1,2.3,0.3c0.7-0.2,1.5-0.3,2.2-0.3
	c0.4-4.2,3.2-6.9,7.5-6.9h0.2c3.4-0.1,6.1,2.6,6.2,6c0,0.1,0,0.2,0,0.3c0,0.5-0.1,1.1-0.2,1.6l0.2,0.1c1.4-0.7,2.9-1,4.5-1
	c1.3,0,2.6,0.2,3.8,0.7c0.9-0.4,1.9-0.7,2.9-0.7c0.5,0,1.1,0.1,1.6,0.2c1.9-0.5,3.9-0.1,5.6,1l1.6-2.6c1.1-1.9,3.2-3.1,5.4-3.1
	c2.1,0,4.1,1,5.2,2.8c0.6-0.2,1.3-0.3,1.9-0.3h0.3c1-3,3.6-4.8,7.1-4.8h0.2c3.4-0.1,6.1,2.6,6.2,6c0,0.1,0,0.2,0,0.3
	c0,0.5-0.1,1.1-0.2,1.6c0.8,0.4,1.5,1,2.1,1.7c1.7-1.7,4-2.7,6.5-2.7c0.4,0,0.9,0,1.3,0.1c0.4-0.1,0.8-0.1,1.2-0.1
	c0.8,0,1.6,0.2,2.4,0.5c1.3-0.5,2.8-0.6,4.1-0.2c0.6-0.2,1.3-0.2,2-0.2c1.5,0,3,0.4,4.2,1.2c0.3-0.1,0.5-0.3,0.8-0.4v-1.5
	c0-3.5,2.8-6.3,6.3-6.2c2.1,0,4.1,1.1,5.3,2.9c0.8-0.3,1.6-0.5,2.4-0.5h6.5c1.8,0,3.5,0.7,4.7,2c1.1-2.8,3.6-4.4,7-4.4h0.2
	c3.4-0.1,6.1,2.6,6.2,6c0,0.1,0,0.2,0,0.3c0,0.5-0.1,1.1-0.2,1.6c1.3,0.8,2.4,1.9,3.1,3.3c0.1-5.1,4.2-8.8,9.5-8.8
	c1.9,0,3.8,0.5,5.5,1.6c1.6-1.1,3.4-1.6,5.3-1.6c1.3,0,2.6,0.3,3.9,0.8c0.8-0.4,1.8-0.6,2.7-0.7h1.1c1.5,0,2.9,0.3,4.2,0.9
	c1.4-0.7,3-1.1,4.6-1c4.1,0,7.4,2.2,8.9,5.6c1.3-0.7,2.8-1.1,4.3-1.1c0.4,0,0.9,0,1.3,0.1c0.4-0.1,0.8-0.1,1.2-0.1
	c0.3,0,0.7,0,1,0.1c2.3-2.6,6.3-2.9,9-0.6c0.2,0.2,0.4,0.4,0.6,0.6c0.8-1.3,1.8-2.4,2.9-3.3l0.1,0c1.1-0.9,2.5-1.3,4-1.4
	c0.8,0,1.6,0.1,2.4,0.4c1-0.3,2-0.4,3.1-0.4c3.5,0,6.7,1.7,8.6,4.6c0.2,0,0.5,0,0.7,0c1.4,0,2.7,0.3,3.9,0.9c1.2-0.6,2.6-0.9,4-0.9
	c0.4,0,0.7,0,1.1,0.1c0.3-4.2,3.2-6.9,7.5-6.9h0.2c3.4-0.1,6.1,2.6,6.2,6c0,0.1,0,0.2,0,0.3c0,0.5-0.1,1.1-0.2,1.6l0.1,0.1
	c1.3-0.7,2.7-1,4.2-1c0.4,0,0.9,0,1.3,0.1c0.4-0.1,0.8-0.1,1.2-0.1c3.4,0,6.2,2.7,6.3,6.1c0,0,0,0.1,0,0.1v2.1
	c2.4,2.4,2.5,6.3,0.1,8.7c-0.2,0.2-0.4,0.4-0.6,0.5c-1.4,1.2-3.1,1.8-4.9,1.7c-0.7,0-1.4-0.1-2.1-0.3c-0.8,0.2-1.6,0.3-2.4,0.3
	c-1,0-2-0.2-2.9-0.5c-0.8,0.3-1.7,0.5-2.6,0.5c-1,0-1.9-0.2-2.8-0.5c-1.4,0.6-2.9,0.7-4.3,0.2c-0.7,0.2-1.4,0.3-2.1,0.3
	c-0.7,0-1.4-0.1-2.1-0.3c-0.8,0.2-1.6,0.3-2.4,0.3c-1.2,0-2.4-0.3-3.5-0.8c-2.8,1.2-6,0.9-8.4-0.8c-2,1-4.1,1.5-6.3,1.5
	c-2.8,0-5.6-0.9-7.9-2.6l-0.1,0.1c-1.5,1.7-3.7,2.6-6,2.6c-1.1,0-2.2-0.2-3.2-0.7c-0.9,0.4-1.9,0.6-3,0.6c-0.7,0-1.4-0.1-2.1-0.3
	c-0.8,0.2-1.6,0.3-2.4,0.3c-2.9,0-5.5-1.5-7-3.9l-0.5,0.8c-1.8,3-5.6,4-8.6,2.2c0,0,0,0,0,0c-2.3,1.4-5.2,1.1-7.3-0.6
	c-1.5,1-3.3,1.5-5.1,1.5c-1.4,0-2.8-0.3-4-0.9c-0.9,0.5-1.9,0.7-2.9,0.7h-7.2c-1,0-1.9-0.2-2.8-0.6c-0.8,1.2-2,2.1-3.4,2.5l-0.1,0
	C312.7,372.5,312.3,372.6,311.8,372.6z M376.5,333.4c-6.7,0-12.5-2.3-16.7-6.6c-4.4-4.5-6.7-11-6.7-18.8c0-1.8,0.1-3.5,0.3-5.3
	c-2.7,4-5.9,7.7-9.5,10.9h1.7c2.6-0.1,5.1,1,6.7,3c1.6,2,2.2,4.7,1.7,7.3c0,0,0,0.1,0,0.1c-1,4.8-5.2,8.2-10.1,8.3H312
	c-2.7,0.1-5.2-1-6.9-3.1c-0.8-1-1.3-2.1-1.5-3.3c-0.9,1.5-2,2.7-3.4,3.7c-3,2.3-6.6,3.5-10.3,3.4c-3.5,0-6.4-1-8.4-2.8
	c-3.4,2-7.3,3.1-11.2,3.1c-6.5,0-10.3-3-12.3-5.5c-0.2-0.3-0.5-0.7-0.7-1c-2.8,4-7.8,6.1-12.1,6.1c-6.7,0-9.6-3-12.8-8.9
	c0-0.1-0.1-0.2-0.1-0.2c-0.1-0.2-0.2-0.3-0.2-0.5l-0.3,1.2c-1,4.9-5.4,8.4-10.4,8.3c-2.6,0-5.1-1.1-6.8-3.1
	c-0.1-0.2-0.3-0.3-0.4-0.5l-0.3,0.2c-3,2.3-6.6,3.5-10.3,3.4c-3.5,0-6.4-1-8.4-2.8c-3.4,2-7.3,3.1-11.2,3.1c-6.5,0-10.3-3-12.3-5.5
	c-1.2-1.5-2.2-3.3-2.7-5.2c-4,6.3-11.7,10.3-20.2,10.3c-6.3,0-14.2-3.2-16.4-9.2c0-0.1,0-0.1-0.1-0.2c-1.5-5.6,1.8-11.4,7.4-12.9
	c0.8-0.2,1.5-0.3,2.3-0.4c1.8,0,3.5,0.6,5,1.6c0.6,0.4,1.2,0.9,1.7,1.4c1,0.9,1.1,1,1.9,1c0.6,0,1.1-0.1,1.7-0.2
	c-0.7-1-3.3-2.7-5.1-3.8c-3.6-2.3-8.5-5.5-11.5-10.5c-7.4,21-24.5,33.2-47.2,33.2c-12.2,0-21.9-4-28.1-11.6s-8.2-18.1-5.6-30.1
	c0.7-3.3,1.8-6.6,3.1-9.7c-1.3,1.1-2.9,1.7-4.6,1.7h-0.4l-4.3-0.3c-3.9-0.2-6.9-3.5-6.7-7.5c0.1-2,1.1-3.9,2.6-5.1
	c-2.5-3-2.2-7.5,0.8-10c1.3-1.1,2.9-1.7,4.5-1.7c0.4,0,0.9,0,1.3,0.1c-0.1-0.4-0.1-0.8-0.1-1.2c-0.1-3.9,3.1-7.1,7-7.2
	c1.9,0,3.7,0.7,5,2l4.4,4.3c2.4,2.4,2.8,6.1,1,8.9c2.8-2.9,5.9-5.6,9.3-7.8l0.3-0.2c1.4-0.8,4.2-2.1,7.1-2.1
	c2.7-0.1,5.4,1.1,7.1,3.3c0.6,0.7,1,1.5,1.3,2.3c5.5-3.8,12.1-5.8,18.8-5.8c8.5,0,15.5,3.2,20.4,9.2c2.6,3.2,4.4,7,5.2,11
	c5.3-7.5,14-11.9,23.2-11.8c7.1,0,13,2.5,16.7,7c3.7,4.5,4.9,10.6,3.5,17.3c-0.1,0.6-0.3,1.1-0.5,1.7c4.5-3.7,10.1-5.8,15.9-5.9
	c2.1,0,4.1,0.4,6,1.2c1.6-0.8,3.3-1.2,5.1-1.2c2.7-0.1,5.3,1,7,3.1c1.6,2.1,2.2,4.8,1.5,7.3l-4,18.8c0.9,0.2,1.8,0.5,2.6,1l9.6-45.3
	c2.2-10.5,7.6-15.1,17.6-15.1h0.7c2.6-0.1,5.1,1,6.8,3c0.9,1.1,2.3,3.6,1.4,7.5c-0.7,4.1-3.9,7.3-7.9,8.1l-2.6,12.3
	c1.9-0.5,3.8-0.7,5.8-0.7c5.8,0,9,2.4,10.6,4.4c2.3,2.8,3.1,6.6,2.4,10.8c5.3-9.2,14.2-15.2,23.8-15.2c2.1,0,4.1,0.4,6,1.2
	c1.6-0.8,3.3-1.2,5.1-1.2c2.7-0.1,5.3,1,7,3.1c1.6,2.1,2.2,4.8,1.5,7.3l-4,18.8c1.8,0.3,3.4,1.2,4.5,2.6c0.8,1,1.4,2.2,1.7,3.5
	c1.9-3.4,5.5-4.6,8.3-5.6c4.6-1.6,9.8-4.7,14.3-8.5c-1.2,0.6-2.6,0.9-4,0.9c-2.3,0-4.5-0.8-6.1-2.4c-4.9-4.9-6.8-11.6-5.3-18.8v-0.1
	c2.7-12.3,14-21,27.4-21c7,0,12.9,2.5,16.6,7.1c2.6,3.2,4,7.2,4.1,11.3c6.4-11.6,16.5-18,29.2-18c6,0,11.4,2.8,15.1,8
	c0.4,0.5,0.7,1,1,1.5c0-0.2,0.1-0.5,0.1-0.7c0,0,0-0.1,0-0.1c1.1-4.8,5.4-8.4,10-8.4h4.9c4.3,0,9.2,0.3,12.1,4
	c1.8,2.3,2.4,5,2.2,8.3c4-6.1,10.1-10.5,17.2-12.1c-0.2-0.2-0.4-0.4-0.6-0.7c-1.7-2.2-2.3-5-1.6-7.7l4-18.6
	c-2.9,1.7-6.1,2.6-9.5,2.5c-4.6,0-8.1-1.4-10.4-4.3c-2.5-3.1-3.2-7.4-2-12.9l3.4-16.2c-2.1,1.9-4.6,5.6-5.9,12.1l-2.7,12.4
	c-1.2,5.8-6.5,8.8-11.1,8.8c-2.8,0.1-5.5-1.1-7.3-3.3c-1.7-2.2-2.3-5-1.6-7.7l4.8-22.7c-1.9,1.5-4.1,4.4-5.4,9.3l-3.3,15.5
	c-1.1,5.3-5.8,9-11.1,8.9c-2.8,0-5.4-1.2-7.2-3.3c-0.2-0.2-0.3-0.4-0.5-0.7l-0.2,0.1c-3.3,2.5-7.3,3.9-11.5,3.8
	c-4.1,0-7.4-1.2-9.6-3.4c-3.9,2.4-8.4,3.7-12.9,3.7c-7.2,0-11.3-3.3-13.6-6c-0.7-0.8-1.2-1.7-1.7-2.6c-0.6,0.9-1.2,1.7-2,2.4
	c-5.9,6.5-17.9,13.6-33.4,13.6c-11.5,0-20.9-4-27-11.6c-1.4-1.7-2.6-3.5-3.5-5.5c-0.9,2.3-2.4,4.2-4.5,5.6
	c-3.3,2.5-7.3,3.8-11.4,3.8c-4.1,0-7.4-1.2-9.6-3.4c-3.9,2.4-8.4,3.7-12.9,3.7c-7.2,0-11.3-3.3-13.6-6c-3.8-4.7-5-11.6-3.3-19.5
	c0.5-2.4,1.2-4.7,2.1-7c-0.3,0-0.6,0.1-1,0.1c-2.1,0-4.1-0.7-5.6-2.1c-2.1,1.2-6,6.7-7.6,12.4l-2.8,13c-1.1,5.2-5.7,9-11,9
	c-2.8,0.1-5.5-1.1-7.3-3.3c-1.7-2.2-2.4-5.1-1.7-7.8l0.4-1.9c-6,8-15.6,12.9-26.5,12.9c-8.2,0-15.1-2.9-19.3-8.1
	c-2.9-3.6-5.9-10.1-3.8-20.2c0.1-0.3,0.2-0.7,0.2-1L115.3,234c-2.4,3.9-6,6.1-10.1,6.1c-4.8,0-8.4-3.1-9.3-8l-1.7-9.9l-7,11.7
	c-2.3,3.9-5.9,6.2-10,6.2c-4.9,0-8.3-2.9-9.3-7.9c0-0.1,0-0.1,0-0.2l-5.2-34.9c-1.9-12.5-3.1-14.8-7.4-14.8c-5.6,0-7.3,4-7.8,6.5
	c-0.4,2.2,0.5,4.5,1.5,6c1.1,1.3,2.5,3.8,1.9,7.7l-0.1,0.3c-1.1,4.9-5.9,8.8-10.8,8.8c-2.4,0.1-4.7-0.8-6.4-2.5
	c-5.6-5.5-7.9-13.9-6.1-22.4c2.9-14.1,15.4-24.2,29.8-24.1c18.5,0,23.3,11,26.4,34.2l0.6,4.3l4.8-8.2l-3-17.9
	c-0.2-1.2-0.2-2.5,0.1-3.8c1.1-5.5,6.7-8.8,11.4-8.8c3-0.1,5.8,1.4,7.4,3.9c2.1-2.4,5.2-3.9,8.4-3.9c2.9,0,5.7,1.3,7.6,3.5
	c1.7,2.1,2.3,4.8,1.8,7.3c-0.3,1.2-0.8,2.3-1.5,3.4l-10.9,18.2l1.3,7.2l20.3-34.4l0.1-0.2c2-3.1,5.4-5.1,9.1-5.1
	c3,0,5.9,1.3,7.9,3.6c1.7,2,2.3,4.7,1.8,7.3c-0.2,0.8-0.5,1.6-0.8,2.3l-0.1,0.1c-0.1,0.3-0.2,0.6-0.4,0.8l-10.2,17.2
	c6.1-5.3,13.9-8.2,22-8.1c8.2,0,15.1,2.9,19.3,8.1c1.6,2,2.8,4.3,3.5,6.7l1.2-5.8c1.1-5.2,5.7-9,11-8.9c2.7-0.1,5.4,1.1,7.2,3.1
	c2.8-1.9,6.1-3,9.4-3.1c5.2,0,8.1,2.2,9.6,4.1c1,1.2,1.7,2.6,2,4.1c5.5-5.2,12.4-8.2,19.6-8.2c1.2,0,2.4,0.1,3.6,0.4l5.5-26.2l0-0.1
	c1.2-5.1,5.7-8.7,10.9-8.8c2.9-0.1,5.6,1.2,7.4,3.4c1.7,2.2,2.2,5.1,1.5,7.8l-12.1,57c1.3,0.1,2.5,0.5,3.6,1.2
	c-0.9-6.2-0.6-12.6,0.8-18.7c5.5-26.3,26.6-45.4,50.2-45.4c9.6,0,17.6,3.2,22.3,9.1c4.1,5.1,5.6,12,4,19.3
	c-1.9,8.7-7.2,16.2-14.6,21.1c-1.9,1.3-4.2,2.1-6.6,2.2c-5,0.2-9.1-3.8-9.3-8.7c0-0.8,0.1-1.6,0.2-2.3c0-0.1,0-0.1,0-0.2
	c0.6-2.7,2.1-4.9,4.7-7c2.4-2.1,4.4-3.9,5-7c0.3-1.3,0.4-3.1-0.6-4.2c-1.1-1.3-3.5-2.1-6.7-2.1c-12.6,0-23.8,11.1-27.2,27.1
	c-1.7,8.3-0.8,15.2,2.5,19.3c2.6,3.3,6.9,4.9,12.5,4.9c7.3,0,10.8-2.6,15.9-6.9l0.1,0c3-2.5,6-3.8,8.8-3.8c1.8,0,3.5,0.5,5,1.5
	c0.1-1.1,0.3-2.2,0.5-3.3c3.6-17.1,16.8-29.5,31.3-29.5c2.4-0.1,4.8,0.4,6.9,1.5c1.8-1,3.8-1.5,5.8-1.5c2.8-0.1,5.6,1.1,7.4,3.3
	c1.7,2.2,2.3,5.1,1.6,7.8l-4.8,22.4c1.2,0.1,2.3,0.5,3.3,1l5.4-25.7c1.1-5.2,5.7-8.9,11-8.8c2.7-0.1,5.3,1,7.1,3c3.4-1.9,7-3,10.2-3
	c5,0,8.5,1.6,10.7,3.9c3.7-2.5,8-3.8,12.4-3.9c4.6-0.1,9,1.9,11.9,5.4c3,3.6,3.9,8.6,2.8,14.1l-3,13.9c1.5,0.1,3,0.7,4.3,1.7l5.6-26
	c1.1-5.2,5.7-9,11-8.9c2.5,0,4.9,0.9,6.7,2.6c3.4-1.8,7.2-2.7,11-2.7c7.2,0,11.3,3.3,13.5,6c3.8,4.7,5,11.6,3.4,19.5
	c-3.6,17.1-16.9,29.5-31.4,29.5c-1.2,0-2.3-0.1-3.5-0.3l-3.9,18.2c-0.5,2.5-1.9,4.7-3.8,6.3c3.9,1,7.3,3.2,9.9,6.2
	c3.8,4.7,5.1,11.3,3.5,18.6c-0.7,3.1-1.9,6.1-4.8,10.3c1-0.5,2.1-0.7,3.2-0.7h0.4c0.1-0.2,0.2-0.4,0.3-0.6c0.5-1,1.3-1.8,2.3-2.4
	c1.2-1.2,2.8-2,4.5-2c0.7,0,1.4,0.1,2,0.3c2,0.6,3.6,2.1,4.5,4c0,0,0,0.1,0.1,0.1c2,0,3.9,0.8,5.3,2.3l0,0c2.2,1.7,3.5,5.1,1.4,8.8
	c-0.5,0.8-1,1.6-1.7,2.3c0.7,2.5,0.2,5.1-1.3,7.2c-0.3,0.4-0.6,0.7-1,1c-1,0.7-2.1,1.2-3.2,1.5c-0.6,0.1-1.2,0.2-1.8,0.2
	c-1.3,0-2.7-0.3-3.8-1c-1.3,0.9-2.9,1.5-4.5,1.6c-0.3,2.1-1.6,3.8-3.5,4.7c-0.3,0.1-0.5,0.2-0.8,0.3c-0.8,1.4-2.1,2.5-3.7,3
	c-0.5,0.2-0.9,0.2-1.4,0.3h-0.2c-0.9,0-1.8-0.2-2.6-0.5c-1-0.4-2-1.1-2.7-2c-1.6-0.3-3.1-1.2-4.1-2.5c-1.4-2-1.6-4.6-0.5-6.8
	c0.2-0.4,0.4-0.7,0.6-1c0-0.1,0-0.3-0.1-0.4c-0.1-0.8,0-1.7,0.3-2.5l-10.9,13.4c-2,2.6-5,4.2-8.3,4.2c-3.7,0-5.8-1.6-6.9-2.9
	c-1.5-1.9-2-4.4-1.4-6.7c0-0.1,0.1-0.3,0.1-0.4c0.5-1.7,1.3-3.2,2.3-4.6l5.2-6.5c-3.5-0.8-6.6-2.8-8.8-5.6c-1.7-2.1-2.9-4.5-3.5-7.1
	l-5.5,25.7c-1,4.9-5.2,8.3-10.2,8.3c-2.7,0.1-5.3-1.1-7-3.2c-1.6-2.1-2.2-4.8-1.6-7.3l8.3-39.1h-0.7c-1.8,0-3.5-0.5-4.9-1.6
	c0.7,3,1.1,6.1,1.1,9.1c0,3-0.3,6-0.9,8.9c-2,10.5-5.9,18.9-11.6,24.8C391.7,330.2,384.3,333.4,376.5,333.4z M187.8,312.2
	c-0.2,0.7-0.2,1.5-0.2,2.3c2.6-0.5,5.8-4.5,6.9-8.8c0.1-0.2,0.1-0.5,0.2-0.7l0,0c0.2-0.7,0.2-1.5,0.1-2.2
	C192,302.9,188.9,307,187.8,312.2z M274.2,312.2c-0.2,0.7-0.2,1.5-0.2,2.3c2.6-0.5,5.8-4.5,6.9-8.8c0.1-0.2,0.1-0.5,0.2-0.7l0,0
	c0.2-0.7,0.2-1.5,0.1-2.2C278.3,302.9,275.3,307,274.2,312.2z M250.8,312.4c1.2,0,2.4,0.2,3.6,0.7c0.1-0.9,0.3-1.9,0.5-2.9
	c0.3-1.3,0.6-2.6,1-3.8c-1.7,2.4-3.8,4.4-6.2,6.1C250,312.4,250.4,312.4,250.8,312.4z M80.8,282.6c-2.3,3.2-3.9,6.9-4.7,10.8
	c-1.4,6.3-0.6,11.5,2.1,14.9c2.5,3,6.5,4.6,12.2,4.6c18.3,0,24.1-14.7,26-23.5c1.1-5.1,0.4-10.1-1.7-12.7c-1.2-1.5-2.7-2.1-4.9-2.1
	c-4.2,0-7,2.4-7.9,6.8v0.1c-0.4,2,0.2,4.1,1.6,5.6c2.2,2.2,3.1,5.4,2.3,8.4c-1.2,5-6.2,9.1-11.2,9.1c-2.2,0-4.3-0.7-5.9-2.1
	c-0.2-0.1-0.3-0.2-0.4-0.4C82.9,297,80.2,289.9,80.8,282.6z M470,305.6c-0.9,1.2-2,2.5-3.1,3.9l-1.7,2.1c0.8-0.4,1.7-0.7,2.6-0.7
	h0.3c0.9,0,1.9,0.2,2.7,0.5c0.4-0.1,0.9-0.2,1.3-0.2c-0.2-0.2-0.3-0.3-0.4-0.5C470.5,309.3,469.9,307.5,470,305.6z M159.3,282.8
	c-4,0-6.2,2.4-6.7,4.9c-0.4,1.7,1.6,3.3,6.4,6.5c3.7,2.5,8.5,5.8,11.1,10.8c1.2-3.3,2.9-6.4,5-9.2c-1.3,0.6-2.8,0.9-4.2,0.9
	c-2.7,0.1-5.4-1.1-7.1-3.2c-1.6-2.1-2.2-4.8-1.6-7.4c0.2-0.8,0.1-1.7-0.3-2.5C161.4,283,160.5,282.8,159.3,282.8z M333.5,297.7
	c-0.2,0.9-0.6,1.8-1,2.7c3.9-4.2,6.9-8.9,7.8-13.3c0.3-1.7,0.2-3-0.3-3.7c-0.5-0.6-1.4-0.9-2.6-0.9c-2.6,0-5.6,1.4-6.4,4.7
	c-0.4,1.7,0,2.1,0.2,2.3C333.4,291.5,334.2,294.7,333.5,297.7L333.5,297.7z M457,282.5c-3.1,0-6.9,1.9-8,7.1
	c-0.4,1.7-0.3,3.2,0.3,3.9s1.6,1,2.9,1c3.2,0,6.9-2.2,8-7.1c0.4-1.7,0.3-3.1-0.3-3.9S458.3,282.5,457,282.5L457,282.5z M60.1,274.5
	c0.2,0.7,0.2,1.3,0.2,2c0,0,0,0,0,0.1c1.9-3.3,4.1-6.4,6.5-9.2c-0.9,0.7-2.1,1.2-3.2,1.4C63.4,271.2,62.1,273.3,60.1,274.5
	L60.1,274.5z M478.3,220.5c0.1,0,0.2,0,0.3,0c3.7,0,7.6-5,8.9-11.4c0.5-2.1,0.3-3.2,0.1-3.6h-0.1c-3.6,0-7.9,5.3-9.2,11.1l-0.2,0.9
	C478,219.3,478.2,220.2,478.3,220.5L478.3,220.5z M353.2,220.5c3.4,0,7.8-5.1,9.2-10.7c0.1-0.2,0.1-0.5,0.2-0.7l0-0.1
	c0.4-2.2,0-3.3-0.2-3.5c-0.1,0-0.2,0-0.3,0c-3.7,0-7.6,4.9-9,11.4C352.7,218.9,352.9,220.1,353.2,220.5L353.2,220.5z M233.5,220.5
	c3.6,0,8.1-5.3,9.4-11.1c0.5-2.4,0.1-3.6-0.1-3.9c-0.1,0-0.2,0-0.3,0c-3.7,0-7.6,4.9-9,11.4C233.2,218.9,233.3,220.1,233.5,220.5
	L233.5,220.5z"/>
<path class="st1" d="M90.4,318.1c18.2,0,27.9-12.5,31.1-27.7c2.2-10.3-1.2-21.2-11.7-21.2c-6.7,0-11.6,4.1-13.1,10.9
	c-0.8,3.7,0.3,7.6,2.9,10.4c1,0.9,1.3,2.3,1,3.6c-0.6,2.6-3.3,5.1-6.1,5.1c-1,0-2-0.3-2.8-1c-4.8-4.5-6.7-11.5-5.4-17.7
	c2.6-12,13.6-20,25.9-20c16.6,0,23.8,14.5,20.4,29.9c-5,23.8-21.8,37.4-44.4,37.4c-21.8,0-33-14.4-28.6-35.5
	c2.7-12.6,10.9-23.5,20.9-30.1c1.3-0.8,2.9-1.3,4.5-1.4c2.8,0,4.2,2.1,3.7,4.7c-0.5,1.6-1.5,2.9-2.8,3.9c-6.9,6-12.9,13.2-15,23
	C68,306.3,73.8,318.1,90.4,318.1z M147.4,286.6c-2.4,11.5,22.2,13,18.9,28.6c-1.7,7.8-9.6,12.5-17.7,12.5c-4.5,0-10.2-2.2-11.5-5.7
	c-1.2-3.7,3.4-8.2,6.7-5.8c1.6,1.1,2.8,3.4,6.6,3.4c4.1,0,6.4-1.7,6.9-4.4c2-9.3-22.6-10.5-18.8-28.4c2.3-10.8,11.9-17.7,22.5-17.7
	c11.1,0,17.2,7.3,15,18c-0.5,2.5-2.7,4.3-5.2,4.3c-2.5,0-4.1-1.8-3.5-4.3c1-4.8-1.3-9.5-8-9.5C152.7,277.5,148.4,281.8,147.4,286.6
	L147.4,286.6z M205.7,318c-0.3,1.6,0,2,0.7,2c0.8-0.1,1.5-0.4,2-0.9c3.1-2,5.2,0.3,4.8,2.9c-0.4,1.4-1.2,2.5-2.4,3.3
	c-2.1,1.6-4.7,2.5-7.3,2.4c-4.1,0-6.5-1.7-6.6-5.7c-3.3,3.7-8,5.9-13,6c-8.7,0-12.3-7.2-10.2-16.7c2.6-12.4,12-22.1,22.9-22.1
	c2.8,0,4.8,0.8,6.4,2.9c0.8-1.9,2.7-3,4.7-2.9c2.4,0,4,1.4,3.4,4.1L205.7,318z M182.6,311.1c-1.1,5.4,0.8,8.7,4.5,8.7
	c5.7,0,10.9-6.4,12.4-12.8l0.2-0.5c1.2-5.5-1-9-4.8-9C188.9,297.5,184.2,304,182.6,311.1z M229.4,269.9c2-9.2,6-11,12.4-11h0.7
	c2.2,0,3.8,1.3,3.1,4.2c-0.6,2.8-2.6,4.2-4.9,4.2h-0.4c-1.2,0-2,0.5-2.3,2.3l-5.4,25.8c3.5-3.9,7.9-6.2,13.4-6.2
	c6.5,0,8.9,4.1,7.8,9.4c-1.3,5.5-7.1,10.7-13.8,12.7c2,0.5,2.9,2.1,4,4.3c1.1,2.1,2,3.6,3,3.6c1.3,0,2.4-1.7,3.8-1.7
	c2,0,3.6,1.5,3.1,3.8c-0.9,4-5.2,6.3-8.8,6.3c-3.8,0-5.2-0.8-8.2-6.1c-1.4-2.8-2.1-5.5-3.7-6.8c-1-1-1.4-2.5-1.1-3.9
	c0.4-1.8,1.5-2.8,3.9-4c6.7-2.8,8.4-5,8.8-7.1c0.3-1.3-0.4-2.3-2.5-2.3c-4.6,0-10.9,4.2-13,13.1l-2.7,12.9c-0.5,2.5-2.7,4.2-5.2,4.2
	c-2,0-3.9-1.4-3.3-4.2L229.4,269.9z M292.1,318c-0.3,1.6,0,2,0.7,2c0.8-0.1,1.5-0.4,2-0.9c3.1-2,5.2,0.3,4.8,2.9
	c-0.4,1.4-1.2,2.5-2.4,3.3c-2.1,1.6-4.7,2.5-7.3,2.4c-4.1,0-6.5-1.7-6.6-5.7c-3.3,3.7-8,5.9-13,6c-8.7,0-12.3-7.2-10.2-16.7
	c2.6-12.4,12-22.1,22.9-22.1c2.8,0,4.8,0.8,6.4,2.9c0.8-1.9,2.6-3,4.7-2.9c2.4,0,4,1.4,3.4,4.1L292.1,318z M269,311.1
	c-1.1,5.4,0.8,8.7,4.5,8.7c5.7,0,10.9-6.4,12.4-12.8l0.2-0.5c1.2-5.5-1-9-4.8-9C275.3,297.5,270.6,304,269,311.1L269,311.1z
	 M312,327c-2.6,0-3.7-1.7-3.2-3.7c0.5-2.6,2.3-3.4,5.8-4.6c12-4.2,27.9-17.5,30.7-30.6c1.5-7.3-2.7-10.9-8.1-10.9
	c-5.2,0-10.2,3.1-11.5,8.8c-0.8,3.6,0.2,5.8,1.7,7.3c0.8,0.8,1.1,2.1,0.8,3.2c-0.5,2.2-2.8,4.5-5.1,4.5c-0.9,0-1.8-0.3-2.4-0.9
	c-3.2-3.2-5.2-7.9-3.9-14.1c2.1-9.8,11.3-16.9,22.2-16.9c9.8,0,17.6,6.3,14.9,19.2c-3.3,15.8-19.6,27.2-27,30.6h18.6
	c2.7,0,3.6,2,3.2,4c-0.5,2.4-2.5,4.1-5,4.2L312,327z M413.4,278.1c-2.3,0-3.4-2.1-3-4.1c0.5-2.1,2.5-4.3,4.9-4.3h4.9
	c8.5,0,10.5,1.7,8.4,12l-8.9,41.8c-0.5,2.4-2.6,4.2-5.1,4.2c-2.1,0-4.1-1.4-3.5-4.2l8.9-42.2c0.5-2.1,0.1-3.2-1.7-3.2L413.4,278.1z
	 M462.8,306.3l-15.5,19.2c-1,1.4-2.5,2.2-4.2,2.2c-2.8,0-3.6-1.6-3.2-3.4c0.3-1.1,0.8-2,1.5-2.9l13.8-17.3c-2,2-5.1,2.8-8.5,2.8
	c-8.4,0-13.8-7.5-11.5-18.5c2.4-11.6,11.8-19.4,23.4-19.4s17.7,7.8,15.3,19.4C473.2,292.2,471.3,295.8,462.8,306.3L462.8,306.3z
	 M452.2,299.6c5.9,0,11.6-4.1,13.1-11.2c1.6-7.2-2.4-11.2-8.4-11.2c-6,0-11.6,4-13.1,11.2C442.3,295.5,446.2,299.6,452.2,299.6
	L452.2,299.6z M389,269.5c10.4,0,17.7,12,14.5,29.4c-3.6,19.8-14.6,29.3-27,29.3s-21.3-9.6-17.2-29.3
	C363.5,279.2,374.5,269.5,389,269.5L389,269.5z M387.2,277.6c-8.1,0.1-16.2,6.8-19.2,21.2s3.9,21.2,10.2,21.2
	c6.3,0,13.5-6.8,16.5-21.2S393.4,277.6,387.2,277.6L387.2,277.6z M97.1,207.3l-14.3,24c-1.3,2.3-3.2,3.6-5.5,3.6
	c-2.6,0-3.7-1.3-4.1-3.7L68,196.3c-1.7-11-3-19.3-12.6-19.3c-7.8,0-11.8,5.4-12.9,10.6c-0.8,3.9,0.7,7.8,2.6,10.4
	c0.9,0.9,1,2.2,0.8,3.6c-0.6,2.5-3.1,4.7-5.7,4.7c-1,0.1-2-0.3-2.7-1c-4.2-4.1-6.1-10.6-4.7-17.6c2.5-11.7,12.7-20,24.7-20
	c13.9,0,18.1,6.4,21.2,29.7l2.6,19.3l13.5-22.9l-3.3-20c-0.1-0.6,0-1.1,0.1-1.7c0.6-2.7,3.7-4.6,6.2-4.6c1.6,0,3.2,0.8,3.5,2.7
	l1.8,9.8l5.7-9.8c1.1-1.7,2.9-2.7,4.9-2.7c2.5,0,4.8,1.9,4.2,4.6c-0.2,0.6-0.4,1.2-0.8,1.7l-11.9,20l4,23.1l27.6-46.6
	c1-1.6,2.8-2.7,4.7-2.7c2.6,0,5,1.9,4.5,4.6c-0.2,0.6-0.4,1.1-0.7,1.7l-34.2,57.6c-1.3,2.2-3.2,3.6-5.6,3.6c-2.3,0-3.7-1.2-4.1-3.7
	L97.1,207.3z M161.3,190.7c12.9,0,21,8.1,18,22.2c-3,13.9-14.4,22-27.3,22c-12.8,0-21-8-18-22C137,198.9,148.5,190.7,161.3,190.7
	L161.3,190.7z M159.3,200.2c-7.1,0-13.2,4.9-14.8,12.7c-1.7,7.7,2.3,12.5,9.5,12.5c7,0,13.2-4.8,14.8-12.5
	C170.5,205.1,166.4,200.2,159.3,200.2L159.3,200.2z M190.5,195.5c0.5-2.8,3-4.8,5.9-4.8c2.5,0,4.6,1.6,3.9,4.8l-1,4.7
	c4-5.8,9.3-9.5,13.7-9.5c5.6,0,7.1,3.7,6.5,6.8c-0.7,3.1-3.3,5.2-5.5,5.2c-2.7,0-2.4-2.3-5-2.3c-5.9,0-11.6,10.4-13.3,16.6
	l-2.8,13.2c-0.5,2.8-3,4.9-5.9,4.8c-2.5,0-4.6-1.6-3.9-4.8L190.5,195.5z M244.7,228.3c-3.8,4.3-9.2,6.8-14.9,6.9
	c-9.9,0-14.1-8.3-11.7-19.2c3-14.2,13.7-25.3,26.2-25.3c3.2,0,5.4,0.9,7.3,3.2l7-33.2c0.6-2.8,3-4.8,5.9-4.8c2.5,0,4.6,1.6,3.8,4.8
	l-13.4,63c-0.3,1.8,0,2.2,0.8,2.2c0.9-0.1,1.7-0.4,2.3-1c3.6-2.2,6,0.3,5.5,3.3c-0.4,1.6-1.4,2.9-2.8,3.8c-2.4,1.9-5.3,2.9-8.4,2.8
	C247.6,234.9,244.8,233,244.7,228.3L244.7,228.3z M228.4,215.8c-1.2,6.1,0.9,9.9,5.1,9.9c6.8,0,12.8-7.8,14.5-15.3
	c1.3-6.4-1.1-10.3-5.5-10.3C235.6,200.2,230.2,207.7,228.4,215.8z M320.9,202.4c-2.7,0-4.5-2-3.9-4.8c0.3-1.5,1.1-2.7,2.9-4.1
	c2.8-2.3,5.8-5.1,6.8-9.9c1.6-7.5-2.9-12.6-12.4-12.6c-14.8,0-28.3,12.5-32.3,31.2c-3.7,17.5,3,30.6,20.2,30.6
	c9.4,0,14.2-3.8,19.3-8.1c1.9-1.6,3.8-2.6,5.5-2.6c1.1,0,2.2,0.4,2.9,1.3c0.9,0.8,1.3,2.1,1,3.2c-0.5,1.6-1.4,3-2.6,4.1
	c-5.5,6-16.3,11.9-29.6,11.9c-22.4,0-32.9-17.2-28-40.2c5-23.9,24-41.3,45.1-41.3c15.2,0,24,8.9,21.2,22.1
	c-1.7,8-7.1,14.6-12.3,17.7C323.6,201.8,322.3,202.3,320.9,202.4z M374.5,223.7c-0.3,1.8,0,2.2,0.8,2.2c0.7,0,1.3-0.3,2.3-1
	c3.6-2.2,6,0.3,5.5,3.3c-0.4,1.6-1.4,2.9-2.8,3.8c-2.4,1.9-5.3,2.9-8.3,2.8c-4.7,0-7.5-1.9-7.6-6.6c-3.8,4.3-9.2,6.8-14.9,6.9
	c-9.9,0-14.1-8.3-11.7-19.2c3-14.2,13.7-25.3,26.2-25.3c3.2,0,5.5,0.9,7.4,3.3c0.9-2.2,3-3.3,5.4-3.3c2.8,0,4.6,1.6,3.9,4.7
	L374.5,223.7z M348,215.8c-1.2,6.1,0.9,9.9,5.1,9.9c6.6,0,12.5-7.4,14.3-14.7l0.2-0.6c1.3-6.4-1.1-10.3-5.5-10.3
	C355.2,200.2,349.8,207.7,348,215.8L348,215.8z M404,198.3c4-4.8,10-7.6,13.9-7.6c5.6,0,8.6,2.5,8.7,7.1c4.7-5,9.9-7.1,14.4-7.1
	c6.2,0,11.4,4.7,9.6,13.2l-4.2,19.9c-0.3,1.8,0,2.2,0.9,2.2c0.8-0.1,1.6-0.5,2.2-1c3.6-2.2,6,0.3,5.5,3.3c-0.4,1.6-1.4,2.9-2.8,3.8
	c-2.3,1.9-5.3,2.9-8.3,2.8c-5.8,0-8.9-3-7.3-10.8l3.7-17.7c1.1-5-0.4-6.4-2.5-6.4c-4.8,0-11.5,5.5-14.1,17.8l-2.7,12.4
	c-0.7,2.8-3.2,4.7-6,4.7c-2.5,0-4.5-1.6-3.8-4.7l5.2-24.5c0.9-4.5-0.7-5.7-2.7-5.7c-4.7,0-10.6,4.6-13.4,14.5l-3.3,15.6
	c-0.6,2.8-3.1,4.9-6,4.8c-2.3,0-4.5-1.6-3.8-4.8l7.4-34.7c0.6-2.8,3.1-4.7,5.9-4.7c2.5,0,4.6,1.6,3.9,4.7L404,198.3z M477.2,197
	c3.7-3.9,8.8-6.2,14.2-6.2c9.9,0,14.1,8.3,11.8,19.2c-3,14.2-13.8,25.3-26.3,25.3c-3.1,0-5.4-0.8-7.1-3.1l-5.4,25.2
	c-0.6,2.8-3.1,4.7-5.9,4.7c-2.6,0-4.6-1.6-3.9-4.7l13.2-61.7c0.5-2.8,3-4.8,5.9-4.8c2.4,0,4.6,1.6,3.9,4.8L477.2,197z M492.7,210.2
	c1.3-6.1-0.8-9.9-5.1-9.9c-6.8,0-12.7,7.8-14.3,15.3l-0.2,1c-1,5.8,1.3,9.3,5.6,9.3C485.7,225.8,491.1,218.3,492.7,210.2
	L492.7,210.2z M154.6,207c-0.5,0-0.9,0.6-0.9,1.4c0,0.8,0.4,1.4,0.9,1.4s0.9-0.6,0.9-1.4C155.6,207.6,155.1,206.9,154.6,207
	L154.6,207z M160.2,207c-0.5,0-0.9,0.6-0.9,1.4c0,0.8,0.4,1.4,0.9,1.4s0.9-0.6,0.9-1.4C161.1,207.6,160.7,206.9,160.2,207L160.2,207
	z M151.4,212.9c1.8,5.5,7.4,8.3,12-0.9 M112.6,363.3c3.6,0,4.9-2.4,4.9-5.4c0-1.9-1.1-4.1-3.1-4.1c-1-0.1-2,0.7-2.1,1.7
	c0,0.1,0,0.2,0,0.4c0,0.8,0.4,1.5,1,2c0.2,0.2,0.4,0.5,0.4,0.8c0,0.6-0.5,1.1-1.1,1.1c-0.2,0-0.4-0.1-0.6-0.2
	c-1.1-0.8-1.8-2.1-1.8-3.5c0-2.4,1.9-4,4.3-4c3.3,0,5.3,2.9,5.3,5.9c0,4.7-2.7,7.4-7.3,7.4c-4.3,0-7.2-2.9-7.2-7
	c0-2.3,1.1-4.5,2.9-6c0.2-0.2,0.5-0.3,0.8-0.3c0.5,0,1,0.4,1,0.9c0,0,0,0,0,0.1c0,0.3-0.2,0.6-0.4,0.8c-1.2,1.2-1.9,2.8-2,4.5
	C107.7,361,109.3,363.3,112.6,363.3z M123.5,358.3c0.5-1,1.5-1.7,2.6-1.7c1.4,0,2.4,0.9,2.4,2.6v3.9c0,0.3,0.1,0.4,0.2,0.4
	c0.1,0,0.3-0.1,0.4-0.2c0.4-0.3,0.8-0.2,1.1,0.2c0.1,0.2,0.2,0.3,0.1,0.5c0,0.3-0.1,0.6-0.4,0.8c-0.4,0.4-1,0.6-1.5,0.6
	c-1.2,0-2-0.6-2-2.2v-3.4c0-0.9-0.4-1.1-0.9-1.1c-0.9,0-2.1,0.9-2.2,2.9v2.9c0,0.6-0.5,1-1,1s-1-0.5-1-1v-6.8c0-0.6,0.5-1,1-1
	s1,0.5,1,1L123.5,358.3z M136.1,356.1c0.1,0.7,0.4,1.3,0.9,1.7c0.2,0.2,0.4,0.5,0.4,0.8c0,0.6-0.4,1-1,1c0,0,0,0,0,0
	c-0.3,0-0.5-0.1-0.7-0.2c-1-0.8-1.7-2-1.7-3.3c0-2.5,2-3.9,4.5-3.9h3.8c4.8,0,7.1,3.4,7.1,6.6c0,3.2-2.2,6.4-6.7,6.4h-4.4
	c-0.5,0-1-0.4-1-0.9c0,0,0-0.1,0-0.1c0-0.6,0.4-1,1-1c0,0,0,0,0,0h0.9c0.6,0,0.6-0.5,0.6-1.1v-6.2c0-0.6,0.4-1,1-1c0,0,0,0,0.1,0
	c0.5,0,1,0.4,1.1,0.9c0,0,0,0.1,0,0.1v6.1c0,0.7-0.1,1.1-0.4,1.2h1.3c2.3,0,4.4-1.5,4.4-4.3c0-2.8-2.3-4.6-5.1-4.6h-3.6
	C137.1,354.3,136.1,354.9,136.1,356.1L136.1,356.1z M150.5,361c-0.1-2.3,1.7-4.3,4-4.4c0.1,0,0.3,0,0.4,0c2.6,0,3.8,1.5,3.8,3
	c0,1.5-1.2,2.7-3.3,2.7c-0.4,0-0.8-0.1-1.2-0.2c-0.4-0.1-0.6-0.5-0.6-0.9c0-0.5,0.4-1,0.9-1c0,0,0,0,0,0c0.3,0,0.7,0.2,0.9,0.2
	c0.5,0.1,0.9-0.3,0.9-0.7c0,0,0-0.1,0-0.1c0-0.6-0.4-1-1.6-1c-1.2,0-2.2,1-2.2,2.3c0,0.1,0,0.1,0,0.2c0,1.3,1,2.4,2.4,2.5
	c0,0,0.1,0,0.1,0c0.8,0,1.5-0.2,2.2-0.6c0.2-0.1,0.4-0.2,0.7-0.2c0.3,0,0.6,0.2,0.8,0.4c0.3,0.5,0.1,1.2-0.5,1.5
	c-1,0.6-2.1,0.9-3.3,0.8c-2.4,0.1-4.5-1.8-4.5-4.3C150.5,361.1,150.5,361.1,150.5,361L150.5,361z M164.3,358.6
	c-1.2,0-2.2,0.9-2.2,2.1c0,0.1,0,0.2,0,0.3c0,1.5,0.9,2.4,2.2,2.4c0.6,0,1.3-0.2,1.7-0.6c0.2-0.2,0.4-0.3,0.7-0.3c0.5,0,1,0.5,1,1
	c0,0.3-0.1,0.6-0.3,0.8c-0.9,0.8-2.1,1.2-3.3,1.1c-2.6,0-4.2-1.6-4.2-4.4c-0.1-2.3,1.7-4.3,4.1-4.4c0.1,0,0.2,0,0.4,0
	c1.7,0,3.2,1,3.2,2.7c0,0.7-0.2,1.3-0.7,1.8c-0.2,0.2-0.5,0.4-0.9,0.4c-0.5,0-1-0.4-1-0.9c0-0.3,0.1-0.5,0.3-0.7
	c0.2-0.1,0.2-0.3,0.2-0.6C165.5,359,165.1,358.6,164.3,358.6z M168.7,361c-0.1-2.3,1.7-4.3,4-4.4c0.1,0,0.3,0,0.4,0
	c2.6,0,3.8,1.5,3.8,3c0,1.5-1.2,2.7-3.3,2.7c-0.4,0-0.8-0.1-1.2-0.2c-0.4-0.1-0.6-0.5-0.6-0.9c0-0.5,0.4-1,0.9-1c0,0,0,0,0,0
	c0.3,0,0.7,0.2,0.9,0.2c0.5,0.1,0.9-0.3,0.9-0.7c0,0,0-0.1,0-0.1c0-0.6-0.4-1-1.6-1c-1.2,0-2.2,1-2.2,2.3c0,0.1,0,0.1,0,0.2
	c0,1.3,1,2.4,2.4,2.5c0,0,0.1,0,0.1,0c0.8,0,1.5-0.2,2.2-0.6c0.2-0.1,0.4-0.2,0.7-0.2c0.3,0,0.6,0.2,0.8,0.4
	c0.3,0.5,0.1,1.2-0.5,1.5c-1,0.6-2.1,0.9-3.3,0.8c-2.4,0.1-4.5-1.9-4.5-4.3C168.7,361.1,168.7,361.1,168.7,361L168.7,361z
	 M180.7,358.1c0.5-0.8,1.4-1.4,2.4-1.5c0.9-0.1,1.7,0.5,2,1.3c0.6-0.8,1.5-1.3,2.5-1.3c1.4,0,2.5,1.1,2.5,2.5c0,0.1,0,0.1,0,0.2v3.9
	c0,0.3,0.1,0.4,0.2,0.4c0.1,0,0.3-0.1,0.4-0.2c0.4-0.3,0.8-0.2,1.1,0.2c0.1,0.2,0.2,0.3,0.1,0.5c0,0.3-0.1,0.6-0.4,0.8
	c-0.4,0.4-1,0.6-1.5,0.6c-1.2,0-2-0.6-2-2.2v-3.4c0-0.9-0.4-1.2-0.7-1.2c-0.9,0-1.9,1-1.9,3.4v2.4c0,0.5-0.5,1-1,1c0,0,0,0,0,0
	c-0.5,0-1-0.4-1-0.9c0,0,0-0.1,0-0.1v-4.8c0-0.8-0.4-1-0.7-1c-0.9,0-1.8,0.9-2,2.8v3c0,0.5-0.4,1-1,1c0,0-0.1,0-0.1,0
	c-0.5,0-1-0.4-1-0.9c0,0,0,0,0-0.1v-6.8c0-0.6,0.5-1,1-1s1,0.5,1,1L180.7,358.1z M195.3,351.8c-0.2,0-0.4,0.1-0.4,0.4v6.2
	c0.4-1.2,1.5-1.9,2.7-1.8c1.9,0,3,1.6,3,3.7c0,2.6-1.6,5.1-4.4,5.1c-2.3,0-3.3-1.8-3.3-3.7v-9.4c0-2.1,0.9-2.5,2.3-2.5h0.2
	c0.5,0,0.9,0.3,1,0.8c0,0.1,0,0.1,0,0.2c0.1,0.5-0.3,1-0.8,1C195.5,351.8,195.4,351.8,195.3,351.8L195.3,351.8z M198.4,360.4
	c0-0.9-0.3-1.7-1.4-1.7c-1.2,0-2,1-2,2.6v0.2c0,1,0.4,2,1.4,2C197.6,363.5,198.4,361.7,198.4,360.4z M201.7,361
	c-0.1-2.3,1.7-4.3,4-4.4c0.1,0,0.3,0,0.4,0c2.6,0,3.8,1.5,3.8,3c0,1.5-1.2,2.7-3.3,2.7c-0.4,0-0.8-0.1-1.2-0.2
	c-0.4-0.1-0.6-0.5-0.6-0.9c0-0.5,0.4-1,0.9-1c0,0,0,0,0,0c0.3,0,0.7,0.2,0.9,0.2c0.5,0.1,0.9-0.3,0.9-0.7c0,0,0-0.1,0-0.1
	c0-0.6-0.4-1-1.6-1c-1.2,0-2.2,1-2.2,2.3c0,0.1,0,0.1,0,0.2c0,1.3,1,2.4,2.4,2.5c0,0,0.1,0,0.1,0c0.8,0,1.5-0.2,2.2-0.6
	c0.2-0.1,0.4-0.2,0.7-0.2c0.3,0,0.6,0.2,0.8,0.4c0.3,0.5,0,1.2-0.5,1.5c-1,0.6-2.1,0.9-3.3,0.8c-2.4,0.1-4.5-1.8-4.6-4.2
	C201.6,361.2,201.6,361.1,201.7,361L201.7,361z M211.7,357.6c0-0.5,0.4-1,0.9-1c0,0,0.1,0,0.1,0c0.5,0,1,0.4,1,0.9c0,0,0,0,0,0.1
	v0.8c0.6-1.1,1.4-1.8,2.3-1.8c0.8-0.1,1.5,0.5,1.6,1.3c0,0,0,0.1,0,0.1c0,0.5-0.4,1-0.9,1.1c-0.6,0-0.6-0.4-1.1-0.4
	c-1.2,0-1.8,2.2-1.8,3.3v2.5c0,0.5-0.4,1-0.9,1c0,0-0.1,0-0.1,0c-0.5,0-1-0.4-1-0.9c0,0,0-0.1,0-0.1L211.7,357.6z M223.3,357
	l2.6-4.4c0.2-0.3,0.5-0.5,0.9-0.5c0.7,0,0.9,0.4,0.9,0.8c0,0.2-0.1,0.5-0.2,0.7l-2.3,3.9c0.3-0.5,0.9-0.7,1.8-0.7
	c1.9,0,3.4,1.7,3.4,4.2c0,2.4-2,4.4-4.4,4.4c-2.4,0-4.4-2-4.4-4.4C221.7,360.2,221.9,359.4,223.3,357L223.3,357z M226.1,358.6
	c-1.3-0.1-2.5,1-2.5,2.3c-0.1,1.3,1,2.5,2.3,2.5c1.3,0.1,2.5-1,2.5-2.3c0,0,0-0.1,0-0.1c0.1-1.2-0.8-2.4-2.1-2.5
	C226.3,358.5,226.2,358.5,226.1,358.6L226.1,358.6z M231.9,358.8c-0.5,0-1-0.4-1-0.9c0,0,0,0,0-0.1c0-0.5,0.4-1,0.9-1c0,0,0,0,0.1,0
	h1.1v-1.3c0-0.5,0.4-1,0.9-1c0,0,0.1,0,0.1,0c0.5,0,1,0.4,1,0.9c0,0,0,0.1,0,0.1v1.3h1.6c0.5,0,0.9,0.4,0.9,0.9c0,0,0,0.1,0,0.1
	c0,0.5-0.3,0.9-0.8,1c0,0-0.1,0-0.1,0H235v3.8c0,0.6,0.1,0.9,0.4,0.9c0.2,0,0.4-0.1,0.5-0.2c0.2-0.2,0.5-0.3,0.8-0.3
	c0.5,0,0.9,0.3,1,0.8c0,0.1,0,0.1,0,0.2c0,0.2-0.1,0.5-0.2,0.7c-0.5,0.6-1.3,0.9-2.1,0.8c-1.8,0-2.4-1.1-2.4-2.6v-4.1L231.9,358.8z
	 M239,352.3c0-2.1,0.9-2.5,2.3-2.5h0.2c0.5,0,0.9,0.3,1,0.8c0,0.1,0,0.1,0,0.2c0.1,0.5-0.3,1-0.8,1c-0.1,0-0.1,0-0.2,0h-0.1
	c-0.2,0-0.4,0.1-0.4,0.4v6.1c0.5-1,1.5-1.7,2.7-1.7c1.4,0,2.4,0.9,2.4,2.6v3.9c0,0.3,0.1,0.4,0.2,0.4c0.1,0,0.3-0.1,0.4-0.2
	c0.4-0.3,0.8-0.2,1.1,0.2c0.1,0.2,0.2,0.4,0.2,0.5c0,0.3-0.2,0.6-0.4,0.8c-0.4,0.4-1,0.6-1.5,0.6c-1.2,0-2-0.6-2-2.2v-3.4
	c0-0.9-0.4-1.1-0.9-1.1c-0.9,0-2.1,0.9-2.2,2.9v2.9c0,0.6-0.5,1-1,1c-0.6,0-1-0.5-1-1L239,352.3z M257.6,364.1
	c-0.6,0.8-1.6,1.3-2.6,1.3c-2,0-3.1-1.6-3.1-3.8c0-2.8,1.7-5,4.1-5c0.6,0,1.1,0.2,1.5,0.6c0.2-0.4,0.5-0.6,1-0.6
	c0.5-0.1,1,0.3,1,0.8c0,0,0,0.1,0,0.1v5.5c0,0.3,0.1,0.4,0.2,0.4c0.1,0,0.3-0.1,0.4-0.2c0.4-0.3,0.8-0.2,1.1,0.2
	c0.1,0.2,0.2,0.3,0.1,0.5c0,0.3-0.2,0.6-0.4,0.8c-0.4,0.4-1,0.6-1.5,0.6C258.6,365.4,257.9,364.9,257.6,364.1L257.6,364.1z
	 M254.1,361.6c0,1.2,0.6,1.9,1.3,1.9c1.3,0,2.1-1.5,2.1-2.8v-0.3c-0.1-1.1-0.7-1.7-1.4-1.7C254.8,358.6,254.1,360,254.1,361.6z
	 M264.4,358.3c0.5-1,1.5-1.7,2.6-1.7c1.4,0,2.4,0.9,2.4,2.6v3.9c0,0.3,0.1,0.4,0.2,0.4c0.1,0,0.3-0.1,0.4-0.2
	c0.4-0.3,0.8-0.2,1.1,0.2c0.1,0.2,0.2,0.3,0.1,0.5c0,0.3-0.2,0.6-0.4,0.8c-0.4,0.4-1,0.6-1.5,0.6c-1.2,0-2-0.6-2-2.2v-3.4
	c0-0.9-0.4-1.1-0.9-1.1c-0.9,0-2.1,0.9-2.2,2.9v2.9c0,0.5-0.4,1-1,1c0,0-0.1,0-0.1,0c-0.5,0-1-0.4-1-0.9c0,0,0,0,0-0.1v-6.8
	c0-0.6,0.5-1,1-1c0.6,0,1,0.5,1,1L264.4,358.3z M279.3,363.1c0,0.3,0.1,0.4,0.2,0.4c0.1,0,0.3-0.1,0.4-0.2c0.4-0.3,0.8-0.2,1.1,0.2
	c0.1,0.2,0.2,0.3,0.1,0.5c0,0.3-0.2,0.6-0.4,0.8c-0.4,0.4-1,0.6-1.5,0.6c-0.8,0.1-1.6-0.4-1.8-1.3c-0.6,0.8-1.6,1.3-2.6,1.3
	c-2,0-3.1-1.6-3.1-3.8c0-2.8,1.7-5,4.1-5c0.6,0,1.1,0.2,1.5,0.6v-6.5c0-0.6,0.5-1,1.1-0.9c0.5,0,0.9,0.4,0.9,0.9V363.1z
	 M273.8,361.6c0,1.2,0.6,1.9,1.3,1.9c1.3,0,2.1-1.5,2.1-2.9c0-1.2-0.6-1.9-1.4-1.9C274.5,358.6,273.8,360,273.8,361.6z M287.1,364.9
	c-0.2,0.3-0.4,0.5-0.8,0.5c-0.6,0-1-0.4-1.1-1c0-0.2,0-0.3,0.1-0.5l5.7-9.8H286c-0.5,0-1-0.4-1-0.9c0,0,0,0,0-0.1
	c0-0.5,0.3-0.9,0.8-1c0,0,0.1,0,0.1,0h6.5c0.7,0,1,0.3,1,0.8c0,0.5,0,0.7-0.7,1.7L287.1,364.9z M294.9,358.8c-0.5,0-1-0.4-1-0.9
	c0,0,0,0,0-0.1c0-0.5,0.4-1,0.9-1c0,0,0,0,0.1,0h1.1v-1.3c0-0.5,0.4-1,0.9-1c0,0,0.1,0,0.1,0c0.5,0,1,0.4,1,0.9c0,0,0,0.1,0,0.1v1.3
	h1.6c0.5,0,0.9,0.4,1,0.9c0,0,0,0.1,0,0.1c0,0.5-0.3,0.9-0.8,1c0,0-0.1,0-0.1,0H298v3.8c0,0.6,0.1,0.9,0.4,0.9
	c0.2,0,0.4-0.1,0.5-0.2c0.2-0.2,0.5-0.3,0.8-0.3c0.5,0,0.9,0.3,1,0.8c0,0.1,0,0.1,0,0.2c0,0.2-0.1,0.5-0.2,0.7
	c-0.5,0.6-1.3,0.9-2.1,0.8c-1.8,0-2.4-1.1-2.4-2.6v-4.1L294.9,358.8z M302,352.3c0-2.1,0.9-2.5,2.3-2.5h0.2c0.5,0,0.9,0.3,1,0.8
	c0,0.1,0,0.1,0,0.2c0.1,0.5-0.3,1-0.8,1c-0.1,0-0.1,0-0.2,0h-0.1c-0.2,0-0.4,0.1-0.4,0.4v6.1c0.5-1,1.5-1.7,2.7-1.7
	c1.4,0,2.4,0.9,2.4,2.6v3.9c0,0.3,0.1,0.4,0.2,0.4c0.1,0,0.3-0.1,0.4-0.2c0.4-0.3,0.8-0.2,1.1,0.2c0.1,0.2,0.2,0.3,0.1,0.5
	c0,0.3-0.2,0.6-0.4,0.8c-0.4,0.4-1,0.6-1.5,0.6c-1.2,0-2-0.6-2-2.2v-3.4c0-0.9-0.4-1.1-0.9-1.1c-0.9,0-2.1,0.9-2.2,2.9v2.9
	c0,0.6-0.5,1-1,1c-0.6,0-1-0.5-1-1L302,352.3z M312.7,366.7c-0.1,0.3-0.4,0.5-0.7,0.6c-0.6,0.1-1.1-0.2-1.3-0.8
	c-0.1-0.2,0-0.4,0-0.7l1.1-2.7c0.1-0.3,0.4-0.5,0.7-0.6c0.6-0.1,1.1,0.2,1.3,0.8c0.1,0.2,0,0.4,0,0.6L312.7,366.7z M319.7,365.2
	c-0.5,0.1-0.9-0.3-1-0.8c0,0,0-0.1,0-0.1c0-0.6,0.4-0.8,1.1-1.1c2.6-1,5.4-4,5.4-6.8c0.1-1.2-0.8-2.3-2-2.4c-0.1,0-0.2,0-0.3,0
	c-1.1-0.1-2,0.7-2.1,1.7c0,0.1,0,0.1,0,0.2c0,0.6,0.2,1.2,0.7,1.6c0.2,0.2,0.4,0.5,0.4,0.8c0,0.6-0.4,1-1,1.1
	c-0.2,0-0.4-0.1-0.6-0.2c-1-0.8-1.6-1.9-1.6-3.2c0-2.3,1.8-3.9,4.2-3.9c2.3-0.1,4.2,1.7,4.4,3.9c0,0.2,0,0.3,0,0.5
	c0,3.4-2.9,6-4.5,6.8h4.1c0.5,0,0.9,0.4,1,0.9c0,0,0,0.1,0,0.1c0,0.5-0.4,1-0.9,1c0,0,0,0,0,0H319.7z M333.8,352
	c2.8,0,4.7,2.2,4.7,6.7s-1.9,6.6-4.7,6.6c-2.8,0-4.7-2.2-4.7-6.6C329.1,354.3,331,352.1,333.8,352L333.8,352z M333.8,354
	c-1.3,0-2.6,1.5-2.6,4.7s1.3,4.7,2.6,4.7c1.3,0,2.7-1.5,2.7-4.7S335.2,354,333.8,354L333.8,354z M340.4,354.2c-0.6,0-1-0.4-1-1
	c0-0.6,0.4-1,1-1h1.1c2,0,2.6,0.4,2.6,2.8v9.4c0,0.5-0.4,1-0.9,1c0,0,0,0-0.1,0c-0.5,0-1-0.4-1-0.9c0,0,0,0,0-0.1v-9.5
	c0-0.5-0.1-0.7-0.5-0.7L340.4,354.2z M353,360.5l-2.6,4.4c-0.2,0.3-0.5,0.5-0.9,0.5c-0.7,0-0.9-0.4-0.9-0.8c0-0.2,0.1-0.5,0.2-0.7
	l2.3-3.9c-0.3,0.5-0.9,0.7-1.8,0.7c-1.9,0-3.4-1.7-3.4-4.2c0-2.4,2-4.4,4.4-4.4c2.4,0,4.4,2,4.4,4.4l0,0
	C354.6,357.2,354.4,358,353,360.5L353,360.5z M350.2,358.9c1.3,0.1,2.5-1,2.5-2.3c0.1-1.3-1-2.5-2.3-2.5c-1.3-0.1-2.5,1-2.5,2.3
	c0,0,0,0.1,0,0.1c-0.1,1.3,0.8,2.4,2.1,2.5C350.1,358.9,350.2,358.9,350.2,358.9L350.2,358.9z M365,364.1c-0.6,0.8-1.6,1.3-2.6,1.3
	c-2,0-3.1-1.6-3.1-3.8c0-2.8,1.7-5,4.1-5c0.6,0,1.1,0.2,1.5,0.6c0.2-0.4,0.5-0.6,1-0.6c0.5-0.1,1,0.3,1,0.8c0,0,0,0.1,0,0.1v5.5
	c0,0.3,0.1,0.4,0.2,0.4c0.1,0,0.3-0.1,0.4-0.2c0.4-0.3,0.8-0.2,1.1,0.2c0.1,0.2,0.2,0.4,0.2,0.5c0,0.3-0.2,0.6-0.4,0.8
	c-0.4,0.4-1,0.6-1.5,0.6C366,365.5,365.2,364.9,365,364.1L365,364.1z M361.4,361.6c0,1.2,0.6,1.9,1.3,1.9c1.3,0,2.1-1.5,2.1-2.8
	v-0.3c-0.1-1.1-0.7-1.7-1.4-1.7C362.1,358.6,361.4,360,361.4,361.6z M369.6,358.8c-0.5,0-1-0.4-1-0.9c0,0,0,0,0-0.1
	c0-0.5,0.4-1,0.9-1c0,0,0,0,0.1,0h1.1v-1.3c0-0.5,0.4-1,0.9-1c0,0,0.1,0,0.1,0c0.5,0,1,0.4,1,0.9c0,0,0,0.1,0,0.1v1.3h1.6
	c0.5,0,0.9,0.4,1,0.9c0,0,0,0.1,0,0.1c0,0.5-0.3,0.9-0.8,1c0,0-0.1,0-0.1,0h-1.6v3.8c0,0.6,0.1,0.9,0.4,0.9c0.2,0,0.4-0.1,0.5-0.2
	c0.2-0.2,0.5-0.3,0.8-0.3c0.5,0,0.9,0.3,1,0.8c0,0.1,0,0.1,0,0.2c0,0.2-0.1,0.5-0.2,0.7c-0.5,0.6-1.3,0.9-2.1,0.8
	c-1.8,0-2.4-1.1-2.4-2.6v-4.1L369.6,358.8z M386.9,363.3c3.6,0,4.9-2.4,4.9-5.4c0-1.9-1.1-4.1-3.1-4.1c-1-0.1-2,0.7-2.1,1.7
	c0,0.1,0,0.2,0,0.3c0,0.8,0.4,1.5,1,2c0.2,0.2,0.4,0.5,0.4,0.8c0,0.6-0.5,1.1-1.1,1.1c-0.2,0-0.4-0.1-0.6-0.2
	c-1.1-0.8-1.8-2.1-1.8-3.5c0-2.4,1.9-4,4.3-4c3.3,0,5.3,2.9,5.3,5.9c0,4.7-2.7,7.4-7.3,7.4c-4.3,0-7.2-2.9-7.2-7
	c0-2.3,1.1-4.5,2.9-6c0.2-0.2,0.5-0.3,0.8-0.3c0.5,0,1,0.4,1,0.9c0,0,0,0,0,0.1c0,0.3-0.2,0.6-0.4,0.8c-1.2,1.2-1.9,2.8-2,4.5
	C382.1,361,383.6,363.3,386.9,363.3L386.9,363.3z M401.1,358.5c0,0.5-0.4,1-0.9,1c-0.2,0-0.3,0-0.5-0.1c-0.5-0.4-0.8-0.8-1.6-0.8
	c-0.6,0-0.9,0.3-0.9,0.8s0.6,0.8,1.3,1.3c1,0.6,2.1,1.3,2.1,2.6c0,1.3-0.8,2.2-2.4,2.2c-1,0-2.3-0.3-2.3-1.5c0-0.5,0.3-0.9,0.8-1
	c0,0,0,0,0.1,0c0.5,0,0.8,0.6,1.4,0.6c0.3,0,0.4-0.1,0.4-0.3c0-0.3-0.7-0.7-1.5-1.2c-1-0.6-2-1.2-2-2.6c0-1.6,1.3-2.8,2.8-2.8
	c0.1,0,0.1,0,0.2,0c1.1,0,2.1,0.5,2.7,1.3C401.1,358.1,401.1,358.3,401.1,358.5L401.1,358.5z M407.7,364.1c-0.6,0.8-1.6,1.3-2.6,1.3
	c-2,0-3.1-1.6-3.1-3.8c0-2.8,1.7-5,4.1-5c0.6,0,1.1,0.2,1.5,0.6c0.2-0.4,0.5-0.6,1-0.6c0.5-0.1,1,0.3,1,0.8c0,0,0,0.1,0,0.1v5.5
	c0,0.3,0.1,0.4,0.2,0.4c0.1,0,0.3-0.1,0.4-0.2c0.4-0.3,0.8-0.2,1.1,0.2c0.1,0.2,0.2,0.4,0.2,0.5c0,0.3-0.2,0.6-0.4,0.8
	c-0.4,0.4-1,0.6-1.5,0.6C408.7,365.5,408,364.9,407.7,364.1L407.7,364.1z M404.2,361.6c0,1.2,0.6,1.9,1.3,1.9c1.3,0,2.1-1.5,2.1-2.8
	v-0.3c-0.1-1.1-0.7-1.7-1.4-1.7C404.9,358.6,404.2,360,404.2,361.6z M412.5,352.3c0-2.1,0.9-2.5,2.3-2.5h0.2c0.5,0,0.9,0.3,1,0.8
	c0,0.1,0,0.1,0,0.2c0.1,0.5-0.3,1-0.8,1c-0.1,0-0.1,0-0.2,0h-0.1c-0.2,0-0.4,0.1-0.4,0.4v5.8c0.6-0.9,1.6-1.4,2.7-1.3
	c1.1-0.1,2.1,0.7,2.2,1.8c0,0.1,0,0.2,0,0.3c0,1.2-1,2.4-2.5,2.9c0.5,0.1,0.9,0.5,1.1,0.9c0.3,0.4,0.6,0.8,0.8,0.8
	c0.3,0,0.5-0.4,0.8-0.4c0.5,0,0.9,0.4,0.9,0.9c0,0,0,0,0,0c-0.1,0.9-0.8,1.5-1.7,1.5c0,0,0,0,0,0c-0.9,0-1.2-0.2-2.1-1.4
	c-0.3-0.5-0.7-1-1.1-1.5c-0.3-0.2-0.4-0.6-0.4-0.9c0-0.4,0.2-0.7,0.7-0.9c1.3-0.7,1.5-1.1,1.5-1.5c0-0.3-0.2-0.5-0.6-0.5
	c-1,0-2.2,0.9-2.2,3v2.8c0,0.5-0.4,1-1,1c0,0-0.1,0-0.1,0c-0.5,0-1-0.4-1-0.9c0,0,0,0,0-0.1L412.5,352.3z M426.9,364.1
	c-0.6,0.8-1.6,1.3-2.6,1.3c-2,0-3.1-1.6-3.1-3.8c0-2.8,1.7-5,4.1-5c0.6,0,1.1,0.2,1.5,0.6c0.2-0.4,0.6-0.6,1-0.6
	c0.5-0.1,1,0.3,1,0.8c0,0,0,0.1,0,0.1v5.5c0,0.3,0.1,0.4,0.2,0.4c0.1,0,0.3-0.1,0.4-0.2c0.4-0.3,0.8-0.2,1.1,0.2
	c0.1,0.2,0.2,0.3,0.1,0.5c0,0.3-0.2,0.6-0.4,0.8c-0.4,0.4-1,0.6-1.5,0.6C427.9,365.4,427.1,364.9,426.9,364.1L426.9,364.1z
	 M423.3,361.6c0,1.2,0.6,1.9,1.3,1.9c1.3,0,2.1-1.5,2.1-2.8v-0.3c-0.1-1.1-0.7-1.7-1.4-1.7C424,358.6,423.3,360,423.3,361.6z
	 M470.8,319.5c0,0-0.1-0.3-0.5-1.1c-0.2-0.6-0.6-1.1-1-1.6c-0.3-0.4-0.8-0.7-1.4-0.6c-0.5,0.1-0.8,0.6-0.8,1.1c0,0,0,0,0,0
	c0.1,0.6,0.4,1.1,0.8,1.5c0.3,0.2,1.7,1.4,1.7,1.4c-0.8,0.1-1.5,0.2-2.3,0.2c-1.2,0.1-1.7,1.9-1.4,2.4c0.5,0.5,1.4,0.7,2.1,0.4
	c0.7-0.3,2.2-2,2.2-2c0,0.6-0.2,1.2-0.4,1.8c-0.8,2,0.7,2.5,0.8,2.5c0.2,0.1,0.4,0.1,0.7,0.1c0.8-0.3,1.2-1.2,1-2
	c-0.2-0.8-0.8-2.5-0.8-2.5c0.6,0.6,1.3,1.2,2,1.6c0.5,0.2,1.1,0.1,1.6-0.2c0.3-0.2,0.7-0.5,0.6-0.9c-0.2-0.4,0-0.9-0.7-1.3
	c-0.7-0.4-1.7-0.3-3.3-0.1c2.6-1.6,2.4-3.1,2.1-3.5s-0.6-0.3-0.9-0.2c-0.3,0.1-0.5-0.1-0.8,0.1c-0.8,0.7-1.3,1.7-1.3,2.7
	L470.8,319.5z M483.8,307.2c0,0-0.5-0.3-1.9-1.2c-1-0.7-2.1-1.2-3.3-1.6c-1-0.3-2-0.1-2.8,0.5c-0.8,0.6-0.6,1.8,0,2.5
	c0.8,0.8,1.8,1.3,2.9,1.4c0.7,0,4.2,0.3,4.2,0.3c-1,1-2.2,2-3.3,2.8c-1.8,1.4-0.7,4.8,0.4,5.2s2.8-0.3,3.6-1.6
	c0.8-1.3,1.3-5.5,1.3-5.5c0.6,1,1,2.1,1.3,3.3c0.9,3.9,3.7,3.2,3.9,3.1c0.4-0.1,0.8-0.3,1.1-0.6c0.9-1.3,0.6-3.1-0.6-4.2
	c-1.2-1.1-4-3.1-4-3.1s3.8,0.7,4.9,0.4s1.9-1.4,2.3-2c0.4-0.6,0.7-1.5-0.1-2c-0.7-0.5-1-1.4-2.5-1.2c-1.5,0.2-2.9,1.3-5.2,3.4
	c2.3-5.3,0.5-7.5-0.5-7.8s-1.2,0.1-1.7,0.6c-0.5,0.5-0.9,0.4-1.1,0.9c-1.1,2.8,0.8,5.6,0.8,5.6L483.8,307.2z M63.8,263.1
	c0.7-0.7,0.7-1.9,0-2.6c0,0,0,0,0,0l-4.4-4.3c-0.8-0.6-1.9-0.5-2.6,0.2c-0.6,0.7-0.6,1.7,0,2.4l4.4,4.3
	C61.9,263.8,63.1,263.9,63.8,263.1C63.8,263.1,63.8,263.1,63.8,263.1L63.8,263.1z M55,276.3c0.1-1-0.7-1.9-1.7-2c0,0,0,0,0,0
	l-4.3-0.2c-1-0.1-1.9,0.7-2,1.7c-0.1,1,0.7,1.9,1.7,2c0,0,0.1,0,0.1,0l4.3,0.2h0.1C54.2,278,55,277.2,55,276.3z M58.2,269.1
	c0.4-0.9-0.1-2-1-2.4c0,0,0,0,0,0l-6.7-2.6c-1-0.3-2,0.2-2.3,1.2c-0.3,0.9,0.2,1.8,1,2.2l6.7,2.6c0.2,0.1,0.4,0.1,0.7,0.1
	C57.3,270.3,57.9,269.8,58.2,269.1z M389,269.5c10.4,0,17.7,12,14.5,29.4c-3.6,19.8-14.6,29.3-26.9,29.3s-21.3-9.6-17.2-29.3
	C363.5,279.2,374.5,269.5,389,269.5L389,269.5z M376.9,281.6c-0.8,0-1.4,0.9-1.4,2.1c0,1.1,0.6,2.1,1.4,2.1c0.8,0,1.4-0.9,1.4-2.1
	C378.2,282.5,377.7,281.6,376.9,281.6L376.9,281.6z M385.2,281.6c-0.8,0-1.4,0.9-1.4,2.1c0,1.1,0.7,2.1,1.4,2.1s1.4-0.9,1.4-2.1
	C386.6,282.5,386,281.6,385.2,281.6L385.2,281.6z M390.8,289.6c0.2-0.5,0-1-0.4-1.2c-0.5-0.2-1,0-1.2,0.4c-2.9,5.7-6.2,8.8-9.5,8.5
	c-2.8-0.2-5.5-2.9-6.8-7c-0.2-0.5-0.7-0.7-1.2-0.6c-0.5,0.2-0.7,0.7-0.6,1.2c1.6,4.8,4.8,8,8.4,8.3h0.5
	C383,299.1,387,297.4,390.8,289.6L390.8,289.6z"/>
<path class="st2" d="M90.4,318.1c18.2,0,27.9-12.5,31.1-27.7c2.2-10.3-1.2-21.2-11.7-21.2c-6.7,0-11.6,4.1-13.1,10.9
	c-0.8,3.7,0.3,7.6,2.9,10.4c1,0.9,1.3,2.3,1,3.6c-0.6,2.6-3.3,5.1-6.1,5.1c-1,0-2-0.3-2.8-1c-4.8-4.5-6.7-11.5-5.4-17.7
	c2.6-12,13.6-20,25.9-20c16.6,0,23.8,14.5,20.4,29.9c-5,23.8-21.8,37.4-44.4,37.4c-21.8,0-33-14.4-28.6-35.5
	c2.7-12.6,10.9-23.5,20.9-30.1c1.3-0.8,2.9-1.3,4.5-1.4c2.8,0,4.2,2.1,3.7,4.7c-0.5,1.6-1.5,2.9-2.8,3.9c-6.9,6-12.9,13.2-15,23
	C68,306.3,73.8,318.1,90.4,318.1z M147.4,286.6c-2.4,11.5,22.2,13,18.9,28.6c-1.7,7.8-9.6,12.5-17.7,12.5c-4.5,0-10.2-2.2-11.5-5.7
	c-1.2-3.7,3.4-8.2,6.7-5.8c1.6,1.1,2.8,3.4,6.6,3.4c4.1,0,6.4-1.7,6.9-4.4c2-9.3-22.6-10.5-18.8-28.4c2.3-10.8,11.9-17.7,22.5-17.7
	c11.1,0,17.2,7.3,15,18c-0.5,2.5-2.7,4.3-5.2,4.3c-2.5,0-4.1-1.8-3.5-4.3c1-4.8-1.3-9.5-8-9.5C152.7,277.5,148.4,281.8,147.4,286.6
	L147.4,286.6z M205.7,318c-0.3,1.6,0,2,0.7,2c0.8-0.1,1.5-0.4,2-0.9c3.1-2,5.2,0.3,4.8,2.9c-0.4,1.4-1.2,2.5-2.4,3.3
	c-2.1,1.6-4.7,2.5-7.3,2.4c-4.1,0-6.5-1.7-6.6-5.7c-3.3,3.7-8,5.9-13,6c-8.7,0-12.3-7.2-10.2-16.7c2.6-12.4,12-22.1,22.9-22.1
	c2.8,0,4.8,0.8,6.4,2.9c0.8-1.9,2.7-3,4.7-2.9c2.4,0,4,1.4,3.4,4.1L205.7,318z M182.6,311.1c-1.1,5.4,0.8,8.7,4.5,8.7
	c5.7,0,10.9-6.4,12.4-12.8l0.2-0.5c1.2-5.5-1-9-4.8-9C188.9,297.5,184.2,304,182.6,311.1z M229.4,269.9c2-9.2,6-11,12.4-11h0.7
	c2.2,0,3.8,1.3,3.1,4.2c-0.6,2.8-2.6,4.2-4.9,4.2h-0.4c-1.2,0-2,0.5-2.3,2.3l-5.4,25.8c3.5-3.9,7.9-6.2,13.4-6.2
	c6.5,0,8.9,4.1,7.8,9.4c-1.3,5.5-7.1,10.7-13.8,12.7c2,0.5,2.9,2.1,4,4.3c1.1,2.1,2,3.6,3,3.6c1.3,0,2.4-1.7,3.8-1.7
	c2,0,3.6,1.5,3.1,3.8c-0.9,4-5.2,6.3-8.8,6.3c-3.8,0-5.2-0.8-8.2-6.1c-1.4-2.8-2.1-5.5-3.7-6.8c-1-1-1.4-2.5-1.1-3.9
	c0.4-1.8,1.5-2.8,3.9-4c6.7-2.8,8.4-5,8.8-7.1c0.3-1.3-0.4-2.3-2.5-2.3c-4.6,0-10.9,4.2-13,13.1l-2.7,12.9c-0.5,2.5-2.7,4.2-5.2,4.2
	c-2,0-3.9-1.4-3.3-4.2L229.4,269.9z M292.1,318c-0.3,1.6,0,2,0.7,2c0.8-0.1,1.5-0.4,2-0.9c3.1-2,5.2,0.3,4.8,2.9
	c-0.4,1.4-1.2,2.5-2.4,3.3c-2.1,1.6-4.7,2.5-7.3,2.4c-4.1,0-6.5-1.7-6.6-5.7c-3.3,3.7-8,5.9-13,6c-8.7,0-12.3-7.2-10.2-16.7
	c2.6-12.4,12-22.1,22.9-22.1c2.8,0,4.8,0.8,6.4,2.9c0.8-1.9,2.6-3,4.7-2.9c2.4,0,4,1.4,3.4,4.1L292.1,318z M269,311.1
	c-1.1,5.4,0.8,8.7,4.5,8.7c5.7,0,10.9-6.4,12.4-12.8l0.2-0.5c1.2-5.5-1-9-4.8-9C275.3,297.5,270.6,304,269,311.1L269,311.1z
	 M312,327c-2.6,0-3.7-1.7-3.2-3.7c0.5-2.6,2.3-3.4,5.8-4.6c12-4.2,27.9-17.5,30.7-30.6c1.5-7.3-2.7-10.9-8.1-10.9
	c-5.2,0-10.2,3.1-11.5,8.8c-0.8,3.6,0.2,5.8,1.7,7.3c0.8,0.8,1.1,2.1,0.8,3.2c-0.5,2.2-2.8,4.5-5.1,4.5c-0.9,0-1.8-0.3-2.4-0.9
	c-3.2-3.2-5.2-7.9-3.9-14.1c2.1-9.8,11.3-16.9,22.2-16.9c9.8,0,17.6,6.3,14.9,19.2c-3.3,15.8-19.6,27.2-27,30.6h18.6
	c2.7,0,3.6,2,3.2,4c-0.5,2.4-2.5,4.1-5,4.2L312,327z M413.4,278.1c-2.3,0-3.4-2.1-3-4.1c0.5-2.1,2.5-4.3,4.9-4.3h4.9
	c8.5,0,10.5,1.7,8.4,12l-8.9,41.8c-0.5,2.4-2.6,4.2-5.1,4.2c-2.1,0-4.1-1.4-3.5-4.2l8.9-42.2c0.5-2.1,0.1-3.2-1.7-3.2L413.4,278.1z
	 M462.8,306.3l-15.5,19.2c-1,1.4-2.5,2.2-4.2,2.2c-2.8,0-3.6-1.6-3.2-3.4c0.3-1.1,0.8-2,1.5-2.9l13.8-17.3c-2,2-5.1,2.8-8.5,2.8
	c-8.4,0-13.8-7.5-11.5-18.5c2.4-11.6,11.8-19.4,23.4-19.4s17.7,7.8,15.3,19.4C473.2,292.2,471.3,295.8,462.8,306.3L462.8,306.3z
	 M452.2,299.6c5.9,0,11.6-4.1,13.1-11.2c1.6-7.2-2.4-11.2-8.4-11.2c-6,0-11.6,4-13.1,11.2C442.3,295.5,446.2,299.6,452.2,299.6
	L452.2,299.6z M389,269.5c10.4,0,17.7,12,14.5,29.4c-3.6,19.8-14.6,29.3-27,29.3s-21.3-9.6-17.2-29.3
	C363.5,279.2,374.5,269.5,389,269.5L389,269.5z M387.2,277.6c-8.1,0.1-16.2,6.8-19.2,21.2s3.9,21.2,10.2,21.2
	c6.3,0,13.5-6.8,16.5-21.2S393.4,277.6,387.2,277.6L387.2,277.6z M97.1,207.3l-14.3,24c-1.3,2.3-3.2,3.6-5.5,3.6
	c-2.6,0-3.7-1.3-4.1-3.7L68,196.3c-1.7-11-3-19.3-12.6-19.3c-7.8,0-11.8,5.4-12.9,10.6c-0.8,3.9,0.7,7.8,2.6,10.4
	c0.9,0.9,1,2.2,0.8,3.6c-0.6,2.5-3.1,4.7-5.7,4.7c-1,0.1-2-0.3-2.7-1c-4.2-4.1-6.1-10.6-4.7-17.6c2.5-11.7,12.7-20,24.7-20
	c13.9,0,18.1,6.4,21.2,29.7l2.6,19.3l13.5-22.9l-3.3-20c-0.1-0.6,0-1.1,0.1-1.7c0.6-2.7,3.7-4.6,6.2-4.6c1.6,0,3.2,0.8,3.5,2.7
	l1.8,9.8l5.7-9.8c1.1-1.7,2.9-2.7,4.9-2.7c2.5,0,4.8,1.9,4.2,4.6c-0.2,0.6-0.4,1.2-0.8,1.7l-11.9,20l4,23.1l27.6-46.6
	c1-1.6,2.8-2.7,4.7-2.7c2.6,0,5,1.9,4.5,4.6c-0.2,0.6-0.4,1.1-0.7,1.7l-34.2,57.6c-1.3,2.2-3.2,3.6-5.6,3.6c-2.3,0-3.7-1.2-4.1-3.7
	L97.1,207.3z M161.3,190.7c12.9,0,21,8.1,18,22.2c-3,13.9-14.4,22-27.3,22c-12.8,0-21-8-18-22C137,198.9,148.5,190.7,161.3,190.7
	L161.3,190.7z M159.3,200.2c-7.1,0-13.2,4.9-14.8,12.7c-1.7,7.7,2.3,12.5,9.5,12.5c7,0,13.2-4.8,14.8-12.5
	C170.5,205.1,166.4,200.2,159.3,200.2L159.3,200.2z M190.5,195.5c0.5-2.8,3-4.8,5.9-4.8c2.5,0,4.6,1.6,3.9,4.8l-1,4.7
	c4-5.8,9.3-9.5,13.7-9.5c5.6,0,7.1,3.7,6.5,6.8c-0.7,3.1-3.3,5.2-5.5,5.2c-2.7,0-2.4-2.3-5-2.3c-5.9,0-11.6,10.4-13.3,16.6
	l-2.8,13.2c-0.5,2.8-3,4.9-5.9,4.8c-2.5,0-4.6-1.6-3.9-4.8L190.5,195.5z M244.7,228.3c-3.8,4.3-9.2,6.8-14.9,6.9
	c-9.9,0-14.1-8.3-11.7-19.2c3-14.2,13.7-25.3,26.2-25.3c3.2,0,5.4,0.9,7.3,3.2l7-33.2c0.6-2.8,3-4.8,5.9-4.8c2.5,0,4.6,1.6,3.8,4.8
	l-13.4,63c-0.3,1.8,0,2.2,0.8,2.2c0.9-0.1,1.7-0.4,2.3-1c3.6-2.2,6,0.3,5.5,3.3c-0.4,1.6-1.4,2.9-2.8,3.8c-2.4,1.9-5.3,2.9-8.4,2.8
	C247.6,234.9,244.8,233,244.7,228.3L244.7,228.3z M228.4,215.8c-1.2,6.1,0.9,9.9,5.1,9.9c6.8,0,12.8-7.8,14.5-15.3
	c1.3-6.4-1.1-10.3-5.5-10.3C235.6,200.2,230.2,207.7,228.4,215.8z M320.9,202.4c-2.7,0-4.5-2-3.9-4.8c0.3-1.5,1.1-2.7,2.9-4.1
	c2.8-2.3,5.8-5.1,6.8-9.9c1.6-7.5-2.9-12.6-12.4-12.6c-14.8,0-28.3,12.5-32.3,31.2c-3.7,17.5,3,30.6,20.2,30.6
	c9.4,0,14.2-3.8,19.3-8.1c1.9-1.6,3.8-2.6,5.5-2.6c1.1,0,2.2,0.4,2.9,1.3c0.9,0.8,1.3,2.1,1,3.2c-0.5,1.6-1.4,3-2.6,4.1
	c-5.5,6-16.3,11.9-29.6,11.9c-22.4,0-32.9-17.2-28-40.2c5-23.9,24-41.3,45.1-41.3c15.2,0,24,8.9,21.2,22.1
	c-1.7,8-7.1,14.6-12.3,17.7C323.6,201.8,322.3,202.3,320.9,202.4z M374.5,223.7c-0.3,1.8,0,2.2,0.8,2.2c0.7,0,1.3-0.3,2.3-1
	c3.6-2.2,6,0.3,5.5,3.3c-0.4,1.6-1.4,2.9-2.8,3.8c-2.4,1.9-5.3,2.9-8.3,2.8c-4.7,0-7.5-1.9-7.6-6.6c-3.8,4.3-9.2,6.8-14.9,6.9
	c-9.9,0-14.1-8.3-11.7-19.2c3-14.2,13.7-25.3,26.2-25.3c3.2,0,5.5,0.9,7.4,3.3c0.9-2.2,3-3.3,5.4-3.3c2.8,0,4.6,1.6,3.9,4.7
	L374.5,223.7z M348,215.8c-1.2,6.1,0.9,9.9,5.1,9.9c6.6,0,12.5-7.4,14.3-14.7l0.2-0.6c1.3-6.4-1.1-10.3-5.5-10.3
	C355.2,200.2,349.8,207.7,348,215.8L348,215.8z M404,198.3c4-4.8,10-7.6,13.9-7.6c5.6,0,8.6,2.5,8.7,7.1c4.7-5,9.9-7.1,14.4-7.1
	c6.2,0,11.4,4.7,9.6,13.2l-4.2,19.9c-0.3,1.8,0,2.2,0.9,2.2c0.8-0.1,1.6-0.5,2.2-1c3.6-2.2,6,0.3,5.5,3.3c-0.4,1.6-1.4,2.9-2.8,3.8
	c-2.3,1.9-5.3,2.9-8.3,2.8c-5.8,0-8.9-3-7.3-10.8l3.7-17.7c1.1-5-0.4-6.4-2.5-6.4c-4.8,0-11.5,5.5-14.1,17.8l-2.7,12.4
	c-0.7,2.8-3.2,4.7-6,4.7c-2.5,0-4.5-1.6-3.8-4.7l5.2-24.5c0.9-4.5-0.7-5.7-2.7-5.7c-4.7,0-10.6,4.6-13.4,14.5l-3.3,15.6
	c-0.6,2.8-3.1,4.9-6,4.8c-2.3,0-4.5-1.6-3.8-4.8l7.4-34.7c0.6-2.8,3.1-4.7,5.9-4.7c2.5,0,4.6,1.6,3.9,4.7L404,198.3z M477.2,197
	c3.7-3.9,8.8-6.2,14.2-6.2c9.9,0,14.1,8.3,11.8,19.2c-3,14.2-13.8,25.3-26.3,25.3c-3.1,0-5.4-0.8-7.1-3.1l-5.4,25.2
	c-0.6,2.8-3.1,4.7-5.9,4.7c-2.6,0-4.6-1.6-3.9-4.7l13.2-61.7c0.5-2.8,3-4.8,5.9-4.8c2.4,0,4.6,1.6,3.9,4.8L477.2,197z M492.7,210.2
	c1.3-6.1-0.8-9.9-5.1-9.9c-6.8,0-12.7,7.8-14.3,15.3l-0.2,1c-1,5.8,1.3,9.3,5.6,9.3C485.7,225.8,491.1,218.3,492.7,210.2
	L492.7,210.2z M154.6,207c-0.5,0-0.9,0.6-0.9,1.4c0,0.8,0.4,1.4,0.9,1.4s0.9-0.6,0.9-1.4C155.6,207.6,155.1,206.9,154.6,207
	L154.6,207z M160.2,207c-0.5,0-0.9,0.6-0.9,1.4c0,0.8,0.4,1.4,0.9,1.4s0.9-0.6,0.9-1.4C161.1,207.6,160.7,206.9,160.2,207L160.2,207
	z M151.4,212.9c1.8,5.5,7.4,8.3,12-0.9 M112.6,363.3c3.6,0,4.9-2.4,4.9-5.4c0-1.9-1.1-4.1-3.1-4.1c-1-0.1-2,0.7-2.1,1.7
	c0,0.1,0,0.2,0,0.4c0,0.8,0.4,1.5,1,2c0.2,0.2,0.4,0.5,0.4,0.8c0,0.6-0.5,1.1-1.1,1.1c-0.2,0-0.4-0.1-0.6-0.2
	c-1.1-0.8-1.8-2.1-1.8-3.5c0-2.4,1.9-4,4.3-4c3.3,0,5.3,2.9,5.3,5.9c0,4.7-2.7,7.4-7.3,7.4c-4.3,0-7.2-2.9-7.2-7
	c0-2.3,1.1-4.5,2.9-6c0.2-0.2,0.5-0.3,0.8-0.3c0.5,0,1,0.4,1,0.9c0,0,0,0,0,0.1c0,0.3-0.2,0.6-0.4,0.8c-1.2,1.2-1.9,2.8-2,4.5
	C107.7,361,109.3,363.3,112.6,363.3z M123.5,358.3c0.5-1,1.5-1.7,2.6-1.7c1.4,0,2.4,0.9,2.4,2.6v3.9c0,0.3,0.1,0.4,0.2,0.4
	c0.1,0,0.3-0.1,0.4-0.2c0.4-0.3,0.8-0.2,1.1,0.2c0.1,0.2,0.2,0.3,0.1,0.5c0,0.3-0.1,0.6-0.4,0.8c-0.4,0.4-1,0.6-1.5,0.6
	c-1.2,0-2-0.6-2-2.2v-3.4c0-0.9-0.4-1.1-0.9-1.1c-0.9,0-2.1,0.9-2.2,2.9v2.9c0,0.6-0.5,1-1,1s-1-0.5-1-1v-6.8c0-0.6,0.5-1,1-1
	s1,0.5,1,1L123.5,358.3z M136.1,356.1c0.1,0.7,0.4,1.3,0.9,1.7c0.2,0.2,0.4,0.5,0.4,0.8c0,0.6-0.4,1-1,1c0,0,0,0,0,0
	c-0.3,0-0.5-0.1-0.7-0.2c-1-0.8-1.7-2-1.7-3.3c0-2.5,2-3.9,4.5-3.9h3.8c4.8,0,7.1,3.4,7.1,6.6c0,3.2-2.2,6.4-6.7,6.4h-4.4
	c-0.5,0-1-0.4-1-0.9c0,0,0-0.1,0-0.1c0-0.6,0.4-1,1-1c0,0,0,0,0,0h0.9c0.6,0,0.6-0.5,0.6-1.1v-6.2c0-0.6,0.4-1,1-1c0,0,0,0,0.1,0
	c0.5,0,1,0.4,1.1,0.9c0,0,0,0.1,0,0.1v6.1c0,0.7-0.1,1.1-0.4,1.2h1.3c2.3,0,4.4-1.5,4.4-4.3c0-2.8-2.3-4.6-5.1-4.6h-3.6
	C137.1,354.3,136.1,354.9,136.1,356.1L136.1,356.1z M150.5,361c-0.1-2.3,1.7-4.3,4-4.4c0.1,0,0.3,0,0.4,0c2.6,0,3.8,1.5,3.8,3
	c0,1.5-1.2,2.7-3.3,2.7c-0.4,0-0.8-0.1-1.2-0.2c-0.4-0.1-0.6-0.5-0.6-0.9c0-0.5,0.4-1,0.9-1c0,0,0,0,0,0c0.3,0,0.7,0.2,0.9,0.2
	c0.5,0.1,0.9-0.3,0.9-0.7c0,0,0-0.1,0-0.1c0-0.6-0.4-1-1.6-1c-1.2,0-2.2,1-2.2,2.3c0,0.1,0,0.1,0,0.2c0,1.3,1,2.4,2.4,2.5
	c0,0,0.1,0,0.1,0c0.8,0,1.5-0.2,2.2-0.6c0.2-0.1,0.4-0.2,0.7-0.2c0.3,0,0.6,0.2,0.8,0.4c0.3,0.5,0.1,1.2-0.5,1.5
	c-1,0.6-2.1,0.9-3.3,0.8c-2.4,0.1-4.5-1.8-4.5-4.3C150.5,361.1,150.5,361.1,150.5,361L150.5,361z M164.3,358.6
	c-1.2,0-2.2,0.9-2.2,2.1c0,0.1,0,0.2,0,0.3c0,1.5,0.9,2.4,2.2,2.4c0.6,0,1.3-0.2,1.7-0.6c0.2-0.2,0.4-0.3,0.7-0.3c0.5,0,1,0.5,1,1
	c0,0.3-0.1,0.6-0.3,0.8c-0.9,0.8-2.1,1.2-3.3,1.1c-2.6,0-4.2-1.6-4.2-4.4c-0.1-2.3,1.7-4.3,4.1-4.4c0.1,0,0.2,0,0.4,0
	c1.7,0,3.2,1,3.2,2.7c0,0.7-0.2,1.3-0.7,1.8c-0.2,0.2-0.5,0.4-0.9,0.4c-0.5,0-1-0.4-1-0.9c0-0.3,0.1-0.5,0.3-0.7
	c0.2-0.1,0.2-0.3,0.2-0.6C165.5,359,165.1,358.6,164.3,358.6z M168.7,361c-0.1-2.3,1.7-4.3,4-4.4c0.1,0,0.3,0,0.4,0
	c2.6,0,3.8,1.5,3.8,3c0,1.5-1.2,2.7-3.3,2.7c-0.4,0-0.8-0.1-1.2-0.2c-0.4-0.1-0.6-0.5-0.6-0.9c0-0.5,0.4-1,0.9-1c0,0,0,0,0,0
	c0.3,0,0.7,0.2,0.9,0.2c0.5,0.1,0.9-0.3,0.9-0.7c0,0,0-0.1,0-0.1c0-0.6-0.4-1-1.6-1c-1.2,0-2.2,1-2.2,2.3c0,0.1,0,0.1,0,0.2
	c0,1.3,1,2.4,2.4,2.5c0,0,0.1,0,0.1,0c0.8,0,1.5-0.2,2.2-0.6c0.2-0.1,0.4-0.2,0.7-0.2c0.3,0,0.6,0.2,0.8,0.4
	c0.3,0.5,0.1,1.2-0.5,1.5c-1,0.6-2.1,0.9-3.3,0.8c-2.4,0.1-4.5-1.9-4.5-4.3C168.7,361.1,168.7,361.1,168.7,361L168.7,361z
	 M180.7,358.1c0.5-0.8,1.4-1.4,2.4-1.5c0.9-0.1,1.7,0.5,2,1.3c0.6-0.8,1.5-1.3,2.5-1.3c1.4,0,2.5,1.1,2.5,2.5c0,0.1,0,0.1,0,0.2v3.9
	c0,0.3,0.1,0.4,0.2,0.4c0.1,0,0.3-0.1,0.4-0.2c0.4-0.3,0.8-0.2,1.1,0.2c0.1,0.2,0.2,0.3,0.1,0.5c0,0.3-0.1,0.6-0.4,0.8
	c-0.4,0.4-1,0.6-1.5,0.6c-1.2,0-2-0.6-2-2.2v-3.4c0-0.9-0.4-1.2-0.7-1.2c-0.9,0-1.9,1-1.9,3.4v2.4c0,0.5-0.5,1-1,1c0,0,0,0,0,0
	c-0.5,0-1-0.4-1-0.9c0,0,0-0.1,0-0.1v-4.8c0-0.8-0.4-1-0.7-1c-0.9,0-1.8,0.9-2,2.8v3c0,0.5-0.4,1-1,1c0,0-0.1,0-0.1,0
	c-0.5,0-1-0.4-1-0.9c0,0,0,0,0-0.1v-6.8c0-0.6,0.5-1,1-1s1,0.5,1,1L180.7,358.1z M195.3,351.8c-0.2,0-0.4,0.1-0.4,0.4v6.2
	c0.4-1.2,1.5-1.9,2.7-1.8c1.9,0,3,1.6,3,3.7c0,2.6-1.6,5.1-4.4,5.1c-2.3,0-3.3-1.8-3.3-3.7v-9.4c0-2.1,0.9-2.5,2.3-2.5h0.2
	c0.5,0,0.9,0.3,1,0.8c0,0.1,0,0.1,0,0.2c0.1,0.5-0.3,1-0.8,1C195.5,351.8,195.4,351.8,195.3,351.8L195.3,351.8z M198.4,360.4
	c0-0.9-0.3-1.7-1.4-1.7c-1.2,0-2,1-2,2.6v0.2c0,1,0.4,2,1.4,2C197.6,363.5,198.4,361.7,198.4,360.4z M201.7,361
	c-0.1-2.3,1.7-4.3,4-4.4c0.1,0,0.3,0,0.4,0c2.6,0,3.8,1.5,3.8,3c0,1.5-1.2,2.7-3.3,2.7c-0.4,0-0.8-0.1-1.2-0.2
	c-0.4-0.1-0.6-0.5-0.6-0.9c0-0.5,0.4-1,0.9-1c0,0,0,0,0,0c0.3,0,0.7,0.2,0.9,0.2c0.5,0.1,0.9-0.3,0.9-0.7c0,0,0-0.1,0-0.1
	c0-0.6-0.4-1-1.6-1c-1.2,0-2.2,1-2.2,2.3c0,0.1,0,0.1,0,0.2c0,1.3,1,2.4,2.4,2.5c0,0,0.1,0,0.1,0c0.8,0,1.5-0.2,2.2-0.6
	c0.2-0.1,0.4-0.2,0.7-0.2c0.3,0,0.6,0.2,0.8,0.4c0.3,0.5,0,1.2-0.5,1.5c-1,0.6-2.1,0.9-3.3,0.8c-2.4,0.1-4.5-1.8-4.6-4.2
	C201.6,361.2,201.6,361.1,201.7,361L201.7,361z M211.7,357.6c0-0.5,0.4-1,0.9-1c0,0,0.1,0,0.1,0c0.5,0,1,0.4,1,0.9c0,0,0,0,0,0.1
	v0.8c0.6-1.1,1.4-1.8,2.3-1.8c0.8-0.1,1.5,0.5,1.6,1.3c0,0,0,0.1,0,0.1c0,0.5-0.4,1-0.9,1.1c-0.6,0-0.6-0.4-1.1-0.4
	c-1.2,0-1.8,2.2-1.8,3.3v2.5c0,0.5-0.4,1-0.9,1c0,0-0.1,0-0.1,0c-0.5,0-1-0.4-1-0.9c0,0,0-0.1,0-0.1L211.7,357.6z M223.3,357
	l2.6-4.4c0.2-0.3,0.5-0.5,0.9-0.5c0.7,0,0.9,0.4,0.9,0.8c0,0.2-0.1,0.5-0.2,0.7l-2.3,3.9c0.3-0.5,0.9-0.7,1.8-0.7
	c1.9,0,3.4,1.7,3.4,4.2c0,2.4-2,4.4-4.4,4.4c-2.4,0-4.4-2-4.4-4.4C221.7,360.2,221.9,359.4,223.3,357L223.3,357z M226.1,358.6
	c-1.3-0.1-2.5,1-2.5,2.3c-0.1,1.3,1,2.5,2.3,2.5c1.3,0.1,2.5-1,2.5-2.3c0,0,0-0.1,0-0.1c0.1-1.2-0.8-2.4-2.1-2.5
	C226.3,358.5,226.2,358.5,226.1,358.6L226.1,358.6z M231.9,358.8c-0.5,0-1-0.4-1-0.9c0,0,0,0,0-0.1c0-0.5,0.4-1,0.9-1c0,0,0,0,0.1,0
	h1.1v-1.3c0-0.5,0.4-1,0.9-1c0,0,0.1,0,0.1,0c0.5,0,1,0.4,1,0.9c0,0,0,0.1,0,0.1v1.3h1.6c0.5,0,0.9,0.4,0.9,0.9c0,0,0,0.1,0,0.1
	c0,0.5-0.3,0.9-0.8,1c0,0-0.1,0-0.1,0H235v3.8c0,0.6,0.1,0.9,0.4,0.9c0.2,0,0.4-0.1,0.5-0.2c0.2-0.2,0.5-0.3,0.8-0.3
	c0.5,0,0.9,0.3,1,0.8c0,0.1,0,0.1,0,0.2c0,0.2-0.1,0.5-0.2,0.7c-0.5,0.6-1.3,0.9-2.1,0.8c-1.8,0-2.4-1.1-2.4-2.6v-4.1L231.9,358.8z
	 M239,352.3c0-2.1,0.9-2.5,2.3-2.5h0.2c0.5,0,0.9,0.3,1,0.8c0,0.1,0,0.1,0,0.2c0.1,0.5-0.3,1-0.8,1c-0.1,0-0.1,0-0.2,0h-0.1
	c-0.2,0-0.4,0.1-0.4,0.4v6.1c0.5-1,1.5-1.7,2.7-1.7c1.4,0,2.4,0.9,2.4,2.6v3.9c0,0.3,0.1,0.4,0.2,0.4c0.1,0,0.3-0.1,0.4-0.2
	c0.4-0.3,0.8-0.2,1.1,0.2c0.1,0.2,0.2,0.4,0.2,0.5c0,0.3-0.2,0.6-0.4,0.8c-0.4,0.4-1,0.6-1.5,0.6c-1.2,0-2-0.6-2-2.2v-3.4
	c0-0.9-0.4-1.1-0.9-1.1c-0.9,0-2.1,0.9-2.2,2.9v2.9c0,0.6-0.5,1-1,1c-0.6,0-1-0.5-1-1L239,352.3z M257.6,364.1
	c-0.6,0.8-1.6,1.3-2.6,1.3c-2,0-3.1-1.6-3.1-3.8c0-2.8,1.7-5,4.1-5c0.6,0,1.1,0.2,1.5,0.6c0.2-0.4,0.5-0.6,1-0.6
	c0.5-0.1,1,0.3,1,0.8c0,0,0,0.1,0,0.1v5.5c0,0.3,0.1,0.4,0.2,0.4c0.1,0,0.3-0.1,0.4-0.2c0.4-0.3,0.8-0.2,1.1,0.2
	c0.1,0.2,0.2,0.3,0.1,0.5c0,0.3-0.2,0.6-0.4,0.8c-0.4,0.4-1,0.6-1.5,0.6C258.6,365.4,257.9,364.9,257.6,364.1L257.6,364.1z
	 M254.1,361.6c0,1.2,0.6,1.9,1.3,1.9c1.3,0,2.1-1.5,2.1-2.8v-0.3c-0.1-1.1-0.7-1.7-1.4-1.7C254.8,358.6,254.1,360,254.1,361.6z
	 M264.4,358.3c0.5-1,1.5-1.7,2.6-1.7c1.4,0,2.4,0.9,2.4,2.6v3.9c0,0.3,0.1,0.4,0.2,0.4c0.1,0,0.3-0.1,0.4-0.2
	c0.4-0.3,0.8-0.2,1.1,0.2c0.1,0.2,0.2,0.3,0.1,0.5c0,0.3-0.2,0.6-0.4,0.8c-0.4,0.4-1,0.6-1.5,0.6c-1.2,0-2-0.6-2-2.2v-3.4
	c0-0.9-0.4-1.1-0.9-1.1c-0.9,0-2.1,0.9-2.2,2.9v2.9c0,0.5-0.4,1-1,1c0,0-0.1,0-0.1,0c-0.5,0-1-0.4-1-0.9c0,0,0,0,0-0.1v-6.8
	c0-0.6,0.5-1,1-1c0.6,0,1,0.5,1,1L264.4,358.3z M279.3,363.1c0,0.3,0.1,0.4,0.2,0.4c0.1,0,0.3-0.1,0.4-0.2c0.4-0.3,0.8-0.2,1.1,0.2
	c0.1,0.2,0.2,0.3,0.1,0.5c0,0.3-0.2,0.6-0.4,0.8c-0.4,0.4-1,0.6-1.5,0.6c-0.8,0.1-1.6-0.4-1.8-1.3c-0.6,0.8-1.6,1.3-2.6,1.3
	c-2,0-3.1-1.6-3.1-3.8c0-2.8,1.7-5,4.1-5c0.6,0,1.1,0.2,1.5,0.6v-6.5c0-0.6,0.5-1,1.1-0.9c0.5,0,0.9,0.4,0.9,0.9V363.1z
	 M273.8,361.6c0,1.2,0.6,1.9,1.3,1.9c1.3,0,2.1-1.5,2.1-2.9c0-1.2-0.6-1.9-1.4-1.9C274.5,358.6,273.8,360,273.8,361.6z M287.1,364.9
	c-0.2,0.3-0.4,0.5-0.8,0.5c-0.6,0-1-0.4-1.1-1c0-0.2,0-0.3,0.1-0.5l5.7-9.8H286c-0.5,0-1-0.4-1-0.9c0,0,0,0,0-0.1
	c0-0.5,0.3-0.9,0.8-1c0,0,0.1,0,0.1,0h6.5c0.7,0,1,0.3,1,0.8c0,0.5,0,0.7-0.7,1.7L287.1,364.9z M294.9,358.8c-0.5,0-1-0.4-1-0.9
	c0,0,0,0,0-0.1c0-0.5,0.4-1,0.9-1c0,0,0,0,0.1,0h1.1v-1.3c0-0.5,0.4-1,0.9-1c0,0,0.1,0,0.1,0c0.5,0,1,0.4,1,0.9c0,0,0,0.1,0,0.1v1.3
	h1.6c0.5,0,0.9,0.4,1,0.9c0,0,0,0.1,0,0.1c0,0.5-0.3,0.9-0.8,1c0,0-0.1,0-0.1,0H298v3.8c0,0.6,0.1,0.9,0.4,0.9
	c0.2,0,0.4-0.1,0.5-0.2c0.2-0.2,0.5-0.3,0.8-0.3c0.5,0,0.9,0.3,1,0.8c0,0.1,0,0.1,0,0.2c0,0.2-0.1,0.5-0.2,0.7
	c-0.5,0.6-1.3,0.9-2.1,0.8c-1.8,0-2.4-1.1-2.4-2.6v-4.1L294.9,358.8z M302,352.3c0-2.1,0.9-2.5,2.3-2.5h0.2c0.5,0,0.9,0.3,1,0.8
	c0,0.1,0,0.1,0,0.2c0.1,0.5-0.3,1-0.8,1c-0.1,0-0.1,0-0.2,0h-0.1c-0.2,0-0.4,0.1-0.4,0.4v6.1c0.5-1,1.5-1.7,2.7-1.7
	c1.4,0,2.4,0.9,2.4,2.6v3.9c0,0.3,0.1,0.4,0.2,0.4c0.1,0,0.3-0.1,0.4-0.2c0.4-0.3,0.8-0.2,1.1,0.2c0.1,0.2,0.2,0.3,0.1,0.5
	c0,0.3-0.2,0.6-0.4,0.8c-0.4,0.4-1,0.6-1.5,0.6c-1.2,0-2-0.6-2-2.2v-3.4c0-0.9-0.4-1.1-0.9-1.1c-0.9,0-2.1,0.9-2.2,2.9v2.9
	c0,0.6-0.5,1-1,1c-0.6,0-1-0.5-1-1L302,352.3z M312.7,366.7c-0.1,0.3-0.4,0.5-0.7,0.6c-0.6,0.1-1.1-0.2-1.3-0.8
	c-0.1-0.2,0-0.4,0-0.7l1.1-2.7c0.1-0.3,0.4-0.5,0.7-0.6c0.6-0.1,1.1,0.2,1.3,0.8c0.1,0.2,0,0.4,0,0.6L312.7,366.7z M319.7,365.2
	c-0.5,0.1-0.9-0.3-1-0.8c0,0,0-0.1,0-0.1c0-0.6,0.4-0.8,1.1-1.1c2.6-1,5.4-4,5.4-6.8c0.1-1.2-0.8-2.3-2-2.4c-0.1,0-0.2,0-0.3,0
	c-1.1-0.1-2,0.7-2.1,1.7c0,0.1,0,0.1,0,0.2c0,0.6,0.2,1.2,0.7,1.6c0.2,0.2,0.4,0.5,0.4,0.8c0,0.6-0.4,1-1,1.1
	c-0.2,0-0.4-0.1-0.6-0.2c-1-0.8-1.6-1.9-1.6-3.2c0-2.3,1.8-3.9,4.2-3.9c2.3-0.1,4.2,1.7,4.4,3.9c0,0.2,0,0.3,0,0.5
	c0,3.4-2.9,6-4.5,6.8h4.1c0.5,0,0.9,0.4,1,0.9c0,0,0,0.1,0,0.1c0,0.5-0.4,1-0.9,1c0,0,0,0,0,0H319.7z M333.8,352
	c2.8,0,4.7,2.2,4.7,6.7s-1.9,6.6-4.7,6.6c-2.8,0-4.7-2.2-4.7-6.6C329.1,354.3,331,352.1,333.8,352L333.8,352z M333.8,354
	c-1.3,0-2.6,1.5-2.6,4.7s1.3,4.7,2.6,4.7c1.3,0,2.7-1.5,2.7-4.7S335.2,354,333.8,354L333.8,354z M340.4,354.2c-0.6,0-1-0.4-1-1
	c0-0.6,0.4-1,1-1h1.1c2,0,2.6,0.4,2.6,2.8v9.4c0,0.5-0.4,1-0.9,1c0,0,0,0-0.1,0c-0.5,0-1-0.4-1-0.9c0,0,0,0,0-0.1v-9.5
	c0-0.5-0.1-0.7-0.5-0.7L340.4,354.2z M353,360.5l-2.6,4.4c-0.2,0.3-0.5,0.5-0.9,0.5c-0.7,0-0.9-0.4-0.9-0.8c0-0.2,0.1-0.5,0.2-0.7
	l2.3-3.9c-0.3,0.5-0.9,0.7-1.8,0.7c-1.9,0-3.4-1.7-3.4-4.2c0-2.4,2-4.4,4.4-4.4c2.4,0,4.4,2,4.4,4.4l0,0
	C354.6,357.2,354.4,358,353,360.5L353,360.5z M350.2,358.9c1.3,0.1,2.5-1,2.5-2.3c0.1-1.3-1-2.5-2.3-2.5c-1.3-0.1-2.5,1-2.5,2.3
	c0,0,0,0.1,0,0.1c-0.1,1.3,0.8,2.4,2.1,2.5C350.1,358.9,350.2,358.9,350.2,358.9L350.2,358.9z M365,364.1c-0.6,0.8-1.6,1.3-2.6,1.3
	c-2,0-3.1-1.6-3.1-3.8c0-2.8,1.7-5,4.1-5c0.6,0,1.1,0.2,1.5,0.6c0.2-0.4,0.5-0.6,1-0.6c0.5-0.1,1,0.3,1,0.8c0,0,0,0.1,0,0.1v5.5
	c0,0.3,0.1,0.4,0.2,0.4c0.1,0,0.3-0.1,0.4-0.2c0.4-0.3,0.8-0.2,1.1,0.2c0.1,0.2,0.2,0.4,0.2,0.5c0,0.3-0.2,0.6-0.4,0.8
	c-0.4,0.4-1,0.6-1.5,0.6C366,365.5,365.2,364.9,365,364.1L365,364.1z M361.4,361.6c0,1.2,0.6,1.9,1.3,1.9c1.3,0,2.1-1.5,2.1-2.8
	v-0.3c-0.1-1.1-0.7-1.7-1.4-1.7C362.1,358.6,361.4,360,361.4,361.6z M369.6,358.8c-0.5,0-1-0.4-1-0.9c0,0,0,0,0-0.1
	c0-0.5,0.4-1,0.9-1c0,0,0,0,0.1,0h1.1v-1.3c0-0.5,0.4-1,0.9-1c0,0,0.1,0,0.1,0c0.5,0,1,0.4,1,0.9c0,0,0,0.1,0,0.1v1.3h1.6
	c0.5,0,0.9,0.4,1,0.9c0,0,0,0.1,0,0.1c0,0.5-0.3,0.9-0.8,1c0,0-0.1,0-0.1,0h-1.6v3.8c0,0.6,0.1,0.9,0.4,0.9c0.2,0,0.4-0.1,0.5-0.2
	c0.2-0.2,0.5-0.3,0.8-0.3c0.5,0,0.9,0.3,1,0.8c0,0.1,0,0.1,0,0.2c0,0.2-0.1,0.5-0.2,0.7c-0.5,0.6-1.3,0.9-2.1,0.8
	c-1.8,0-2.4-1.1-2.4-2.6v-4.1L369.6,358.8z M386.9,363.3c3.6,0,4.9-2.4,4.9-5.4c0-1.9-1.1-4.1-3.1-4.1c-1-0.1-2,0.7-2.1,1.7
	c0,0.1,0,0.2,0,0.3c0,0.8,0.4,1.5,1,2c0.2,0.2,0.4,0.5,0.4,0.8c0,0.6-0.5,1.1-1.1,1.1c-0.2,0-0.4-0.1-0.6-0.2
	c-1.1-0.8-1.8-2.1-1.8-3.5c0-2.4,1.9-4,4.3-4c3.3,0,5.3,2.9,5.3,5.9c0,4.7-2.7,7.4-7.3,7.4c-4.3,0-7.2-2.9-7.2-7
	c0-2.3,1.1-4.5,2.9-6c0.2-0.2,0.5-0.3,0.8-0.3c0.5,0,1,0.4,1,0.9c0,0,0,0,0,0.1c0,0.3-0.2,0.6-0.4,0.8c-1.2,1.2-1.9,2.8-2,4.5
	C382.1,361,383.6,363.3,386.9,363.3L386.9,363.3z M401.1,358.5c0,0.5-0.4,1-0.9,1c-0.2,0-0.3,0-0.5-0.1c-0.5-0.4-0.8-0.8-1.6-0.8
	c-0.6,0-0.9,0.3-0.9,0.8s0.6,0.8,1.3,1.3c1,0.6,2.1,1.3,2.1,2.6c0,1.3-0.8,2.2-2.4,2.2c-1,0-2.3-0.3-2.3-1.5c0-0.5,0.3-0.9,0.8-1
	c0,0,0,0,0.1,0c0.5,0,0.8,0.6,1.4,0.6c0.3,0,0.4-0.1,0.4-0.3c0-0.3-0.7-0.7-1.5-1.2c-1-0.6-2-1.2-2-2.6c0-1.6,1.3-2.8,2.8-2.8
	c0.1,0,0.1,0,0.2,0c1.1,0,2.1,0.5,2.7,1.3C401.1,358.1,401.1,358.3,401.1,358.5L401.1,358.5z M407.7,364.1c-0.6,0.8-1.6,1.3-2.6,1.3
	c-2,0-3.1-1.6-3.1-3.8c0-2.8,1.7-5,4.1-5c0.6,0,1.1,0.2,1.5,0.6c0.2-0.4,0.5-0.6,1-0.6c0.5-0.1,1,0.3,1,0.8c0,0,0,0.1,0,0.1v5.5
	c0,0.3,0.1,0.4,0.2,0.4c0.1,0,0.3-0.1,0.4-0.2c0.4-0.3,0.8-0.2,1.1,0.2c0.1,0.2,0.2,0.4,0.2,0.5c0,0.3-0.2,0.6-0.4,0.8
	c-0.4,0.4-1,0.6-1.5,0.6C408.7,365.5,408,364.9,407.7,364.1L407.7,364.1z M404.2,361.6c0,1.2,0.6,1.9,1.3,1.9c1.3,0,2.1-1.5,2.1-2.8
	v-0.3c-0.1-1.1-0.7-1.7-1.4-1.7C404.9,358.6,404.2,360,404.2,361.6z M412.5,352.3c0-2.1,0.9-2.5,2.3-2.5h0.2c0.5,0,0.9,0.3,1,0.8
	c0,0.1,0,0.1,0,0.2c0.1,0.5-0.3,1-0.8,1c-0.1,0-0.1,0-0.2,0h-0.1c-0.2,0-0.4,0.1-0.4,0.4v5.8c0.6-0.9,1.6-1.4,2.7-1.3
	c1.1-0.1,2.1,0.7,2.2,1.8c0,0.1,0,0.2,0,0.3c0,1.2-1,2.4-2.5,2.9c0.5,0.1,0.9,0.5,1.1,0.9c0.3,0.4,0.6,0.8,0.8,0.8
	c0.3,0,0.5-0.4,0.8-0.4c0.5,0,0.9,0.4,0.9,0.9c0,0,0,0,0,0c-0.1,0.9-0.8,1.5-1.7,1.5c0,0,0,0,0,0c-0.9,0-1.2-0.2-2.1-1.4
	c-0.3-0.5-0.7-1-1.1-1.5c-0.3-0.2-0.4-0.6-0.4-0.9c0-0.4,0.2-0.7,0.7-0.9c1.3-0.7,1.5-1.1,1.5-1.5c0-0.3-0.2-0.5-0.6-0.5
	c-1,0-2.2,0.9-2.2,3v2.8c0,0.5-0.4,1-1,1c0,0-0.1,0-0.1,0c-0.5,0-1-0.4-1-0.9c0,0,0,0,0-0.1L412.5,352.3z M426.9,364.1
	c-0.6,0.8-1.6,1.3-2.6,1.3c-2,0-3.1-1.6-3.1-3.8c0-2.8,1.7-5,4.1-5c0.6,0,1.1,0.2,1.5,0.6c0.2-0.4,0.6-0.6,1-0.6
	c0.5-0.1,1,0.3,1,0.8c0,0,0,0.1,0,0.1v5.5c0,0.3,0.1,0.4,0.2,0.4c0.1,0,0.3-0.1,0.4-0.2c0.4-0.3,0.8-0.2,1.1,0.2
	c0.1,0.2,0.2,0.3,0.1,0.5c0,0.3-0.2,0.6-0.4,0.8c-0.4,0.4-1,0.6-1.5,0.6C427.9,365.4,427.1,364.9,426.9,364.1L426.9,364.1z
	 M423.3,361.6c0,1.2,0.6,1.9,1.3,1.9c1.3,0,2.1-1.5,2.1-2.8v-0.3c-0.1-1.1-0.7-1.7-1.4-1.7C424,358.6,423.3,360,423.3,361.6z
	 M470.8,319.5c0,0-0.1-0.3-0.5-1.1c-0.2-0.6-0.6-1.1-1-1.6c-0.3-0.4-0.8-0.7-1.4-0.6c-0.5,0.1-0.8,0.6-0.8,1.1c0,0,0,0,0,0
	c0.1,0.6,0.4,1.1,0.8,1.5c0.3,0.2,1.7,1.4,1.7,1.4c-0.8,0.1-1.5,0.2-2.3,0.2c-1.2,0.1-1.7,1.9-1.4,2.4c0.5,0.5,1.4,0.7,2.1,0.4
	c0.7-0.3,2.2-2,2.2-2c0,0.6-0.2,1.2-0.4,1.8c-0.8,2,0.7,2.5,0.8,2.5c0.2,0.1,0.4,0.1,0.7,0.1c0.8-0.3,1.2-1.2,1-2
	c-0.2-0.8-0.8-2.5-0.8-2.5c0.6,0.6,1.3,1.2,2,1.6c0.5,0.2,1.1,0.1,1.6-0.2c0.3-0.2,0.7-0.5,0.6-0.9c-0.2-0.4,0-0.9-0.7-1.3
	c-0.7-0.4-1.7-0.3-3.3-0.1c2.6-1.6,2.4-3.1,2.1-3.5s-0.6-0.3-0.9-0.2c-0.3,0.1-0.5-0.1-0.8,0.1c-0.8,0.7-1.3,1.7-1.3,2.7
	L470.8,319.5z M483.8,307.2c0,0-0.5-0.3-1.9-1.2c-1-0.7-2.1-1.2-3.3-1.6c-1-0.3-2-0.1-2.8,0.5c-0.8,0.6-0.6,1.8,0,2.5
	c0.8,0.8,1.8,1.3,2.9,1.4c0.7,0,4.2,0.3,4.2,0.3c-1,1-2.2,2-3.3,2.8c-1.8,1.4-0.7,4.8,0.4,5.2s2.8-0.3,3.6-1.6
	c0.8-1.3,1.3-5.5,1.3-5.5c0.6,1,1,2.1,1.3,3.3c0.9,3.9,3.7,3.2,3.9,3.1c0.4-0.1,0.8-0.3,1.1-0.6c0.9-1.3,0.6-3.1-0.6-4.2
	c-1.2-1.1-4-3.1-4-3.1s3.8,0.7,4.9,0.4s1.9-1.4,2.3-2c0.4-0.6,0.7-1.5-0.1-2c-0.7-0.5-1-1.4-2.5-1.2c-1.5,0.2-2.9,1.3-5.2,3.4
	c2.3-5.3,0.5-7.5-0.5-7.8s-1.2,0.1-1.7,0.6c-0.5,0.5-0.9,0.4-1.1,0.9c-1.1,2.8,0.8,5.6,0.8,5.6L483.8,307.2z M63.8,263.1
	c0.7-0.7,0.7-1.9,0-2.6c0,0,0,0,0,0l-4.4-4.3c-0.8-0.6-1.9-0.5-2.6,0.2c-0.6,0.7-0.6,1.7,0,2.4l4.4,4.3
	C61.9,263.8,63.1,263.9,63.8,263.1C63.8,263.1,63.8,263.1,63.8,263.1L63.8,263.1z M55,276.3c0.1-1-0.7-1.9-1.7-2c0,0,0,0,0,0
	l-4.3-0.2c-1-0.1-1.9,0.7-2,1.7c-0.1,1,0.7,1.9,1.7,2c0,0,0.1,0,0.1,0l4.3,0.2h0.1C54.2,278,55,277.2,55,276.3z M58.2,269.1
	c0.4-0.9-0.1-2-1-2.4c0,0,0,0,0,0l-6.7-2.6c-1-0.3-2,0.2-2.3,1.2c-0.3,0.9,0.2,1.8,1,2.2l6.7,2.6c0.2,0.1,0.4,0.1,0.7,0.1
	C57.3,270.3,57.9,269.8,58.2,269.1z M389,269.5c10.4,0,17.7,12,14.5,29.4c-3.6,19.8-14.6,29.3-26.9,29.3s-21.3-9.6-17.2-29.3
	C363.5,279.2,374.5,269.5,389,269.5L389,269.5z M376.9,281.6c-0.8,0-1.4,0.9-1.4,2.1c0,1.1,0.6,2.1,1.4,2.1c0.8,0,1.4-0.9,1.4-2.1
	C378.2,282.5,377.7,281.6,376.9,281.6L376.9,281.6z M385.2,281.6c-0.8,0-1.4,0.9-1.4,2.1c0,1.1,0.7,2.1,1.4,2.1s1.4-0.9,1.4-2.1
	C386.6,282.5,386,281.6,385.2,281.6L385.2,281.6z M390.8,289.6c0.2-0.5,0-1-0.4-1.2c-0.5-0.2-1,0-1.2,0.4c-2.9,5.7-6.2,8.8-9.5,8.5
	c-2.8-0.2-5.5-2.9-6.8-7c-0.2-0.5-0.7-0.7-1.2-0.6c-0.5,0.2-0.7,0.7-0.6,1.2c1.6,4.8,4.8,8,8.4,8.3h0.5
	C383,299.1,387,297.4,390.8,289.6L390.8,289.6z"/>
<g>
	<path class="st3" d="M597.9,152.6c0,0-8.2,7.6-8.2,11.8c0,4.2,3.2,8.7,12.6,6.3s11.4-5.5,11.5-7.7c0,0-6-0.8-4.2-7L597.9,152.6z"/>
	<g>
		<path class="st4" d="M664.3,339.3c-8.6,32.7-42.3,64-80.6,73c-32.9,7.8-69.5-17.6-69-33.2c0.6-17.6,22.7-16.6,33.7,2
			c17,28.5,75,8.6,96.7-31.2L664.3,339.3z"/>
	</g>
	<path class="st5" d="M579.4,159.7C562.6,166,549,177,541,191.4c-3.3,5.9-4.7,10.7-5,14.5c0,0-11.3,3.1-13.2,12.4
		c-1.9,9.3,9.7,7.4,12,5.7c2.3-1.7,7.2-6.7,7.2-6.7c4.5,1.3,12-0.8,12-0.8s8.6-3.8,12.6-4.3c4-0.4,11.6-0.2,11.6-0.2s7.4-3.6,13-6.7
		c5.7-3.2,7.4-5.7,7.4-5.7s2.5,7.2-0.2,11.1c-3.4,4.8-8,5.5-8,5.5l8.4,9.5l7.8-14.9l7.8,4.6c0,0-3.6,16.2-5.7,18.8s0,0,0,0l2.3,2.5
		c0,0-9.5,16.4-12.2,17c-2.7,0.6,0,0,0,0l1.7,15.8c0,0,6.9,3.2,6.5,11.6s-4.4,12.6-4.4,12.6s-2.3,3.8-4,8.8s-8,5.3-9.7,4.8
		s-5-1.7-6.5-6.9l-6.1-1.9c2.3,15.1,0.8,33.5,0.8,33.5c4.7,0,9,0.3,12.1,1.1c-2.2,12.6-11.8,31.1,2.8,34.1
		c7.9,1.6,18.5-3.6,18.5-3.6c14-0.5,34.6-3.2,53.3-16.6c18.9-13.6,27.4-41.1,29.6-69c0,0-6.7-0.1-22.4-1.9
		c-15.8-1.8-25.6-6.9-25.6-6.9l-6.8-15.9h-0.8l-0.2,1.1l-1.2,0.9l-7.7-1.8l-0.5-1.1l2.2-10.1l0.8-1.4c2.7-0.3,8.7,2,8.7,2l-0.1,1.5
		l0.9-0.1l9-5.9l43.2,4.4c-1.2-12.6-3.6-23.9-6.5-32.2c-10.1-28.6-30.8-49.9-58.1-55.4c0,0-10.9,6.9-13.3,6.9l-1.9-0.2
		c0,0,2.8,7.6-13,9.3c-8,0.8-10.7-2.7-11.4-5.5c0,0-1.7,3.2-5.3-0.4C580.1,161.7,579.4,159.7,579.4,159.7z"/>
	<polygon class="st6" points="572.2,202.8 560,212.5 579.7,212.8 590.6,206.8 	"/>
	<polygon class="st6" points="600.6,205.5 591.1,215.2 598,224.9 605.3,210.3 	"/>
	<path class="st5" d="M504.8,308c0.8,13.4,11.7,37.2,26.2,44.7c13.1,6.8,20.4-6.4,19-11.7c-0.1-0.5-1-3.3-1.2-3.9
		c5.1-3.1,11.1-4.7,19.6-4.9c0,0,3.9-17.5,0.9-32c0,0-6.3,1.5-10.7-0.8c0,0-13,4-17,12l-1.9,5.5c0,0-6.5,8.1-16.4-2.9
		c-7.4-8.2-13.2-8.6-13.9-19.1C509.4,294.6,504.5,298.8,504.8,308z"/>
	<path class="st6" d="M644.4,229.2c0,0-22.7-11.6-44.2,28.4l-1.5-4c0,0,3.8-3.1,7.4-9.3c3.6-6.1,3.4-12,3.4-12l4.9-17.1
		C614.4,215.3,637.2,219.6,644.4,229.2z"/>
	<g>
		<path class="st4" d="M536.1,204.1c-20.2,3-21-6.3-16.4-6.7c4.6-0.4,17.5-5.9,24.3-11.1L536.1,204.1z"/>
	</g>
	<g>
		<path class="st4" d="M656.2,168.6c-9.1-0.7-2,6,1,8.6c3,2.5,24.7,22.2,44.8,16.1c20.1-6,26.2-22.7,22.2-23.7
			C720.2,168.6,674.9,170.2,656.2,168.6z"/>
	</g>
	<g>
		<path class="st5" d="M664.4,208.8c0,0-36.5-35.5-62.2-11.5c-6.3,5.9,8.6,18.4,24.7,21.5c16.2,3,25.7,16,25.7,16L664.4,208.8z"/>
	</g>
	<path class="st7" d="M655.2,167c0,0,8.2-17.4,0-21c-10.4-4.7-5-16.1,1.8-13.2s15,16.2,4.5,36L655.2,167z"/>
	<path class="st7" d="M589.7,133.3c0.2-0.5-0.1-1-0.6-1.2c-1.4-0.3-4.2-1-6.9-1.1c-6.7-0.3-10-1.4-11.6-2.2c-0.6-0.3-1.1,0.2-1,0.9
		c0.6,3.2,4.3,9.1,10.4,9.6C588,140,588.9,135.5,589.7,133.3z"/>
	<g>
		<path class="st8" d="M631.5,154.6l22.5,10c0,0-1-4.3-3.5-10.1c-2.5-5.8-7.8-13.9-11.6-17.6c-7-6.8-13.4-9.7-16.9-11.2
			c-10.6-4.2-26.1-3.8-38.5,8.2c-4,3.9-7.3,10.9-7.6,14.9c-0.6,7.4,5,11.1,11.4,9.6c4.1-0.9,6.9-2.1,10.6-5.9c0,0,4.9,3.1,13.9,1.4
			c0,0-5.4,8.3,1.5,8s9.2-4,11.4-5.1S631.5,154.6,631.5,154.6z"/>
	</g>
	<path class="st9" d="M654,282c-0.1-0.5,0.2-0.9,0.6-1c1.3-0.2,3.9-0.5,6.4-0.3c6,0.4,9.4,0.9,10.9,0.3c0.5-0.2,1,0.3,0.9,0.9
		c-0.8,2.9-5.1,6.6-10.6,6.5C654.9,288.3,654.5,284.1,654,282z"/>
	<path class="st8" d="M666.5,292.1c0,0,0.6-1.4,5.8-0.5c2.3,0.4,4.3,0.8,5.1,2.4c1,1.9-0.4,4.4-1.9,4.8c-3.5,0.9-6.7,0-9.5,0.7
		c-0.3,0.1-0.6-0.3-0.4-0.6C666.2,297.8,667,295.7,666.5,292.1z"/>
	<g>
		<path class="st8" d="M626.8,303.5c0,0,10.7,5.9,11.2,14.4c0.2,3.8-5,5.6-9.9,0.1c-3-3.4-8.2-4.9-8.9-4.6l-0.7-0.8
			c0,0-1.6-5.4-4.2-9.7c-0.6-0.9-1.9-2.8-1.7-3.8c1.8-9.3,11.9-17.1,14.8-19.2c8.5-6,25.5-7.8,34.6,2.2c2.6,2.8,5,9.3,4.1,13.5
			c-2,9.7-11.2,16-35.5,10.1"/>
	</g>
	<path class="st8" d="M533.1,223.1l3.2,4.6l3.3-0.3l4.9-6.3l-3.5-5.3C540.9,215.7,537.3,220.5,533.1,223.1z"/>
	<path class="st10" d="M576.6,295.2c0,0,7.4,64.4-21.7,70.3c-7.8,1.6-14.7-10.9,1.5-14.1c14.2-2.8,15.5-49.1,11.3-56.3
		C569.6,294.7,573.6,293.8,576.6,295.2z"/>
	<path class="st8" d="M577.8,156.4c0,0,4.5,11.2,10,9.8c5.5-1.4,1.4-7.7,1.4-7.7S581.8,160.5,577.8,156.4z"/>
	<g>
		<path class="st8" d="M600.9,271.1c0,0,0.1-11.7-2.1-17.5c0,0,7.5-8.7,11.4-17.2c0.3-0.7-1.7-2.7-1.4-3.4c3-7.5,5.1-12.2,5.2-17.6
			l-8.3-5.1l-7.2,13.4l-0.6,0.4c-9-16.3-34.9-13-45.9-7.4c-17.5,8.9-23.9,33.1-8.2,38.5c0,0,0.8,0.2,2,0.4l-0.2,0.1
			c0,0,0.8,6.8,0,14.6c-0.5,4.7-1.7,9.7-4,13.7c0,0-5.4,0.2-8.6,2.9c-2.2,2-2.6,3.8-3.7,6.7c-2.9-2.5-5.8-4.1-7.3-4.6
			c-4.8-1.7-16.3,2.5-10,13.2c3.3,5.5,7.5,6.4,13.7,13.2c6.4,7,14.1,2.4,14.8-3.3l0.1,0.1c0,0,17-23.7,42-12.2c0,0-0.5,4.8,6.3,6.2
			l5.5-0.3l3.3-3.3l7.9-15.8l0.9-7.4C606.4,275.2,603.1,270.9,600.9,271.1z"/>
	</g>
	<path class="st5" d="M510.3,296.8c0,0,4.2-10.1,15.6,0.9c11.4,11,13.5,16.4,10.2,19.6c-3.4,3.2-5.8,3.7-14.3-5.4
		C513.3,302.7,508.3,303.2,510.3,296.8z"/>
	<path class="st5" d="M602.1,273c-4.8-0.3-6.6,3.2-9.8,11.9c-3.2,8.7-7.4,9.2-8.3,15.5c-0.9,6.3,7.2,8.9,10.5,5.6
		c3.3-3.3,6-6.2,9.1-11.7C606.6,288.7,609.4,273.4,602.1,273z"/>
	<path class="st5" d="M542.4,309.3c0,0,9.4-15.6,22.9-15.6s17.3,6.3,17.3,6.3s-18.9-8.9-39.3,7.4L542.4,309.3z"/>
	<path class="st5" d="M535.7,247.3c0,0,5.5,7.9,26.8,1.4c17.5-5.4,27.9-14.3,32-19.4c3.9-4.8,0,0,0,0s-8.6,15.3-22.5,20.9
		C552.6,258,541.2,258.5,535.7,247.3z"/>
	<path class="st5" d="M625.6,302.7c0,0,15,8.9,27.8,5.5s13-10.4,13-10.4S659.5,310.1,625.6,302.7z"/>
	<path class="st9" d="M634.2,386.3c0,0,5.7,9.1,20.9,7.7c10.6-1,9.3-10.6,0.7-8.6c-9.8,2.4-17.2-3.8-17.2-3.8L634.2,386.3z"/>
	<path class="st9" d="M630.6,283.5c0-0.5-0.5-0.8-0.9-0.7c-1.4,0.3-4.2,0.9-6.9,2c-6.3,2.5-11.2,2.9-13,2.9c-0.6,0-1,0.7-0.7,1.2
		c1.6,2.5,7.1,7.6,12.9,5.5C629.9,291.5,630.7,285.7,630.6,283.5z"/>
	<path class="st7" d="M621.4,130.8c-0.3-0.4-0.2-1,0.3-1.3c1.4-0.7,4.3-2.2,7.2-3.1c7.1-2.3,11.6-5.4,13.1-6.6
		c0.5-0.4,1.3-0.1,1.4,0.5c0.4,3.3-0.8,11.4-7.2,13.7C627.6,137,622.9,132.7,621.4,130.8z"/>
	<path class="st11" d="M620.3,146.7c0.1-0.4-0.1-0.6-0.2-1c-0.3-1.5-1.8-2.4-3.3-2.1c-1.5,0.3-2.4,1.8-2.1,3.3
		c0.2,0.7,0.6,1.3,1.2,1.7C615.9,148.6,617.8,147.5,620.3,146.7z"/>
	<path class="st11" d="M582.7,153.4c1.5-0.3,2.4-1.8,2.1-3.3c-0.3-1.5-1.8-2.4-3.3-2.1c-1.5,0.3-2.4,1.8-2.1,3.3
		C579.7,152.9,581.2,153.8,582.7,153.4z"/>
	<path class="st11" d="M639.2,296.8c1.4,0.1,2.6-1,2.6-2.3s-1-2.6-2.3-2.6c-1.4-0.1-2.6,1-2.6,2.3
		C636.8,295.5,637.8,296.7,639.2,296.8z"/>
	<path class="st11" d="M661.5,293.8c0.7,0.8,1.9,0.9,2.7,0.2c0.8-0.7,0.9-1.9,0.2-2.7c-0.7-0.8-1.9-0.9-2.7-0.2
		C660.9,291.8,660.8,293,661.5,293.8z"/>
	<path class="st11" d="M583.3,230.5c1.6,0,2.8-1.3,2.8-2.8s-1.3-2.8-2.8-2.8c-1.6,0-2.8,1.3-2.8,2.8S581.7,230.5,583.3,230.5z"/>
	<path class="st11" d="M545.3,240.2c0-1.6-1.3-2.8-2.8-2.8c-1.6,0-2.8,1.3-2.8,2.8s1.3,2.8,2.8,2.8
		C544.1,243.1,545.3,241.8,545.3,240.2z"/>
	<path class="st8" d="M609.9,233.8"/>
	<path class="st10" d="M539.8,227.6c-2.2,0.4-5.4,1.1-9.3,2.4c-4.3,1.4-7.8,1.8-7.8,1.8s3.9,8.2,13.2,6L539.8,227.6z"/>
	<path class="st10" d="M577.4,213.9c-0.4-0.4-0.3-1,0.1-1.3c1.4-0.9,4.4-2.8,7.5-4.2c7.5-3.4,10.9-5.9,12.4-7.4
		c0.5-0.5,1.4-0.3,1.6,0.3c0.8,3.3,1.6,10.4-5.1,13.7C584.9,219.4,579.3,215.6,577.4,213.9z"/>
	<path class="st12" d="M558.8,236.6c0,0-0.6,1-1.4,2.1c-0.8,1.1-2,2-2,2s4.4,4.9,11-3.6C566.4,237.2,562.2,237.3,558.8,236.6z"/>
	<path class="st13" d="M602.5,157.8c0.6-1.2-2.4-1.8-2.4-1.8S602,158.9,602.5,157.8z"/>
	<path class="st13" d="M595.5,159.6c1.6,0.7,2.5-3.3,2.5-3.3S594,158.8,595.5,159.6z"/>
	<path class="st13" d="M600.2,160.3c2.4-0.6-1.4-3.9-1.4-3.9S597.8,160.9,600.2,160.3z"/>
	<path class="st14" d="M545.1,255.5c0,0,4.9,1.2,13.2,0.4c0,0,3.1,2,8.8-0.2s7.5-6.9,7.5-6.9s7.4-4.4,11-7.7
		c4.1-3.7,7.7-7.9,9.2-11.4c0,0,6.1-2.4,13.7,3.9l2.2,2.7c0,0-4.9,10.2-11.2,16.9c0,0,1.6,12.4,1,16c0,0-2.1,0.3-7.9,2.4
		c-1.9,0.7-2.2,4-4,5.3c-2.6,2-8.2,4.8-9.8,6.6c-1.2,1.3-4.8,7.8-2.6,14.4c0.4,1.2-12.8,3.5-16,1.3c-3.1-2.2-3.9-8.4-8.8-12.3
		c-1.8-1.5-3.5-2.4-5-3c-3.2-1.2-5.3-0.8-5.3-0.8S544.4,276,545.1,255.5z"/>
	<g>
		<path class="st15" d="M600.1,270.2c-0.1-0.1-0.2-0.2-0.4-0.3C599.8,269.9,599.9,270,600.1,270.2z"/>
		<path class="st16" d="M574.3,286.8c3.2-10.7,13.2-14.6,15.3-20.5c2.6-7.1-0.9-20-0.9-20c9.6,4.1,18.7-12.8,18.7-12.8l3,2.2
			c-0.1,3.2-11.2,16.9-11.2,16.9l1.7,17.7c-8.1-0.9-11.8,6.4-11.8,6.4s-6.4,2.1-9.8,6c-2,2.2-5.4,6.9-3.2,15.3
			c0,0-12.1,4.8-17.5,1.1l-4-8.1c0,0,3.4,6,10.8,4.6C571.7,294.6,573,291.1,574.3,286.8z"/>
	</g>
	<path class="st9" d="M616.8,363c0,0,2.9,5.7,7.8,11.9l5.5-4.6l-5-7.3H616.8z"/>
	<polygon class="st17" points="631.3,241 636,242.1 632.8,254.6 628.8,253.5 628.2,252.5 	"/>
	<path class="st17" d="M649.1,249.4l1.3,0.1l3.8,7.1c0,0,0.4,5.2-2.4,5s-2.5-6.5-2.5-6.5L649.1,249.4z"/>
	<polygon class="st18" points="636,242.1 632.8,254.6 636,255.7 637.6,254.3 640,243 	"/>
	<path class="st18" d="M647.6,247.5l-1.3,10.6c0,0,2,4.2,4.5,3.4c0,0-3.3-8.7-1.4-12s0,0,0,0s18.7,4.7,28.9,4.7s22-0.7,22-0.7
		l-1.6-3c0,0-9.9,1.5-20.6,0.6s-29.8-4.5-29.8-4.5L647.6,247.5z"/>
	<g>
		<g>
			<g>

					<ellipse transform="matrix(0.9981 -6.082634e-02 6.082634e-02 0.9981 -15.6953 34.7721)" class="st19" cx="563.3" cy="275.2" rx="11.1" ry="9.9"/>
			</g>
			<polygon class="st20" points="565.8,280.3 565.5,280.8 565.9,281.2 566.3,280.7 			"/>
			<polygon class="st20" points="567.1,281.1 566.7,281.8 567.2,282.2 567.7,281.7 			"/>
			<polygon class="st20" points="571.1,274 570.7,274.7 571.2,275.1 571.8,274.6 			"/>
			<polygon class="st20" points="554.9,276.3 554.5,276.9 555,277.4 555.5,276.8 			"/>
			<path class="st21" d="M551.9,273.9c0,0,1.1,1.3,2.5,0.1c1.9-1.6,3.8,6.1,6.4,5.3c1.9-0.5,1.3-5.9,2.5-6.1
				c2.1-0.2,0.9,5.8,3.6,5.6c2.4-0.2,2.9-5.7,4.4-6c1.1-0.2,2.4,0.5,2.7-1.4c0.3-1.8-3.2-7.9-11.6-7
				C554.4,265.3,551,272.4,551.9,273.9z"/>
			<path class="st22" d="M557.6,271.1c0,0,1.7,5.5,3.1,5.6c1.6,0.1,0.2-7.2,2.5-7.2c2.3,0.1,2.7,7,3.9,6.8c1.1-0.3,1.1-7,3.1-6.7
				c0,0,1.7,0.7,2-0.1c0.3-0.8-2.7-1.9-3.3-1.6c-0.6,0.2-1.4,5.9-2.1,4.8c-0.8-1.4-2.2-5.5-4.1-5.1c-1.3,0.3-2.2,4.4-2.5,5.9
				c-0.2,1.6-1.2-1.4-2.1-3.6c-0.5-1.2-2.9-0.8-2.8,0.1C555.4,270.8,557,269.6,557.6,271.1z"/>
			<polygon class="st23" points="568.2,265.7 566.8,267.2 568.1,267.9 			"/>
			<polygon class="st23" points="560.5,266.4 560,267.6 561.7,267.2 			"/>
			<polygon class="st23" points="555.5,271.6 554.9,272.8 556.6,272.4 			"/>
			<polygon class="st23" points="563.7,268.3 563.2,269.5 564.8,269.1 			"/>
			<polygon class="st23" points="562.7,263.9 562.4,264.8 564.5,265.5 564.8,264.2 			"/>
			<polygon class="st23" points="569.9,267.6 569.8,268 570.7,268.3 570.8,267.8 			"/>
			<polygon class="st23" points="555.7,266.7 556.6,267.4 557.9,266.4 556.4,266 			"/>
		</g>
		<g>
			<path class="st24" d="M565.3,265.9l3.9-5l0.4-0.2l0.4-0.8l0.4-0.5c0,0,1.1-0.2,1.2,0.8l-0.5,0.6l-0.7,0.5l-0.1,0.6l-3.7,4.6
				C566.5,266.6,564.9,267.2,565.3,265.9z"/>
			<path class="st25" d="M570.4,259.5c0.2-0.2,0.5-0.3,0.8,0c0.3,0.2,0.5,0.7,0.4,0.9s-0.6,0.2-0.9,0
				C570.4,260,570.2,259.7,570.4,259.5z"/>
			<path class="st25" d="M569.6,260.7c0,0,0,0.5,0.7,0.6l-0.1,0.6c0,0-0.9,0.1-1-1L569.6,260.7z"/>
		</g>
	</g>
	<g>
		<path class="st21" d="M724.5,168c-1.1-0.3-3.7-0.9-13.3-0.5c-5.8,0.3-11.5,1-21.4,1.1c-6.7,0.1-17.7-0.6-26.2-1.2
			c5.3-12.1,4.6-20.1,2.9-25c-2.4-6.7-7.2-9.4-9.1-10.2c-3.4-1.5-6.8-0.3-8.4,2.8c-1.7,3.5-0.6,8.8,5.8,12.3c1.6,0.9,2.6,2.2,3.1,4
			c1.1,3.9-0.5,9.1-2.1,13.1c-0.1-0.1-0.2-0.2-0.3-0.2c-0.3-1.1-1.4-5-3.5-10c-2.5-5.9-8-14.2-11.9-18c-0.4-0.4-0.8-0.8-1.9-2
			c5.8-3,7-10.2,6.6-13.7c-0.1-0.8,0.3-2.7-0.4-3c-0.7-0.3-2.5,1-3.1,1.6c-0.8,0.6-4,3.9-12.6,7.1c-0.5,0.2-0.9,0.3-1.4,0.5
			c-3.2-1.3-4-1.7-4.6-1.9c-9.9-3.9-24.4-4.2-36.8,5.8c-1.1-0.2-2.3-0.3-3.5-0.4c-6.7-0.3-9.8-1.4-11.1-2.1c-0.7-0.3-2-1.2-2.6-0.8
			c-0.6,0.5-0.3,2.2-0.2,3c0.5,3.1,3.8,7.9,9.6,9.3c-1.9,3.4-3.2,7.1-3.4,9.5c-0.3,3.5,0.7,6.5,2.8,8.6l-1.4,0.7
			c-13.3,5.8-24.5,15-32.8,27.2c-6.6,4.6-15.7,7.7-19.3,8.9c-1.2,0.4-3.8,0.7-6.3,1.3c-1.5,0.3-2.8,1-3.2,2.1
			c-0.6,1.6,2.1,5.3,3.3,6.3c3,2.5,4.4,2.3,8,3c1.1,0.1,2.2,0.2,3.3,0.2c-1,0.8-1.9,1.8-3,2.9c-3,3.1-4.3,5.2-3.9,9.2
			c0.3,3.3,2.7,7.5,7.6,7.5c1.3,0,2.5-0.2,3.7-0.7l1.3,1.8l-3.2,1c-4.1,1.4-8.8,1-8.8,1c-0.5,0-0.9,0.3-1.1,0.7
			c-0.2,0.4-0.2,0.9,0,1.3c1.3,2.7,6.2,6.3,12.4,6.4c-0.4,1.7-0.5,3.5-0.4,5.2c0.4,6.4,3.5,10.1,9.5,12.2c0.3,0.1,0.6,0.2,1,0.3
			c1.2,7.4-2.5,20.6-4,25.6c-0.3,0.4-0.6,0.8-0.9,1.2c-0.1,0.1-0.7,0.3-1.2,0.4c-1.9,0.5-5,1.3-8.2,5.3c-0.7,0.9-1.3,2-1.7,3.2
			c-2.4-2-4.5-3.4-5.6-3.9c-3.3-1.2-9.9-1.2-12.8,2.3c-0.5,0.6-1,1.7-1.2,3.1l0,0c-4.4,3.3-5.9,10.2-5.6,16.6
			c0.8,14.3,15.4,39.7,26.5,44.4c3.7,1.6,10,2.9,16.2-1.2c5.2-3.5,6.3-11.4,5.6-14.4c2.6-1.6,7.9-4.1,15.6-5.1
			c-2.2,8.7-5.8,15.9-11.2,16.6c-13.3,1.9-10.5,11.2-9.8,12.8c1.2,2.5,3.3,4.1,5.8,4.5c1.2,0.2,3.1-0.1,4.4-0.4
			c14.6-3,20.1-18.3,21.9-33.7c3,0.2,6.1,0.7,9.6,1.4c-0.5,3-1.3,6.3-1.8,8.5c-1.8,7.6-5.1,15.4-1,20.6c1.4,1.8,3.6,3.4,7.9,4.3
			c5.8,0.7,10.7-0.8,14.5-3.1c2.8,0,7.1-0.1,9.1-0.1c1.1,2,3.3,5.7,6.4,9.8c-13.5,11.2-30.3,18.1-46.1,18.4
			c-8.3,0.2-19.7-0.5-25.9-10.9c-7.6-12.7-18.6-19-26.6-16.9c-6.3,1.6-10.1,6.8-10.3,14.3c-0.2,6.2,3.8,12.6,12.1,19.5
			c11,9,28.2,15.5,45.9,15.5c4.4,0,8.8-0.1,13.1-1.1c18-4.3,34.9-13.1,48.6-24.7c2.9,2.9,8.5,6.9,18.6,7.6c1.1,0,2.2-0.1,3.4-0.2
			c6-0.6,7.7-4.2,8.2-5.5c0.6-1.6,0.4-3.3-0.7-4.6c-1.5-1.7-4.1-2.3-7.3-1.6c-6.8,1.6-12.4-1.1-14.8-2.6
			c9.3-9.4,16.6-20.1,21.4-31.5c1.2-0.8,2.5-1.6,3.7-2.4c21.3-14.7,27.5-45.1,29.8-69.3c6.3-3.3,8-7.8,7.8-12.5
			c-0.6-11.8-3.2-13.6-3.2-13.6l-5.5-10l-0.1,0c-1.4-12.2-3.9-24.7-7.7-34c-2.3-5.7-4.4-10.2-7.1-14.8c6.5,2.1,11.9,2.5,15.8,2.5
			c3,0,5.9-0.4,8.7-1.2c17.7-5.3,23.1-17.3,23-22.8C727.3,170,726.2,168.4,724.5,168z M660.4,150.7c-0.7-2.5-2.5-4.2-4.8-5.5
			c-4.9-2.7-5.6-7.3-4.5-9.7c0.7-1.4,3.4-2.5,5.9-1.4c1.6,0.7,5.7,3,7.7,8.7c1.6,4.4,2.1,12.9-3,24.5c-1.1-0.1-2.2-0.2-3.1-0.2
			c-0.4-0.4-0.9-0.8-1.3-1.2C659.3,161.6,661.7,155.5,660.4,150.7z M629.4,127.9c6.7-2.1,11.7-6.3,13.5-7.7c0.1,3.4-2,11.1-7,12.8
			c-7.2,2.5-11.3-0.5-13-2.4C624.4,129.9,626.9,128.7,629.4,127.9z M570.4,130c2,0.8,6.1,2.3,11.8,2.6c0.4,0,0.7,0,1.1,0.1
			c-0.2,0.2-0.4,0.4-0.7,0.6c-1.4,1.4-2.7,3.1-3.9,4.9C574.5,137.1,571.2,132.6,570.4,130z M616.8,148c-2.1,1.1-4.3,2.8-6.1,5.1
			c-7.5,1.2-11.6-1.2-11.8-1.4c-0.6-0.3-1.3-0.3-1.7,0.2c-3.5,3.6-6.1,4.7-9.9,5.5c-2.9,0.6-5.6,0.1-7.4-1.4c-1.7-1.5-3.2-4.1-3-7
			c0.3-3.5,3.4-10.3,7.2-14c11.7-11.5,27-13,40.5-7.6c-1.3,0.4-2.5,0.8-3.2,1.2c-0.6,0.3-1,0.8-1.1,1.5c-0.1,0.6,0,1.3,0.4,1.8
			c1.3,1.7,4.6,3.7,10.2,3.7c1.4,0,2.9,0,4.6-0.4c1.6,1.7,2.2,2.3,2.9,2.9c3.6,3.6,10,12.4,12.4,18c0.9,2.1,1.8,4.4,2.5,6.2
			c-4.1-2.9-8.2-4.9-13.8-7l-3-1.3c0.1,0,0.1-0.1,0.1-0.1c-0.1-0.8-3.6-0.9-4.3-0.8c-4.3,0.5-8.4,2.9-12.4,5.7
			c-8.3,5.8-8.8,0-8.5-0.8c4.6-11.7,20.4-11,20.3-11.8c-0.1-0.8-6.3-0.8-7-0.7c-0.2,0-1.5,0.2-3.3,0.7L616.8,148z M587.7,165.3
			c-2.4,0.6-5-2.5-6.7-5.5c0.4,0.1,0.9,0.3,1.4,0.3c0.1,0,0.2,0,0.3,0c0.3,0,0.5,0.1,0.8,0.1c0.2,0,0.4,0,0.6,0.1
			c2.3,0.2,4.5-0.1,5.5-0.3c0.2,0.3,0.3,0.7,0.3,1.1c-0.5,1.1-0.9,2.3-1,3.6C588.4,165.1,588.1,165.2,587.7,165.3z M590.7,159.1
			c0.2-0.1,0.4-0.2,0.6-0.3c-0.2,0.2-0.4,0.5-0.5,0.7C590.8,159.4,590.7,159.3,590.7,159.1z M592.9,158.9l5.5-5.2
			c4.8,0.6,8,1.7,10.2,3c0,0.1-0.1,0.1-0.1,0.2c-0.8,1.9-0.3,3.9,1.3,5.2c0.8,0.6,1.8,1.1,3,1.3c-0.1,0.3-0.1,0.6-0.2,0.8
			c-0.6,1.6-2.2,3.4-4.8,4.5c-4.7,1.9-11.4,2.4-14.7,0.9c-1.3-0.6-2.3-1.9-2.6-3C589.6,163.5,592.5,159.4,592.9,158.9z M517.7,198.7
			c5-0.5,15.2-2.6,22.2-7.7c-1.9,3.4-3.3,6.7-4.2,9.7c-0.2,0.7-0.4,1.3-0.5,1.8C518.5,207,517.5,198.7,517.7,198.7z M524.8,219.3
			c-0.5-2.6,1.3-5.2,2.3-6.5c3-3.5,7.4-5.7,9.9-5.7c0.4,0,0.7,0.1,0.9,0.1c1.4,0.5,2.4,2,2.8,3.9c0.5,2.2,0,4.6-1.3,6.7
			c-1.1,1.3-2.8,3.1-4.8,4.6c-1.6,0.9-3.2,1.4-4.7,1.4C528,223.8,525.5,223,524.8,219.3z M600.7,206.5c0.6,1.7,1.6,3.3,3.3,4.9
			c-1.9,4.9-3.8,8.8-5.7,12.1c-1.3-2.2-3.3-5.1-5.8-7.2c0.4-0.1,0.7-0.3,1.1-0.5C598.3,213.6,600.2,209.9,600.7,206.5z M598.6,252.4
			l-2.6-0.5l2.6,2.9c0.8,5.1,0.8,8.1,1.2,13c-4.1-0.3-9.1,3.2-10.6,5.8l-0.1,0.1c-0.4,0.7-0.7,1.3-0.8,2.1c-0.1,0.1-0.3,0.2-0.4,0.3
			c-1.2,0.4-3.1,1.3-5.1,2.7c-1.3,0.8-2.7,1.9-4.1,3.5c-1.5,1.7-5.6,8.3-3.7,15.2c-2.3,1-10.8,2.4-13.5,1.7
			c-1.7-0.4-2.6-1.6-3.5-3.5c-1.2-2.6-2.6-6.1-5.5-8.4c-5.3-4.3-8.1-4.7-9.3-4.5c1.3-2.4,2.3-5.5,3.1-9.9c1.1-6.1,1.1-15.1,1-16.2
			c2,0.3,5.4,0.3,10.9-0.2c1,0.5,4.3,2,9.4,0.1c5.2-2,8.7-6.8,9.2-8c1.4-0.9,5.1-3.1,8.4-6.1c4.5-4.1,8.1-8.8,9.6-12.1
			c1.4-0.4,7-0.9,13,4l1.4,1.5l-2.6,6.1C604.4,245.2,601.6,249.2,598.6,252.4z M601.2,293.1c-1.4,2.4-2.6,6-3.7,8.9
			c-1.2,3.2-5.4,4.7-8.4,4.1c-1.6-0.3-4.5-2.6-4.4-6.8c0-0.6,1.2-6.9,0.4-7c-0.8-0.1-2.4,3.2-2.7,4c-0.2,0.8-0.5,1.6-0.6,2.5
			c-1.5-1-3-1.6-5-1.8c-1.2-4.5,0.3-9.3,1.5-11.7c0.5-0.6,1.2-1.3,1.9-2c1.1-0.7,2.2-1.6,3.4-2.5c2.1-1.3,3.4-1.6,4.1-1.7
			c-0.1,0.7-0.3,1.6-0.5,2.6c-0.2,0.8-2,5.7-1.2,5.9c0.8,0.2,4.4-10.5,5.5-12.2l0.1-0.1c1-1.6,4.3-3.5,7.5-2.8
			c3.2,0.7,6.1,3.1,6.8,8.4C606.4,284.7,603.6,288.9,601.2,293.1z M607.7,231.7c-3.8-2.7-7.2-3.5-9.6-3.6c2.7-4.7,5.9-10.5,8.2-14.9
			c1.5,1,3.7,1.9,6.3,2.8C612.2,217.8,611.3,223.4,607.7,231.7z M593.5,213.7c-7.5,3.6-12.3,1.2-14.4-0.4c1.6-1,5.8-3.5,8.4-4.7
			c6.8-3,9.1-5.6,11-7.2C599.2,204.9,598.8,211.2,593.5,213.7z M577.3,211.2c-4.8-0.4-9.6,0.1-13.9,1c0.2-0.2,0.5-0.3,0.7-0.5
			c3.4-2.5,6.4-5.4,8.5-8.4c4.1,2.2,8,3.6,11.8,4.4C581.8,208.9,578.8,210.3,577.3,211.2z M539.5,222.1c0.8-0.8,1.6-1.7,2.2-2.5
			l1.1,1.6l-3.9,5l-1.8,0.2l-1-1.5C537.2,224.3,538.4,223.3,539.5,222.1z M525.3,232.8c1.5-0.3,3.6-0.7,5.9-1.5
			c2.5-0.8,4.8-1.4,6.7-1.9c-1.4,2.3-2.6,4.7-3.3,7.1C529.8,237.2,526.8,234.6,525.3,232.8z M536.5,243.7c-0.5-8,4.2-19.8,15.5-25.6
			c5.4-2.8,14.9-5.8,24-5.3c0,0.1-0.1,0.2-0.1,0.4c0,0.7,0.2,1.3,0.7,1.8c1.4,1.3,4.3,2.8,9,2.8c1.4,0,2.7-0.1,4.1-0.4
			c3,2.2,5.6,5.4,7.2,8.4c-0.6,0.9-1.1,1.8-1.7,2.6c-0.7,0.1-1.1,0.3-1.1,0.3l-0.4,0.2l-0.2,0.4c-1.3,3.1-4.5,7-9,11
			c-3.5,3.2-9.9,7.6-9.9,7.6s-0.6,3.5-8.2,6.7c-3.7,1.5-6.4,0.9-7.5,0.5c1.5-0.3,2.8-0.7,3.8-1c0.8-0.3,1.8-0.9,2.3-1.2
			c0,0-8.2,2.2-11.9,2.4c-4.1,0.2-9-1-9-1C538.3,252.1,536.7,247.3,536.5,243.7z M512,292.9c2.1-2.5,7.4-3.1,9.6-2.1
			c7.3,3.3,16.2,12.2,15.8,11.5c-1.8-2.9-4.3-5.8-6.9-8.2c0.3-1.4,0.9-2.7,1.6-3.6c2.6-3.3,4.9-3.9,6.6-4.3c0,0,0,0,0,0
			c1-0.2,3.3-0.6,5.4-0.3c1,0.1,2,0.3,2.8,0.5c1.1,0.6,2.2,1.3,3.4,2.2c2.5,2,3.9,3.7,5,6.1c0.6,1.3,1.2,2.6,2,3.7
			c-8.6,2.6-13.4,7.5-15.9,10.5c-0.1-0.3-0.2-0.6-0.3-0.8c-0.3-0.7-2.2-2.8-2.2-2.8c-0.7,0.3,2.7,8.2-2.9,12.3
			c-2.8,2.1-6.4,1.2-9.4-2c-2.8-3.1-5.2-5.7-7.3-7.3c-2.5-2-5.4-4-7.1-6.9C511,299,509.8,295.5,512,292.9z M531.4,351.2
			c-13.8-6-24.3-30-25.1-42.5c-0.2-4,0.7-7.4,2.6-10c0.4,1.4,1,3,2,4.6c1.9,3.3,4.2,5.1,6.9,7.1c2,1.6,4.3,3.4,7,6.3
			c2.7,2.9,5.5,4,8.1,4c1.9,0,3.7-0.6,5-1.5c0.4-0.3,0.8-0.6,1.1-0.9l0.4,0.9c0.8,1.9,1.6,3.8,2.3,5.6c2.4,5.9,5.2,10.6,5.6,14.4
			C547.9,344.6,546.1,357.6,531.4,351.2z M550,335.7c-1.4-3.1-3.7-7.4-5.3-11.8c-0.7-1.9-2.3-6-3.4-8.8c0.3-0.6,0.4-1.2,0.6-1.9
			l0,0.1c0.1-0.1,4-8.9,17.7-12.9c1.2,0.5,3,0.8,5,0.8c1.2,0,2.5-0.1,3.7-0.2c1.7,4.8,1.6,18.6-0.9,30.3
			C558.3,332.1,552.7,334.4,550,335.7z M555.8,364.4c-4.4,0.9-6.6-1.3-7.2-2.7c-0.9-2-2-6.2,7.8-8.5c14-3.2,17.1-39.8,14.4-52.6
			c1.6-0.3,3.1-0.6,4.2-0.9C576.1,311.1,579.9,359.2,555.8,364.4z M578.1,331c1.3-14.4-0.5-28.2-0.9-31.3c1.9,0.6,3.6,1.6,4.8,2.9
			c0.1,0.1,0.2,0.2,0.3,0.3c0.9,2.3,2.6,3.9,5,4.7c-0.2,4,0.6,7.8,0.7,12.9c0.1,3.2,0.2,6.3,0,9c0,0.6-0.1,1.4-0.2,2.2
			C584.4,331.3,581.2,331,578.1,331z M592.8,365.2c-2.8-0.6-4.7-1.7-5.7-3.3c-2.3-3.7-0.6-10.7,1-17.5c1.1-4.4,2.2-8.9,2.4-13.1
			c0.2-3.2,0.1-6.8,0-10.2c-0.2-5.6-0.2-9.4,0.3-13.2c3.7-0.2,7.7-2.2,9.1-6c1-2.6,2.4-5,3.7-7.4c0-0.1,0.1-0.1,0.1-0.2
			c8.1,2.8,15.3,20.9,15.9,29.6c1.1,13.3-1.3,20.4-5.9,28.7c-0.1,0.1-0.1,0.3-0.2,0.4C613.3,353.6,607.3,368.2,592.8,365.2z
			 M622.6,285.8c2.2-0.9,6.1-2,7.6-2.3c1.8,0.3-1.4,8.2-7.8,10.6c-4.6,1.7-10.5-2.9-12.4-5.3C612,288.6,616.6,288.1,622.6,285.8z
			 M619.5,296.2c1,0,2.1-0.2,3.2-0.6c8.4-3.1,9.3-9.3,9.3-11.9c0,0,0,0,0,0c0-0.6-0.3-1.1-0.7-1.5c-0.5-0.4-1-0.5-1.6-0.4
			c-0.9,0.2-2.4,0.5-4.1,1c1.5-1.4,2.8-2.3,3.3-2.7c7.9-5.6,23.7-6.2,32.4,3.3c2.4,2.6,5.2,7.8,5,11.6c-0.3,6-4.2,9.1-8.3,11
			c-6.1,2.7-12.2,3.4-25.4,0.2c0,0-3.9-1.7-3.9-1.7c-1.8-0.7-2.1-1.3-2.2-1.4c-0.6-0.3-2.4-0.2-2.7,0.4c-0.3,0.6,2,1.1,2.7,1.4
			c0.1,0.1,10.9,5.4,11.3,13.1c0.1,0.9-0.5,2.6-1.9,3c-1.4,0.3-3.5,0.5-6.2-2.4c-2.4-2.7-6.4-4.7-8.7-5.1
			c-1.5-4.9-3.7-10.1-6.7-14.3c0.3-1.3,0.8-2.6,1.4-3.9C616.7,295.9,618,296.2,619.5,296.2z M668.1,292.5l0.6-0.2
			c0.7-0.1,1.8-0.1,3.5,0.2c2.3,0.4,3.5,0.9,4.2,1.8c1,1.4,0.6,2.3,0.4,2.6c-0.3,0.6-1.2,1-1.5,1.1c-1.7,0.4-3.3,0.4-4.9,0.4
			c-0.7,0-1.3,0-2,0l-0.6,0c0.1-0.5,0.3-1,0.4-1.5C668.5,295.5,668.4,294,668.1,292.5z M663.5,282.3c0.7,0.1,1.4,0.1,2.1,0.2
			c2.9,0.2,5.6-0.2,6.8-0.4c-1.2,2.5-3.3,4.2-6.1,5C665.5,285.3,664.5,283.5,663.5,282.3z M629.6,368.3l-2.8-4.1
			c2.5-0.4,5.2-1,8-1.7C633.2,364.5,631.4,366.5,629.6,368.3z M624.4,373.4c-2.5-3.2-4.4-6.3-5.5-8.3c1.7-0.1,3.6-0.2,5.6-0.5l0.4,0
			l3.5,5.2c-0.9,0.9-1.8,1.8-2.8,2.6L624.4,373.4z M656.2,386.8c2.2-0.4,4-0.2,4.9,0.8c0.5,0.6,0.8,1.3,0.7,2.2
			c-0.4,2-3.1,3.5-6.4,3.8c-11.9,1.1-18.2-4.5-19.9-6.5l4.1-3.6C642.6,386.4,648.9,388.2,656.2,386.8z M583.4,410.4
			c-20.2,4.8-42.2-3.6-55.1-14.1c-7.1-5.8-11.3-12.1-11.1-16.9c0.2-5.4,2.6-8.9,6.9-10c6.4-1.6,16.2,2.3,22.6,13.1
			c5.7,9.6,14.3,14.6,27.9,14.4c23.2-0.4,49.3-14.9,64.8-35.9c5.7-1.8,11.9-4.4,18.2-8C645.4,380.6,616.2,402.6,583.4,410.4z
			 M662.7,346.9c-21.4,14.7-42.4,15.4-51.3,14.9c2.8-2.8,4.8-6,5.8-8.6c2.8-6.9,6.9-14.3,5.8-28.1c-0.2-2.3-0.7-5.8-1.8-9.6
			c1.7,0.6,4.2,1.8,6,3.8c2.5,2.8,5.1,3.8,7.2,3.8c0.8,0,1.5-0.1,2.1-0.4c1.8-0.8,2.9-2.5,2.8-4.5c-0.2-3.9-2.3-7.2-4.7-9.8
			c12,3.5,21.1,2.1,26.7-1.5c2.4-1.5,4.1-3.5,5.3-6l0.8-0.1l0.7,0c0.7,0,1.4,0,2.1,0c1.7,0,3.6,0.1,5.6-0.4c1.1-0.3,2.1-1.2,2.7-2.5
			c0.6-1.4,0.7-2.9,0-4.1c-1.1-2.3-4-2.8-6-3.1c-1.6-0.3-2.9-0.3-3.8-0.3l-1.2,0.1c-0.1-0.5-0.3-1-0.5-1.5c3.4-1.5,5.6-4.4,6.9-6.4
			c0.8-1.3,0.9-1.7,0.4-2.1c0,0-5.2,0.6-8.2,0.4c-1.3-0.1-3.3-0.8-5-0.9l0,0.1c-4.3-3.7-10.1-5.7-16.6-5.7c-0.1,0-0.2,0-0.3,0
			c-6.4,0-13,1.9-17.6,5.1c-0.9,0.7-3.5,2.6-6.3,5.3c-5.6,1.9-9.6,2-10.4,2c0,0-1.1,0.2-1.1,0.2c-0.7,0-1,0.6-1,0.6
			c-0.3,0.6,0.9,2.1,1.3,2.7c0.8,1.3,2.2,2.8,4.1,4.1c-0.4,0.9-0.8,1.7-1.1,2.6c-2.1-2.2-4.4-3.9-7.2-4.7c2-3.6,3.6-7.2,3-11.3
			c-1.1-7.7-4-11.5-6.5-12.7c0-2,0-4.2-0.1-6.2c-0.2-3.9-0.7-7.3-0.9-8.7c2.5-2.7,4.8-6,6.6-8.9c7.8,2.8,14.8,5,20.8,6.6l-0.2,0.8
			c-0.2,0.9,0.4,1.8,1.2,2l7.1,1.6c0.1,0,0.2,0,0.4,0c0.8,0,1.4-0.5,1.6-1.3l0.2-0.8c0,0.5,0.1,1,0.2,1.5l6.7,14.3
			c12.3,6.6,37.4,8.5,46.9,9.1C689.8,306.5,681.3,334.1,662.7,346.9z M639.4,243.7l-2.4,10.5c-0.1,0.3-0.3,0.5-0.6,0.5
			c0,0-0.1,0-0.1,0l-7.1-1.6c-0.3-0.1-0.5-0.4-0.5-0.7l2.4-10.5c0.1-0.3,0.3-0.5,0.6-0.5c0,0,0.1,0,0.1,0l7.1,1.6
			C639.3,243,639.5,243.4,639.4,243.7z M650.9,248.2l-0.3,2.2l0,0l2.9,6.2c0,0,0.6,4.1-2.6,4.2c-3.2,0.1-3.9-3.2-3.9-3.2l1.1-8.4
			l0.1,0l0.2-1.4l1.4,0.2l0-0.1l0.5,0.1l0,0L650.9,248.2z M651,249.7l0.3-1.5l1,0.2l-0.3,1.5L651,249.7z M653,250.1l0.3-1.5l1,0.2
			l-0.3,1.5L653,250.1z M654.9,250.5l0.3-1.5l1,0.2l-0.2,1.5L654.9,250.5z M656.9,250.8l0.2-1.5l1,0.2l-0.2,1.5L656.9,250.8z
			 M658.9,251.1l0.2-1.5l1,0.2l-0.2,1.5L658.9,251.1z M660.9,251.4l0.2-1.5l1,0.1l-0.2,1.5L660.9,251.4z M662.9,251.7l0.2-1.5l1,0.1
			l-0.2,1.5L662.9,251.7z M664.9,252l0.2-1.5l1,0.1l-0.2,1.5L664.9,252z M667,252.2l0.2-1.5l1,0.1l-0.2,1.5L667,252.2z M669,252.5
			l0.2-1.5l1,0.1l-0.2,1.5L669,252.5z M671,252.7l0.2-1.5l1,0.1l-0.2,1.5L671,252.7z M673,252.9l0.2-1.5l1,0.1L674,253L673,252.9z
			 M675,253.1l0.1-1.5l1,0.1l-0.1,1.5L675,253.1z M677,253.2l0.1-1.5l1,0.1l-0.1,1.5L677,253.2z M679,253.4l0.1-1.5l1,0.1l-0.1,1.5
			L679,253.4z M681.1,253.5l0.1-1.5l1,0l-0.1,1.5C681.7,253.5,681.4,253.5,681.1,253.5z M699.5,251.1l0.3,1.5
			c-0.2,0-0.3,0.1-0.5,0.1l-0.3-1.5L699.5,251.1z M698.1,251.4l0.3,1.5c-0.3,0.1-0.7,0.1-1,0.2l-0.2-1.5
			C697.4,251.5,697.7,251.5,698.1,251.4z M683.1,253.6l0.1-1.5c0.3,0,0.7,0,1,0l0,1.5C683.8,253.6,683.4,253.6,683.1,253.6z
			 M685.1,253.7l0-1.5c0.3,0,0.7,0,1,0l0,1.5C685.8,253.7,685.4,253.7,685.1,253.7z M687.1,253.7l0-1.5l0.5,0l0.5,0l0,1.5l-0.5,0
			L687.1,253.7z M689.1,252.2c0.3,0,0.7,0,1,0l0,1.5c-0.3,0-0.7,0-1,0L689.1,252.2z M694.3,253.4c-0.3,0-0.7,0.1-1,0.1l-0.1-1.5
			c0.3,0,0.7,0,1-0.1L694.3,253.4z M692.1,252.1l0.1,1.5c-0.3,0-0.7,0-1,0l-0.1-1.5C691.5,252.1,691.8,252.1,692.1,252.1z
			 M696.1,251.7l0.2,1.5c-0.3,0-0.7,0.1-1,0.1l-0.2-1.5C695.5,251.8,695.8,251.8,696.1,251.7z M685.3,211.7c2.8,7.9,5,18.6,6.2,30.5
			l-41.7-4.3l-9.3,6.1c0.2-0.9-0.4-1.8-1.2-2l-7.1-1.6c-0.1,0-0.2,0-0.4,0c-0.8,0-1.4,0.5-1.6,1.3l-0.1,0.2
			c-8.5-2.5-15.7-5.1-18.9-6.4l-1.3-1.6c3.4-7.7,4.3-14,4.8-17.1c3,0.9,6.2,1.7,9,2.4c9.9,2.5,13,6,19.7,9.3
			c2.5,1.2,5.3,1.9,2.9-0.3c-5.2-4.6-13.7-9.8-22.2-12.3c-5.5-1.6-12.9-3.2-15.8-5.2c-3.8-2.7-6-6.6-5.5-9.7c0.5-3,3.7-5.8,9.2-6.9
			c31.4-6.4,47.7,15.3,48.2,14.2c0.2-0.4-1.2-2.1-1.9-3.1c-9.5-12.1-31.3-18.4-46.5-14.1c-9.1,2.6-10.8,5.6-11.4,9.1
			c0,0,0,0.1,0,0.1c-0.3-0.8-0.8-1.9-1.4-2c-0.8-0.2-1.7,1-2.3,1.6c-1,1-2.4,2.8-7.2,5.3c-5.2-0.1-10.4-1.4-16-4.8
			c-0.5-0.3-1.2-0.4-1.8-0.3c-0.6,0.2-1.1,0.5-1.4,1.1c-5.3,9.6-19.5,16.1-26.6,14.2l-0.5,1.5l0,0c0.7-1.8,0.9-3.8,0.4-6.2
			c-0.7-3.4-1.5-4.7-4.3-5.8c-0.3-0.1-0.6-0.2-1-0.3c-0.1-4.3,1.6-9.3,4-13.2c8.1-13.5,21-23.7,36.1-30l0.7-0.4
			c1.4,2.9,4,6.8,7.8,6.8c0.4,0,0.8,0,1.3-0.2c0.2-0.1,0.4-0.1,0.6-0.3c0.4,1.5,1.6,2.6,3.3,3.3c1.6,0.7,3.7,1,6.1,1
			c3.3,0,7-0.7,10-1.9c3.1-1.3,5.1-3,5.9-5.1c0.3-0.7,0.5-1,0.6-1.3c1.9-0.1,4.2-0.7,6.4-2.4c2.8-2.3,5.5-3.7,7.7-4.7
			c2.3,0.5,4.4,1,6.5,1.7l12.7,5.6c1.6,1,3.2,2.1,4.9,3.4c-1.7,0.3-2.9,1.2-3.3,2.5c-0.3,0.9-1.4,3.8,6.1,9.9l0.5,0.5
			c7.1,6.1,13.9,9.9,19.9,12.3C679.7,198.2,682.8,204.7,685.3,211.7z M723.6,177.3c-5.7,10.6-15.4,14.2-26.8,15.7
			c-13.2,1.7-33.1-8.9-42.4-18.5c0,0-3.9-4.3,0.7-4.5c7.5-0.3,25.5,1.5,31.1,1.5c4.9,0,20.6-1,23.9-1.4
			C724.1,168.5,726.1,172.7,723.6,177.3z"/>
		<path class="st21" d="M577.9,186.3c-4.5,0.5-7.6,1.5-9.6,3c-3.6,2.7-2.5,6,1.5,6.5c4,0.5,4.3,0.8,8.1-2
			C581.9,190.8,582.4,185.8,577.9,186.3z"/>
		<path class="st21" d="M553.3,186.8c-2.5,0-4.5,2-4.5,4.5c0,2.5,2,4.5,4.5,4.5c2.5,0,4.5-2,4.5-4.5
			C557.8,188.8,555.7,186.8,553.3,186.8z"/>
		<path class="st21" d="M596,150.5c1.7,0.6,1.8,0.8,3.7-0.1c2.1-0.9,2.7-3.4,0.7-3.7c-2-0.2-3.5-0.1-4.5,0.4
			C594,148,594.3,149.9,596,150.5z"/>
		<path class="st21" d="M587.6,147.7c1.1,0,2.1-0.9,2.1-2c0-1.1-0.9-2.1-2-2.1c-1.1,0-2.1,0.9-2.1,2
			C585.6,146.8,586.5,147.7,587.6,147.7z"/>
		<path class="st21" d="M611,144.8c1.1,0,2.1-0.9,2.1-2c0-1.1-0.9-2.1-2-2.1c-1.1,0-2.1,0.9-2.1,2C609,143.9,609.9,144.8,611,144.8z
			"/>
		<path class="st21" d="M646.4,296.1c-0.6,0.3-0.3,1.3,0.8,1.5c0.1,0,1.5,0.3,2.2,0.3c3.5-0.1,4.5-1.3,5.9-3.5
			c0.9,1.4,2.5,2.4,4.4,1.5c0.7-0.3,1.2-1.3,1.1-1.7c-0.2-0.4-0.6,0.1-1,0.3c-2.1,0.9-3.9-1.3-4-1.4c-0.1-0.2-0.3-0.3-0.6-0.3
			c-0.2,0-0.5,0.1-0.6,0.3c-2.5,3.7-6.7,3.1-6.9,3.1C647,296.2,646.8,295.9,646.4,296.1z"/>
		<path class="st21" d="M642,289.2c0.1,0,0.7,0.4,1.8,0.4c0.3,0,1.3-0.1,1.6-0.2c1.5-0.3,2.5-1.7,2.5-2.4c0-0.4-0.3-0.5-0.7-0.2
			c-0.5,0.3-1.6,1.1-2.6,1.2c-1.5,0.2-2.2,0.1-2.4,0C641.5,288,641.4,288.9,642,289.2z"/>
		<path class="st21" d="M659.9,288.4c1.3,0,1.7-0.7,2-1.3c0.2-0.4,0-0.5-0.4-0.4c-0.5,0.2-1.2,0.4-1.9,0.2c-1.1-0.2-1.6-0.5-1.7-0.6
			c-0.5-0.3-0.9,0.6-0.5,1C657.5,287.3,658.3,288.4,659.9,288.4z"/>
		<path class="st21" d="M653.8,291.7c0.9,0.2,1.2,0.1,2-0.9c0.8-1,0.8-1.7-0.7-2c-0.8-0.2-1.9-0.2-3.3,0.4
			C650.5,289.7,652.1,291.3,653.8,291.7z"/>
		<path class="st21" d="M601.7,179.5c0.2-1.2,5.1-3.1,4.3-4c-0.5-0.6-2.1-1.1-4.3-0.1c-1.2,0.6-7.5,6-7.8,7
			c-1.1,3.4,7.5,0.8,10.2-0.3c1.9-0.8,3.6-1.7,4.2-3.4C608.7,177.9,601.6,180.5,601.7,179.5z"/>
		<path class="st21" d="M557.4,234.7c2.3,0.3,2.5,0.4,4.6-1.1c2.3-1.7,2.6-4.6,0-4.3c-2.6,0.3-4.3,0.9-5.5,1.7
			C554.4,232.5,555.1,234.4,557.4,234.7z"/>
		<path class="st21" d="M572.9,224.6c1.2-0.7,1.4-1.1,1.7-2.3c0.1-0.6-4.3,1.2-4.3,0.6c0-0.8,3-1.9,2.4-2.5
			c-0.4-0.3-2.3,0.5-3.7,1.6c-0.7,0.6-1.3,0.9-1.4,1.6C567.1,225.9,571.2,225.5,572.9,224.6z"/>
		<path class="st21" d="M549.8,230.7c0.4,0.4-3.6,2.1-3.1,2.6c0.6,0.7,1.4,0.7,2.6,0.3c1.8-0.6,5-4.5,2.7-4.4
			c-2.1,0.1-5.8,0.3-5.9,1.9C546.1,231.9,549.3,230.2,549.8,230.7z"/>
		<path class="st21" d="M548.4,241.3c-0.2,0.5,0,1,0.5,1.2c0.9,0.4,1.7,0.6,2.6,0.6c1.5,0,2.9-0.6,4.2-1.4c0.7,0.5,1.9,1.2,3.6,1.2
			c0.1,0,0.2,0,0.2,0c2.6-0.1,5.2-1.8,7.8-5c3.7-0.3,7.6-1.7,9.7-5.7c0.2-0.4,0.8-1.7,0.3-2c-0.2-0.1-3.2,4-7.5,5.2
			c-4.3,1.3-10.3,0.1-10.4,0.1c-0.4-0.1-0.8,0.1-1,0.4c0,0-1.8,3.4-4.6,4.9C551.9,241.8,548.5,241.1,548.4,241.3z M559.7,237.3
			c1,0.2,2.9,0.5,5.1,0.6c-1.9,2-3.7,3.1-5.4,3.1c-1,0-1.7-0.2-2.2-0.5l-0.1,0C558.2,239.5,559,238.3,559.7,237.3z"/>
		<polygon class="st21" points="648.8,251.3 648.4,255.4 651.5,255.5 649.9,251.1 		"/>
		<polygon class="st21" points="649.5,249.5 650,249.6 650.2,248.1 649.8,248 		"/>
		<path class="st21" d="M637.5,243.9l-4.4-1.1c0,0-0.1,0-0.1,0c-0.3,0-0.5,0.2-0.6,0.5l-1.9,8.2c-0.1,0.3,0.1,0.7,0.5,0.7l4.4,1.1
			c0,0,0.1,0,0.1,0c0.3,0,0.5-0.2,0.6-0.5l1.9-8.2C638.1,244.3,637.9,243.9,637.5,243.9z"/>
	</g>
</g>
<path class="st26" d="M689.1,253.4c-0.2-0.6-0.5-1.2-0.8-1.7c-0.3-0.5-0.7-1.1-1.1-1.5c-0.4-0.5-0.9-0.9-1.4-1.3
	c-0.5-0.4-1-0.7-1.6-1c-1.2-0.6-2.4-1-3.7-1.1c-1.3-0.1-2.6,0.1-3.9,0.5c-0.6,0.2-1.2,0.5-1.7,0.8c-0.5,0.3-1.1,0.7-1.5,1.1
	s-0.9,0.9-1.3,1.4c-0.4,0.5-0.7,1-1,1.6c-0.6,1.2-1,2.4-1.1,3.7c-0.1,1.3,0.1,2.6,0.5,3.9c0.2,0.6,0.5,1.2,0.8,1.7
	c0.3,0.5,0.7,1.1,1.1,1.5c0.4,0.5,0.9,0.9,1.4,1.3c0.5,0.4,1,0.7,1.6,1c1.2,0.6,2.4,1,3.7,1.1c1.3,0.1,2.6-0.1,3.9-0.5
	c0.6-0.2,1.2-0.5,1.7-0.8c0.5-0.3,1.1-0.7,1.5-1.1c0.5-0.4,0.9-0.9,1.3-1.4c0.4-0.5,0.7-1,1-1.6c0.6-1.2,1-2.4,1.1-3.7
	C689.7,255.9,689.5,254.6,689.1,253.4z M671.2,255.9c0.1-1.3,0.5-2.4,1-3.5l3.3,11.6C672.7,262.4,670.9,259.3,671.2,255.9z
	 M679.2,265.2c-0.9-0.1-1.7-0.2-2.4-0.5l3.2-7.4l2.1,7.5c0,0,0,0.1,0.1,0.1C681.2,265.2,680.2,265.3,679.2,265.2z M681.3,252.5
	c0.5,0,1,0,1,0c0.5,0,0.5-0.7,0-0.7c0,0-1.4,0-2.3-0.1c-0.9-0.1-2.3-0.3-2.3-0.3c-0.5-0.1-0.6,0.6-0.1,0.7c0,0,0.4,0.1,0.9,0.2
	l1.1,3.8l-2.3,5.5l-2.5-9.6c0.5,0,1,0,1,0c0.5,0,0.5-0.7,0-0.7c0,0-1.4,0-2.3-0.1c-0.2,0-0.4,0-0.6-0.1c1.7-2.2,4.5-3.6,7.5-3.4
	c2.3,0.2,4.2,1.2,5.7,2.7c0,0-0.1,0-0.1,0c-0.9-0.1-1.5,0.6-1.6,1.4c-0.1,0.7,0.3,1.3,0.7,2.1c0.3,0.6,0.6,1.4,0.5,2.4
	c-0.1,0.7-0.4,1.6-0.8,2.8l-1.1,2.8L681.3,252.5z M688.5,257.2c-0.2,3.2-2.2,5.9-4.9,7.2l3.2-7.5c0.6-1.2,0.8-2.2,0.9-3.1
	c0-0.3,0-0.6,0-0.9C688.3,254.2,688.6,255.7,688.5,257.2z"/>
</svg>
