<?xml version="1.0" encoding="utf-8"?>
<!-- Generator: Adobe Illustrator 23.0.0, SVG Export Plug-In . SVG Version: 6.00 Build 0)  -->
<svg version="1.1" id="Layer_1" xmlns="http://www.w3.org/2000/svg" xmlns:xlink="http://www.w3.org/1999/xlink" x="0px" y="0px"
	 viewBox="0 0 1200 735.8" style="enable-background:new 0 0 1200 735.8;" xml:space="preserve">
<style type="text/css">
	.st0{opacity:0.8;fill:#FFF8E6;enable-background:new    ;}
	.st1{fill:#FFF8E6;}
	.st2{fill:#444444;}
	.st3{fill:#FFFDF3;}
	.st4{fill:#FF8800;}
	.st5{fill:#FFD200;}
	.st6{fill:#F4AE00;}
	.st7{fill:#9AC130;}
	.st8{fill:#FFF140;}
	.st9{fill:#F25F5F;}
	.st10{fill:#47A5B2;}
	.st11{fill:#FFAE85;}
	.st12{fill:#ED4A35;}
	.st13{fill:#E0D8A0;}
	.st14{fill:#00709C;}
	.st15{fill:#D65803;}
	.st16{fill:#005683;}
	.st17{fill:#B4BCBF;}
	.st18{fill:#D8D8D8;}
	.st19{fill:#E5AF61;}
	.st20{fill:#CE4646;}
	.st21{fill:#732C14;}
	.st22{fill:#FFDF57;}
	.st23{fill:#195E0D;}
	.st24{fill:#FFD592;}
	.st25{fill:#EDAD51;}
	.st26{fill:#FFFDFD;}
</style>
<title>logo</title>
<circle class="st0" cx="588.1" cy="365.9" r="354.9"/>
<path class="st1" d="M494.9,552.7c-3.2,0-6-1.3-8-3.7c-0.7-0.2-1.3-0.3-1.8-0.7c-1.5,0.7-3.2,1.2-4.6,1.2c-1.2,0-2.3-0.2-3.5-0.5
	c-1.3,0.5-2.8,0.7-4.3,0.7c-4.3,0.2-8.5-2-10.8-5.8l-0.3,0.5c-1.8,3.2-5.1,5.1-8.8,5.1c-2,0-3.8-0.5-5.6-1.7c-1.8,1-4,1.7-6.3,1.7
	c-1.2,0-2.3-0.2-3.5-0.5c-1.3,0.3-2.7,0.5-4,0.5c-1.7,0-3.2-0.3-4.8-0.8c-1.3,0.5-2.8,0.7-4.3,0.7c-1.8,0-3.7-0.3-5.3-1.2
	c-1.5,0.7-3.2,1.2-4.6,1.2c-1,0-2-0.2-3-0.5c-1.2,0.3-2.3,0.5-3.3,0.5c-1.2,0-2.3-0.2-3.5-0.5c-1.3,0.3-2.7,0.5-4,0.5
	c-2.8,0-5.5-0.8-7.8-2.3c-2.2,1.5-4.6,2.3-7.3,2.3c-1.8,0-3.7-0.3-5.3-1.2c-1.5,0.7-3.2,1.2-4.6,1.2c-1.2,0-2.3-0.2-3.5-0.5
	c-1.3,0.5-2.8,0.7-4.3,0.7c-2.5,0-5.1-0.7-7.3-2.2c-2.5,1.3-5.3,2-8.1,2c-5,0.2-9.8-2.2-12.8-6c-1.7,3.7-5.5,6.1-9.5,6.1
	c-1.5,0-3-0.3-4.3-0.8c-2.2,0.7-4.3,1-6.5,1c-3,0-5.8-0.8-8.5-2.3c-2.5,1.5-5.3,2.3-8.1,2.3c-1.8,0-3.7-0.3-5.3-1
	c-3.2,1.2-6.6,1.2-9.8,0c-2.7,1.2-5.6,1.3-8.3,0.2c-2.7,1-5.5,1-8.1-0.2c-2.2,0.7-4.3,1-6.5,1c-2.7,0-5.1-0.7-7.5-1.8
	c-2.5,1.2-5,1.7-7.8,1.7c-2.5,0-4.8-0.5-7.1-1.5c-2.5,1.2-5.3,1.7-8,1.7c-3.5,0-7-1.2-9.8-3.2c-3.2,1.8-6.8,2.8-10.6,2.8h-7.3
	c-2.8,0-5.6-1.2-7.6-3.2c-0.2,0.2-0.5,0.3-0.7,0.7c-2.3,1.8-5.1,3-8.1,2.8c-1.8,0-3.7-0.3-5.3-1.2c-1.5,0.7-3.2,1.2-4.6,1.2
	c-2.3,0-4.6-0.7-6.5-2.2c-3.2,1.5-6.5,2.2-10,2.2c-11.9,0-20.6-8.6-20.6-20.4c0-6.6,3-12.8,8.1-16.8h0.2c1.8-1.5,4.1-2.2,6.6-2.3
	c1.3,0,2.7,0.2,4,0.7c1.7-0.5,3.3-0.7,5.1-0.7c5.8,0,11.1,2.8,14.3,7.6c0.7,0,1.3,0.2,1.8,0.3c1-0.3,2.2-0.3,3.2-0.3
	c2,0,4,0.3,5.6,1.3c2.5-5.1,8-8.6,14.8-8.6h6.3c7.6,0,13.1,3.3,16.6,7.8c1.3-0.3,2.8-0.5,4.1-0.5c2.8,0,5.5,0.7,8,1.8
	c2.5-1.3,5.1-2,7.8-1.8c2.5,0,5,0.5,7.1,1.7c2.3-1.2,4.8-1.8,7.5-1.7c2.2,0,4.3,0.3,6.3,1.2c2.3-1.2,5.1-1.5,7.6-0.7
	c1-0.2,2-0.3,2.8-0.3c1.3,0,2.5,0.2,3.8,0.5c1.2-0.3,2.5-0.5,3.7-0.5c0.7-7,5.3-11.4,12.4-11.4h0.3c5.6-0.2,10.1,4.3,10.3,10
	c0,0.2,0,0.3,0,0.5c0,0.8-0.2,1.8-0.3,2.7l0.3,0.2c2.3-1.2,4.8-1.7,7.5-1.7c2.2,0,4.3,0.3,6.3,1.2c1.5-0.7,3.2-1.2,4.8-1.2
	c0.8,0,1.8,0.2,2.7,0.3c3.2-0.8,6.5-0.2,9.3,1.7l2.7-4.3c1.8-3.2,5.3-5.1,9-5.1c3.5,0,6.8,1.7,8.6,4.6c1-0.3,2.2-0.5,3.2-0.5h0.5
	c1.7-5,6-8,11.8-8h0.3c5.6-0.2,10.1,4.3,10.3,10c0,0.2,0,0.3,0,0.5c0,0.8-0.2,1.8-0.3,2.7c1.3,0.7,2.5,1.7,3.5,2.8
	c2.8-2.8,6.6-4.5,10.8-4.5c0.7,0,1.5,0,2.2,0.2c0.7-0.2,1.3-0.2,2-0.2c1.3,0,2.7,0.3,4,0.8c2.2-0.8,4.6-1,6.8-0.3
	c1-0.3,2.2-0.3,3.3-0.3c2.5,0,5,0.7,7,2c0.5-0.2,0.8-0.5,1.3-0.7v-2.5c0-5.8,4.6-10.5,10.5-10.3c3.5,0,6.8,1.8,8.8,4.8
	c1.3-0.5,2.7-0.8,4-0.8h10.8c3,0,5.8,1.2,7.8,3.3c1.8-4.6,6-7.3,11.6-7.3h0.3c5.6-0.2,10.1,4.3,10.3,10c0,0.2,0,0.3,0,0.5
	c0,0.8-0.2,1.8-0.3,2.7c2.2,1.3,4,3.2,5.1,5.5c0.2-8.5,7-14.6,15.8-14.6c3.2,0,6.3,0.8,9.1,2.7c2.7-1.8,5.6-2.7,8.8-2.7
	c2.2,0,4.3,0.5,6.5,1.3c1.3-0.7,3-1,4.5-1.2h1.8c2.5,0,4.8,0.5,7,1.5c2.3-1.2,5-1.8,7.6-1.7c6.8,0,12.3,3.7,14.8,9.3
	c2.2-1.2,4.6-1.8,7.1-1.8c0.7,0,1.5,0,2.2,0.2c0.7-0.2,1.3-0.2,2-0.2c0.5,0,1.2,0,1.7,0.2c3.8-4.3,10.5-4.8,14.9-1
	c0.3,0.3,0.7,0.7,1,1c1.3-2.2,3-4,4.8-5.5h0.2c1.8-1.5,4.1-2.2,6.6-2.3c1.3,0,2.7,0.2,4,0.7c1.7-0.5,3.3-0.7,5.1-0.7
	c5.8,0,11.1,2.8,14.3,7.6c0.3,0,0.8,0,1.2,0c2.3,0,4.5,0.5,6.5,1.5c2-1,4.3-1.5,6.6-1.5c0.7,0,1.2,0,1.8,0.2
	c0.5-7,5.3-11.4,12.4-11.4h0.3c5.6-0.2,10.1,4.3,10.3,10c0,0.2,0,0.3,0,0.5c0,0.8-0.2,1.8-0.3,2.7l0.2,0.2c2.2-1.2,4.5-1.7,7-1.7
	c0.7,0,1.5,0,2.2,0.2c0.7-0.2,1.3-0.2,2-0.2c5.6,0,10.3,4.5,10.5,10.1v0.2v3.5c4,4,4.1,10.5,0.2,14.4c-0.3,0.3-0.7,0.7-1,0.8
	c-2.3,2-5.1,3-8.1,2.8c-1.2,0-2.3-0.2-3.5-0.5c-1.3,0.3-2.7,0.5-4,0.5c-1.7,0-3.3-0.3-4.8-0.8c-1.3,0.5-2.8,0.8-4.3,0.8
	c-1.7,0-3.2-0.3-4.6-0.8c-2.3,1-4.8,1.2-7.1,0.3c-1.2,0.3-2.3,0.5-3.5,0.5c-1.2,0-2.3-0.2-3.5-0.5c-1.3,0.3-2.7,0.5-4,0.5
	c-2,0-4-0.5-5.8-1.3c-4.6,2-10,1.5-13.9-1.3c-3.3,1.7-6.8,2.5-10.5,2.5c-4.6,0-9.3-1.5-13.1-4.3l-0.2,0.2c-2.5,2.8-6.1,4.3-10,4.3
	c-1.8,0-3.7-0.3-5.3-1.2c-1.5,0.7-3.2,1-5,1c-1.2,0-2.3-0.2-3.5-0.5c-1.3,0.3-2.7,0.5-4,0.5c-4.8,0-9.1-2.5-11.6-6.5l-0.8,1.3
	c-3,5-9.3,6.6-14.3,3.7l0,0c-3.8,2.3-8.6,1.8-12.1-1c-2.5,1.7-5.5,2.5-8.5,2.5c-2.3,0-4.6-0.5-6.6-1.5c-1.5,0.8-3.2,1.2-4.8,1.2
	h-11.9c-1.7,0-3.2-0.3-4.6-1c-1.3,2-3.3,3.5-5.6,4.1h-0.2C496.4,552.6,495.7,552.7,494.9,552.7z M602.2,487.7
	c-11.1,0-20.7-3.8-27.7-11c-7.3-7.5-11.1-18.3-11.1-31.2c0-3,0.2-5.8,0.5-8.8c-4.5,6.6-9.8,12.8-15.8,18.1h2.8
	c4.3-0.2,8.5,1.7,11.1,5c2.7,3.3,3.7,7.8,2.8,12.1v0.2c-1.7,8-8.6,13.6-16.8,13.8h-52.9c-4.5,0.2-8.6-1.7-11.4-5.1
	c-1.3-1.7-2.2-3.5-2.5-5.5c-1.5,2.5-3.3,4.5-5.6,6.1c-5,3.8-11,5.8-17.1,5.6c-5.8,0-10.6-1.7-13.9-4.6c-5.6,3.3-12.1,5.1-18.6,5.1
	c-10.8,0-17.1-5-20.4-9.1c-0.3-0.5-0.8-1.2-1.2-1.7c-4.6,6.6-12.9,10.1-20.1,10.1c-11.1,0-15.9-5-21.2-14.8c0-0.2-0.2-0.3-0.2-0.3
	c-0.2-0.3-0.3-0.5-0.3-0.8l-0.5,2c-1.7,8.1-9,13.9-17.3,13.8c-4.3,0-8.5-1.8-11.3-5.1c-0.2-0.3-0.5-0.5-0.7-0.8l-0.5,0.3
	c-5,3.8-11,5.8-17.1,5.6c-5.8,0-10.6-1.7-13.9-4.6c-5.6,3.3-12.1,5.1-18.6,5.1c-10.8,0-17.1-5-20.4-9.1c-2-2.5-3.7-5.5-4.5-8.6
	c-6.6,10.5-19.4,17.1-33.5,17.1c-10.5,0-23.6-5.3-27.2-15.3c0-0.2,0-0.2-0.2-0.3c-2.5-9.3,3-18.9,12.3-21.4c1.3-0.3,2.5-0.5,3.8-0.7
	c3,0,5.8,1,8.3,2.7c1,0.7,2,1.5,2.8,2.3c1.7,1.5,1.8,1.7,3.2,1.7c1,0,1.8-0.2,2.8-0.3c-1.2-1.7-5.5-4.5-8.5-6.3
	c-6-3.8-14.1-9.1-19.1-17.4c-12.3,34.8-40.7,55.1-78.3,55.1c-20.2,0-36.3-6.6-46.6-19.2s-13.6-30-9.3-49.9c1.2-5.5,3-11,5.1-16.1
	c-2.2,1.8-4.8,2.8-7.6,2.8h-0.7l-7.1-0.5c-6.5-0.3-11.4-5.8-11.1-12.4c0.2-3.3,1.8-6.5,4.3-8.5c-4.1-5-3.7-12.4,1.3-16.6
	c2.2-1.8,4.8-2.8,7.5-2.8c0.7,0,1.5,0,2.2,0.2c-0.2-0.7-0.2-1.3-0.2-2c-0.2-6.5,5.1-11.8,11.6-11.9c3.2,0,6.1,1.2,8.3,3.3l7.3,7.1
	c4,4,4.6,10.1,1.7,14.8c4.6-4.8,9.8-9.3,15.4-12.9l0.5-0.3c2.3-1.3,7-3.5,11.8-3.5c4.5-0.2,9,1.8,11.8,5.5c1,1.2,1.7,2.5,2.2,3.8
	c9.1-6.3,20.1-9.6,31.2-9.6c14.1,0,25.7,5.3,33.8,15.3c4.3,5.3,7.3,11.6,8.6,18.3c8.8-12.4,23.2-19.7,38.5-19.6
	c11.8,0,21.6,4.1,27.7,11.6s8.1,17.6,5.8,28.7c-0.2,1-0.5,1.8-0.8,2.8c7.5-6.1,16.8-9.6,26.4-9.8c3.5,0,6.8,0.7,10,2
	c2.7-1.3,5.5-2,8.5-2c4.5-0.2,8.8,1.7,11.6,5.1c2.7,3.5,3.7,8,2.5,12.1l-6.6,31.2c1.5,0.3,3,0.8,4.3,1.7l15.9-75.2
	c3.7-17.4,12.6-25.1,29.2-25.1h1.2c4.3-0.2,8.5,1.7,11.3,5c1.5,1.8,3.8,6,2.3,12.4c-1.2,6.8-6.5,12.1-13.1,13.4l-4.3,20.4
	c3.2-0.8,6.3-1.2,9.6-1.2c9.6,0,14.9,4,17.6,7.3c3.8,4.6,5.1,11,4,17.9c8.8-15.3,23.6-25.2,39.5-25.2c3.5,0,6.8,0.7,10,2
	c2.7-1.3,5.5-2,8.5-2c4.5-0.2,8.8,1.7,11.6,5.1c2.7,3.5,3.7,8,2.5,12.1l-6.6,31.2c3,0.5,5.6,2,7.5,4.3c1.3,1.7,2.3,3.7,2.8,5.8
	c3.2-5.6,9.1-7.6,13.8-9.3c7.6-2.7,16.3-7.8,23.7-14.1c-2,1-4.3,1.5-6.6,1.5c-3.8,0-7.5-1.3-10.1-4c-8.1-8.1-11.3-19.2-8.8-31.2
	v-0.2c4.5-20.4,23.2-34.8,45.5-34.8c11.6,0,21.4,4.1,27.5,11.8c4.3,5.3,6.6,11.9,6.8,18.7c10.6-19.2,27.4-29.9,48.4-29.9
	c10,0,18.9,4.6,25.1,13.3c0.7,0.8,1.2,1.7,1.7,2.5c0-0.3,0.2-0.8,0.2-1.2v-0.2c1.8-8,9-13.9,16.6-13.9h8.1c7.1,0,15.3,0.5,20.1,6.6
	c3,3.8,4,8.3,3.7,13.8c6.6-10.1,16.8-17.4,28.5-20.1c-0.3-0.3-0.7-0.7-1-1.2c-2.8-3.7-3.8-8.3-2.7-12.8l6.6-30.9
	c-4.8,2.8-10.1,4.3-15.8,4.1c-7.6,0-13.4-2.3-17.3-7.1c-4.1-5.1-5.3-12.3-3.3-21.4l5.6-26.9c-3.5,3.2-7.6,9.3-9.8,20.1l-4.5,20.6
	c-2,9.6-10.8,14.6-18.4,14.6c-4.6,0.2-9.1-1.8-12.1-5.5c-2.8-3.7-3.8-8.3-2.7-12.8l8-37.7c-3.2,2.5-6.8,7.3-9,15.4l-5.5,25.7
	c-1.8,8.8-9.6,14.9-18.4,14.8c-4.6,0-9-2-11.9-5.5c-0.3-0.3-0.5-0.7-0.8-1.2l-0.3,0.2c-5.5,4.1-12.1,6.5-19.1,6.3
	c-6.8,0-12.3-2-15.9-5.6c-6.5,4-13.9,6.1-21.4,6.1c-11.9,0-18.7-5.5-22.6-10c-1.2-1.3-2-2.8-2.8-4.3c-1,1.5-2,2.8-3.3,4
	c-9.8,10.8-29.7,22.6-55.4,22.6c-19.1,0-34.7-6.6-44.8-19.2c-2.3-2.8-4.3-5.8-5.8-9.1c-1.5,3.8-4,7-7.5,9.3
	c-5.5,4.1-12.1,6.3-18.9,6.3c-6.8,0-12.3-2-15.9-5.6c-6.5,4-13.9,6.1-21.4,6.1c-11.9,0-18.7-5.5-22.6-10c-6.3-7.8-8.3-19.2-5.5-32.4
	c0.8-4,2-7.8,3.5-11.6c-0.5,0-1,0.2-1.7,0.2c-3.5,0-6.8-1.2-9.3-3.5c-3.5,2-10,11.1-12.6,20.6l-4.6,21.6
	c-1.8,8.6-9.5,14.9-18.3,14.9c-4.6,0.2-9.1-1.8-12.1-5.5c-2.8-3.7-4-8.5-2.8-12.9l0.7-3.2c-10,13.3-25.9,21.4-44,21.4
	c-13.6,0-25.1-4.8-32-13.4c-4.8-6-9.8-16.8-6.3-33.5c0.2-0.5,0.3-1.2,0.3-1.7l-23.4,39.3c-4,6.5-10,10.1-16.8,10.1
	c-8,0-13.9-5.1-15.4-13.3l-2.8-16.4l-11.6,19.4c-3.8,6.5-9.8,10.3-16.6,10.3c-8.1,0-13.8-4.8-15.4-13.1c0-0.2,0-0.2,0-0.3l-8.6-57.9
	c-3.2-20.7-5.1-24.6-12.3-24.6c-9.3,0-12.1,6.6-12.9,10.8c-0.7,3.7,0.8,7.5,2.5,10c1.8,2.2,4.1,6.3,3.2,12.8l-0.2,0.5
	c-1.8,8.1-9.8,14.6-17.9,14.6c-4,0.2-7.8-1.3-10.6-4.1c-9.3-9.1-13.1-23.1-10.1-37.2c4.8-23.4,25.6-40.2,49.4-40
	c30.7,0,38.7,18.3,43.8,56.7l1,7.1l8-13.6l-5-29.7c-0.3-2-0.3-4.1,0.2-6.3c1.8-9.1,11.1-14.6,18.9-14.6c5-0.2,9.6,2.3,12.3,6.5
	c3.5-4,8.6-6.5,13.9-6.5c4.8,0,9.5,2.2,12.6,5.8c2.8,3.5,3.8,8,3,12.1c-0.5,2-1.3,3.8-2.5,5.6l-18.1,30.2l2.2,11.9l33.7-57.1
	l0.2-0.3c3.3-5.1,9-8.5,15.1-8.5c5,0,9.8,2.2,13.1,6c2.8,3.3,3.8,7.8,3,12.1c-0.3,1.3-0.8,2.7-1.3,3.8l-0.2,0.2
	c-0.2,0.5-0.3,1-0.7,1.3l-16.9,28.5c10.1-8.8,23.1-13.6,36.5-13.4c13.6,0,25.1,4.8,32,13.4c2.7,3.3,4.6,7.1,5.8,11.1l2-9.6
	c1.8-8.6,9.5-14.9,18.3-14.8c4.5-0.2,9,1.8,11.9,5.1c4.6-3.2,10.1-5,15.6-5.1c8.6,0,13.4,3.7,15.9,6.8c1.7,2,2.8,4.3,3.3,6.8
	c9.1-8.6,20.6-13.6,32.5-13.6c2,0,4,0.2,6,0.7l9.1-43.5v-0.2c2-8.5,9.5-14.4,18.1-14.6c4.8-0.2,9.3,2,12.3,5.6
	c2.8,3.7,3.7,8.5,2.5,12.9L410.6,298c2.2,0.2,4.1,0.8,6,2c-1.5-10.3-1-20.9,1.3-31c9.1-43.6,44.1-75.3,83.3-75.3
	c15.9,0,29.2,5.3,37,15.1c6.8,8.5,9.3,19.9,6.6,32c-3.2,14.4-11.9,26.9-24.2,35c-3.2,2.2-7,3.5-11,3.7c-8.3,0.3-15.1-6.3-15.4-14.4
	c0-1.3,0.2-2.7,0.3-3.8c0-0.2,0-0.2,0-0.3c1-4.5,3.5-8.1,7.8-11.6c4-3.5,7.3-6.5,8.3-11.6c0.5-2.2,0.7-5.1-1-7
	c-1.8-2.2-5.8-3.5-11.1-3.5c-20.9,0-39.5,18.4-45.1,45c-2.8,13.8-1.3,25.2,4.1,32c4.3,5.5,11.4,8.1,20.7,8.1
	c12.1,0,17.9-4.3,26.4-11.4h0.2c5-4.1,10-6.3,14.6-6.3c3,0,5.8,0.8,8.3,2.5c0.2-1.8,0.5-3.7,0.8-5.5c6-28.4,27.9-48.9,51.9-48.9
	c4-0.2,8,0.7,11.4,2.5c3-1.7,6.3-2.5,9.6-2.5c4.6-0.2,9.3,1.8,12.3,5.5c2.8,3.7,3.8,8.5,2.7,12.9l-8,37.2c2,0.2,3.8,0.8,5.5,1.7
	l9-42.6c1.8-8.6,9.5-14.8,18.3-14.6c4.5-0.2,8.8,1.7,11.8,5c5.6-3.2,11.6-5,16.9-5c8.3,0,14.1,2.7,17.8,6.5
	c6.1-4.1,13.3-6.3,20.6-6.5c7.6-0.2,14.9,3.2,19.7,9c5,6,6.5,14.3,4.6,23.4l-5,23.1c2.5,0.2,5,1.2,7.1,2.8l9.3-43.1
	c1.8-8.6,9.5-14.9,18.3-14.8c4.1,0,8.1,1.5,11.1,4.3c5.6-3,11.9-4.5,18.3-4.5c11.9,0,18.7,5.5,22.4,10c6.3,7.8,8.3,19.2,5.6,32.4
	c-6,28.4-28,48.9-52.1,48.9c-2,0-3.8-0.2-5.8-0.5l-6.5,30.2c-0.8,4.1-3.2,7.8-6.3,10.5c6.5,1.7,12.1,5.3,16.4,10.3
	c6.3,7.8,8.5,18.7,5.8,30.9c-1.2,5.1-3.2,10.1-8,17.1c1.7-0.8,3.5-1.2,5.3-1.2h0.7c0.2-0.3,0.3-0.7,0.5-1c0.8-1.7,2.2-3,3.8-4
	c2-2,4.6-3.3,7.5-3.3c1.2,0,2.3,0.2,3.3,0.5c3.3,1,6,3.5,7.5,6.6c0,0,0,0.2,0.2,0.2c3.3,0,6.5,1.3,8.8,3.8l0,0
	c3.7,2.8,5.8,8.5,2.3,14.6c-0.8,1.3-1.7,2.7-2.8,3.8c1.2,4.1,0.3,8.5-2.2,11.9c-0.5,0.7-1,1.2-1.7,1.7c-1.7,1.2-3.5,2-5.3,2.5
	c-1,0.2-2,0.3-3,0.3c-2.2,0-4.5-0.5-6.3-1.7c-2.2,1.5-4.8,2.5-7.5,2.7c-0.5,3.5-2.7,6.3-5.8,7.8c-0.5,0.2-0.8,0.3-1.3,0.5
	c-1.3,2.3-3.5,4.1-6.1,5c-0.8,0.3-1.5,0.3-2.3,0.5h-0.3c-1.5,0-3-0.3-4.3-0.8c-1.7-0.7-3.3-1.8-4.5-3.3c-2.7-0.5-5.1-2-6.8-4.1
	c-2.3-3.3-2.7-7.6-0.8-11.3c0.3-0.7,0.7-1.2,1-1.7c0-0.2,0-0.5-0.2-0.7c-0.2-1.3,0-2.8,0.5-4.1l-18.1,22.2c-3.3,4.3-8.3,7-13.8,7
	c-6.1,0-9.6-2.7-11.4-4.8c-2.5-3.2-3.3-7.3-2.3-11.1c0-0.2,0.2-0.5,0.2-0.7c0.8-2.8,2.2-5.3,3.8-7.6l8.6-10.8
	c-5.8-1.3-11-4.6-14.6-9.3c-2.8-3.5-4.8-7.5-5.8-11.8l-9.1,42.6c-1.7,8.1-8.6,13.8-16.9,13.8c-4.5,0.2-8.8-1.8-11.6-5.3
	c-2.7-3.5-3.7-8-2.7-12.1l13.8-64.9h-1.2c-3,0-5.8-0.8-8.1-2.7c1.2,5,1.8,10.1,1.8,15.1s-0.5,10-1.5,14.8
	c-3.3,17.4-9.8,31.4-19.2,41.1C627.4,482.4,615.2,487.7,602.2,487.7z M289.1,452.5c-0.3,1.2-0.3,2.5-0.3,3.8
	c4.3-0.8,9.6-7.5,11.4-14.6c0.2-0.3,0.2-0.8,0.3-1.2l0,0c0.3-1.2,0.3-2.5,0.2-3.7C296.1,437.1,291,443.9,289.1,452.5z M432.5,452.5
	c-0.3,1.2-0.3,2.5-0.3,3.8c4.3-0.8,9.6-7.5,11.4-14.6c0.2-0.3,0.2-0.8,0.3-1.2l0,0c0.3-1.2,0.3-2.5,0.2-3.7
	C439.3,437.1,434.3,443.9,432.5,452.5z M393.7,452.9c2,0,4,0.3,6,1.2c0.2-1.5,0.5-3.2,0.8-4.8c0.5-2.2,1-4.3,1.7-6.3
	c-2.8,4-6.3,7.3-10.3,10.1C392.3,452.9,393,452.9,393.7,452.9z M111.6,403.4c-3.8,5.3-6.5,11.4-7.8,17.9c-2.3,10.5-1,19.1,3.5,24.7
	c4.1,5,10.8,7.6,20.2,7.6c30.4,0,40-24.4,43.1-39c1.8-8.5,0.7-16.8-2.8-21.1c-2-2.5-4.5-3.5-8.1-3.5c-7,0-11.6,4-13.1,11.3v0.2
	c-0.7,3.3,0.3,6.8,2.7,9.3c3.7,3.7,5.1,9,3.8,13.9c-2,8.3-10.3,15.1-18.6,15.1c-3.7,0-7.1-1.2-9.8-3.5c-0.3-0.2-0.5-0.3-0.7-0.7
	C115.1,427.3,110.6,415.5,111.6,403.4z M757.4,441.6c-1.5,2-3.3,4.1-5.1,6.5l-2.8,3.5c1.3-0.7,2.8-1.2,4.3-1.2h0.5
	c1.5,0,3.2,0.3,4.5,0.8c0.7-0.2,1.5-0.3,2.2-0.3c-0.3-0.3-0.5-0.5-0.7-0.8C758.2,447.7,757.2,444.7,757.4,441.6z M241.8,403.7
	c-6.6,0-10.3,4-11.1,8.1c-0.7,2.8,2.7,5.5,10.6,10.8c6.1,4.1,14.1,9.6,18.4,17.9c2-5.5,4.8-10.6,8.3-15.3c-2.2,1-4.6,1.5-7,1.5
	c-4.5,0.2-9-1.8-11.8-5.3c-2.7-3.5-3.7-8-2.7-12.3c0.3-1.3,0.2-2.8-0.5-4.1C245.3,404.1,243.8,403.7,241.8,403.7z M530.9,428.5
	c-0.3,1.5-1,3-1.7,4.5c6.5-7,11.4-14.8,12.9-22.1c0.5-2.8,0.3-5-0.5-6.1c-0.8-1-2.3-1.5-4.3-1.5c-4.3,0-9.3,2.3-10.6,7.8
	c-0.7,2.8,0,3.5,0.3,3.8C530.7,418.2,532,423.5,530.9,428.5L530.9,428.5z M735.8,403.2c-5.1,0-11.4,3.2-13.3,11.8
	c-0.7,2.8-0.5,5.3,0.5,6.5c1,1.2,2.7,1.7,4.8,1.7c5.3,0,11.4-3.7,13.3-11.8c0.7-2.8,0.5-5.1-0.5-6.5S737.9,403.2,735.8,403.2
	L735.8,403.2z M77.2,390c0.3,1.2,0.3,2.2,0.3,3.3c0,0,0,0,0,0.2c3.2-5.5,6.8-10.6,10.8-15.3c-1.5,1.2-3.5,2-5.3,2.3
	C82.7,384.5,80.6,388,77.2,390L77.2,390z M771.1,300.4c0.2,0,0.3,0,0.5,0c6.1,0,12.6-8.3,14.8-18.9c0.8-3.5,0.5-5.3,0.2-6h-0.2
	c-6,0-13.1,8.8-15.3,18.4l-0.3,1.5C770.6,298.4,771,299.9,771.1,300.4L771.1,300.4z M563.6,300.4c5.6,0,12.9-8.5,15.3-17.8
	c0.2-0.3,0.2-0.8,0.3-1.2v-0.2c0.7-3.7,0-5.5-0.3-5.8c-0.2,0-0.3,0-0.5,0c-6.1,0-12.6,8.1-14.9,18.9
	C562.7,297.7,563.1,299.7,563.6,300.4L563.6,300.4z M365,300.4c6,0,13.4-8.8,15.6-18.4c0.8-4,0.2-6-0.2-6.5c-0.2,0-0.3,0-0.5,0
	c-6.1,0-12.6,8.1-14.9,18.9C364.5,297.7,364.6,299.7,365,300.4L365,300.4z"/>
<path class="st1" d="M127.5,462.3c30.2,0,46.3-20.7,51.6-46c3.7-17.1-2-35.2-19.4-35.2c-11.1,0-19.2,6.8-21.7,18.1
	c-1.3,6.1,0.5,12.6,4.8,17.3c1.7,1.5,2.2,3.8,1.7,6c-1,4.3-5.5,8.5-10.1,8.5c-1.7,0-3.3-0.5-4.6-1.7c-8-7.5-11.1-19.1-9-29.4
	c4.3-19.9,22.6-33.2,43-33.2c27.5,0,39.5,24.1,33.8,49.6c-8.3,39.5-36.2,62.1-73.7,62.1c-36.2,0-54.8-23.9-47.5-58.9
	c4.5-20.9,18.1-39,34.7-49.9c2.2-1.3,4.8-2.2,7.5-2.3c4.6,0,7,3.5,6.1,7.8c-0.8,2.7-2.5,4.8-4.6,6.5c-11.4,10-21.4,21.9-24.9,38.2
	C90.4,442.7,100,462.3,127.5,462.3z M222.1,410c-4,19.1,36.8,21.6,31.4,47.5c-2.8,12.9-15.9,20.7-29.4,20.7
	c-7.5,0-16.9-3.7-19.1-9.5c-2-6.1,5.6-13.6,11.1-9.6c2.7,1.8,4.6,5.6,11,5.6c6.8,0,10.6-2.8,11.4-7.3c3.3-15.4-37.5-17.4-31.2-47.1
	c3.8-17.9,19.7-29.4,37.3-29.4c18.4,0,28.5,12.1,24.9,29.9c-0.8,4.1-4.5,7.1-8.6,7.1c-4.1,0-6.8-3-5.8-7.1c1.7-8-2.2-15.8-13.3-15.8
	C230.9,394.9,223.8,402.1,222.1,410L222.1,410z M318.8,462.1c-0.5,2.7,0,3.3,1.2,3.3c1.3-0.2,2.5-0.7,3.3-1.5c5.1-3.3,8.6,0.5,8,4.8
	c-0.7,2.3-2,4.1-4,5.5c-3.5,2.7-7.8,4.1-12.1,4c-6.8,0-10.8-2.8-11-9.5c-5.5,6.1-13.3,9.8-21.6,10c-14.4,0-20.4-11.9-16.9-27.7
	c4.3-20.6,19.9-36.7,38-36.7c4.6,0,8,1.3,10.6,4.8c1.3-3.2,4.5-5,7.8-4.8c4,0,6.6,2.3,5.6,6.8L318.8,462.1z M280.5,450.7
	c-1.8,9,1.3,14.4,7.5,14.4c9.5,0,18.1-10.6,20.6-21.2l0.3-0.8c2-9.1-1.7-14.9-8-14.9C291,428.1,283.2,438.9,280.5,450.7z
	 M358.2,382.3c3.3-15.3,10-18.3,20.6-18.3h1.2c3.7,0,6.3,2.2,5.1,7c-1,4.6-4.3,7-8.1,7h-0.7c-2,0-3.3,0.8-3.8,3.8l-9,42.8
	c5.8-6.5,13.1-10.3,22.2-10.3c10.8,0,14.8,6.8,12.9,15.6c-2.2,9.1-11.8,17.8-22.9,21.1c3.3,0.8,4.8,3.5,6.6,7.1c1.8,3.5,3.3,6,5,6
	c2.2,0,4-2.8,6.3-2.8c3.3,0,6,2.5,5.1,6.3c-1.5,6.6-8.6,10.5-14.6,10.5c-6.3,0-8.6-1.3-13.6-10.1c-2.3-4.6-3.5-9.1-6.1-11.3
	c-1.7-1.7-2.3-4.1-1.8-6.5c0.7-3,2.5-4.6,6.5-6.6c11.1-4.6,13.9-8.3,14.6-11.8c0.5-2.2-0.7-3.8-4.1-3.8c-7.6,0-18.1,7-21.6,21.7
	l-4.5,21.4c-0.8,4.1-4.5,7-8.6,7c-3.3,0-6.5-2.3-5.5-7L358.2,382.3z M462.2,462.1c-0.5,2.7,0,3.3,1.2,3.3c1.3-0.2,2.5-0.7,3.3-1.5
	c5.1-3.3,8.6,0.5,8,4.8c-0.7,2.3-2,4.1-4,5.5c-3.5,2.7-7.8,4.1-12.1,4c-6.8,0-10.8-2.8-11-9.5c-5.5,6.1-13.3,9.8-21.6,10
	c-14.4,0-20.4-11.9-16.9-27.7c4.3-20.6,19.9-36.7,38-36.7c4.6,0,8,1.3,10.6,4.8c1.3-3.2,4.3-5,7.8-4.8c4,0,6.6,2.3,5.6,6.8
	L462.2,462.1z M423.9,450.7c-1.8,9,1.3,14.4,7.5,14.4c9.5,0,18.1-10.6,20.6-21.2l0.3-0.8c2-9.1-1.7-14.9-8-14.9
	C434.3,428.1,426.5,438.9,423.9,450.7L423.9,450.7z M495.2,477.1c-4.3,0-6.1-2.8-5.3-6.1c0.8-4.3,3.8-5.6,9.6-7.6
	c19.9-7,46.3-29,50.9-50.8c2.5-12.1-4.5-18.1-13.4-18.1c-8.6,0-16.9,5.1-19.1,14.6c-1.3,6,0.3,9.6,2.8,12.1c1.3,1.3,1.8,3.5,1.3,5.3
	c-0.8,3.7-4.6,7.5-8.5,7.5c-1.5,0-3-0.5-4-1.5c-5.3-5.3-8.6-13.1-6.5-23.4c3.5-16.3,18.7-28,36.8-28c16.3,0,29.2,10.5,24.7,31.9
	c-5.5,26.2-32.5,45.1-44.8,50.8h30.9c4.5,0,6,3.3,5.3,6.6c-0.8,4-4.1,6.8-8.3,7L495.2,477.1z M663.4,395.9c-3.8,0-5.6-3.5-5-6.8
	c0.8-3.5,4.1-7.1,8.1-7.1h8.1c14.1,0,17.4,2.8,13.9,19.9l-14.8,69.4c-0.8,4-4.3,7-8.5,7c-3.5,0-6.8-2.3-5.8-7l14.8-70
	c0.8-3.5,0.2-5.3-2.8-5.3L663.4,395.9z M745.4,442.7l-25.7,31.9c-1.7,2.3-4.1,3.7-7,3.7c-4.6,0-6-2.7-5.3-5.6
	c0.5-1.8,1.3-3.3,2.5-4.8l22.9-28.7c-3.3,3.3-8.5,4.6-14.1,4.6c-13.9,0-22.9-12.4-19.1-30.7c4-19.2,19.6-32.2,38.8-32.2
	c19.2,0,29.4,12.9,25.4,32.2C762.7,419.3,759.5,425.3,745.4,442.7L745.4,442.7z M727.8,431.6c9.8,0,19.2-6.8,21.7-18.6
	c2.7-11.9-4-18.6-13.9-18.6s-19.2,6.6-21.7,18.6C711.4,424.8,717.9,431.6,727.8,431.6L727.8,431.6z M623,381.7
	c17.3,0,29.4,19.9,24.1,48.8c-6,32.9-24.2,48.6-44.8,48.6c-20.6,0-35.3-15.9-28.5-48.6C580.7,397.8,598.9,381.7,623,381.7L623,381.7
	z M620,395.1c-13.4,0.2-26.9,11.3-31.9,35.2c-5,23.9,6.5,35.2,16.9,35.2c10.5,0,22.4-11.3,27.4-35.2
	C637.4,406.4,630.3,395.1,620,395.1L620,395.1z M138.6,278.5l-23.7,39.8c-2.2,3.8-5.3,6-9.1,6c-4.3,0-6.1-2.2-6.8-6.1l-8.6-57.9
	c-2.8-18.3-5-32-20.9-32c-12.9,0-19.6,9-21.4,17.6c-1.3,6.5,1.2,12.9,4.3,17.3c1.5,1.5,1.7,3.7,1.3,6c-1,4.1-5.1,7.8-9.5,7.8
	c-1.7,0.2-3.3-0.5-4.5-1.7c-7-6.8-10.1-17.6-7.8-29.2c4.1-19.4,21.1-33.2,41-33.2c23.1,0,30,10.6,35.2,49.3l4.3,32l22.4-38
	l-5.5-33.2c-0.2-1,0-1.8,0.2-2.8c1-4.5,6.1-7.6,10.3-7.6c2.7,0,5.3,1.3,5.8,4.5l3,16.3l9.5-16.3c1.8-2.8,4.8-4.5,8.1-4.5
	c4.1,0,8,3.2,7,7.6c-0.3,1-0.7,2-1.3,2.8l-19.7,33.2l6.6,38.3l45.8-77.3c1.7-2.7,4.6-4.5,7.8-4.5c4.3,0,8.3,3.2,7.5,7.6
	c-0.3,1-0.7,1.8-1.2,2.8l-56.7,95.6c-2.2,3.7-5.3,6-9.3,6c-3.8,0-6.1-2-6.8-6.1L138.6,278.5z M245.2,250.9
	c21.4,0,34.8,13.4,29.9,36.8c-5,23.1-23.9,36.5-45.3,36.5c-21.2,0-34.8-13.3-29.9-36.5C204.8,264.5,223.9,250.9,245.2,250.9
	L245.2,250.9z M241.8,266.7c-11.8,0-21.9,8.1-24.6,21.1c-2.8,12.8,3.8,20.7,15.8,20.7c11.6,0,21.9-8,24.6-20.7
	C260.4,274.8,253.6,266.7,241.8,266.7L241.8,266.7z M293.6,258.9c0.8-4.6,5-8,9.8-8c4.1,0,7.6,2.7,6.5,8l-1.7,7.8
	c6.6-9.6,15.4-15.8,22.7-15.8c9.3,0,11.8,6.1,10.8,11.3c-1.2,5.1-5.5,8.6-9.1,8.6c-4.5,0-4-3.8-8.3-3.8c-9.8,0-19.2,17.3-22.1,27.5
	l-4.6,21.9c-0.8,4.6-5,8.1-9.8,8c-4.1,0-7.6-2.7-6.5-8L293.6,258.9z M383.5,313.3c-6.3,7.1-15.3,11.3-24.7,11.4
	c-16.4,0-23.4-13.8-19.4-31.9c5-23.6,22.7-42,43.5-42c5.3,0,9,1.5,12.1,5.3l11.6-55.1c1-4.6,5-8,9.8-8c4.1,0,7.6,2.7,6.3,8
	l-22.2,104.5c-0.5,3,0,3.7,1.3,3.7c1.5-0.2,2.8-0.7,3.8-1.7c6-3.7,10,0.5,9.1,5.5c-0.7,2.7-2.3,4.8-4.6,6.3c-4,3.2-8.8,4.8-13.9,4.6
	C388.3,324.3,383.7,321.1,383.5,313.3L383.5,313.3z M356.5,292.6c-2,10.1,1.5,16.4,8.5,16.4c11.3,0,21.2-12.9,24.1-25.4
	c2.2-10.6-1.8-17.1-9.1-17.1C368.4,266.7,359.5,279.1,356.5,292.6z M510,270.3c-4.5,0-7.5-3.3-6.5-8c0.5-2.5,1.8-4.5,4.8-6.8
	c4.6-3.8,9.6-8.5,11.3-16.4c2.7-12.4-4.8-20.9-20.6-20.9c-24.6,0-47,20.7-53.6,51.8c-6.1,29,5,50.8,33.5,50.8
	c15.6,0,23.6-6.3,32-13.4c3.2-2.7,6.3-4.3,9.1-4.3c1.8,0,3.7,0.7,4.8,2.2c1.5,1.3,2.2,3.5,1.7,5.3c-0.8,2.7-2.3,5-4.3,6.8
	c-9.1,10-27,19.7-49.1,19.7c-37.2,0-54.6-28.5-46.5-66.7c8.3-39.7,39.8-68.5,74.8-68.5c25.2,0,39.8,14.8,35.2,36.7
	c-2.8,13.3-11.8,24.2-20.4,29.4C514.5,269.3,512.3,270.2,510,270.3z M598.9,305.7c-0.5,3,0,3.7,1.3,3.7c1.2,0,2.2-0.5,3.8-1.7
	c6-3.7,10,0.5,9.1,5.5c-0.7,2.7-2.3,4.8-4.6,6.3c-4,3.2-8.8,4.8-13.8,4.6c-7.8,0-12.4-3.2-12.6-11c-6.3,7.1-15.3,11.3-24.7,11.4
	c-16.4,0-23.4-13.8-19.4-31.9c5-23.6,22.7-42,43.5-42c5.3,0,9.1,1.5,12.3,5.5c1.5-3.7,5-5.5,9-5.5c4.6,0,7.6,2.7,6.5,7.8
	L598.9,305.7z M554.9,292.6c-2,10.1,1.5,16.4,8.5,16.4c11,0,20.7-12.3,23.7-24.4l0.3-1c2.2-10.6-1.8-17.1-9.1-17.1
	C566.9,266.7,557.9,279.1,554.9,292.6L554.9,292.6z M647.9,263.5c6.6-8,16.6-12.6,23.1-12.6c9.3,0,14.3,4.1,14.4,11.8
	c7.8-8.3,16.4-11.8,23.9-11.8c10.3,0,18.9,7.8,15.9,21.9l-7,33c-0.5,3,0,3.7,1.5,3.7c1.3-0.2,2.7-0.8,3.7-1.7c6-3.7,10,0.5,9.1,5.5
	c-0.7,2.7-2.3,4.8-4.6,6.3c-3.8,3.2-8.8,4.8-13.8,4.6c-9.6,0-14.8-5-12.1-17.9l6.1-29.4c1.8-8.3-0.7-10.6-4.1-10.6
	c-8,0-19.1,9.1-23.4,29.5l-4.5,20.6c-1.2,4.6-5.3,7.8-10,7.8c-4.1,0-7.5-2.7-6.3-7.8l8.6-40.7c1.5-7.5-1.2-9.5-4.5-9.5
	c-7.8,0-17.6,7.6-22.2,24.1l-5.5,25.9c-1,4.6-5.1,8.1-10,8c-3.8,0-7.5-2.7-6.3-8l12.3-57.6c1-4.6,5.1-7.8,9.8-7.8
	c4.1,0,7.6,2.7,6.5,7.8L647.9,263.5z M769.3,261.4c6.1-6.5,14.6-10.3,23.6-10.3c16.4,0,23.4,13.8,19.6,31.9c-5,23.6-22.9,42-43.6,42
	c-5.1,0-9-1.3-11.8-5.1l-9,41.8c-1,4.6-5.1,7.8-9.8,7.8c-4.3,0-7.6-2.7-6.5-7.8l21.9-102.4c0.8-4.6,5-8,9.8-8c4,0,7.6,2.7,6.5,8
	L769.3,261.4z M795,283.3c2.2-10.1-1.3-16.4-8.5-16.4c-11.3,0-21.1,12.9-23.7,25.4l-0.3,1.7c-1.7,9.6,2.2,15.4,9.3,15.4
	C783.4,309.2,792.4,296.7,795,283.3L795,283.3z M234,278c-0.8,0-1.5,1-1.5,2.3s0.7,2.3,1.5,2.3s1.5-1,1.5-2.3
	C235.7,279,234.9,277.8,234,278L234,278z M243.3,278c-0.8,0-1.5,1-1.5,2.3s0.7,2.3,1.5,2.3s1.5-1,1.5-2.3
	C244.8,279,244.2,277.8,243.3,278L243.3,278z M228.7,287.8c3,9.1,12.3,13.8,19.9-1.5 M164.4,537.3c6,0,8.1-4,8.1-9
	c0-3.2-1.8-6.8-5.1-6.8c-1.7-0.2-3.3,1.2-3.5,2.8c0,0.2,0,0.3,0,0.7c0,1.3,0.7,2.5,1.7,3.3c0.3,0.3,0.7,0.8,0.7,1.3
	c0,1-0.8,1.8-1.8,1.8c-0.3,0-0.7-0.2-1-0.3c-1.8-1.3-3-3.5-3-5.8c0-4,3.2-6.6,7.1-6.6c5.5,0,8.8,4.8,8.8,9.8
	c0,7.8-4.5,12.3-12.1,12.3c-7.1,0-11.9-4.8-11.9-11.6c0-3.8,1.8-7.5,4.8-10c0.3-0.3,0.8-0.5,1.3-0.5c0.8,0,1.7,0.7,1.7,1.5
	c0,0,0,0,0,0.2c0,0.5-0.3,1-0.7,1.3c-2,2-3.2,4.6-3.3,7.5C156.2,533.5,158.9,537.3,164.4,537.3z M182.4,529c0.8-1.7,2.5-2.8,4.3-2.8
	c2.3,0,4,1.5,4,4.3v6.5c0,0.5,0.2,0.7,0.3,0.7c0.2,0,0.5-0.2,0.7-0.3c0.7-0.5,1.3-0.3,1.8,0.3c0.2,0.3,0.3,0.5,0.2,0.8
	c0,0.5-0.2,1-0.7,1.3c-0.7,0.7-1.7,1-2.5,1c-2,0-3.3-1-3.3-3.7v-5.6c0-1.5-0.7-1.8-1.5-1.8c-1.5,0-3.5,1.5-3.7,4.8v4.8
	c0,1-0.8,1.7-1.7,1.7s-1.7-0.8-1.7-1.7V528c0-1,0.8-1.7,1.7-1.7s1.7,0.8,1.7,1.7L182.4,529z M203.3,525.4c0.2,1.2,0.7,2.2,1.5,2.8
	c0.3,0.3,0.7,0.8,0.7,1.3c0,1-0.7,1.7-1.7,1.7l0,0c-0.5,0-0.8-0.2-1.2-0.3c-1.7-1.3-2.8-3.3-2.8-5.5c0-4.1,3.3-6.5,7.5-6.5h6.3
	c8,0,11.8,5.6,11.8,11c0,5.3-3.7,10.6-11.1,10.6H207c-0.8,0-1.7-0.7-1.7-1.5v-0.2c0-1,0.7-1.7,1.7-1.7l0,0h1.5c1,0,1-0.8,1-1.8V525
	c0-1,0.7-1.7,1.7-1.7c0,0,0,0,0.2,0c0.8,0,1.7,0.7,1.8,1.5v0.2v10.1c0,1.2-0.2,1.8-0.7,2h2.2c3.8,0,7.3-2.5,7.3-7.1
	s-3.8-7.6-8.5-7.6h-6C205,522.4,203.3,523.4,203.3,525.4L203.3,525.4z M227.2,533.5c-0.2-3.8,2.8-7.1,6.6-7.3c0.2,0,0.5,0,0.7,0
	c4.3,0,6.3,2.5,6.3,5s-2,4.5-5.5,4.5c-0.7,0-1.3-0.2-2-0.3c-0.7-0.2-1-0.8-1-1.5c0-0.8,0.7-1.7,1.5-1.7l0,0c0.5,0,1.2,0.3,1.5,0.3
	c0.8,0.2,1.5-0.5,1.5-1.2v-0.2c0-1-0.7-1.7-2.7-1.7c-2,0-3.7,1.7-3.7,3.8c0,0.2,0,0.2,0,0.3c0,2.2,1.7,4,4,4.1h0.2
	c1.3,0,2.5-0.3,3.7-1c0.3-0.2,0.7-0.3,1.2-0.3s1,0.3,1.3,0.7c0.5,0.8,0.2,2-0.8,2.5c-1.7,1-3.5,1.5-5.5,1.3c-4,0.2-7.5-3-7.5-7.1
	C227.2,533.7,227.2,533.7,227.2,533.5L227.2,533.5z M250.1,529.5c-2,0-3.7,1.5-3.7,3.5c0,0.2,0,0.3,0,0.5c0,2.5,1.5,4,3.7,4
	c1,0,2.2-0.3,2.8-1c0.3-0.3,0.7-0.5,1.2-0.5c0.8,0,1.7,0.8,1.7,1.7c0,0.5-0.2,1-0.5,1.3c-1.5,1.3-3.5,2-5.5,1.8c-4.3,0-7-2.7-7-7.3
	c-0.2-3.8,2.8-7.1,6.8-7.3c0.2,0,0.3,0,0.7,0c2.8,0,5.3,1.7,5.3,4.5c0,1.2-0.3,2.2-1.2,3c-0.3,0.3-0.8,0.7-1.5,0.7
	c-0.8,0-1.7-0.7-1.7-1.5c0-0.5,0.2-0.8,0.5-1.2c0.3-0.2,0.3-0.5,0.3-1C252.1,530.2,251.5,529.5,250.1,529.5z M257.4,533.5
	c-0.2-3.8,2.8-7.1,6.6-7.3c0.2,0,0.5,0,0.7,0c4.3,0,6.3,2.5,6.3,5s-2,4.5-5.5,4.5c-0.7,0-1.3-0.2-2-0.3c-0.7-0.2-1-0.8-1-1.5
	c0-0.8,0.7-1.7,1.5-1.7l0,0c0.5,0,1.2,0.3,1.5,0.3c0.8,0.2,1.5-0.5,1.5-1.2v-0.2c0-1-0.7-1.7-2.7-1.7c-2,0-3.7,1.7-3.7,3.8
	c0,0.2,0,0.2,0,0.3c0,2.2,1.7,4,4,4.1h0.2c1.3,0,2.5-0.3,3.7-1c0.3-0.2,0.7-0.3,1.2-0.3s1,0.3,1.3,0.7c0.5,0.8,0.2,2-0.8,2.5
	c-1.7,1-3.5,1.5-5.5,1.3c-4,0.2-7.5-3.2-7.5-7.1C257.4,533.7,257.4,533.7,257.4,533.5L257.4,533.5z M277.3,528.7
	c0.8-1.3,2.3-2.3,4-2.5c1.5-0.2,2.8,0.8,3.3,2.2c1-1.3,2.5-2.2,4.1-2.2c2.3,0,4.1,1.8,4.1,4.1c0,0.2,0,0.2,0,0.3v6.5
	c0,0.5,0.2,0.7,0.3,0.7c0.2,0,0.5-0.2,0.7-0.3c0.7-0.5,1.3-0.3,1.8,0.3c0.2,0.3,0.3,0.5,0.2,0.8c0,0.5-0.2,1-0.7,1.3
	c-0.7,0.7-1.7,1-2.5,1c-2,0-3.3-1-3.3-3.7v-5.6c0-1.5-0.7-2-1.2-2c-1.5,0-3.2,1.7-3.2,5.6v4c0,0.8-0.8,1.7-1.7,1.7l0,0
	c-0.8,0-1.7-0.7-1.7-1.5v-0.2v-8c0-1.3-0.7-1.7-1.2-1.7c-1.5,0-3,1.5-3.3,4.6v5c0,0.8-0.7,1.7-1.7,1.7h-0.2c-0.8,0-1.7-0.7-1.7-1.5
	c0,0,0,0,0-0.2V528c0-1,0.8-1.7,1.7-1.7c0.8,0,1.7,0.8,1.7,1.7L277.3,528.7z M301.6,518.2c-0.3,0-0.7,0.2-0.7,0.7v10.3
	c0.7-2,2.5-3.2,4.5-3c3.2,0,5,2.7,5,6.1c0,4.3-2.7,8.5-7.3,8.5c-3.8,0-5.5-3-5.5-6.1v-15.6c0-3.5,1.5-4.1,3.8-4.1h0.3
	c0.8,0,1.5,0.5,1.7,1.3c0,0.2,0,0.2,0,0.3c0.2,0.8-0.5,1.7-1.3,1.7C301.9,518.2,301.7,518.2,301.6,518.2L301.6,518.2z M306.7,532.5
	c0-1.5-0.5-2.8-2.3-2.8c-2,0-3.3,1.7-3.3,4.3v0.3c0,1.7,0.7,3.3,2.3,3.3C305.4,537.6,306.7,534.6,306.7,532.5z M312.2,533.5
	c-0.2-3.8,2.8-7.1,6.6-7.3c0.2,0,0.5,0,0.7,0c4.3,0,6.3,2.5,6.3,5s-2,4.5-5.5,4.5c-0.7,0-1.3-0.2-2-0.3c-0.7-0.2-1-0.8-1-1.5
	c0-0.8,0.7-1.7,1.5-1.7l0,0c0.5,0,1.2,0.3,1.5,0.3c0.8,0.2,1.5-0.5,1.5-1.2v-0.2c0-1-0.7-1.7-2.7-1.7c-2,0-3.7,1.7-3.7,3.8
	c0,0.2,0,0.2,0,0.3c0,2.2,1.7,4,4,4.1h0.2c1.3,0,2.5-0.3,3.7-1c0.3-0.2,0.7-0.3,1.2-0.3s1,0.3,1.3,0.7c0.5,0.8,0,2-0.8,2.5
	c-1.7,1-3.5,1.5-5.5,1.3c-4,0.2-7.5-3-7.6-7C312,533.8,312,533.7,312.2,533.5L312.2,533.5z M328.8,527.8c0-0.8,0.7-1.7,1.5-1.7h0.2
	c0.8,0,1.7,0.7,1.7,1.5c0,0,0,0,0,0.2v1.3c1-1.8,2.3-3,3.8-3c1.3-0.2,2.5,0.8,2.7,2.2v0.2c0,0.8-0.7,1.7-1.5,1.8c-1,0-1-0.7-1.8-0.7
	c-2,0-3,3.7-3,5.5v4.1c0,0.8-0.7,1.7-1.5,1.7h-0.2c-0.8,0-1.7-0.7-1.7-1.5v-0.2L328.8,527.8z M348,526.9l4.3-7.3
	c0.3-0.5,0.8-0.8,1.5-0.8c1.2,0,1.5,0.7,1.5,1.3c0,0.3-0.2,0.8-0.3,1.2l-3.8,6.5c0.5-0.8,1.5-1.2,3-1.2c3.2,0,5.6,2.8,5.6,7
	c0,4-3.3,7.3-7.3,7.3s-7.3-3.3-7.3-7.3C345.4,532.2,345.7,530.8,348,526.9L348,526.9z M352.7,529.5c-2.2-0.2-4.1,1.7-4.1,3.8
	c-0.2,2.2,1.7,4.1,3.8,4.1c2.2,0.2,4.1-1.7,4.1-3.8v-0.2c0.2-2-1.3-4-3.5-4.1C353,529.3,352.8,529.3,352.7,529.5L352.7,529.5z
	 M362.3,529.8c-0.8,0-1.7-0.7-1.7-1.5c0,0,0,0,0-0.2c0-0.8,0.7-1.7,1.5-1.7c0,0,0,0,0.2,0h1.8v-2.2c0-0.8,0.7-1.7,1.5-1.7h0.2
	c0.8,0,1.7,0.7,1.7,1.5v0.2v2.2h2.7c0.8,0,1.5,0.7,1.5,1.5v0.2c0,0.8-0.5,1.5-1.3,1.7h-0.2h-2.7v6.3c0,1,0.2,1.5,0.7,1.5
	c0.3,0,0.7-0.2,0.8-0.3c0.3-0.3,0.8-0.5,1.3-0.5c0.8,0,1.5,0.5,1.7,1.3c0,0.2,0,0.2,0,0.3c0,0.3-0.2,0.8-0.3,1.2
	c-0.8,1-2.2,1.5-3.5,1.3c-3,0-4-1.8-4-4.3v-6.8L362.3,529.8z M374.1,519.1c0-3.5,1.5-4.1,3.8-4.1h0.3c0.8,0,1.5,0.5,1.7,1.3
	c0,0.2,0,0.2,0,0.3c0.2,0.8-0.5,1.7-1.3,1.7c-0.2,0-0.2,0-0.3,0h-0.2c-0.3,0-0.7,0.2-0.7,0.7V529c0.8-1.7,2.5-2.8,4.5-2.8
	c2.3,0,4,1.5,4,4.3v6.5c0,0.5,0.2,0.7,0.3,0.7c0.2,0,0.5-0.2,0.7-0.3c0.7-0.5,1.3-0.3,1.8,0.3c0.2,0.3,0.3,0.7,0.3,0.8
	c0,0.5-0.3,1-0.7,1.3c-0.7,0.7-1.7,1-2.5,1c-2,0-3.3-1-3.3-3.7v-5.6c0-1.5-0.7-1.8-1.5-1.8c-1.5,0-3.5,1.5-3.7,4.8v4.8
	c0,1-0.8,1.7-1.7,1.7c-1,0-1.7-0.8-1.7-1.7V519.1z M404.9,538.6c-1,1.3-2.7,2.2-4.3,2.2c-3.3,0-5.1-2.7-5.1-6.3
	c0-4.6,2.8-8.3,6.8-8.3c1,0,1.8,0.3,2.5,1c0.3-0.7,0.8-1,1.7-1c0.8-0.2,1.7,0.5,1.7,1.3v0.2v9.1c0,0.5,0.2,0.7,0.3,0.7
	c0.2,0,0.5-0.2,0.7-0.3c0.7-0.5,1.3-0.3,1.8,0.3c0.2,0.3,0.3,0.5,0.2,0.8c0,0.5-0.3,1-0.7,1.3c-0.7,0.7-1.7,1-2.5,1
	C406.6,540.8,405.4,540,404.9,538.6L404.9,538.6z M399.1,534.5c0,2,1,3.2,2.2,3.2c2.2,0,3.5-2.5,3.5-4.6v-0.5
	c-0.2-1.8-1.2-2.8-2.3-2.8C400.3,529.5,399.1,531.8,399.1,534.5z M416.2,529c0.8-1.7,2.5-2.8,4.3-2.8c2.3,0,4,1.5,4,4.3v6.5
	c0,0.5,0.2,0.7,0.3,0.7s0.5-0.2,0.7-0.3c0.7-0.5,1.3-0.3,1.8,0.3c0.2,0.3,0.3,0.5,0.2,0.8c0,0.5-0.3,1-0.7,1.3c-0.7,0.7-1.7,1-2.5,1
	c-2,0-3.3-1-3.3-3.7v-5.6c0-1.5-0.7-1.8-1.5-1.8c-1.5,0-3.5,1.5-3.7,4.8v4.8c0,0.8-0.7,1.7-1.7,1.7h-0.2c-0.8,0-1.7-0.7-1.7-1.5
	c0,0,0,0,0-0.2V528c0-1,0.8-1.7,1.7-1.7c1,0,1.7,0.8,1.7,1.7L416.2,529z M440.9,537c0,0.5,0.2,0.7,0.3,0.7s0.5-0.2,0.7-0.3
	c0.7-0.5,1.3-0.3,1.8,0.3c0.2,0.3,0.3,0.5,0.2,0.8c0,0.5-0.3,1-0.7,1.3c-0.7,0.7-1.7,1-2.5,1c-1.3,0.2-2.7-0.7-3-2.2
	c-1,1.3-2.7,2.2-4.3,2.2c-3.3,0-5.1-2.7-5.1-6.3c0-4.6,2.8-8.3,6.8-8.3c1,0,1.8,0.3,2.5,1v-10.8c0-1,0.8-1.7,1.8-1.5
	c0.8,0,1.5,0.7,1.5,1.5L440.9,537L440.9,537z M431.8,534.5c0,2,1,3.2,2.2,3.2c2.2,0,3.5-2.5,3.5-4.8c0-2-1-3.2-2.3-3.2
	C433,529.5,431.8,531.8,431.8,534.5z M453.9,540c-0.3,0.5-0.7,0.8-1.3,0.8c-1,0-1.7-0.7-1.8-1.7c0-0.3,0-0.5,0.2-0.8l9.5-16.3h-8.3
	c-0.8,0-1.7-0.7-1.7-1.5c0,0,0,0,0-0.2c0-0.8,0.5-1.5,1.3-1.7h0.2h10.8c1.2,0,1.7,0.5,1.7,1.3c0,0.8,0,1.2-1.2,2.8L453.9,540z
	 M466.8,529.8c-0.8,0-1.7-0.7-1.7-1.5c0,0,0,0,0-0.2c0-0.8,0.7-1.7,1.5-1.7c0,0,0,0,0.2,0h1.8v-2.2c0-0.8,0.7-1.7,1.5-1.7h0.2
	c0.8,0,1.7,0.7,1.7,1.5v0.2v2.2h2.7c0.8,0,1.5,0.7,1.7,1.5v0.2c0,0.8-0.5,1.5-1.3,1.7h-0.2H472v6.3c0,1,0.2,1.5,0.7,1.5
	c0.3,0,0.7-0.2,0.8-0.3c0.3-0.3,0.8-0.5,1.3-0.5c0.8,0,1.5,0.5,1.7,1.3c0,0.2,0,0.2,0,0.3c0,0.3-0.2,0.8-0.3,1.2
	c-0.8,1-2.2,1.5-3.5,1.3c-3,0-4-1.8-4-4.3v-6.8L466.8,529.8z M478.6,519.1c0-3.5,1.5-4.1,3.8-4.1h0.3c0.8,0,1.5,0.5,1.7,1.3
	c0,0.2,0,0.2,0,0.3c0.2,0.8-0.5,1.7-1.3,1.7c-0.2,0-0.2,0-0.3,0h-0.2c-0.3,0-0.7,0.2-0.7,0.7V529c0.8-1.7,2.5-2.8,4.5-2.8
	c2.3,0,4,1.5,4,4.3v6.5c0,0.5,0.2,0.7,0.3,0.7c0.2,0,0.5-0.2,0.7-0.3c0.7-0.5,1.3-0.3,1.8,0.3c0.2,0.3,0.3,0.5,0.2,0.8
	c0,0.5-0.3,1-0.7,1.3c-0.7,0.7-1.7,1-2.5,1c-2,0-3.3-1-3.3-3.7v-5.6c0-1.5-0.7-1.8-1.5-1.8c-1.5,0-3.5,1.5-3.7,4.8v4.8
	c0,1-0.8,1.7-1.7,1.7c-1,0-1.7-0.8-1.7-1.7L478.6,519.1z M496.4,542.9c-0.2,0.5-0.7,0.8-1.2,1c-1,0.2-1.8-0.3-2.2-1.3
	c-0.2-0.3,0-0.7,0-1.2l1.8-4.5c0.2-0.5,0.7-0.8,1.2-1c1-0.2,1.8,0.3,2.2,1.3c0.2,0.3,0,0.7,0,1L496.4,542.9z M508,540.5
	c-0.8,0.2-1.5-0.5-1.7-1.3V539c0-1,0.7-1.3,1.8-1.8c4.3-1.7,9-6.6,9-11.3c0.2-2-1.3-3.8-3.3-4c-0.2,0-0.3,0-0.5,0
	c-1.8-0.2-3.3,1.2-3.5,2.8c0,0.2,0,0.2,0,0.3c0,1,0.3,2,1.2,2.7c0.3,0.3,0.7,0.8,0.7,1.3c0,1-0.7,1.7-1.7,1.8c-0.3,0-0.7-0.2-1-0.3
	c-1.7-1.3-2.7-3.2-2.7-5.3c0-3.8,3-6.5,7-6.5c3.8-0.2,7,2.8,7.3,6.5c0,0.3,0,0.5,0,0.8c0,5.6-4.8,10-7.5,11.3h6.8
	c0.8,0,1.5,0.7,1.7,1.5v0.2c0,0.8-0.7,1.7-1.5,1.7l0,0H508V540.5z M531.4,518.6c4.6,0,7.8,3.7,7.8,11.1s-3.2,11-7.8,11
	s-7.8-3.7-7.8-11C523.6,522.4,526.7,518.7,531.4,518.6L531.4,518.6z M531.4,521.9c-2.2,0-4.3,2.5-4.3,7.8s2.2,7.8,4.3,7.8
	c2.2,0,4.5-2.5,4.5-7.8S533.7,521.9,531.4,521.9L531.4,521.9z M542.3,522.2c-1,0-1.7-0.7-1.7-1.7s0.7-1.7,1.7-1.7h1.8
	c3.3,0,4.3,0.7,4.3,4.6v15.6c0,0.8-0.7,1.7-1.5,1.7c0,0,0,0-0.2,0c-0.8,0-1.7-0.7-1.7-1.5c0,0,0,0,0-0.2v-15.8
	c0-0.8-0.2-1.2-0.8-1.2L542.3,522.2z M563.2,532.7l-4.3,7.3c-0.3,0.5-0.8,0.8-1.5,0.8c-1.2,0-1.5-0.7-1.5-1.3c0-0.3,0.2-0.8,0.3-1.2
	l3.8-6.5c-0.5,0.8-1.5,1.2-3,1.2c-3.2,0-5.6-2.8-5.6-7c0-4,3.3-7.3,7.3-7.3s7.3,3.3,7.3,7.3l0,0
	C565.9,527.2,565.6,528.5,563.2,532.7L563.2,532.7z M558.6,530c2.2,0.2,4.1-1.7,4.1-3.8c0.2-2.2-1.7-4.1-3.8-4.1
	c-2.2-0.2-4.1,1.7-4.1,3.8v0.2c-0.2,2.2,1.3,4,3.5,4.1C558.4,530,558.6,530,558.6,530L558.6,530z M583.1,538.6
	c-1,1.3-2.7,2.2-4.3,2.2c-3.3,0-5.1-2.7-5.1-6.3c0-4.6,2.8-8.3,6.8-8.3c1,0,1.8,0.3,2.5,1c0.3-0.7,0.8-1,1.7-1
	c0.8-0.2,1.7,0.5,1.7,1.3v0.2v9.1c0,0.5,0.2,0.7,0.3,0.7c0.2,0,0.5-0.2,0.7-0.3c0.7-0.5,1.3-0.3,1.8,0.3c0.2,0.3,0.3,0.7,0.3,0.8
	c0,0.5-0.3,1-0.7,1.3c-0.7,0.7-1.7,1-2.5,1C584.8,541,583.5,540,583.1,538.6L583.1,538.6z M577.2,534.5c0,2,1,3.2,2.2,3.2
	c2.2,0,3.5-2.5,3.5-4.6v-0.5c-0.2-1.8-1.2-2.8-2.3-2.8C578.3,529.5,577.2,531.8,577.2,534.5z M590.8,529.8c-0.8,0-1.7-0.7-1.7-1.5
	c0,0,0,0,0-0.2c0-0.8,0.7-1.7,1.5-1.7c0,0,0,0,0.2,0h1.8v-2.2c0-0.8,0.7-1.7,1.5-1.7h0.2c0.8,0,1.7,0.7,1.7,1.5v0.2v2.2h2.7
	c0.8,0,1.5,0.7,1.7,1.5v0.2c0,0.8-0.5,1.5-1.3,1.7h-0.2h-2.7v6.3c0,1,0.2,1.5,0.7,1.5c0.3,0,0.7-0.2,0.8-0.3
	c0.3-0.3,0.8-0.5,1.3-0.5c0.8,0,1.5,0.5,1.7,1.3c0,0.2,0,0.2,0,0.3c0,0.3-0.2,0.8-0.3,1.2c-0.8,1-2.2,1.5-3.5,1.3c-3,0-4-1.8-4-4.3
	v-6.8L590.8,529.8z M619.5,537.3c6,0,8.1-4,8.1-9c0-3.2-1.8-6.8-5.1-6.8c-1.7-0.2-3.3,1.2-3.5,2.8c0,0.2,0,0.3,0,0.5
	c0,1.3,0.7,2.5,1.7,3.3c0.3,0.3,0.7,0.8,0.7,1.3c0,1-0.8,1.8-1.8,1.8c-0.3,0-0.7-0.2-1-0.3c-1.8-1.3-3-3.5-3-5.8
	c0-4,3.2-6.6,7.1-6.6c5.5,0,8.8,4.8,8.8,9.8c0,7.8-4.5,12.3-12.1,12.3c-7.1,0-11.9-4.8-11.9-11.6c0-3.8,1.8-7.5,4.8-10
	c0.3-0.3,0.8-0.5,1.3-0.5c0.8,0,1.7,0.7,1.7,1.5c0,0,0,0,0,0.2c0,0.5-0.3,1-0.7,1.3c-2,2-3.2,4.6-3.3,7.5
	C611.5,533.5,614,537.3,619.5,537.3L619.5,537.3z M643,529.3c0,0.8-0.7,1.7-1.5,1.7c-0.3,0-0.5,0-0.8-0.2c-0.8-0.7-1.3-1.3-2.7-1.3
	c-1,0-1.5,0.5-1.5,1.3c0,0.8,1,1.3,2.2,2.2c1.7,1,3.5,2.2,3.5,4.3c0,2.2-1.3,3.7-4,3.7c-1.7,0-3.8-0.5-3.8-2.5
	c0-0.8,0.5-1.5,1.3-1.7c0,0,0,0,0.2,0c0.8,0,1.3,1,2.3,1c0.5,0,0.7-0.2,0.7-0.5c0-0.5-1.2-1.2-2.5-2c-1.7-1-3.3-2-3.3-4.3
	c0-2.7,2.2-4.6,4.6-4.6c0.2,0,0.2,0,0.3,0c1.8,0,3.5,0.8,4.5,2.2C643,528.7,643,529,643,529.3L643,529.3z M654,538.6
	c-1,1.3-2.7,2.2-4.3,2.2c-3.3,0-5.1-2.7-5.1-6.3c0-4.6,2.8-8.3,6.8-8.3c1,0,1.8,0.3,2.5,1c0.3-0.7,0.8-1,1.7-1
	c0.8-0.2,1.7,0.5,1.7,1.3v0.2v9.1c0,0.5,0.2,0.7,0.3,0.7c0.2,0,0.5-0.2,0.7-0.3c0.7-0.5,1.3-0.3,1.8,0.3c0.2,0.3,0.3,0.7,0.3,0.8
	c0,0.5-0.3,1-0.7,1.3c-0.7,0.7-1.7,1-2.5,1C655.6,541,654.5,540,654,538.6L654,538.6z M648.2,534.5c0,2,1,3.2,2.2,3.2
	c2.2,0,3.5-2.5,3.5-4.6v-0.5c-0.2-1.8-1.2-2.8-2.3-2.8C649.3,529.5,648.2,531.8,648.2,534.5z M662,519.1c0-3.5,1.5-4.1,3.8-4.1h0.3
	c0.8,0,1.5,0.5,1.7,1.3c0,0.2,0,0.2,0,0.3c0.2,0.8-0.5,1.7-1.3,1.7c-0.2,0-0.2,0-0.3,0h-0.2c-0.3,0-0.7,0.2-0.7,0.7v9.6
	c1-1.5,2.7-2.3,4.5-2.2c1.8-0.2,3.5,1.2,3.7,3c0,0.2,0,0.3,0,0.5c0,2-1.7,4-4.1,4.8c0.8,0.2,1.5,0.8,1.8,1.5c0.5,0.7,1,1.3,1.3,1.3
	c0.5,0,0.8-0.7,1.3-0.7c0.8,0,1.5,0.7,1.5,1.5l0,0c-0.2,1.5-1.3,2.5-2.8,2.5l0,0c-1.5,0-2-0.3-3.5-2.3c-0.5-0.8-1.2-1.7-1.8-2.5
	c-0.5-0.3-0.7-1-0.7-1.5c0-0.7,0.3-1.2,1.2-1.5c2.2-1.2,2.5-1.8,2.5-2.5c0-0.5-0.3-0.8-1-0.8c-1.7,0-3.7,1.5-3.7,5v4.6
	c0,0.8-0.7,1.7-1.7,1.7h-0.2c-0.8,0-1.7-0.7-1.7-1.5c0,0,0,0,0-0.2V519.1z M685.8,538.6c-1,1.3-2.7,2.2-4.3,2.2
	c-3.3,0-5.1-2.7-5.1-6.3c0-4.6,2.8-8.3,6.8-8.3c1,0,1.8,0.3,2.5,1c0.3-0.7,1-1,1.7-1c0.8-0.2,1.7,0.5,1.7,1.3v0.2v9.1
	c0,0.5,0.2,0.7,0.3,0.7c0.2,0,0.5-0.2,0.7-0.3c0.7-0.5,1.3-0.3,1.8,0.3c0.2,0.3,0.3,0.5,0.2,0.8c0,0.5-0.3,1-0.7,1.3
	c-0.7,0.7-1.7,1-2.5,1C687.5,540.8,686.2,540,685.8,538.6L685.8,538.6z M679.9,534.5c0,2,1,3.2,2.2,3.2c2.2,0,3.5-2.5,3.5-4.6v-0.5
	c-0.2-1.8-1.2-2.8-2.3-2.8C681,529.5,679.9,531.8,679.9,534.5z M758.7,464.6c0,0-0.2-0.5-0.8-1.8c-0.3-1-1-1.8-1.7-2.7
	c-0.5-0.7-1.3-1.2-2.3-1c-0.8,0.2-1.3,1-1.3,1.8l0,0c0.2,1,0.7,1.8,1.3,2.5c0.5,0.3,2.8,2.3,2.8,2.3c-1.3,0.2-2.5,0.3-3.8,0.3
	c-2,0.2-2.8,3.2-2.3,4c0.8,0.8,2.3,1.2,3.5,0.7c1.2-0.5,3.7-3.3,3.7-3.3c0,1-0.3,2-0.7,3c-1.3,3.3,1.2,4.1,1.3,4.1
	c0.3,0.2,0.7,0.2,1.2,0.2c1.3-0.5,2-2,1.7-3.3s-1.3-4.1-1.3-4.1c1,1,2.2,2,3.3,2.7c0.8,0.3,1.8,0.2,2.7-0.3c0.5-0.3,1.2-0.8,1-1.5
	c-0.3-0.7,0-1.5-1.2-2.2c-1.2-0.7-2.8-0.5-5.5-0.2c4.3-2.7,4-5.1,3.5-5.8s-1-0.5-1.5-0.3c-0.5,0.2-0.8-0.2-1.3,0.2
	c-1.3,1.2-2.2,2.8-2.2,4.5L758.7,464.6z M780.3,444.2c0,0-0.8-0.5-3.2-2c-1.7-1.2-3.5-2-5.5-2.7c-1.7-0.5-3.3-0.2-4.6,0.8
	c-1.3,1-1,3,0,4.1c1.3,1.3,3,2.2,4.8,2.3c1.2,0,7,0.5,7,0.5c-1.7,1.7-3.7,3.3-5.5,4.6c-3,2.3-1.2,8,0.7,8.6c1.8,0.7,4.6-0.5,6-2.7
	c1.3-2.2,2.2-9.1,2.2-9.1c1,1.7,1.7,3.5,2.2,5.5c1.5,6.5,6.1,5.3,6.5,5.1c0.7-0.2,1.3-0.5,1.8-1c1.5-2.2,1-5.1-1-7
	c-2-1.8-6.6-5.1-6.6-5.1s6.3,1.2,8.1,0.7s3.2-2.3,3.8-3.3c0.7-1,1.2-2.5-0.2-3.3c-1.2-0.8-1.7-2.3-4.1-2c-2.5,0.3-4.8,2.2-8.6,5.6
	c3.8-8.8,0.8-12.4-0.8-12.9c-1.7-0.5-2,0.2-2.8,1s-1.5,0.7-1.8,1.5c-1.8,4.6,1.3,9.3,1.3,9.3L780.3,444.2z M83.4,371.1
	c1.2-1.2,1.2-3.2,0-4.3l0,0l-7.3-7.1c-1.3-1-3.2-0.8-4.3,0.3c-1,1.2-1,2.8,0,4l7.3,7.1C80.2,372.2,82.2,372.4,83.4,371.1L83.4,371.1
	L83.4,371.1z M68.8,393c0.2-1.7-1.2-3.2-2.8-3.3l0,0l-7.1-0.3c-1.7-0.2-3.2,1.2-3.3,2.8c-0.2,1.7,1.2,3.2,2.8,3.3h0.2l7.1,0.3h0.2
	C67.5,395.8,68.8,394.4,68.8,393z M74.1,381c0.7-1.5-0.2-3.3-1.7-4l0,0l-11.1-4.3c-1.7-0.5-3.3,0.3-3.8,2c-0.5,1.5,0.3,3,1.7,3.7
	l11.1,4.3c0.3,0.2,0.7,0.2,1.2,0.2C72.6,383,73.6,382.2,74.1,381z M623,381.7c17.3,0,29.4,19.9,24.1,48.8
	c-6,32.9-24.2,48.6-44.6,48.6c-20.4,0-35.3-15.9-28.5-48.6C580.7,397.8,598.9,381.7,623,381.7L623,381.7z M602.9,401.7
	c-1.3,0-2.3,1.5-2.3,3.5c0,1.8,1,3.5,2.3,3.5c1.3,0,2.3-1.5,2.3-3.5C605,403.2,604.2,401.7,602.9,401.7L602.9,401.7z M616.7,401.7
	c-1.3,0-2.3,1.5-2.3,3.5c0,1.8,1.2,3.5,2.3,3.5c1.2,0,2.3-1.5,2.3-3.5C619,403.2,618,401.7,616.7,401.7L616.7,401.7z M625.9,415
	c0.3-0.8,0-1.7-0.7-2c-0.8-0.3-1.7,0-2,0.7c-4.8,9.5-10.3,14.6-15.8,14.1c-4.6-0.3-9.1-4.8-11.3-11.6c-0.3-0.8-1.2-1.2-2-1
	c-0.8,0.3-1.2,1.2-1,2c2.7,8,8,13.3,13.9,13.8h0.8C613,430.8,619.6,428,625.9,415L625.9,415z"/>
<path class="st2" d="M127.5,462.3c30.2,0,46.3-20.7,51.6-46c3.7-17.1-2-35.2-19.4-35.2c-11.1,0-19.2,6.8-21.7,18.1
	c-1.3,6.1,0.5,12.6,4.8,17.3c1.7,1.5,2.2,3.8,1.7,6c-1,4.3-5.5,8.5-10.1,8.5c-1.7,0-3.3-0.5-4.6-1.7c-8-7.5-11.1-19.1-9-29.4
	c4.3-19.9,22.6-33.2,43-33.2c27.5,0,39.5,24.1,33.8,49.6c-8.3,39.5-36.2,62.1-73.7,62.1c-36.2,0-54.8-23.9-47.5-58.9
	c4.5-20.9,18.1-39,34.7-49.9c2.2-1.3,4.8-2.2,7.5-2.3c4.6,0,7,3.5,6.1,7.8c-0.8,2.7-2.5,4.8-4.6,6.5c-11.4,10-21.4,21.9-24.9,38.2
	C90.4,442.7,100,462.3,127.5,462.3z M222.1,410c-4,19.1,36.8,21.6,31.4,47.5c-2.8,12.9-15.9,20.7-29.4,20.7
	c-7.5,0-16.9-3.7-19.1-9.5c-2-6.1,5.6-13.6,11.1-9.6c2.7,1.8,4.6,5.6,11,5.6c6.8,0,10.6-2.8,11.4-7.3c3.3-15.4-37.5-17.4-31.2-47.1
	c3.8-17.9,19.7-29.4,37.3-29.4c18.4,0,28.5,12.1,24.9,29.9c-0.8,4.1-4.5,7.1-8.6,7.1c-4.1,0-6.8-3-5.8-7.1c1.7-8-2.2-15.8-13.3-15.8
	C230.9,394.9,223.8,402.1,222.1,410L222.1,410z M318.8,462.1c-0.5,2.7,0,3.3,1.2,3.3c1.3-0.2,2.5-0.7,3.3-1.5c5.1-3.3,8.6,0.5,8,4.8
	c-0.7,2.3-2,4.1-4,5.5c-3.5,2.7-7.8,4.1-12.1,4c-6.8,0-10.8-2.8-11-9.5c-5.5,6.1-13.3,9.8-21.6,10c-14.4,0-20.4-11.9-16.9-27.7
	c4.3-20.6,19.9-36.7,38-36.7c4.6,0,8,1.3,10.6,4.8c1.3-3.2,4.5-5,7.8-4.8c4,0,6.6,2.3,5.6,6.8L318.8,462.1z M280.5,450.7
	c-1.8,9,1.3,14.4,7.5,14.4c9.5,0,18.1-10.6,20.6-21.2l0.3-0.8c2-9.1-1.7-14.9-8-14.9C291,428.1,283.2,438.9,280.5,450.7z
	 M358.2,382.3c3.3-15.3,10-18.3,20.6-18.3h1.2c3.7,0,6.3,2.2,5.1,7c-1,4.6-4.3,7-8.1,7h-0.7c-2,0-3.3,0.8-3.8,3.8l-9,42.8
	c5.8-6.5,13.1-10.3,22.2-10.3c10.8,0,14.8,6.8,12.9,15.6c-2.2,9.1-11.8,17.8-22.9,21.1c3.3,0.8,4.8,3.5,6.6,7.1c1.8,3.5,3.3,6,5,6
	c2.2,0,4-2.8,6.3-2.8c3.3,0,6,2.5,5.1,6.3c-1.5,6.6-8.6,10.5-14.6,10.5c-6.3,0-8.6-1.3-13.6-10.1c-2.3-4.6-3.5-9.1-6.1-11.3
	c-1.7-1.7-2.3-4.1-1.8-6.5c0.7-3,2.5-4.6,6.5-6.6c11.1-4.6,13.9-8.3,14.6-11.8c0.5-2.2-0.7-3.8-4.1-3.8c-7.6,0-18.1,7-21.6,21.7
	l-4.5,21.4c-0.8,4.1-4.5,7-8.6,7c-3.3,0-6.5-2.3-5.5-7L358.2,382.3z M462.2,462.1c-0.5,2.7,0,3.3,1.2,3.3c1.3-0.2,2.5-0.7,3.3-1.5
	c5.1-3.3,8.6,0.5,8,4.8c-0.7,2.3-2,4.1-4,5.5c-3.5,2.7-7.8,4.1-12.1,4c-6.8,0-10.8-2.8-11-9.5c-5.5,6.1-13.3,9.8-21.6,10
	c-14.4,0-20.4-11.9-16.9-27.7c4.3-20.6,19.9-36.7,38-36.7c4.6,0,8,1.3,10.6,4.8c1.3-3.2,4.3-5,7.8-4.8c4,0,6.6,2.3,5.6,6.8
	L462.2,462.1z M423.9,450.7c-1.8,9,1.3,14.4,7.5,14.4c9.5,0,18.1-10.6,20.6-21.2l0.3-0.8c2-9.1-1.7-14.9-8-14.9
	C434.3,428.1,426.5,438.9,423.9,450.7L423.9,450.7z M495.2,477.1c-4.3,0-6.1-2.8-5.3-6.1c0.8-4.3,3.8-5.6,9.6-7.6
	c19.9-7,46.3-29,50.9-50.8c2.5-12.1-4.5-18.1-13.4-18.1c-8.6,0-16.9,5.1-19.1,14.6c-1.3,6,0.3,9.6,2.8,12.1c1.3,1.3,1.8,3.5,1.3,5.3
	c-0.8,3.7-4.6,7.5-8.5,7.5c-1.5,0-3-0.5-4-1.5c-5.3-5.3-8.6-13.1-6.5-23.4c3.5-16.3,18.7-28,36.8-28c16.3,0,29.2,10.5,24.7,31.9
	c-5.5,26.2-32.5,45.1-44.8,50.8h30.9c4.5,0,6,3.3,5.3,6.6c-0.8,4-4.1,6.8-8.3,7L495.2,477.1z M663.4,395.9c-3.8,0-5.6-3.5-5-6.8
	c0.8-3.5,4.1-7.1,8.1-7.1h8.1c14.1,0,17.4,2.8,13.9,19.9l-14.8,69.4c-0.8,4-4.3,7-8.5,7c-3.5,0-6.8-2.3-5.8-7l14.8-70
	c0.8-3.5,0.2-5.3-2.8-5.3L663.4,395.9z M745.4,442.7l-25.7,31.9c-1.7,2.3-4.1,3.7-7,3.7c-4.6,0-6-2.7-5.3-5.6
	c0.5-1.8,1.3-3.3,2.5-4.8l22.9-28.7c-3.3,3.3-8.5,4.6-14.1,4.6c-13.9,0-22.9-12.4-19.1-30.7c4-19.2,19.6-32.2,38.8-32.2
	c19.2,0,29.4,12.9,25.4,32.2C762.7,419.3,759.5,425.3,745.4,442.7L745.4,442.7z M727.8,431.6c9.8,0,19.2-6.8,21.7-18.6
	c2.7-11.9-4-18.6-13.9-18.6s-19.2,6.6-21.7,18.6C711.4,424.8,717.9,431.6,727.8,431.6L727.8,431.6z M623,381.7
	c17.3,0,29.4,19.9,24.1,48.8c-6,32.9-24.2,48.6-44.8,48.6c-20.6,0-35.3-15.9-28.5-48.6C580.7,397.8,598.9,381.7,623,381.7L623,381.7
	z M620,395.1c-13.4,0.2-26.9,11.3-31.9,35.2c-5,23.9,6.5,35.2,16.9,35.2c10.5,0,22.4-11.3,27.4-35.2
	C637.4,406.4,630.3,395.1,620,395.1L620,395.1z M138.6,278.5l-23.7,39.8c-2.2,3.8-5.3,6-9.1,6c-4.3,0-6.1-2.2-6.8-6.1l-8.6-57.9
	c-2.8-18.3-5-32-20.9-32c-12.9,0-19.6,9-21.4,17.6c-1.3,6.5,1.2,12.9,4.3,17.3c1.5,1.5,1.7,3.7,1.3,6c-1,4.1-5.1,7.8-9.5,7.8
	c-1.7,0.2-3.3-0.5-4.5-1.7c-7-6.8-10.1-17.6-7.8-29.2c4.1-19.4,21.1-33.2,41-33.2c23.1,0,30,10.6,35.2,49.3l4.3,32l22.4-38
	l-5.5-33.2c-0.2-1,0-1.8,0.2-2.8c1-4.5,6.1-7.6,10.3-7.6c2.7,0,5.3,1.3,5.8,4.5l3,16.3l9.5-16.3c1.8-2.8,4.8-4.5,8.1-4.5
	c4.1,0,8,3.2,7,7.6c-0.3,1-0.7,2-1.3,2.8l-19.7,33.2l6.6,38.3l45.8-77.3c1.7-2.7,4.6-4.5,7.8-4.5c4.3,0,8.3,3.2,7.5,7.6
	c-0.3,1-0.7,1.8-1.2,2.8l-56.7,95.6c-2.2,3.7-5.3,6-9.3,6c-3.8,0-6.1-2-6.8-6.1L138.6,278.5z M245.2,250.9
	c21.4,0,34.8,13.4,29.9,36.8c-5,23.1-23.9,36.5-45.3,36.5c-21.2,0-34.8-13.3-29.9-36.5C204.8,264.5,223.9,250.9,245.2,250.9
	L245.2,250.9z M241.8,266.7c-11.8,0-21.9,8.1-24.6,21.1c-2.8,12.8,3.8,20.7,15.8,20.7c11.6,0,21.9-8,24.6-20.7
	C260.4,274.8,253.6,266.7,241.8,266.7L241.8,266.7z M293.6,258.9c0.8-4.6,5-8,9.8-8c4.1,0,7.6,2.7,6.5,8l-1.7,7.8
	c6.6-9.6,15.4-15.8,22.7-15.8c9.3,0,11.8,6.1,10.8,11.3c-1.2,5.1-5.5,8.6-9.1,8.6c-4.5,0-4-3.8-8.3-3.8c-9.8,0-19.2,17.3-22.1,27.5
	l-4.6,21.9c-0.8,4.6-5,8.1-9.8,8c-4.1,0-7.6-2.7-6.5-8L293.6,258.9z M383.5,313.3c-6.3,7.1-15.3,11.3-24.7,11.4
	c-16.4,0-23.4-13.8-19.4-31.9c5-23.6,22.7-42,43.5-42c5.3,0,9,1.5,12.1,5.3l11.6-55.1c1-4.6,5-8,9.8-8c4.1,0,7.6,2.7,6.3,8
	l-22.2,104.5c-0.5,3,0,3.7,1.3,3.7c1.5-0.2,2.8-0.7,3.8-1.7c6-3.7,10,0.5,9.1,5.5c-0.7,2.7-2.3,4.8-4.6,6.3c-4,3.2-8.8,4.8-13.9,4.6
	C388.3,324.3,383.7,321.1,383.5,313.3L383.5,313.3z M356.5,292.6c-2,10.1,1.5,16.4,8.5,16.4c11.3,0,21.2-12.9,24.1-25.4
	c2.2-10.6-1.8-17.1-9.1-17.1C368.4,266.7,359.5,279.1,356.5,292.6z M510,270.3c-4.5,0-7.5-3.3-6.5-8c0.5-2.5,1.8-4.5,4.8-6.8
	c4.6-3.8,9.6-8.5,11.3-16.4c2.7-12.4-4.8-20.9-20.6-20.9c-24.6,0-47,20.7-53.6,51.8c-6.1,29,5,50.8,33.5,50.8
	c15.6,0,23.6-6.3,32-13.4c3.2-2.7,6.3-4.3,9.1-4.3c1.8,0,3.7,0.7,4.8,2.2c1.5,1.3,2.2,3.5,1.7,5.3c-0.8,2.7-2.3,5-4.3,6.8
	c-9.1,10-27,19.7-49.1,19.7c-37.2,0-54.6-28.5-46.5-66.7c8.3-39.7,39.8-68.5,74.8-68.5c25.2,0,39.8,14.8,35.2,36.7
	c-2.8,13.3-11.8,24.2-20.4,29.4C514.5,269.3,512.3,270.2,510,270.3z M598.9,305.7c-0.5,3,0,3.7,1.3,3.7c1.2,0,2.2-0.5,3.8-1.7
	c6-3.7,10,0.5,9.1,5.5c-0.7,2.7-2.3,4.8-4.6,6.3c-4,3.2-8.8,4.8-13.8,4.6c-7.8,0-12.4-3.2-12.6-11c-6.3,7.1-15.3,11.3-24.7,11.4
	c-16.4,0-23.4-13.8-19.4-31.9c5-23.6,22.7-42,43.5-42c5.3,0,9.1,1.5,12.3,5.5c1.5-3.7,5-5.5,9-5.5c4.6,0,7.6,2.7,6.5,7.8
	L598.9,305.7z M554.9,292.6c-2,10.1,1.5,16.4,8.5,16.4c11,0,20.7-12.3,23.7-24.4l0.3-1c2.2-10.6-1.8-17.1-9.1-17.1
	C566.9,266.7,557.9,279.1,554.9,292.6L554.9,292.6z M647.9,263.5c6.6-8,16.6-12.6,23.1-12.6c9.3,0,14.3,4.1,14.4,11.8
	c7.8-8.3,16.4-11.8,23.9-11.8c10.3,0,18.9,7.8,15.9,21.9l-7,33c-0.5,3,0,3.7,1.5,3.7c1.3-0.2,2.7-0.8,3.7-1.7c6-3.7,10,0.5,9.1,5.5
	c-0.7,2.7-2.3,4.8-4.6,6.3c-3.8,3.2-8.8,4.8-13.8,4.6c-9.6,0-14.8-5-12.1-17.9l6.1-29.4c1.8-8.3-0.7-10.6-4.1-10.6
	c-8,0-19.1,9.1-23.4,29.5l-4.5,20.6c-1.2,4.6-5.3,7.8-10,7.8c-4.1,0-7.5-2.7-6.3-7.8l8.6-40.7c1.5-7.5-1.2-9.5-4.5-9.5
	c-7.8,0-17.6,7.6-22.2,24.1l-5.5,25.9c-1,4.6-5.1,8.1-10,8c-3.8,0-7.5-2.7-6.3-8l12.3-57.6c1-4.6,5.1-7.8,9.8-7.8
	c4.1,0,7.6,2.7,6.5,7.8L647.9,263.5z M769.3,261.4c6.1-6.5,14.6-10.3,23.6-10.3c16.4,0,23.4,13.8,19.6,31.9c-5,23.6-22.9,42-43.6,42
	c-5.1,0-9-1.3-11.8-5.1l-9,41.8c-1,4.6-5.1,7.8-9.8,7.8c-4.3,0-7.6-2.7-6.5-7.8l21.9-102.4c0.8-4.6,5-8,9.8-8c4,0,7.6,2.7,6.5,8
	L769.3,261.4z M795,283.3c2.2-10.1-1.3-16.4-8.5-16.4c-11.3,0-21.1,12.9-23.7,25.4l-0.3,1.7c-1.7,9.6,2.2,15.4,9.3,15.4
	C783.4,309.2,792.4,296.7,795,283.3L795,283.3z M234,278c-0.8,0-1.5,1-1.5,2.3s0.7,2.3,1.5,2.3s1.5-1,1.5-2.3
	C235.7,279,234.9,277.8,234,278L234,278z M243.3,278c-0.8,0-1.5,1-1.5,2.3s0.7,2.3,1.5,2.3s1.5-1,1.5-2.3
	C244.8,279,244.2,277.8,243.3,278L243.3,278z M228.7,287.8c3,9.1,12.3,13.8,19.9-1.5 M164.4,537.3c6,0,8.1-4,8.1-9
	c0-3.2-1.8-6.8-5.1-6.8c-1.7-0.2-3.3,1.2-3.5,2.8c0,0.2,0,0.3,0,0.7c0,1.3,0.7,2.5,1.7,3.3c0.3,0.3,0.7,0.8,0.7,1.3
	c0,1-0.8,1.8-1.8,1.8c-0.3,0-0.7-0.2-1-0.3c-1.8-1.3-3-3.5-3-5.8c0-4,3.2-6.6,7.1-6.6c5.5,0,8.8,4.8,8.8,9.8
	c0,7.8-4.5,12.3-12.1,12.3c-7.1,0-11.9-4.8-11.9-11.6c0-3.8,1.8-7.5,4.8-10c0.3-0.3,0.8-0.5,1.3-0.5c0.8,0,1.7,0.7,1.7,1.5
	c0,0,0,0,0,0.2c0,0.5-0.3,1-0.7,1.3c-2,2-3.2,4.6-3.3,7.5C156.2,533.5,158.9,537.3,164.4,537.3z M182.4,529c0.8-1.7,2.5-2.8,4.3-2.8
	c2.3,0,4,1.5,4,4.3v6.5c0,0.5,0.2,0.7,0.3,0.7c0.2,0,0.5-0.2,0.7-0.3c0.7-0.5,1.3-0.3,1.8,0.3c0.2,0.3,0.3,0.5,0.2,0.8
	c0,0.5-0.2,1-0.7,1.3c-0.7,0.7-1.7,1-2.5,1c-2,0-3.3-1-3.3-3.7v-5.6c0-1.5-0.7-1.8-1.5-1.8c-1.5,0-3.5,1.5-3.7,4.8v4.8
	c0,1-0.8,1.7-1.7,1.7s-1.7-0.8-1.7-1.7V528c0-1,0.8-1.7,1.7-1.7s1.7,0.8,1.7,1.7L182.4,529z M203.3,525.4c0.2,1.2,0.7,2.2,1.5,2.8
	c0.3,0.3,0.7,0.8,0.7,1.3c0,1-0.7,1.7-1.7,1.7l0,0c-0.5,0-0.8-0.2-1.2-0.3c-1.7-1.3-2.8-3.3-2.8-5.5c0-4.1,3.3-6.5,7.5-6.5h6.3
	c8,0,11.8,5.6,11.8,11c0,5.3-3.7,10.6-11.1,10.6H207c-0.8,0-1.7-0.7-1.7-1.5v-0.2c0-1,0.7-1.7,1.7-1.7l0,0h1.5c1,0,1-0.8,1-1.8V525
	c0-1,0.7-1.7,1.7-1.7c0,0,0,0,0.2,0c0.8,0,1.7,0.7,1.8,1.5v0.2v10.1c0,1.2-0.2,1.8-0.7,2h2.2c3.8,0,7.3-2.5,7.3-7.1
	s-3.8-7.6-8.5-7.6h-6C205,522.4,203.3,523.4,203.3,525.4L203.3,525.4z M227.2,533.5c-0.2-3.8,2.8-7.1,6.6-7.3c0.2,0,0.5,0,0.7,0
	c4.3,0,6.3,2.5,6.3,5s-2,4.5-5.5,4.5c-0.7,0-1.3-0.2-2-0.3c-0.7-0.2-1-0.8-1-1.5c0-0.8,0.7-1.7,1.5-1.7l0,0c0.5,0,1.2,0.3,1.5,0.3
	c0.8,0.2,1.5-0.5,1.5-1.2v-0.2c0-1-0.7-1.7-2.7-1.7c-2,0-3.7,1.7-3.7,3.8c0,0.2,0,0.2,0,0.3c0,2.2,1.7,4,4,4.1h0.2
	c1.3,0,2.5-0.3,3.7-1c0.3-0.2,0.7-0.3,1.2-0.3s1,0.3,1.3,0.7c0.5,0.8,0.2,2-0.8,2.5c-1.7,1-3.5,1.5-5.5,1.3c-4,0.2-7.5-3-7.5-7.1
	C227.2,533.7,227.2,533.7,227.2,533.5L227.2,533.5z M250.1,529.5c-2,0-3.7,1.5-3.7,3.5c0,0.2,0,0.3,0,0.5c0,2.5,1.5,4,3.7,4
	c1,0,2.2-0.3,2.8-1c0.3-0.3,0.7-0.5,1.2-0.5c0.8,0,1.7,0.8,1.7,1.7c0,0.5-0.2,1-0.5,1.3c-1.5,1.3-3.5,2-5.5,1.8c-4.3,0-7-2.7-7-7.3
	c-0.2-3.8,2.8-7.1,6.8-7.3c0.2,0,0.3,0,0.7,0c2.8,0,5.3,1.7,5.3,4.5c0,1.2-0.3,2.2-1.2,3c-0.3,0.3-0.8,0.7-1.5,0.7
	c-0.8,0-1.7-0.7-1.7-1.5c0-0.5,0.2-0.8,0.5-1.2c0.3-0.2,0.3-0.5,0.3-1C252.1,530.2,251.5,529.5,250.1,529.5z M257.4,533.5
	c-0.2-3.8,2.8-7.1,6.6-7.3c0.2,0,0.5,0,0.7,0c4.3,0,6.3,2.5,6.3,5s-2,4.5-5.5,4.5c-0.7,0-1.3-0.2-2-0.3c-0.7-0.2-1-0.8-1-1.5
	c0-0.8,0.7-1.7,1.5-1.7l0,0c0.5,0,1.2,0.3,1.5,0.3c0.8,0.2,1.5-0.5,1.5-1.2v-0.2c0-1-0.7-1.7-2.7-1.7c-2,0-3.7,1.7-3.7,3.8
	c0,0.2,0,0.2,0,0.3c0,2.2,1.7,4,4,4.1h0.2c1.3,0,2.5-0.3,3.7-1c0.3-0.2,0.7-0.3,1.2-0.3s1,0.3,1.3,0.7c0.5,0.8,0.2,2-0.8,2.5
	c-1.7,1-3.5,1.5-5.5,1.3c-4,0.2-7.5-3.2-7.5-7.1C257.4,533.7,257.4,533.7,257.4,533.5L257.4,533.5z M277.3,528.7
	c0.8-1.3,2.3-2.3,4-2.5c1.5-0.2,2.8,0.8,3.3,2.2c1-1.3,2.5-2.2,4.1-2.2c2.3,0,4.1,1.8,4.1,4.1c0,0.2,0,0.2,0,0.3v6.5
	c0,0.5,0.2,0.7,0.3,0.7c0.2,0,0.5-0.2,0.7-0.3c0.7-0.5,1.3-0.3,1.8,0.3c0.2,0.3,0.3,0.5,0.2,0.8c0,0.5-0.2,1-0.7,1.3
	c-0.7,0.7-1.7,1-2.5,1c-2,0-3.3-1-3.3-3.7v-5.6c0-1.5-0.7-2-1.2-2c-1.5,0-3.2,1.7-3.2,5.6v4c0,0.8-0.8,1.7-1.7,1.7l0,0
	c-0.8,0-1.7-0.7-1.7-1.5v-0.2v-8c0-1.3-0.7-1.7-1.2-1.7c-1.5,0-3,1.5-3.3,4.6v5c0,0.8-0.7,1.7-1.7,1.7h-0.2c-0.8,0-1.7-0.7-1.7-1.5
	c0,0,0,0,0-0.2V528c0-1,0.8-1.7,1.7-1.7c0.8,0,1.7,0.8,1.7,1.7L277.3,528.7z M301.6,518.2c-0.3,0-0.7,0.2-0.7,0.7v10.3
	c0.7-2,2.5-3.2,4.5-3c3.2,0,5,2.7,5,6.1c0,4.3-2.7,8.5-7.3,8.5c-3.8,0-5.5-3-5.5-6.1v-15.6c0-3.5,1.5-4.1,3.8-4.1h0.3
	c0.8,0,1.5,0.5,1.7,1.3c0,0.2,0,0.2,0,0.3c0.2,0.8-0.5,1.7-1.3,1.7C301.9,518.2,301.7,518.2,301.6,518.2L301.6,518.2z M306.7,532.5
	c0-1.5-0.5-2.8-2.3-2.8c-2,0-3.3,1.7-3.3,4.3v0.3c0,1.7,0.7,3.3,2.3,3.3C305.4,537.6,306.7,534.6,306.7,532.5z M312.2,533.5
	c-0.2-3.8,2.8-7.1,6.6-7.3c0.2,0,0.5,0,0.7,0c4.3,0,6.3,2.5,6.3,5s-2,4.5-5.5,4.5c-0.7,0-1.3-0.2-2-0.3c-0.7-0.2-1-0.8-1-1.5
	c0-0.8,0.7-1.7,1.5-1.7l0,0c0.5,0,1.2,0.3,1.5,0.3c0.8,0.2,1.5-0.5,1.5-1.2v-0.2c0-1-0.7-1.7-2.7-1.7c-2,0-3.7,1.7-3.7,3.8
	c0,0.2,0,0.2,0,0.3c0,2.2,1.7,4,4,4.1h0.2c1.3,0,2.5-0.3,3.7-1c0.3-0.2,0.7-0.3,1.2-0.3s1,0.3,1.3,0.7c0.5,0.8,0,2-0.8,2.5
	c-1.7,1-3.5,1.5-5.5,1.3c-4,0.2-7.5-3-7.6-7C312,533.8,312,533.7,312.2,533.5L312.2,533.5z M328.8,527.8c0-0.8,0.7-1.7,1.5-1.7h0.2
	c0.8,0,1.7,0.7,1.7,1.5c0,0,0,0,0,0.2v1.3c1-1.8,2.3-3,3.8-3c1.3-0.2,2.5,0.8,2.7,2.2v0.2c0,0.8-0.7,1.7-1.5,1.8c-1,0-1-0.7-1.8-0.7
	c-2,0-3,3.7-3,5.5v4.1c0,0.8-0.7,1.7-1.5,1.7h-0.2c-0.8,0-1.7-0.7-1.7-1.5v-0.2L328.8,527.8z M348,526.9l4.3-7.3
	c0.3-0.5,0.8-0.8,1.5-0.8c1.2,0,1.5,0.7,1.5,1.3c0,0.3-0.2,0.8-0.3,1.2l-3.8,6.5c0.5-0.8,1.5-1.2,3-1.2c3.2,0,5.6,2.8,5.6,7
	c0,4-3.3,7.3-7.3,7.3s-7.3-3.3-7.3-7.3C345.4,532.2,345.7,530.8,348,526.9L348,526.9z M352.7,529.5c-2.2-0.2-4.1,1.7-4.1,3.8
	c-0.2,2.2,1.7,4.1,3.8,4.1c2.2,0.2,4.1-1.7,4.1-3.8v-0.2c0.2-2-1.3-4-3.5-4.1C353,529.3,352.8,529.3,352.7,529.5L352.7,529.5z
	 M362.3,529.8c-0.8,0-1.7-0.7-1.7-1.5c0,0,0,0,0-0.2c0-0.8,0.7-1.7,1.5-1.7c0,0,0,0,0.2,0h1.8v-2.2c0-0.8,0.7-1.7,1.5-1.7h0.2
	c0.8,0,1.7,0.7,1.7,1.5v0.2v2.2h2.7c0.8,0,1.5,0.7,1.5,1.5v0.2c0,0.8-0.5,1.5-1.3,1.7h-0.2h-2.7v6.3c0,1,0.2,1.5,0.7,1.5
	c0.3,0,0.7-0.2,0.8-0.3c0.3-0.3,0.8-0.5,1.3-0.5c0.8,0,1.5,0.5,1.7,1.3c0,0.2,0,0.2,0,0.3c0,0.3-0.2,0.8-0.3,1.2
	c-0.8,1-2.2,1.5-3.5,1.3c-3,0-4-1.8-4-4.3v-6.8L362.3,529.8z M374.1,519.1c0-3.5,1.5-4.1,3.8-4.1h0.3c0.8,0,1.5,0.5,1.7,1.3
	c0,0.2,0,0.2,0,0.3c0.2,0.8-0.5,1.7-1.3,1.7c-0.2,0-0.2,0-0.3,0h-0.2c-0.3,0-0.7,0.2-0.7,0.7V529c0.8-1.7,2.5-2.8,4.5-2.8
	c2.3,0,4,1.5,4,4.3v6.5c0,0.5,0.2,0.7,0.3,0.7c0.2,0,0.5-0.2,0.7-0.3c0.7-0.5,1.3-0.3,1.8,0.3c0.2,0.3,0.3,0.7,0.3,0.8
	c0,0.5-0.3,1-0.7,1.3c-0.7,0.7-1.7,1-2.5,1c-2,0-3.3-1-3.3-3.7v-5.6c0-1.5-0.7-1.8-1.5-1.8c-1.5,0-3.5,1.5-3.7,4.8v4.8
	c0,1-0.8,1.7-1.7,1.7c-1,0-1.7-0.8-1.7-1.7V519.1z M404.9,538.6c-1,1.3-2.7,2.2-4.3,2.2c-3.3,0-5.1-2.7-5.1-6.3
	c0-4.6,2.8-8.3,6.8-8.3c1,0,1.8,0.3,2.5,1c0.3-0.7,0.8-1,1.7-1c0.8-0.2,1.7,0.5,1.7,1.3v0.2v9.1c0,0.5,0.2,0.7,0.3,0.7
	c0.2,0,0.5-0.2,0.7-0.3c0.7-0.5,1.3-0.3,1.8,0.3c0.2,0.3,0.3,0.5,0.2,0.8c0,0.5-0.3,1-0.7,1.3c-0.7,0.7-1.7,1-2.5,1
	C406.6,540.8,405.4,540,404.9,538.6L404.9,538.6z M399.1,534.5c0,2,1,3.2,2.2,3.2c2.2,0,3.5-2.5,3.5-4.6v-0.5
	c-0.2-1.8-1.2-2.8-2.3-2.8C400.3,529.5,399.1,531.8,399.1,534.5z M416.2,529c0.8-1.7,2.5-2.8,4.3-2.8c2.3,0,4,1.5,4,4.3v6.5
	c0,0.5,0.2,0.7,0.3,0.7s0.5-0.2,0.7-0.3c0.7-0.5,1.3-0.3,1.8,0.3c0.2,0.3,0.3,0.5,0.2,0.8c0,0.5-0.3,1-0.7,1.3c-0.7,0.7-1.7,1-2.5,1
	c-2,0-3.3-1-3.3-3.7v-5.6c0-1.5-0.7-1.8-1.5-1.8c-1.5,0-3.5,1.5-3.7,4.8v4.8c0,0.8-0.7,1.7-1.7,1.7h-0.2c-0.8,0-1.7-0.7-1.7-1.5
	c0,0,0,0,0-0.2V528c0-1,0.8-1.7,1.7-1.7c1,0,1.7,0.8,1.7,1.7L416.2,529z M440.9,537c0,0.5,0.2,0.7,0.3,0.7s0.5-0.2,0.7-0.3
	c0.7-0.5,1.3-0.3,1.8,0.3c0.2,0.3,0.3,0.5,0.2,0.8c0,0.5-0.3,1-0.7,1.3c-0.7,0.7-1.7,1-2.5,1c-1.3,0.2-2.7-0.7-3-2.2
	c-1,1.3-2.7,2.2-4.3,2.2c-3.3,0-5.1-2.7-5.1-6.3c0-4.6,2.8-8.3,6.8-8.3c1,0,1.8,0.3,2.5,1v-10.8c0-1,0.8-1.7,1.8-1.5
	c0.8,0,1.5,0.7,1.5,1.5L440.9,537L440.9,537z M431.8,534.5c0,2,1,3.2,2.2,3.2c2.2,0,3.5-2.5,3.5-4.8c0-2-1-3.2-2.3-3.2
	C433,529.5,431.8,531.8,431.8,534.5z M453.9,540c-0.3,0.5-0.7,0.8-1.3,0.8c-1,0-1.7-0.7-1.8-1.7c0-0.3,0-0.5,0.2-0.8l9.5-16.3h-8.3
	c-0.8,0-1.7-0.7-1.7-1.5c0,0,0,0,0-0.2c0-0.8,0.5-1.5,1.3-1.7h0.2h10.8c1.2,0,1.7,0.5,1.7,1.3c0,0.8,0,1.2-1.2,2.8L453.9,540z
	 M466.8,529.8c-0.8,0-1.7-0.7-1.7-1.5c0,0,0,0,0-0.2c0-0.8,0.7-1.7,1.5-1.7c0,0,0,0,0.2,0h1.8v-2.2c0-0.8,0.7-1.7,1.5-1.7h0.2
	c0.8,0,1.7,0.7,1.7,1.5v0.2v2.2h2.7c0.8,0,1.5,0.7,1.7,1.5v0.2c0,0.8-0.5,1.5-1.3,1.7h-0.2H472v6.3c0,1,0.2,1.5,0.7,1.5
	c0.3,0,0.7-0.2,0.8-0.3c0.3-0.3,0.8-0.5,1.3-0.5c0.8,0,1.5,0.5,1.7,1.3c0,0.2,0,0.2,0,0.3c0,0.3-0.2,0.8-0.3,1.2
	c-0.8,1-2.2,1.5-3.5,1.3c-3,0-4-1.8-4-4.3v-6.8L466.8,529.8z M478.6,519.1c0-3.5,1.5-4.1,3.8-4.1h0.3c0.8,0,1.5,0.5,1.7,1.3
	c0,0.2,0,0.2,0,0.3c0.2,0.8-0.5,1.7-1.3,1.7c-0.2,0-0.2,0-0.3,0h-0.2c-0.3,0-0.7,0.2-0.7,0.7V529c0.8-1.7,2.5-2.8,4.5-2.8
	c2.3,0,4,1.5,4,4.3v6.5c0,0.5,0.2,0.7,0.3,0.7c0.2,0,0.5-0.2,0.7-0.3c0.7-0.5,1.3-0.3,1.8,0.3c0.2,0.3,0.3,0.5,0.2,0.8
	c0,0.5-0.3,1-0.7,1.3c-0.7,0.7-1.7,1-2.5,1c-2,0-3.3-1-3.3-3.7v-5.6c0-1.5-0.7-1.8-1.5-1.8c-1.5,0-3.5,1.5-3.7,4.8v4.8
	c0,1-0.8,1.7-1.7,1.7c-1,0-1.7-0.8-1.7-1.7L478.6,519.1z M496.4,542.9c-0.2,0.5-0.7,0.8-1.2,1c-1,0.2-1.8-0.3-2.2-1.3
	c-0.2-0.3,0-0.7,0-1.2l1.8-4.5c0.2-0.5,0.7-0.8,1.2-1c1-0.2,1.8,0.3,2.2,1.3c0.2,0.3,0,0.7,0,1L496.4,542.9z M508,540.5
	c-0.8,0.2-1.5-0.5-1.7-1.3V539c0-1,0.7-1.3,1.8-1.8c4.3-1.7,9-6.6,9-11.3c0.2-2-1.3-3.8-3.3-4c-0.2,0-0.3,0-0.5,0
	c-1.8-0.2-3.3,1.2-3.5,2.8c0,0.2,0,0.2,0,0.3c0,1,0.3,2,1.2,2.7c0.3,0.3,0.7,0.8,0.7,1.3c0,1-0.7,1.7-1.7,1.8c-0.3,0-0.7-0.2-1-0.3
	c-1.7-1.3-2.7-3.2-2.7-5.3c0-3.8,3-6.5,7-6.5c3.8-0.2,7,2.8,7.3,6.5c0,0.3,0,0.5,0,0.8c0,5.6-4.8,10-7.5,11.3h6.8
	c0.8,0,1.5,0.7,1.7,1.5v0.2c0,0.8-0.7,1.7-1.5,1.7l0,0H508V540.5z M531.4,518.6c4.6,0,7.8,3.7,7.8,11.1s-3.2,11-7.8,11
	s-7.8-3.7-7.8-11C523.6,522.4,526.7,518.7,531.4,518.6L531.4,518.6z M531.4,521.9c-2.2,0-4.3,2.5-4.3,7.8s2.2,7.8,4.3,7.8
	c2.2,0,4.5-2.5,4.5-7.8S533.7,521.9,531.4,521.9L531.4,521.9z M542.3,522.2c-1,0-1.7-0.7-1.7-1.7s0.7-1.7,1.7-1.7h1.8
	c3.3,0,4.3,0.7,4.3,4.6v15.6c0,0.8-0.7,1.7-1.5,1.7c0,0,0,0-0.2,0c-0.8,0-1.7-0.7-1.7-1.5c0,0,0,0,0-0.2v-15.8
	c0-0.8-0.2-1.2-0.8-1.2L542.3,522.2z M563.2,532.7l-4.3,7.3c-0.3,0.5-0.8,0.8-1.5,0.8c-1.2,0-1.5-0.7-1.5-1.3c0-0.3,0.2-0.8,0.3-1.2
	l3.8-6.5c-0.5,0.8-1.5,1.2-3,1.2c-3.2,0-5.6-2.8-5.6-7c0-4,3.3-7.3,7.3-7.3s7.3,3.3,7.3,7.3l0,0
	C565.9,527.2,565.6,528.5,563.2,532.7L563.2,532.7z M558.6,530c2.2,0.2,4.1-1.7,4.1-3.8c0.2-2.2-1.7-4.1-3.8-4.1
	c-2.2-0.2-4.1,1.7-4.1,3.8v0.2c-0.2,2.2,1.3,4,3.5,4.1C558.4,530,558.6,530,558.6,530L558.6,530z M583.1,538.6
	c-1,1.3-2.7,2.2-4.3,2.2c-3.3,0-5.1-2.7-5.1-6.3c0-4.6,2.8-8.3,6.8-8.3c1,0,1.8,0.3,2.5,1c0.3-0.7,0.8-1,1.7-1
	c0.8-0.2,1.7,0.5,1.7,1.3v0.2v9.1c0,0.5,0.2,0.7,0.3,0.7c0.2,0,0.5-0.2,0.7-0.3c0.7-0.5,1.3-0.3,1.8,0.3c0.2,0.3,0.3,0.7,0.3,0.8
	c0,0.5-0.3,1-0.7,1.3c-0.7,0.7-1.7,1-2.5,1C584.8,541,583.5,540,583.1,538.6L583.1,538.6z M577.2,534.5c0,2,1,3.2,2.2,3.2
	c2.2,0,3.5-2.5,3.5-4.6v-0.5c-0.2-1.8-1.2-2.8-2.3-2.8C578.3,529.5,577.2,531.8,577.2,534.5z M590.8,529.8c-0.8,0-1.7-0.7-1.7-1.5
	c0,0,0,0,0-0.2c0-0.8,0.7-1.7,1.5-1.7c0,0,0,0,0.2,0h1.8v-2.2c0-0.8,0.7-1.7,1.5-1.7h0.2c0.8,0,1.7,0.7,1.7,1.5v0.2v2.2h2.7
	c0.8,0,1.5,0.7,1.7,1.5v0.2c0,0.8-0.5,1.5-1.3,1.7h-0.2h-2.7v6.3c0,1,0.2,1.5,0.7,1.5c0.3,0,0.7-0.2,0.8-0.3
	c0.3-0.3,0.8-0.5,1.3-0.5c0.8,0,1.5,0.5,1.7,1.3c0,0.2,0,0.2,0,0.3c0,0.3-0.2,0.8-0.3,1.2c-0.8,1-2.2,1.5-3.5,1.3c-3,0-4-1.8-4-4.3
	v-6.8L590.8,529.8z M619.5,537.3c6,0,8.1-4,8.1-9c0-3.2-1.8-6.8-5.1-6.8c-1.7-0.2-3.3,1.2-3.5,2.8c0,0.2,0,0.3,0,0.5
	c0,1.3,0.7,2.5,1.7,3.3c0.3,0.3,0.7,0.8,0.7,1.3c0,1-0.8,1.8-1.8,1.8c-0.3,0-0.7-0.2-1-0.3c-1.8-1.3-3-3.5-3-5.8
	c0-4,3.2-6.6,7.1-6.6c5.5,0,8.8,4.8,8.8,9.8c0,7.8-4.5,12.3-12.1,12.3c-7.1,0-11.9-4.8-11.9-11.6c0-3.8,1.8-7.5,4.8-10
	c0.3-0.3,0.8-0.5,1.3-0.5c0.8,0,1.7,0.7,1.7,1.5c0,0,0,0,0,0.2c0,0.5-0.3,1-0.7,1.3c-2,2-3.2,4.6-3.3,7.5
	C611.5,533.5,614,537.3,619.5,537.3L619.5,537.3z M643,529.3c0,0.8-0.7,1.7-1.5,1.7c-0.3,0-0.5,0-0.8-0.2c-0.8-0.7-1.3-1.3-2.7-1.3
	c-1,0-1.5,0.5-1.5,1.3c0,0.8,1,1.3,2.2,2.2c1.7,1,3.5,2.2,3.5,4.3c0,2.2-1.3,3.7-4,3.7c-1.7,0-3.8-0.5-3.8-2.5
	c0-0.8,0.5-1.5,1.3-1.7c0,0,0,0,0.2,0c0.8,0,1.3,1,2.3,1c0.5,0,0.7-0.2,0.7-0.5c0-0.5-1.2-1.2-2.5-2c-1.7-1-3.3-2-3.3-4.3
	c0-2.7,2.2-4.6,4.6-4.6c0.2,0,0.2,0,0.3,0c1.8,0,3.5,0.8,4.5,2.2C643,528.7,643,529,643,529.3L643,529.3z M654,538.6
	c-1,1.3-2.7,2.2-4.3,2.2c-3.3,0-5.1-2.7-5.1-6.3c0-4.6,2.8-8.3,6.8-8.3c1,0,1.8,0.3,2.5,1c0.3-0.7,0.8-1,1.7-1
	c0.8-0.2,1.7,0.5,1.7,1.3v0.2v9.1c0,0.5,0.2,0.7,0.3,0.7c0.2,0,0.5-0.2,0.7-0.3c0.7-0.5,1.3-0.3,1.8,0.3c0.2,0.3,0.3,0.7,0.3,0.8
	c0,0.5-0.3,1-0.7,1.3c-0.7,0.7-1.7,1-2.5,1C655.6,541,654.5,540,654,538.6L654,538.6z M648.2,534.5c0,2,1,3.2,2.2,3.2
	c2.2,0,3.5-2.5,3.5-4.6v-0.5c-0.2-1.8-1.2-2.8-2.3-2.8C649.3,529.5,648.2,531.8,648.2,534.5z M662,519.1c0-3.5,1.5-4.1,3.8-4.1h0.3
	c0.8,0,1.5,0.5,1.7,1.3c0,0.2,0,0.2,0,0.3c0.2,0.8-0.5,1.7-1.3,1.7c-0.2,0-0.2,0-0.3,0h-0.2c-0.3,0-0.7,0.2-0.7,0.7v9.6
	c1-1.5,2.7-2.3,4.5-2.2c1.8-0.2,3.5,1.2,3.7,3c0,0.2,0,0.3,0,0.5c0,2-1.7,4-4.1,4.8c0.8,0.2,1.5,0.8,1.8,1.5c0.5,0.7,1,1.3,1.3,1.3
	c0.5,0,0.8-0.7,1.3-0.7c0.8,0,1.5,0.7,1.5,1.5l0,0c-0.2,1.5-1.3,2.5-2.8,2.5l0,0c-1.5,0-2-0.3-3.5-2.3c-0.5-0.8-1.2-1.7-1.8-2.5
	c-0.5-0.3-0.7-1-0.7-1.5c0-0.7,0.3-1.2,1.2-1.5c2.2-1.2,2.5-1.8,2.5-2.5c0-0.5-0.3-0.8-1-0.8c-1.7,0-3.7,1.5-3.7,5v4.6
	c0,0.8-0.7,1.7-1.7,1.7h-0.2c-0.8,0-1.7-0.7-1.7-1.5c0,0,0,0,0-0.2V519.1z M685.8,538.6c-1,1.3-2.7,2.2-4.3,2.2
	c-3.3,0-5.1-2.7-5.1-6.3c0-4.6,2.8-8.3,6.8-8.3c1,0,1.8,0.3,2.5,1c0.3-0.7,1-1,1.7-1c0.8-0.2,1.7,0.5,1.7,1.3v0.2v9.1
	c0,0.5,0.2,0.7,0.3,0.7c0.2,0,0.5-0.2,0.7-0.3c0.7-0.5,1.3-0.3,1.8,0.3c0.2,0.3,0.3,0.5,0.2,0.8c0,0.5-0.3,1-0.7,1.3
	c-0.7,0.7-1.7,1-2.5,1C687.5,540.8,686.2,540,685.8,538.6L685.8,538.6z M679.9,534.5c0,2,1,3.2,2.2,3.2c2.2,0,3.5-2.5,3.5-4.6v-0.5
	c-0.2-1.8-1.2-2.8-2.3-2.8C681,529.5,679.9,531.8,679.9,534.5z M758.7,464.6c0,0-0.2-0.5-0.8-1.8c-0.3-1-1-1.8-1.7-2.7
	c-0.5-0.7-1.3-1.2-2.3-1c-0.8,0.2-1.3,1-1.3,1.8l0,0c0.2,1,0.7,1.8,1.3,2.5c0.5,0.3,2.8,2.3,2.8,2.3c-1.3,0.2-2.5,0.3-3.8,0.3
	c-2,0.2-2.8,3.2-2.3,4c0.8,0.8,2.3,1.2,3.5,0.7c1.2-0.5,3.7-3.3,3.7-3.3c0,1-0.3,2-0.7,3c-1.3,3.3,1.2,4.1,1.3,4.1
	c0.3,0.2,0.7,0.2,1.2,0.2c1.3-0.5,2-2,1.7-3.3s-1.3-4.1-1.3-4.1c1,1,2.2,2,3.3,2.7c0.8,0.3,1.8,0.2,2.7-0.3c0.5-0.3,1.2-0.8,1-1.5
	c-0.3-0.7,0-1.5-1.2-2.2c-1.2-0.7-2.8-0.5-5.5-0.2c4.3-2.7,4-5.1,3.5-5.8s-1-0.5-1.5-0.3c-0.5,0.2-0.8-0.2-1.3,0.2
	c-1.3,1.2-2.2,2.8-2.2,4.5L758.7,464.6z M780.3,444.2c0,0-0.8-0.5-3.2-2c-1.7-1.2-3.5-2-5.5-2.7c-1.7-0.5-3.3-0.2-4.6,0.8
	c-1.3,1-1,3,0,4.1c1.3,1.3,3,2.2,4.8,2.3c1.2,0,7,0.5,7,0.5c-1.7,1.7-3.7,3.3-5.5,4.6c-3,2.3-1.2,8,0.7,8.6c1.8,0.7,4.6-0.5,6-2.7
	c1.3-2.2,2.2-9.1,2.2-9.1c1,1.7,1.7,3.5,2.2,5.5c1.5,6.5,6.1,5.3,6.5,5.1c0.7-0.2,1.3-0.5,1.8-1c1.5-2.2,1-5.1-1-7
	c-2-1.8-6.6-5.1-6.6-5.1s6.3,1.2,8.1,0.7s3.2-2.3,3.8-3.3c0.7-1,1.2-2.5-0.2-3.3c-1.2-0.8-1.7-2.3-4.1-2c-2.5,0.3-4.8,2.2-8.6,5.6
	c3.8-8.8,0.8-12.4-0.8-12.9c-1.7-0.5-2,0.2-2.8,1s-1.5,0.7-1.8,1.5c-1.8,4.6,1.3,9.3,1.3,9.3L780.3,444.2z M83.4,371.1
	c1.2-1.2,1.2-3.2,0-4.3l0,0l-7.3-7.1c-1.3-1-3.2-0.8-4.3,0.3c-1,1.2-1,2.8,0,4l7.3,7.1C80.2,372.2,82.2,372.4,83.4,371.1L83.4,371.1
	L83.4,371.1z M68.8,393c0.2-1.7-1.2-3.2-2.8-3.3l0,0l-7.1-0.3c-1.7-0.2-3.2,1.2-3.3,2.8c-0.2,1.7,1.2,3.2,2.8,3.3h0.2l7.1,0.3h0.2
	C67.5,395.8,68.8,394.4,68.8,393z M74.1,381c0.7-1.5-0.2-3.3-1.7-4l0,0l-11.1-4.3c-1.7-0.5-3.3,0.3-3.8,2c-0.5,1.5,0.3,3,1.7,3.7
	l11.1,4.3c0.3,0.2,0.7,0.2,1.2,0.2C72.6,383,73.6,382.2,74.1,381z M623,381.7c17.3,0,29.4,19.9,24.1,48.8
	c-6,32.9-24.2,48.6-44.6,48.6c-20.4,0-35.3-15.9-28.5-48.6C580.7,397.8,598.9,381.7,623,381.7L623,381.7z M602.9,401.7
	c-1.3,0-2.3,1.5-2.3,3.5c0,1.8,1,3.5,2.3,3.5c1.3,0,2.3-1.5,2.3-3.5C605,403.2,604.2,401.7,602.9,401.7L602.9,401.7z M616.7,401.7
	c-1.3,0-2.3,1.5-2.3,3.5c0,1.8,1.2,3.5,2.3,3.5c1.2,0,2.3-1.5,2.3-3.5C619,403.2,618,401.7,616.7,401.7L616.7,401.7z M625.9,415
	c0.3-0.8,0-1.7-0.7-2c-0.8-0.3-1.7,0-2,0.7c-4.8,9.5-10.3,14.6-15.8,14.1c-4.6-0.3-9.1-4.8-11.3-11.6c-0.3-0.8-1.2-1.2-2-1
	c-0.8,0.3-1.2,1.2-1,2c2.7,8,8,13.3,13.9,13.8h0.8C613,430.8,619.6,428,625.9,415L625.9,415z"/>
<g>
	<path class="st3" d="M969.6,187.7c0,0-13.6,12.6-13.6,19.6s5.3,14.4,20.9,10.5c15.6-4,18.9-9.1,19.1-12.8c0,0-10-1.3-7-11.6
		L969.6,187.7z"/>
	<g>
		<path class="st4" d="M1079.7,497.5c-14.3,54.3-70.2,106.2-133.7,121.1c-54.6,12.9-115.3-29.2-114.5-55.1
			c1-29.2,37.7-27.5,55.9,3.3c28.2,47.3,124.4,14.3,160.4-51.8L1079.7,497.5z"/>
	</g>
	<path class="st5" d="M938.9,199.5c-27.9,10.5-50.4,28.7-63.7,52.6c-5.5,9.8-7.8,17.8-8.3,24.1c0,0-18.7,5.1-21.9,20.6
		c-3.2,15.4,16.1,12.3,19.9,9.5c3.8-2.8,11.9-11.1,11.9-11.1c7.5,2.2,19.9-1.3,19.9-1.3s14.3-6.3,20.9-7.1
		c6.6-0.7,19.2-0.3,19.2-0.3s12.3-6,21.6-11.1c9.5-5.3,12.3-9.5,12.3-9.5s4.1,11.9-0.3,18.4c-5.6,8-13.3,9.1-13.3,9.1l13.9,15.8
		l12.9-24.7l12.9,7.6c0,0-6,26.9-9.5,31.2c-3.5,4.3,0,0,0,0l3.8,4.1c0,0-15.8,27.2-20.2,28.2c-4.5,1,0,0,0,0l2.8,26.2
		c0,0,11.4,5.3,10.8,19.2c-0.7,13.9-7.3,20.9-7.3,20.9s-3.8,6.3-6.6,14.6c-2.8,8.3-13.3,8.8-16.1,8c-2.8-0.8-8.3-2.8-10.8-11.4
		l-10.1-3.2c3.8,25.1,1.3,55.6,1.3,55.6c7.8,0,14.9,0.5,20.1,1.8c-3.7,20.9-19.6,51.6,4.6,56.6c13.1,2.7,30.7-6,30.7-6
		c23.2-0.8,57.4-5.3,88.4-27.5c31.4-22.6,45.5-68.2,49.1-114.5c0,0-11.1-0.2-37.2-3.2c-26.2-3-42.5-11.4-42.5-11.4l-11.3-26.4h-1.3
		l-0.3,1.8l-2,1.5l-12.8-3l-0.8-1.8l3.7-16.8l1.3-2.3c4.5-0.5,14.4,3.3,14.4,3.3l-0.2,2.5l1.5-0.2l14.9-9.8l71.7,7.3
		c-2-20.9-6-39.7-10.8-53.4c-16.8-47.5-51.1-82.8-96.4-91.9c0,0-18.1,11.4-22.1,11.4l-3.2-0.3c0,0,4.6,12.6-21.6,15.4
		c-13.3,1.3-17.8-4.5-18.9-9.1c0,0-2.8,5.3-8.8-0.7C940,202.8,938.9,199.5,938.9,199.5z"/>
	<polygon class="st6" points="926.9,271 906.7,287.1 939.4,287.6 957.5,277.6 	"/>
	<polygon class="st6" points="974.1,275.5 958.3,291.6 969.7,307.7 981.9,283.4 	"/>
	<path class="st5" d="M815.1,445.5c1.3,22.2,19.4,61.7,43.5,74.2c21.7,11.3,33.8-10.6,31.5-19.4c-0.2-0.8-1.7-5.5-2-6.5
		c8.5-5.1,18.4-7.8,32.5-8.1c0,0,6.5-29,1.5-53.1c0,0-10.5,2.5-17.8-1.3c0,0-21.6,6.6-28.2,19.9l-3.2,9.1c0,0-10.8,13.4-27.2-4.8
		c-12.3-13.6-21.9-14.3-23.1-31.7C822.7,423.3,814.6,430.3,815.1,445.5z"/>
	<path class="st6" d="M1046.7,314.8c0,0-37.7-19.2-73.3,47.1l-2.5-6.6c0,0,6.3-5.1,12.3-15.4c6-10.1,5.6-19.9,5.6-19.9l8.1-28.4
		C997,291.7,1034.8,298.9,1046.7,314.8z"/>
	<g>
		<path class="st4" d="M867,273.2c-33.5,5-34.8-10.5-27.2-11.1c7.6-0.7,29-9.8,40.3-18.4L867,273.2z"/>
	</g>
	<g>
		<path class="st4" d="M1066.3,214.3c-15.1-1.2-3.3,10,1.7,14.3c5,4.1,41,36.8,74.3,26.7c33.4-10,43.5-37.7,36.8-39.3
			C1172.5,214.3,1097.3,216.9,1066.3,214.3z"/>
	</g>
	<g>
		<path class="st5" d="M1079.9,281c0,0-60.6-58.9-103.2-19.1c-10.5,9.8,14.3,30.5,41,35.7c26.9,5,42.6,26.5,42.6,26.5L1079.9,281z"
			/>
	</g>
	<path class="st7" d="M1064.6,211.6c0,0,13.6-28.9,0-34.8c-17.3-7.8-8.3-26.7,3-21.9c11.3,4.8,24.9,26.9,7.5,59.7L1064.6,211.6z"/>
	<path class="st7" d="M956,155.7c0.3-0.8-0.2-1.7-1-2c-2.3-0.5-7-1.7-11.4-1.8c-11.1-0.5-16.6-2.3-19.2-3.7c-1-0.5-1.8,0.3-1.7,1.5
		c1,5.3,7.1,15.1,17.3,15.9C953.1,166.8,954.6,159.3,956,155.7z"/>
	<g>
		<path class="st8" d="M1025.3,191l37.3,16.6c0,0-1.7-7.1-5.8-16.8c-4.1-9.6-12.9-23.1-19.2-29.2c-11.6-11.3-22.2-16.1-28-18.6
			c-17.6-7-43.3-6.3-63.9,13.6c-6.6,6.5-12.1,18.1-12.6,24.7c-1,12.3,8.3,18.4,18.9,15.9c6.8-1.5,11.4-3.5,17.6-9.8
			c0,0,8.1,5.1,23.1,2.3c0,0-9,13.8,2.5,13.3s15.3-6.6,18.9-8.5C1017.7,192.9,1025.3,191,1025.3,191z"/>
	</g>
	<path class="st9" d="M1062.7,402.4c-0.2-0.8,0.3-1.5,1-1.7c2.2-0.3,6.5-0.8,10.6-0.5c10,0.7,15.6,1.5,18.1,0.5
		c0.8-0.3,1.7,0.5,1.5,1.5c-1.3,4.8-8.5,11-17.6,10.8C1064.1,412.9,1063.5,405.9,1062.7,402.4z"/>
	<path class="st8" d="M1083.4,419.2c0,0,1-2.3,9.6-0.8c3.8,0.7,7.1,1.3,8.5,4c1.7,3.2-0.7,7.3-3.2,8c-5.8,1.5-11.1,0-15.8,1.2
		c-0.5,0.2-1-0.5-0.7-1C1082.9,428.6,1084.2,425.1,1083.4,419.2z"/>
	<g>
		<path class="st8" d="M1017.5,438.1c0,0,17.8,9.8,18.6,23.9c0.3,6.3-8.3,9.3-16.4,0.2c-5-5.6-13.6-8.1-14.8-7.6l-1.2-1.3
			c0,0-2.7-9-7-16.1c-1-1.5-3.2-4.6-2.8-6.3c3-15.4,19.7-28.4,24.6-31.9c14.1-10,42.3-12.9,57.4,3.7c4.3,4.6,8.3,15.4,6.8,22.4
			c-3.3,16.1-18.6,26.5-58.9,16.8"/>
	</g>
	<path class="st8" d="M862.1,304.7l5.3,7.6l5.5-0.5l8.1-10.5l-5.8-8.8C875,292.4,869,300.4,862.1,304.7z"/>
	<path class="st10" d="M934.2,424.3c0,0,12.3,106.9-36,116.6c-12.9,2.7-24.4-18.1,2.5-23.4c23.6-4.6,25.7-81.5,18.7-93.4
		C922.6,423.5,929.3,422,934.2,424.3z"/>
	<path class="st8" d="M936.2,194c0,0,7.5,18.6,16.6,16.3c9.1-2.3,2.3-12.8,2.3-12.8S942.9,200.8,936.2,194z"/>
	<g>
		<path class="st8" d="M974.6,384.3c0,0,0.2-19.4-3.5-29c0,0,12.4-14.4,18.9-28.5c0.5-1.2-2.8-4.5-2.3-5.6c5-12.4,8.5-20.2,8.6-29.2
			l-13.8-8.5l-11.9,22.2l-1,0.7c-14.9-27-57.9-21.6-76.2-12.3c-29,14.8-39.7,54.9-13.6,63.9c0,0,1.3,0.3,3.3,0.7l-0.3,0.2
			c0,0,1.3,11.3,0,24.2c-0.8,7.8-2.8,16.1-6.6,22.7c0,0-9,0.3-14.3,4.8c-3.7,3.3-4.3,6.3-6.1,11.1c-4.8-4.1-9.6-6.8-12.1-7.6
			c-8-2.8-27,4.1-16.6,21.9c5.5,9.1,12.4,10.6,22.7,21.9c10.6,11.6,23.4,4,24.6-5.5l0.2,0.2c0,0,28.2-39.3,69.7-20.2
			c0,0-0.8,8,10.5,10.3l9.1-0.5l5.5-5.5l13.1-26.2l1.5-12.3C983.7,391.1,978.2,384,974.6,384.3z"/>
	</g>
	<path class="st5" d="M824.2,427c0,0,7-16.8,25.9,1.5c18.9,18.3,22.4,27.2,16.9,32.5c-5.6,5.3-9.6,6.1-23.7-9
		C829.2,436.8,820.9,437.6,824.2,427z"/>
	<path class="st5" d="M976.5,387.5c-8-0.5-11,5.3-16.3,19.7c-5.3,14.4-12.3,15.3-13.8,25.7s11.9,14.8,17.4,9.3
		c5.5-5.5,10-10.3,15.1-19.4C984,413.5,988.7,388.1,976.5,387.5z"/>
	<path class="st5" d="M877.5,447.7c0,0,15.6-25.9,38-25.9s28.7,10.5,28.7,10.5s-31.4-14.8-65.2,12.3L877.5,447.7z"/>
	<path class="st5" d="M866.4,344.8c0,0,9.1,13.1,44.5,2.3c29-9,46.3-23.7,53.1-32.2c6.5-8,0,0,0,0s-14.3,25.4-37.3,34.7
		C894.4,362.6,875.5,363.4,866.4,344.8z"/>
	<path class="st5" d="M1015.5,436.8c0,0,24.9,14.8,46.1,9.1c21.2-5.6,21.6-17.3,21.6-17.3S1071.8,449,1015.5,436.8z"/>
	<path class="st9" d="M1029.8,575.5c0,0,9.5,15.1,34.7,12.8c17.6-1.7,15.4-17.6,1.2-14.3c-16.3,4-28.5-6.3-28.5-6.3L1029.8,575.5z"
		/>
	<path class="st9" d="M1023.8,404.9c0-0.8-0.8-1.3-1.5-1.2c-2.3,0.5-7,1.5-11.4,3.3c-10.5,4.1-18.6,4.8-21.6,4.8c-1,0-1.7,1.2-1.2,2
		c2.7,4.1,11.8,12.6,21.4,9.1C1022.7,418.2,1024,408.5,1023.8,404.9z"/>
	<path class="st7" d="M1008.6,151.5c-0.5-0.7-0.3-1.7,0.5-2.2c2.3-1.2,7.1-3.7,11.9-5.1c11.8-3.8,19.2-9,21.7-11
		c0.8-0.7,2.2-0.2,2.3,0.8c0.7,5.5-1.3,18.9-11.9,22.7C1018.9,161.8,1011.1,154.7,1008.6,151.5z"/>
	<path class="st11" d="M1006.7,177.9c0.2-0.7-0.2-1-0.3-1.7c-0.5-2.5-3-4-5.5-3.5c-2.5,0.5-4,3-3.5,5.5c0.3,1.2,1,2.2,2,2.8
		C999.4,181.1,1002.6,179.2,1006.7,177.9z"/>
	<path class="st11" d="M944.4,189c2.5-0.5,4-3,3.5-5.5c-0.5-2.5-3-4-5.5-3.5c-2.5,0.5-4,3-3.5,5.5
		C939.4,188.2,941.9,189.7,944.4,189z"/>
	<path class="st11" d="M1038.1,427c2.3,0.2,4.3-1.7,4.3-3.8c0-2.2-1.7-4.3-3.8-4.3c-2.3-0.2-4.3,1.7-4.3,3.8
		C1034.1,424.8,1035.8,426.8,1038.1,427z"/>
	<path class="st11" d="M1075.1,422c1.2,1.3,3.2,1.5,4.5,0.3c1.3-1.2,1.5-3.2,0.3-4.5c-1.2-1.3-3.2-1.5-4.5-0.3
		C1074.1,418.7,1073.9,420.7,1075.1,422z"/>
	<path class="st11" d="M945.3,317c2.7,0,4.6-2.2,4.6-4.6s-2.2-4.6-4.6-4.6c-2.7,0-4.6,2.2-4.6,4.6S942.7,317,945.3,317z"/>
	<path class="st11" d="M882.3,333.1c0-2.7-2.2-4.6-4.6-4.6c-2.7,0-4.6,2.2-4.6,4.6s2.2,4.6,4.6,4.6
		C880.3,337.9,882.3,335.7,882.3,333.1z"/>
	<path class="st8" d="M989.5,322.4"/>
	<path class="st10" d="M873.2,312.1c-3.7,0.7-9,1.8-15.4,4c-7.1,2.3-12.9,3-12.9,3s6.5,13.6,21.9,10L873.2,312.1z"/>
	<path class="st10" d="M935.6,289.4c-0.7-0.7-0.5-1.7,0.2-2.2c2.3-1.5,7.3-4.6,12.4-7c12.4-5.6,18.1-9.8,20.6-12.3
		c0.8-0.8,2.3-0.5,2.7,0.5c1.3,5.5,2.7,17.3-8.5,22.7C948,298.5,938.7,292.2,935.6,289.4z"/>
	<path class="st12" d="M904.7,327.1c0,0-1,1.7-2.3,3.5c-1.3,1.8-3.3,3.3-3.3,3.3s7.3,8.1,18.3-6
		C917.3,328.1,910.3,328.2,904.7,327.1z"/>
	<path class="st13" d="M977.2,196.3c1-2-4-3-4-3S976.4,198.2,977.2,196.3z"/>
	<path class="st13" d="M965.6,199.3c2.7,1.2,4.1-5.5,4.1-5.5S963.1,198,965.6,199.3z"/>
	<path class="st13" d="M973.4,200.5c4-1-2.3-6.5-2.3-6.5S969.4,201.5,973.4,200.5z"/>
	<path class="st14" d="M882,358.4c0,0,8.1,2,21.9,0.7c0,0,5.1,3.3,14.6-0.3c9.5-3.7,12.4-11.4,12.4-11.4s12.3-7.3,18.3-12.8
		c6.8-6.1,12.8-13.1,15.3-18.9c0,0,10.1-4,22.7,6.5l3.7,4.5c0,0-8.1,16.9-18.6,28c0,0,2.7,20.6,1.7,26.5c0,0-3.5,0.5-13.1,4
		c-3.2,1.2-3.7,6.6-6.6,8.8c-4.3,3.3-13.6,8-16.3,11c-2,2.2-8,12.9-4.3,23.9c0.7,2-21.2,5.8-26.5,2.2c-5.1-3.7-6.5-13.9-14.6-20.4
		c-3-2.5-5.8-4-8.3-5c-5.3-2-8.8-1.3-8.8-1.3S880.8,392.5,882,358.4z"/>
	<g>
		<path class="st15" d="M973.2,382.8c-0.2-0.2-0.3-0.3-0.7-0.5C972.7,382.3,972.9,382.5,973.2,382.8z"/>
		<path class="st16" d="M930.4,410.4c5.3-17.8,21.9-24.2,25.4-34c4.3-11.8-1.5-33.2-1.5-33.2c15.9,6.8,31-21.2,31-21.2l5,3.7
			c-0.2,5.3-18.6,28-18.6,28l2.8,29.4c-13.4-1.5-19.6,10.6-19.6,10.6s-10.6,3.5-16.3,10c-3.3,3.7-9,11.4-5.3,25.4c0,0-20.1,8-29,1.8
			l-6.6-13.4c0,0,5.6,10,17.9,7.6C926.1,423.3,928.3,417.5,930.4,410.4z"/>
	</g>
	<path class="st9" d="M1000.9,536.8c0,0,4.8,9.5,12.9,19.7l9.1-7.6l-8.3-12.1H1000.9z"/>
	<polygon class="st17" points="1025,334.4 1032.8,336.2 1027.5,356.9 1020.8,355.1 1019.8,353.5 	"/>
	<path class="st17" d="M1054.5,348.3l2.2,0.2l6.3,11.8c0,0,0.7,8.6-4,8.3c-4.6-0.3-4.1-10.8-4.1-10.8L1054.5,348.3z"/>
	<polygon class="st18" points="1032.8,336.2 1027.5,356.9 1032.8,358.8 1035.4,356.4 1039.4,337.7 	"/>
	<path class="st18" d="M1052,345.2l-2.2,17.6c0,0,3.3,7,7.5,5.6c0,0-5.5-14.4-2.3-19.9s0,0,0,0s31,7.8,48,7.8s36.5-1.2,36.5-1.2
		l-2.7-5c0,0-16.4,2.5-34.2,1s-49.4-7.5-49.4-7.5L1052,345.2z"/>
	<g>
		<g>
			<g>
				
					<ellipse transform="matrix(0.9981 -6.082928e-02 6.082928e-02 0.9981 -22.1015 56.208)" class="st19" cx="912.1" cy="391.1" rx="18.4" ry="16.4"/>
			</g>
			<polygon class="st20" points="916.3,399.6 915.8,400.4 916.5,401.1 917.1,400.3 			"/>
			<polygon class="st20" points="918.5,400.9 917.8,402.1 918.6,402.7 919.5,401.9 			"/>
			<polygon class="st20" points="925.1,389.1 924.4,390.3 925.3,391 926.3,390.1 			"/>
			<polygon class="st20" points="898.2,393 897.6,393.9 898.4,394.8 899.2,393.8 			"/>
			<path class="st21" d="M893.3,389c0,0,1.8,2.2,4.1,0.2c3.2-2.7,6.3,10.1,10.6,8.8c3.2-0.8,2.2-9.8,4.1-10.1c3.5-0.3,1.5,9.6,6,9.3
				c4-0.3,4.8-9.5,7.3-10c1.8-0.3,4,0.8,4.5-2.3c0.5-3-5.3-13.1-19.2-11.6C897.4,374.7,891.8,386.5,893.3,389z"/>
			<path class="st22" d="M902.7,384.3c0,0,2.8,9.1,5.1,9.3c2.7,0.2,0.3-11.9,4.1-11.9c3.8,0.2,4.5,11.6,6.5,11.3
				c1.8-0.5,1.8-11.6,5.1-11.1c0,0,2.8,1.2,3.3-0.2c0.5-1.3-4.5-3.2-5.5-2.7c-1,0.3-2.3,9.8-3.5,8c-1.3-2.3-3.7-9.1-6.8-8.5
				c-2.2,0.5-3.7,7.3-4.1,9.8c-0.3,2.7-2-2.3-3.5-6c-0.8-2-4.8-1.3-4.6,0.2C899.1,383.8,901.7,381.8,902.7,384.3z"/>
			<polygon class="st23" points="920.3,375.4 918,377.9 920.1,379 			"/>
			<polygon class="st23" points="907.5,376.5 906.7,378.5 909.5,377.9 			"/>
			<polygon class="st23" points="899.2,385.2 898.2,387.1 901,386.5 			"/>
			<polygon class="st23" points="912.8,379.7 912,381.7 914.7,381 			"/>
			<polygon class="st23" points="911.2,372.4 910.7,373.9 914.2,375 914.7,372.9 			"/>
			<polygon class="st23" points="923.1,378.5 923,379.2 924.4,379.7 924.6,378.8 			"/>
			<polygon class="st23" points="899.6,377 901,378.2 903.2,376.5 900.7,375.9 			"/>
		</g>
		<g>
			<path class="st24" d="M915.5,375.7l6.5-8.3l0.7-0.3l0.7-1.3l0.7-0.8c0,0,1.8-0.3,2,1.3l-0.8,1l-1.2,0.8l-0.2,1l-6.1,7.6
				C917.5,376.9,914.8,377.9,915.5,375.7z"/>
			<path class="st25" d="M923.9,365.1c0.3-0.3,0.8-0.5,1.3,0c0.5,0.3,0.8,1.2,0.7,1.5s-1,0.3-1.5,0
				C923.9,365.9,923.6,365.4,923.9,365.1z"/>
			<path class="st25" d="M922.6,367.1c0,0,0,0.8,1.2,1l-0.2,1c0,0-1.5,0.2-1.7-1.7L922.6,367.1z"/>
		</g>
	</g>
	<g>
		<path class="st21" d="M1179.6,213.3c-1.8-0.5-6.1-1.5-22.1-0.8c-9.6,0.5-19.1,1.7-35.5,1.8c-11.1,0.2-29.4-1-43.5-2
			c8.8-20.1,7.6-33.4,4.8-41.5c-4-11.1-11.9-15.6-15.1-16.9c-5.6-2.5-11.3-0.5-13.9,4.6c-2.8,5.8-1,14.6,9.6,20.4
			c2.7,1.5,4.3,3.7,5.1,6.6c1.8,6.5-0.8,15.1-3.5,21.7c-0.2-0.2-0.3-0.3-0.5-0.3c-0.5-1.8-2.3-8.3-5.8-16.6
			c-4.1-9.8-13.3-23.6-19.7-29.9c-0.7-0.7-1.3-1.3-3.2-3.3c9.6-5,11.6-16.9,11-22.7c-0.2-1.3,0.5-4.5-0.7-5s-4.1,1.7-5.1,2.7
			c-1.3,1-6.6,6.5-20.9,11.8c-0.8,0.3-1.5,0.5-2.3,0.8c-5.3-2.2-6.6-2.8-7.6-3.2c-16.4-6.5-40.5-7-61.1,9.6
			c-1.8-0.3-3.8-0.5-5.8-0.7c-11.1-0.5-16.3-2.3-18.4-3.5c-1.2-0.5-3.3-2-4.3-1.3c-1,0.8-0.5,3.7-0.3,5c0.8,5.1,6.3,13.1,15.9,15.4
			c-3.2,5.6-5.3,11.8-5.6,15.8c-0.5,5.8,1.2,10.8,4.6,14.3l-2.3,1.2c-22.1,9.6-40.7,24.9-54.4,45.1c-11,7.6-26,12.8-32,14.8
			c-2,0.7-6.3,1.2-10.5,2.2c-2.5,0.5-4.6,1.7-5.3,3.5c-1,2.7,3.5,8.8,5.5,10.5c5,4.1,7.3,3.8,13.3,5c1.8,0.2,3.7,0.3,5.5,0.3
			c-1.7,1.3-3.2,3-5,4.8c-5,5.1-7.1,8.6-6.5,15.3c0.5,5.5,4.5,12.4,12.6,12.4c2.2,0,4.1-0.3,6.1-1.2l2.2,3l-5.3,1.7
			c-6.8,2.3-14.6,1.7-14.6,1.7c-0.8,0-1.5,0.5-1.8,1.2c-0.3,0.7-0.3,1.5,0,2.2c2.2,4.5,10.3,10.5,20.6,10.6
			c-0.7,2.8-0.8,5.8-0.7,8.6c0.7,10.6,5.8,16.8,15.8,20.2c0.5,0.2,1,0.3,1.7,0.5c2,12.3-4.1,34.2-6.6,42.5c-0.5,0.7-1,1.3-1.5,2
			c-0.2,0.2-1.2,0.5-2,0.7c-3.2,0.8-8.3,2.2-13.6,8.8c-1.2,1.5-2.2,3.3-2.8,5.3c-4-3.3-7.5-5.6-9.3-6.5c-5.5-2-16.4-2-21.2,3.8
			c-0.8,1-1.7,2.8-2,5.1l0,0c-7.3,5.5-9.8,16.9-9.3,27.5c1.3,23.7,25.6,65.9,44,73.7c6.1,2.7,16.6,4.8,26.9-2
			c8.6-5.8,10.5-18.9,9.3-23.9c4.3-2.7,13.1-6.8,25.9-8.5c-3.7,14.4-9.6,26.4-18.6,27.5c-22.1,3.2-17.4,18.6-16.3,21.2
			c2,4.1,5.5,6.8,9.6,7.5c2,0.3,5.1-0.2,7.3-0.7c24.2-5,33.4-30.4,36.3-55.9c5,0.3,10.1,1.2,15.9,2.3c-0.8,5-2.2,10.5-3,14.1
			c-3,12.6-8.5,25.6-1.7,34.2c2.3,3,6,5.6,13.1,7.1c9.6,1.2,17.8-1.3,24.1-5.1c4.6,0,11.8-0.2,15.1-0.2c1.8,3.3,5.5,9.5,10.6,16.3
			c-22.4,18.6-50.3,30-76.5,30.5c-13.8,0.3-32.7-0.8-43-18.1c-12.6-21.1-30.9-31.5-44.1-28c-10.5,2.7-16.8,11.3-17.1,23.7
			c-0.3,10.3,6.3,20.9,20.1,32.4c18.3,14.9,46.8,25.7,76.2,25.7c7.3,0,14.6-0.2,21.7-1.8c29.9-7.1,57.9-21.7,80.6-41
			c4.8,4.8,14.1,11.4,30.9,12.6c1.8,0,3.7-0.2,5.6-0.3c10-1,12.8-7,13.6-9.1c1-2.7,0.7-5.5-1.2-7.6c-2.5-2.8-6.8-3.8-12.1-2.7
			c-11.3,2.7-20.6-1.8-24.6-4.3c15.4-15.6,27.5-33.4,35.5-52.3c2-1.3,4.1-2.7,6.1-4c35.3-24.4,45.6-74.8,49.4-115
			c10.5-5.5,13.3-12.9,12.9-20.7c-1-19.6-5.3-22.6-5.3-22.6l-9.1-16.6h-0.2c-2.3-20.2-6.5-41-12.8-56.4c-3.8-9.5-7.3-16.9-11.8-24.6
			c10.8,3.5,19.7,4.1,26.2,4.1c5,0,9.8-0.7,14.4-2c29.4-8.8,38.3-28.7,38.2-37.8C1184.3,216.6,1182.5,213.9,1179.6,213.3z
			 M1073.3,184.6c-1.2-4.1-4.1-7-8-9.1c-8.1-4.5-9.3-12.1-7.5-16.1c1.2-2.3,5.6-4.1,9.8-2.3c2.7,1.2,9.5,5,12.8,14.4
			c2.7,7.3,3.5,21.4-5,40.7c-1.8-0.2-3.7-0.3-5.1-0.3c-0.7-0.7-1.5-1.3-2.2-2C1071.5,202.6,1075.4,192.5,1073.3,184.6z
			 M1021.8,146.7c11.1-3.5,19.4-10.5,22.4-12.8c0.2,5.6-3.3,18.4-11.6,21.2c-11.9,4.1-18.7-0.8-21.6-4
			C1013.5,150,1017.7,148.1,1021.8,146.7z M923.9,150.2c3.3,1.3,10.1,3.8,19.6,4.3c0.7,0,1.2,0,1.8,0.2c-0.3,0.3-0.7,0.7-1.2,1
			c-2.3,2.3-4.5,5.1-6.5,8.1C930.7,162,925.3,154.5,923.9,150.2z M1000.9,180.1c-3.5,1.8-7.1,4.6-10.1,8.5c-12.4,2-19.2-2-19.6-2.3
			c-1-0.5-2.2-0.5-2.8,0.3c-5.8,6-10.1,7.8-16.4,9.1c-4.8,1-9.3,0.2-12.3-2.3c-2.8-2.5-5.3-6.8-5-11.6c0.5-5.8,5.6-17.1,11.9-23.2
			c19.4-19.1,44.8-21.6,67.2-12.6c-2.2,0.7-4.1,1.3-5.3,2c-1,0.5-1.7,1.3-1.8,2.5c-0.2,1,0,2.2,0.7,3c2.2,2.8,7.6,6.1,16.9,6.1
			c2.3,0,4.8,0,7.6-0.7c2.7,2.8,3.7,3.8,4.8,4.8c6,6,16.6,20.6,20.6,29.9c1.5,3.5,3,7.3,4.1,10.3c-6.8-4.8-13.6-8.1-22.9-11.6
			l-5-2.2c0.2,0,0.2-0.2,0.2-0.2c-0.2-1.3-6-1.5-7.1-1.3c-7.1,0.8-13.9,4.8-20.6,9.5c-13.8,9.6-14.6,0-14.1-1.3
			c7.6-19.4,33.8-18.3,33.7-19.6c-0.2-1.3-10.5-1.3-11.6-1.2c-0.3,0-2.5,0.3-5.5,1.2L1000.9,180.1z M952.7,208.8
			c-4,1-8.3-4.1-11.1-9.1c0.7,0.2,1.5,0.5,2.3,0.5c0.2,0,0.3,0,0.5,0c0.5,0,0.8,0.2,1.3,0.2c0.3,0,0.7,0,1,0.2
			c3.8,0.3,7.5-0.2,9.1-0.5c0.3,0.5,0.5,1.2,0.5,1.8c-0.8,1.8-1.5,3.8-1.7,6C953.8,208.4,953.3,208.6,952.7,208.8z M957.6,198.5
			c0.3-0.2,0.7-0.3,1-0.5c-0.3,0.3-0.7,0.8-0.8,1.2C957.8,199,957.6,198.8,957.6,198.5z M961.3,198.2l9.1-8.6c8,1,13.3,2.8,16.9,5
			c0,0.2-0.2,0.2-0.2,0.3c-1.3,3.2-0.5,6.5,2.2,8.6c1.3,1,3,1.8,5,2.2c-0.2,0.5-0.2,1-0.3,1.3c-1,2.7-3.7,5.6-8,7.5
			c-7.8,3.2-18.9,4-24.4,1.5c-2.2-1-3.8-3.2-4.3-5C955.8,205.8,960.6,199,961.3,198.2z M836.5,264.2c8.3-0.8,25.2-4.3,36.8-12.8
			c-3.2,5.6-5.5,11.1-7,16.1c-0.3,1.2-0.7,2.2-0.8,3C837.8,278,836.2,264.2,836.5,264.2z M848.3,298.4c-0.8-4.3,2.2-8.6,3.8-10.8
			c5-5.8,12.3-9.5,16.4-9.5c0.7,0,1.2,0.2,1.5,0.2c2.3,0.8,4,3.3,4.6,6.5c0.8,3.7,0,7.6-2.2,11.1c-1.8,2.2-4.6,5.1-8,7.6
			c-2.7,1.5-5.3,2.3-7.8,2.3C853.6,305.8,849.4,304.5,848.3,298.4z M974.2,277.1c1,2.8,2.7,5.5,5.5,8.1c-3.2,8.1-6.3,14.6-9.5,20.1
			c-2.2-3.7-5.5-8.5-9.6-11.9c0.7-0.2,1.2-0.5,1.8-0.8C970.2,288.9,973.4,282.8,974.2,277.1z M970.7,353.3l-4.3-0.8l4.3,4.8
			c1.3,8.5,1.3,13.4,2,21.6c-6.8-0.5-15.1,5.3-17.6,9.6l-0.2,0.2c-0.7,1.2-1.2,2.2-1.3,3.5c-0.2,0.2-0.5,0.3-0.7,0.5
			c-2,0.7-5.1,2.2-8.5,4.5c-2.2,1.3-4.5,3.2-6.8,5.8c-2.5,2.8-9.3,13.8-6.1,25.2c-3.8,1.7-17.9,4-22.4,2.8c-2.8-0.7-4.3-2.7-5.8-5.8
			c-2-4.3-4.3-10.1-9.1-13.9c-8.8-7.1-13.4-7.8-15.4-7.5c2.2-4,3.8-9.1,5.1-16.4c1.8-10.1,1.8-25.1,1.7-26.9c3.3,0.5,9,0.5,18.1-0.3
			c1.7,0.8,7.1,3.3,15.6,0.2c8.6-3.3,14.4-11.3,15.3-13.3c2.3-1.5,8.5-5.1,13.9-10.1c7.5-6.8,13.4-14.6,15.9-20.1
			c2.3-0.7,11.6-1.5,21.6,6.6l2.3,2.5L984,336C980.4,341.4,975.7,348,970.7,353.3z M975,420.8c-2.3,4-4.3,10-6.1,14.8
			c-2,5.3-9,7.8-13.9,6.8c-2.7-0.5-7.5-4.3-7.3-11.3c0-1,2-11.4,0.7-11.6s-4,5.3-4.5,6.6c-0.3,1.3-0.8,2.7-1,4.1
			c-2.5-1.7-5-2.7-8.3-3c-2-7.5,0.5-15.4,2.5-19.4c0.8-1,2-2.2,3.2-3.3c1.8-1.2,3.7-2.7,5.6-4.1c3.5-2.2,5.6-2.7,6.8-2.8
			c-0.2,1.2-0.5,2.7-0.8,4.3c-0.3,1.3-3.3,9.5-2,9.8c1.3,0.3,7.3-17.4,9.1-20.2l0.2-0.2c1.7-2.7,7.1-5.8,12.4-4.6
			s10.1,5.1,11.3,13.9C983.7,406.9,979,413.9,975,420.8z M985.8,319c-6.3-4.5-11.9-5.8-15.9-6c4.5-7.8,9.8-17.4,13.6-24.7
			c2.5,1.7,6.1,3.2,10.5,4.6C993.3,295.9,991.8,305.2,985.8,319z M962.3,289.1c-12.4,6-20.4,2-23.9-0.7c2.7-1.7,9.6-5.8,13.9-7.8
			c11.3-5,15.1-9.3,18.3-11.9C971.7,274.5,971.1,284.9,962.3,289.1z M935.4,284.9c-8-0.7-15.9,0.2-23.1,1.7c0.3-0.3,0.8-0.5,1.2-0.8
			c5.6-4.1,10.6-9,14.1-13.9c6.8,3.7,13.3,6,19.6,7.3C942.9,281.1,937.9,283.4,935.4,284.9z M872.7,303c1.3-1.3,2.7-2.8,3.7-4.1
			l1.8,2.7l-6.5,8.3l-3,0.3l-1.7-2.5C868.9,306.7,870.9,305,872.7,303z M849.1,320.8c2.5-0.5,6-1.2,9.8-2.5c4.1-1.3,8-2.3,11.1-3.2
			c-2.3,3.8-4.3,7.8-5.5,11.8C856.6,328.1,851.6,323.8,849.1,320.8z M867.7,338.9c-0.8-13.3,7-32.9,25.7-42.5
			c9-4.6,24.7-9.6,39.8-8.8c0,0.2-0.2,0.3-0.2,0.7c0,1.2,0.3,2.2,1.2,3c2.3,2.2,7.1,4.6,14.9,4.6c2.3,0,4.5-0.2,6.8-0.7
			c5,3.7,9.3,9,11.9,13.9c-1,1.5-1.8,3-2.8,4.3c-1.2,0.2-1.8,0.5-1.8,0.5l-0.7,0.3l-0.3,0.7c-2.2,5.1-7.5,11.6-14.9,18.3
			c-5.8,5.3-16.4,12.6-16.4,12.6s-1,5.8-13.6,11.1c-6.1,2.5-10.6,1.5-12.4,0.8c2.5-0.5,4.6-1.2,6.3-1.7c1.3-0.5,3-1.5,3.8-2
			c0,0-13.6,3.7-19.7,4c-6.8,0.3-14.9-1.7-14.9-1.7C870.7,352.8,868,344.8,867.7,338.9z M827,420.5c3.5-4.1,12.3-5.1,15.9-3.5
			c12.1,5.5,26.9,20.2,26.2,19.1c-3-4.8-7.1-9.6-11.4-13.6c0.5-2.3,1.5-4.5,2.7-6c4.3-5.5,8.1-6.5,11-7.1l0,0c1.7-0.3,5.5-1,9-0.5
			c1.7,0.2,3.3,0.5,4.6,0.8c1.8,1,3.7,2.2,5.6,3.7c4.1,3.3,6.5,6.1,8.3,10.1c1,2.2,2,4.3,3.3,6.1c-14.3,4.3-22.2,12.4-26.4,17.4
			c-0.2-0.5-0.3-1-0.5-1.3c-0.5-1.2-3.7-4.6-3.7-4.6c-1.2,0.5,4.5,13.6-4.8,20.4c-4.6,3.5-10.6,2-15.6-3.3
			c-4.6-5.1-8.6-9.5-12.1-12.1c-4.1-3.3-9-6.6-11.8-11.4C825.4,430.6,823.4,424.8,827,420.5z M859.2,517.2
			c-22.9-10-40.3-49.8-41.6-70.5c-0.3-6.6,1.2-12.3,4.3-16.6c0.7,2.3,1.7,5,3.3,7.6c3.2,5.5,7,8.5,11.4,11.8
			c3.3,2.7,7.1,5.6,11.6,10.5c4.5,4.8,9.1,6.6,13.4,6.6c3.2,0,6.1-1,8.3-2.5c0.7-0.5,1.3-1,1.8-1.5l0.7,1.5c1.3,3.2,2.7,6.3,3.8,9.3
			c4,9.8,8.6,17.6,9.3,23.9C886.6,506.3,883.6,527.8,859.2,517.2z M890.1,491.5c-2.3-5.1-6.1-12.3-8.8-19.6
			c-1.2-3.2-3.8-10-5.6-14.6c0.5-1,0.7-2,1-3.2v0.2c0.2-0.2,6.6-14.8,29.4-21.4c2,0.8,5,1.3,8.3,1.3c2,0,4.1-0.2,6.1-0.3
			c2.8,8,2.7,30.9-1.5,50.3C903.9,485.5,894.6,489.4,890.1,491.5z M899.7,539.1c-7.3,1.5-11-2.2-11.9-4.5
			c-1.5-3.3-3.3-10.3,12.9-14.1c23.2-5.3,28.4-66,23.9-87.3c2.7-0.5,5.1-1,7-1.5C933.4,450.7,939.7,530.5,899.7,539.1z M936.7,483.7
			c2.2-23.9-0.8-46.8-1.5-51.9c3.2,1,6,2.7,8,4.8c0.2,0.2,0.3,0.3,0.5,0.5c1.5,3.8,4.3,6.5,8.3,7.8c-0.3,6.6,1,12.9,1.2,21.4
			c0.2,5.3,0.3,10.5,0,14.9c0,1-0.2,2.3-0.3,3.7C947.2,484.2,941.9,483.7,936.7,483.7z M961.1,540.5c-4.6-1-7.8-2.8-9.5-5.5
			c-3.8-6.1-1-17.8,1.7-29c1.8-7.3,3.7-14.8,4-21.7c0.3-5.3,0.2-11.3,0-16.9c-0.3-9.3-0.3-15.6,0.5-21.9c6.1-0.3,12.8-3.7,15.1-10
			c1.7-4.3,4-8.3,6.1-12.3c0-0.2,0.2-0.2,0.2-0.3c13.4,4.6,25.4,34.7,26.4,49.1c1.8,22.1-2.2,33.8-9.8,47.6
			c-0.2,0.2-0.2,0.5-0.3,0.7C995.1,521.2,985.2,545.4,961.1,540.5z M1010.6,408.7c3.7-1.5,10.1-3.3,12.6-3.8
			c3,0.5-2.3,13.6-12.9,17.6c-7.6,2.8-17.4-4.8-20.6-8.8C993,413.4,1000.6,412.5,1010.6,408.7z M1005.4,426c1.7,0,3.5-0.3,5.3-1
			c13.9-5.1,15.4-15.4,15.4-19.7l0,0c0-1-0.5-1.8-1.2-2.5c-0.8-0.7-1.7-0.8-2.7-0.7c-1.5,0.3-4,0.8-6.8,1.7c2.5-2.3,4.6-3.8,5.5-4.5
			c13.1-9.3,39.3-10.3,53.8,5.5c4,4.3,8.6,12.9,8.3,19.2c-0.5,10-7,15.1-13.8,18.3c-10.1,4.5-20.2,5.6-42.1,0.3l-6.5-2.8
			c-3-1.2-3.5-2.2-3.7-2.3c-1-0.5-4-0.3-4.5,0.7s3.3,1.8,4.5,2.3c0.2,0.2,18.1,9,18.7,21.7c0.2,1.5-0.8,4.3-3.2,5
			c-2.3,0.5-5.8,0.8-10.3-4c-4-4.5-10.6-7.8-14.4-8.5c-2.5-8.1-6.1-16.8-11.1-23.7c0.5-2.2,1.3-4.3,2.3-6.5
			C1000.8,425.5,1002.9,426,1005.4,426z M1086.1,419.8l1-0.3c1.2-0.2,3-0.2,5.8,0.3c3.8,0.7,5.8,1.5,7,3c1.7,2.3,1,3.8,0.7,4.3
			c-0.5,1-2,1.7-2.5,1.8c-2.8,0.7-5.5,0.7-8.1,0.7c-1.2,0-2.2,0-3.3,0h-1c0.2-0.8,0.5-1.7,0.7-2.5
			C1086.7,424.8,1086.5,422.3,1086.1,419.8z M1078.4,402.9c1.2,0.2,2.3,0.2,3.5,0.3c4.8,0.3,9.3-0.3,11.3-0.7c-2,4.1-5.5,7-10.1,8.3
			C1081.7,407.9,1080.1,404.9,1078.4,402.9z M1022.2,545.6l-4.6-6.8c4.1-0.7,8.6-1.7,13.3-2.8
			C1028.1,539.3,1025.2,542.6,1022.2,545.6z M1013.5,554.1c-4.1-5.3-7.3-10.5-9.1-13.8c2.8-0.2,6-0.3,9.3-0.8h0.7l5.8,8.6
			c-1.5,1.5-3,3-4.6,4.3L1013.5,554.1z M1066.3,576.3c3.7-0.7,6.6-0.3,8.1,1.3c0.8,1,1.3,2.2,1.2,3.7c-0.7,3.3-5.1,5.8-10.6,6.3
			c-19.7,1.8-30.2-7.5-33-10.8l6.8-6C1043.7,575.6,1054.2,578.6,1066.3,576.3z M945.5,615.5c-33.5,8-70-6-91.4-23.4
			c-11.8-9.6-18.7-20.1-18.4-28c0.3-9,4.3-14.8,11.4-16.6c10.6-2.7,26.9,3.8,37.5,21.7c9.5,15.9,23.7,24.2,46.3,23.9
			c38.5-0.7,81.8-24.7,107.5-59.6c9.5-3,19.7-7.3,30.2-13.3C1048.4,566,999.9,602.5,945.5,615.5z M1077.1,510.1
			c-35.5,24.4-70.4,25.6-85.1,24.7c4.6-4.6,8-10,9.6-14.3c4.6-11.4,11.4-23.7,9.6-46.6c-0.3-3.8-1.2-9.6-3-15.9c2.8,1,7,3,10,6.3
			c4.1,4.6,8.5,6.3,11.9,6.3c1.3,0,2.5-0.2,3.5-0.7c3-1.3,4.8-4.1,4.6-7.5c-0.3-6.5-3.8-11.9-7.8-16.3c19.9,5.8,35,3.5,44.3-2.5
			c4-2.5,6.8-5.8,8.8-10l1.3-0.2h1.2c1.2,0,2.3,0,3.5,0c2.8,0,6,0.2,9.3-0.7c1.8-0.5,3.5-2,4.5-4.1c1-2.3,1.2-4.8,0-6.8
			c-1.8-3.8-6.6-4.6-10-5.1c-2.7-0.5-4.8-0.5-6.3-0.5l-2,0.2c-0.2-0.8-0.5-1.7-0.8-2.5c5.6-2.5,9.3-7.3,11.4-10.6
			c1.3-2.2,1.5-2.8,0.7-3.5c0,0-8.6,1-13.6,0.7c-2.2-0.2-5.5-1.3-8.3-1.5v0.2c-7.1-6.1-16.8-9.5-27.5-9.5c-0.2,0-0.3,0-0.5,0
			c-10.6,0-21.6,3.2-29.2,8.5c-1.5,1.2-5.8,4.3-10.5,8.8c-9.3,3.2-15.9,3.3-17.3,3.3l-1.8,0.3c-1.2,0-1.7,1-1.7,1
			c-0.5,1,1.5,3.5,2.2,4.5c1.3,2.2,3.7,4.6,6.8,6.8c-0.7,1.5-1.3,2.8-1.8,4.3c-3.5-3.7-7.3-6.5-11.9-7.8c3.3-6,6-11.9,5-18.7
			c-1.8-12.8-6.6-19.1-10.8-21.1c0-3.3,0-7-0.2-10.3c-0.3-6.5-1.2-12.1-1.5-14.4c4.1-4.5,8-10,11-14.8c12.9,4.6,24.6,8.3,34.5,11
			l-0.3,1.3c-0.3,1.5,0.7,3,2,3.3l11.8,2.7c0.2,0,0.3,0,0.7,0c1.3,0,2.3-0.8,2.7-2.2l0.3-1.3c0,0.8,0.2,1.7,0.3,2.5l11.1,23.7
			c20.4,11,62.1,14.1,77.8,15.1C1122.1,443.1,1108,488.9,1077.1,510.1z M1038.4,338.9l-4,17.4c-0.2,0.5-0.5,0.8-1,0.8h-0.2
			l-11.8-2.7c-0.5-0.2-0.8-0.7-0.8-1.2l4-17.4c0.2-0.5,0.5-0.8,1-0.8h0.2l11.8,2.7C1038.3,337.7,1038.6,338.4,1038.4,338.9z
			 M1057.5,346.3l-0.5,3.7l0,0l4.8,10.3c0,0,1,6.8-4.3,7c-5.3,0.2-6.5-5.3-6.5-5.3l1.8-13.9h0.2l0.3-2.3l2.3,0.3v-0.2l0.8,0.2l0,0
			L1057.5,346.3z M1057.7,348.8l0.5-2.5l1.7,0.3l-0.5,2.5L1057.7,348.8z M1061,349.5l0.5-2.5l1.7,0.3l-0.5,2.5L1061,349.5z
			 M1064.1,350.1l0.5-2.5l1.7,0.3l-0.3,2.5L1064.1,350.1z M1067.5,350.6l0.3-2.5l1.7,0.3l-0.3,2.5L1067.5,350.6z M1070.8,351.1
			l0.3-2.5l1.7,0.3l-0.3,2.5L1070.8,351.1z M1074.1,351.6l0.3-2.5l1.7,0.2l-0.3,2.5L1074.1,351.6z M1077.4,352.1l0.3-2.5l1.7,0.2
			l-0.3,2.5L1077.4,352.1z M1080.7,352.6l0.3-2.5l1.7,0.2l-0.3,2.5L1080.7,352.6z M1084.2,353l0.3-2.5l1.7,0.2l-0.3,2.5L1084.2,353z
			 M1087.5,353.5l0.3-2.5l1.7,0.2l-0.3,2.5L1087.5,353.5z M1090.9,353.8l0.3-2.5l1.7,0.2l-0.3,2.5L1090.9,353.8z M1094.2,354.1
			l0.3-2.5l1.7,0.2l-0.3,2.5L1094.2,354.1z M1097.5,354.5l0.2-2.5l1.7,0.2l-0.2,2.5L1097.5,354.5z M1100.8,354.6l0.2-2.5l1.7,0.2
			l-0.2,2.5L1100.8,354.6z M1104.1,355l0.2-2.5l1.7,0.2l-0.2,2.5L1104.1,355z M1107.6,355.1l0.2-2.5h1.7l-0.2,2.5
			C1108.6,355.1,1108.1,355.1,1107.6,355.1z M1138.2,351.1l0.5,2.5c-0.3,0-0.5,0.2-0.8,0.2l-0.5-2.5L1138.2,351.1z M1135.8,351.6
			l0.5,2.5c-0.5,0.2-1.2,0.2-1.7,0.3l-0.3-2.5C1134.7,351.8,1135.2,351.8,1135.8,351.6z M1110.9,355.3l0.2-2.5c0.5,0,1.2,0,1.7,0
			v2.5C1112.1,355.3,1111.4,355.3,1110.9,355.3z M1114.3,355.5V353c0.5,0,1.2,0,1.7,0v2.5C1115.4,355.5,1114.8,355.5,1114.3,355.5z
			 M1117.6,355.5V353h0.8h0.8v2.5h-0.8H1117.6z M1120.9,353c0.5,0,1.2,0,1.7,0v2.5c-0.5,0-1.2,0-1.7,0V353z M1129.5,355
			c-0.5,0-1.2,0.2-1.7,0.2l-0.2-2.5c0.5,0,1.2,0,1.7-0.2L1129.5,355z M1125.9,352.8l0.2,2.5c-0.5,0-1.2,0-1.7,0l-0.2-2.5
			C1124.9,352.8,1125.4,352.8,1125.9,352.8z M1132.5,352.1l0.3,2.5c-0.5,0-1.2,0.2-1.7,0.2l-0.3-2.5
			C1131.5,352.3,1132,352.3,1132.5,352.1z M1114.6,285.8c4.6,13.1,8.3,30.9,10.3,50.6l-69.2-7.1l-15.4,10.1c0.3-1.5-0.7-3-2-3.3
			l-11.8-2.7c-0.2,0-0.3,0-0.7,0c-1.3,0-2.3,0.8-2.7,2.2l-0.2,0.3c-14.1-4.1-26-8.5-31.4-10.6l-2.2-2.7c5.6-12.8,7.1-23.2,8-28.4
			c5,1.5,10.3,2.8,14.9,4c16.4,4.1,21.6,10,32.7,15.4c4.1,2,8.8,3.2,4.8-0.5c-8.6-7.6-22.7-16.3-36.8-20.4
			c-9.1-2.7-21.4-5.3-26.2-8.6c-6.3-4.5-10-11-9.1-16.1c0.8-5,6.1-9.6,15.3-11.4c52.1-10.6,79.1,25.4,80,23.6c0.3-0.7-2-3.5-3.2-5.1
			c-15.8-20.1-51.9-30.5-77.2-23.4c-15.1,4.3-17.9,9.3-18.9,15.1v0.2c-0.5-1.3-1.3-3.2-2.3-3.3c-1.3-0.3-2.8,1.7-3.8,2.7
			c-1.7,1.7-4,4.6-11.9,8.8c-8.6-0.2-17.3-2.3-26.5-8c-0.8-0.5-2-0.7-3-0.5c-1,0.3-1.8,0.8-2.3,1.8c-8.8,15.9-32.4,26.7-44.1,23.6
			l-0.8,2.5l0,0c1.2-3,1.5-6.3,0.7-10.3c-1.2-5.6-2.5-7.8-7.1-9.6c-0.5-0.2-1-0.3-1.7-0.5c-0.2-7.1,2.7-15.4,6.6-21.9
			c13.4-22.4,34.8-39.3,59.9-49.8l1.2-0.7c2.3,4.8,6.6,11.3,12.9,11.3c0.7,0,1.3,0,2.2-0.3c0.3-0.2,0.7-0.2,1-0.5
			c0.7,2.5,2.7,4.3,5.5,5.5c2.7,1.2,6.1,1.7,10.1,1.7c5.5,0,11.6-1.2,16.6-3.2c5.1-2.2,8.5-5,9.8-8.5c0.5-1.2,0.8-1.7,1-2.2
			c3.2-0.2,7-1.2,10.6-4c4.6-3.8,9.1-6.1,12.8-7.8c3.8,0.8,7.3,1.7,10.8,2.8l21.1,9.3c2.7,1.7,5.3,3.5,8.1,5.6
			c-2.8,0.5-4.8,2-5.5,4.1c-0.5,1.5-2.3,6.3,10.1,16.4l0.8,0.8c11.8,10.1,23.1,16.4,33,20.4C1105.3,263.4,1110.4,274.2,1114.6,285.8
			z M1178.1,228.7c-9.5,17.6-25.6,23.6-44.5,26c-21.9,2.8-54.9-14.8-70.4-30.7c0,0-6.5-7.1,1.2-7.5c12.4-0.5,42.3,2.5,51.6,2.5
			c8.1,0,34.2-1.7,39.7-2.3C1179,214.1,1182.3,221.1,1178.1,228.7z"/>
		<path class="st21" d="M936.4,243.6c-7.5,0.8-12.6,2.5-15.9,5c-6,4.5-4.1,10,2.5,10.8c6.6,0.8,7.1,1.3,13.4-3.3
			C943,251.1,943.9,242.8,936.4,243.6z"/>
		<path class="st21" d="M895.6,244.5c-4.1,0-7.5,3.3-7.5,7.5s3.3,7.5,7.5,7.5c4.1,0,7.5-3.3,7.5-7.5S899.6,244.5,895.6,244.5z"/>
		<path class="st21" d="M966.4,184.2c2.8,1,3,1.3,6.1-0.2c3.5-1.5,4.5-5.6,1.2-6.1c-3.3-0.3-5.8-0.2-7.5,0.7
			C963.1,180.1,963.6,183.2,966.4,184.2z"/>
		<path class="st21" d="M952.5,179.6c1.8,0,3.5-1.5,3.5-3.3s-1.5-3.5-3.3-3.5c-1.8,0-3.5,1.5-3.5,3.3
			C949.2,178.1,950.7,179.6,952.5,179.6z"/>
		<path class="st21" d="M991.3,174.8c1.8,0,3.5-1.5,3.5-3.3c0-1.8-1.5-3.5-3.3-3.5c-1.8,0-3.5,1.5-3.5,3.3
			C988,173.3,989.5,174.8,991.3,174.8z"/>
		<path class="st21" d="M1050,425.8c-1,0.5-0.5,2.2,1.3,2.5c0.2,0,2.5,0.5,3.7,0.5c5.8-0.2,7.5-2.2,9.8-5.8c1.5,2.3,4.1,4,7.3,2.5
			c1.2-0.5,2-2.2,1.8-2.8c-0.3-0.7-1,0.2-1.7,0.5c-3.5,1.5-6.5-2.2-6.6-2.3c-0.2-0.3-0.5-0.5-1-0.5c-0.3,0-0.8,0.2-1,0.5
			c-4.1,6.1-11.1,5.1-11.4,5.1C1051,426,1050.7,425.5,1050,425.8z"/>
		<path class="st21" d="M1042.7,414.4c0.2,0,1.2,0.7,3,0.7c0.5,0,2.2-0.2,2.7-0.3c2.5-0.5,4.1-2.8,4.1-4c0-0.7-0.5-0.8-1.2-0.3
			c-0.8,0.5-2.7,1.8-4.3,2c-2.5,0.3-3.7,0.2-4,0C1041.9,412.4,1041.8,413.9,1042.7,414.4z"/>
		<path class="st21" d="M1072.4,413c2.2,0,2.8-1.2,3.3-2.2c0.3-0.7,0-0.8-0.7-0.7c-0.8,0.3-2,0.7-3.2,0.3c-1.8-0.3-2.7-0.8-2.8-1
			c-0.8-0.5-1.5,1-0.8,1.7C1068.5,411.2,1069.8,413,1072.4,413z"/>
		<path class="st21" d="M1062.3,418.5c1.5,0.3,2,0.2,3.3-1.5c1.3-1.7,1.3-2.8-1.2-3.3c-1.3-0.3-3.2-0.3-5.5,0.7
			C1056.8,415.2,1059.5,417.8,1062.3,418.5z"/>
		<path class="st21" d="M975.9,232.3c0.3-2,8.5-5.1,7.1-6.6c-0.8-1-3.5-1.8-7.1-0.2c-2,1-12.4,10-12.9,11.6
			c-1.8,5.6,12.4,1.3,16.9-0.5c3.2-1.3,6-2.8,7-5.6C987.5,229.7,975.7,234,975.9,232.3z"/>
		<path class="st21" d="M902.4,323.9c3.8,0.5,4.1,0.7,7.6-1.8c3.8-2.8,4.3-7.6,0-7.1c-4.3,0.5-7.1,1.5-9.1,2.8
			C897.4,320.3,898.6,323.4,902.4,323.9z"/>
		<path class="st21" d="M928.1,307.2c2-1.2,2.3-1.8,2.8-3.8c0.2-1-7.1,2-7.1,1c0-1.3,5-3.2,4-4.1c-0.7-0.5-3.8,0.8-6.1,2.7
			c-1.2,1-2.2,1.5-2.3,2.7C918.5,309.3,925.3,308.7,928.1,307.2z"/>
		<path class="st21" d="M889.8,317.3c0.7,0.7-6,3.5-5.1,4.3c1,1.2,2.3,1.2,4.3,0.5c3-1,8.3-7.5,4.5-7.3c-3.5,0.2-9.6,0.5-9.8,3.2
			C883.6,319.3,888.9,316.5,889.8,317.3z"/>
		<path class="st21" d="M887.4,334.9c-0.3,0.8,0,1.7,0.8,2c1.5,0.7,2.8,1,4.3,1c2.5,0,4.8-1,7-2.3c1.2,0.8,3.2,2,6,2
			c0.2,0,0.3,0,0.3,0c4.3-0.2,8.6-3,12.9-8.3c6.1-0.5,12.6-2.8,16.1-9.5c0.3-0.7,1.3-2.8,0.5-3.3c-0.3-0.2-5.3,6.6-12.4,8.6
			c-7.1,2.2-17.1,0.2-17.3,0.2c-0.7-0.2-1.3,0.2-1.7,0.7c0,0-3,5.6-7.6,8.1C893.3,335.7,887.6,334.5,887.4,334.9z M906.2,328.2
			c1.7,0.3,4.8,0.8,8.5,1c-3.2,3.3-6.1,5.1-9,5.1c-1.7,0-2.8-0.3-3.7-0.8h-0.2C903.7,331.9,905,329.9,906.2,328.2z"/>
		<polygon class="st21" points="1054,351.5 1053.4,358.3 1058.5,358.4 1055.9,351.1 		"/>
		<polygon class="st21" points="1055.2,348.5 1056,348.7 1056.4,346.2 1055.7,346 		"/>
		<path class="st21" d="M1035.3,339.2l-7.3-1.8h-0.2c-0.5,0-0.8,0.3-1,0.8l-3.2,13.6c-0.2,0.5,0.2,1.2,0.8,1.2l7.3,1.8h0.2
			c0.5,0,0.8-0.3,1-0.8l3.2-13.6C1036.3,339.9,1035.9,339.2,1035.3,339.2z"/>
	</g>
</g>
<path class="st26" d="M1120.9,355c-0.3-1-0.8-2-1.3-2.8c-0.5-0.8-1.2-1.8-1.8-2.5c-0.7-0.8-1.5-1.5-2.3-2.2
	c-0.8-0.7-1.7-1.2-2.7-1.7c-2-1-4-1.7-6.1-1.8s-4.3,0.2-6.5,0.8c-1,0.3-2,0.8-2.8,1.3s-1.8,1.2-2.5,1.8c-0.7,0.7-1.5,1.5-2.2,2.3
	c-0.7,0.8-1.2,1.7-1.7,2.7c-1,2-1.7,4-1.8,6.1c-0.2,2.2,0.2,4.3,0.8,6.5c0.3,1,0.8,2,1.3,2.8c0.5,0.8,1.2,1.8,1.8,2.5
	c0.7,0.8,1.5,1.5,2.3,2.2c0.8,0.7,1.7,1.2,2.7,1.7c2,1,4,1.7,6.1,1.8c2.2,0.2,4.3-0.2,6.5-0.8c1-0.3,2-0.8,2.8-1.3s1.8-1.2,2.5-1.8
	c0.8-0.7,1.5-1.5,2.2-2.3s1.2-1.7,1.7-2.7c1-2,1.7-4,1.8-6.1C1121.9,359.1,1121.6,356.9,1120.9,355z M1091.2,359.1
	c0.2-2.2,0.8-4,1.7-5.8l5.5,19.2C1093.7,369.9,1090.7,364.7,1091.2,359.1z M1104.5,374.5c-1.5-0.2-2.8-0.3-4-0.8l5.3-12.3l3.5,12.4
	c0,0,0,0.2,0.2,0.2C1107.8,374.5,1106.1,374.7,1104.5,374.5z M1108,353.5c0.8,0,1.7,0,1.7,0c0.8,0,0.8-1.2,0-1.2c0,0-2.3,0-3.8-0.2
	s-3.8-0.5-3.8-0.5c-0.8-0.2-1,1-0.2,1.2c0,0,0.7,0.2,1.5,0.3l1.8,6.3l-3.8,9.1l-4.1-15.9c0.8,0,1.7,0,1.7,0c0.8,0,0.8-1.2,0-1.2
	c0,0-2.3,0-3.8-0.2c-0.3,0-0.7,0-1-0.2c2.8-3.7,7.5-6,12.4-5.6c3.8,0.3,7,2,9.5,4.5h-0.2c-1.5-0.2-2.5,1-2.7,2.3
	c-0.2,1.2,0.5,2.2,1.2,3.5c0.5,1,1,2.3,0.8,4c-0.2,1.2-0.7,2.7-1.3,4.6l-1.8,4.6L1108,353.5z M1119.9,361.3
	c-0.3,5.3-3.7,9.8-8.1,11.9l5.3-12.4c1-2,1.3-3.7,1.5-5.1c0-0.5,0-1,0-1.5C1119.6,356.3,1120.1,358.8,1119.9,361.3z"/>
</svg>
